<svg width="259" height="18" viewBox="0 0 259 18" fill="none" xmlns="http://www.w3.org/2000/svg">
<path d="M11.4663 12.5404C11.3792 13.258 11.1834 13.9582 10.8858 14.617C10.6127 15.2176 10.2306 15.7625 9.75891 16.2238C9.2804 16.6841 8.71516 17.0446 8.09605 17.2844C7.46405 17.5301 6.75662 17.6524 5.97605 17.6524C5.35463 17.66 4.73616 17.5658 4.14519 17.3735C3.60234 17.1793 3.11891 16.9164 2.69377 16.5804C2.26302 16.2462 1.88673 15.8471 1.57834 15.3975C1.27319 14.9438 1.02062 14.449 0.819479 13.913C0.611479 13.3781 0.453765 12.8158 0.350907 12.2284C0.253813 11.6378 0.201473 11.0406 0.194336 10.4421V8.17697C0.201473 7.57845 0.253813 6.98133 0.350907 6.39069C0.453765 5.80326 0.611479 5.24212 0.819479 4.70612C1.02062 4.17012 1.27319 3.67526 1.57834 3.22155C1.89034 2.75983 2.26291 2.36212 2.69377 2.02726C3.11891 1.6924 3.60234 1.43297 4.14519 1.24554C4.68805 1.0524 5.29948 0.956402 5.97605 0.956402C6.78748 0.956402 7.51205 1.08212 8.15205 1.33583C8.76937 1.56715 9.33178 1.92444 9.80348 2.38497C10.2652 2.84555 10.6332 3.3964 10.9086 4.0364C11.1909 4.6764 11.3772 5.38269 11.4663 6.1564H9.40234C9.33491 5.66497 9.21948 5.20783 9.05605 4.78497C8.9025 4.37768 8.6798 3.99995 8.39777 3.6684C8.12234 3.3484 7.78405 3.09926 7.38177 2.91983C6.98748 2.73469 6.51891 2.64097 5.97605 2.64097C5.48462 2.64097 5.04919 2.72326 4.66976 2.88669C4.30922 3.035 3.9826 3.25508 3.70976 3.53354C3.43548 3.80897 3.20348 4.12897 3.01834 4.49354C2.83679 4.86595 2.69099 5.25474 2.58291 5.65469C2.47042 6.06795 2.3883 6.48888 2.33719 6.91412C2.29148 7.33926 2.26976 7.75183 2.26976 8.15297V10.4421C2.26976 10.8444 2.29262 11.2604 2.33719 11.6924C2.38862 12.1164 2.47091 12.5335 2.58291 12.9427C2.69377 13.3587 2.83891 13.7495 3.01719 14.1141C3.19662 14.4798 3.42291 14.7998 3.69834 15.0741C3.97377 15.3564 4.29719 15.5804 4.66976 15.7438C5.08524 15.9081 5.52936 15.9878 5.97605 15.9781C6.51891 15.9781 6.98748 15.8924 7.38177 15.721C7.78405 15.5495 8.12234 15.3095 8.39777 14.9964C8.67205 14.6913 8.89262 14.3301 9.05605 13.913C9.21948 13.4901 9.33491 13.0318 9.40234 12.5415L11.4663 12.5404ZM23.6092 9.91755H16.8241V15.6775H24.7372V17.4284H14.7601V1.17697H24.6366V2.94383H16.8241V8.16669H23.6092V9.91755ZM38.5761 17.4295H36.4778L30.1715 5.28669L30.1383 17.4284H28.0515V1.17697H30.1498L36.4549 13.2981L36.4892 1.17812H38.5761V17.4295ZM53.0858 2.94269H48.0629V17.4284H46.0538V2.94269H41.0309V1.17926H53.0846L53.0858 2.94269ZM61.2321 10.7998H57.9841V17.4284H55.9303V1.1804H60.6961C61.4217 1.19015 62.1427 1.29896 62.8389 1.50383C63.5086 1.70497 64.0961 2.00669 64.6023 2.40783C65.1059 2.81568 65.5074 3.33535 65.7749 3.92554C66.0652 4.52897 66.2092 5.23983 66.2092 6.05697C66.2092 6.58612 66.1315 7.06955 65.9761 7.5084C65.8326 7.93723 65.6215 8.34039 65.3509 8.70269C65.0788 9.06394 64.7554 9.38351 64.3909 9.65126C64.0099 9.93163 63.5981 10.1674 63.1635 10.3541L66.6115 17.2958L66.6001 17.4307H64.4241L61.2321 10.7998ZM57.9841 9.10269H60.7521C61.2138 9.09583 61.6492 9.02497 62.0583 8.89126C62.4675 8.74955 62.8286 8.5484 63.1406 8.28897C63.4467 8.02744 63.694 7.70419 63.8663 7.3404C64.0446 6.95983 64.1338 6.52555 64.1338 6.03412C64.1338 5.51297 64.0481 5.05926 63.8778 4.67297C63.7169 4.29235 63.4729 3.9526 63.1635 3.67869C62.8583 3.41926 62.4938 3.22155 62.0698 3.08783C61.625 2.94923 61.162 2.87759 60.6961 2.87526H57.9841V9.10269ZM77.3372 13.2215H71.9132L70.6069 17.4295H68.5429L73.7886 1.17812H75.5178L80.6743 17.4295H78.6206L77.3372 13.2215ZM72.4709 11.425H76.7909L74.6458 4.37126L72.4709 11.425ZM85.6401 15.6753H93.5875V17.4284H83.5761V1.17697H85.6412V15.6775L85.6401 15.6753ZM118.52 13.2204H113.096L111.79 17.4284H109.726L114.971 1.17697H116.701L121.857 17.4284H119.804L118.52 13.2204ZM113.654 11.4238H117.974L115.831 4.37012L113.654 11.4238ZM124.492 1.17697H134.312V2.97697H130.417V15.6433H134.312V17.4295H124.492V15.6433H128.297V2.97583H124.492V1.17926V1.17697ZM154.2 10.9107V17.4295H152.135V1.17697H157.404C158.105 1.18778 158.801 1.30492 159.467 1.5244C160.095 1.72496 160.678 2.04299 161.186 2.46154C161.678 2.87069 162.064 3.37583 162.348 3.97926C162.638 4.58154 162.782 5.27412 162.782 6.05469C162.782 6.8364 162.638 7.52897 162.348 8.13126C162.075 8.71233 161.679 9.22654 161.186 9.63755C160.678 10.0561 160.095 10.3741 159.467 10.5747C158.801 10.7935 158.105 10.9065 157.404 10.9095L154.2 10.9107ZM154.2 9.21469H157.404C157.879 9.20783 158.318 9.13355 158.72 8.99183C159.121 8.84326 159.471 8.63412 159.769 8.36669C160.066 8.09926 160.297 7.77469 160.461 7.39526C160.632 7.00897 160.718 6.57012 160.718 6.07869C160.718 5.58726 160.632 5.14497 160.461 4.75069C160.308 4.37155 160.076 4.02917 159.781 3.74612C159.484 3.47183 159.129 3.25926 158.72 3.10955C158.318 2.96097 157.879 2.88326 157.404 2.87526H154.2V9.21469ZM168.006 15.6764H175.952V17.4295H165.941V1.17697H168.006V15.6764ZM187.158 13.2215H181.734L180.428 17.4295H178.362L183.608 1.17812H185.338L190.495 17.4295H188.441L187.158 13.2215ZM182.292 11.425H186.612L184.467 4.37126L182.292 11.425ZM204.089 2.94269H199.066V17.4284H197.057V2.94269H192.034V1.17926H204.088V2.94269H204.089ZM215.897 10.2524H209.133V17.4295H207.046V1.17697H217.023V2.94383H209.133V8.5004H215.896V10.2524H215.897ZM231.156 10.2398C231.147 10.8311 231.095 11.4209 230.999 12.0044C230.911 12.5856 230.769 13.1572 230.575 13.7118C230.386 14.2522 230.136 14.7688 229.828 15.2513C229.536 15.7203 229.175 16.1419 228.756 16.5015C228.328 16.865 227.841 17.1519 227.316 17.3495C226.736 17.5581 226.123 17.6603 225.508 17.6513C224.838 17.6513 224.232 17.5507 223.689 17.3495C223.152 17.1415 222.677 16.8581 222.261 16.5015C221.84 16.1402 221.475 15.719 221.177 15.2513C220.871 14.7641 220.62 14.2438 220.43 13.7004C220.229 13.1495 220.08 12.5804 219.984 11.993C219.888 11.4137 219.836 10.8281 219.828 10.241V8.3884C219.834 7.80897 219.882 7.22497 219.973 6.6364C220.069 6.04212 220.217 5.4684 220.418 4.91755C220.613 4.36783 220.857 3.85469 221.156 3.37812C221.461 2.89469 221.821 2.46954 222.238 2.10497C222.655 1.7484 223.13 1.46955 223.666 1.2684C224.248 1.05338 224.865 0.947607 225.486 0.956402C226.156 0.956402 226.761 1.05926 227.305 1.2684C227.848 1.46955 228.328 1.7484 228.745 2.10497C229.161 2.46269 229.518 2.88212 229.816 3.36669C230.121 3.84326 230.374 4.3564 230.575 4.90726C230.769 5.45697 230.91 6.03069 230.999 6.62497C231.096 7.2204 231.148 7.80897 231.156 8.3884V10.2421V10.2398ZM229.113 8.36555C229.105 7.97812 229.079 7.57697 229.034 7.15983C228.99 6.73697 228.916 6.31526 228.812 5.89926C228.7 5.49012 228.554 5.09926 228.377 4.72669C228.206 4.35939 227.98 4.02056 227.706 3.72212C227.421 3.42119 227.077 3.18333 226.694 3.02388C226.312 2.86443 225.9 2.78694 225.486 2.7964C225.051 2.78774 224.62 2.87556 224.224 3.05354C223.868 3.21848 223.546 3.44919 223.276 3.73355C223.002 4.03242 222.776 4.37163 222.606 4.73926C222.426 5.1144 222.285 5.50642 222.183 5.90954C222.071 6.32385 221.989 6.74545 221.936 7.17126C221.892 7.5684 221.866 7.96726 221.857 8.36669V10.2398C221.865 10.6204 221.892 11.0215 221.935 11.4455C221.988 11.8695 222.07 12.2867 222.181 12.6958C222.29 13.1061 222.436 13.5058 222.616 13.8901C222.794 14.2695 223.018 14.601 223.286 14.8844C223.554 15.1745 223.876 15.4094 224.234 15.5758C224.6 15.7473 225.023 15.8318 225.506 15.8318C225.991 15.8318 226.415 15.7461 226.78 15.5758C227.151 15.4044 227.471 15.1735 227.74 14.8833C227.999 14.601 228.215 14.273 228.386 13.9004C228.565 13.5221 228.71 13.1233 228.821 12.7073C228.926 12.2981 228.997 11.881 229.033 11.457C229.079 11.033 229.104 10.6273 229.112 10.241L229.113 8.36555ZM239.693 10.7987H236.446V17.4273H234.392V1.1804H239.158C239.883 1.19015 240.604 1.29896 241.301 1.50383C241.97 1.70497 242.558 2.00669 243.064 2.40783C243.567 2.81581 243.968 3.33547 244.236 3.92554C244.526 4.52897 244.67 5.23983 244.67 6.05697C244.67 6.58612 244.593 7.06955 244.437 7.5084C244.293 7.93723 244.082 8.3404 243.812 8.70269C243.539 9.06394 243.216 9.38351 242.852 9.65126C242.471 9.93163 242.059 10.1674 241.624 10.3541L245.073 17.2958L245.062 17.4307H242.885L239.692 10.7998L239.693 10.7987ZM236.445 9.10269H239.213C239.673 9.09583 240.109 9.02497 240.518 8.89126C240.927 8.74955 241.288 8.5484 241.6 8.28897C241.906 8.02744 242.153 7.70419 242.326 7.3404C242.504 6.95983 242.594 6.52555 242.594 6.03412C242.594 5.51297 242.509 5.05926 242.337 4.67297C242.176 4.29235 241.932 3.9526 241.623 3.67869C241.318 3.41926 240.953 3.22155 240.529 3.08783C240.085 2.94935 239.622 2.87771 239.157 2.87526H236.445V9.10269ZM250.306 1.17812L252.951 9.30383L255.808 1.17812H258.375V17.4295H256.366V10.945L256.534 4.15869L253.532 12.9095H252.349L249.592 4.39297L249.759 10.945V17.4284H247.75V1.17697L250.306 1.17812Z" fill="black"/>
</svg>
