<svg width="24" height="27" viewBox="0 0 24 27" fill="none" xmlns="http://www.w3.org/2000/svg">
<path d="M20.0984 13.612C20.0984 15.8678 19.2763 18.0312 17.8129 19.6262C16.3495 21.2213 14.3647 22.1174 12.2951 22.1174V26.3701C18.7592 26.3701 24 20.6577 24 13.612H20.0984ZM12.2951 22.1174C10.2256 22.1174 8.24078 21.2213 6.77738 19.6262C5.31398 18.0312 4.49185 15.8678 4.49185 13.612H0.59021C0.59021 20.6577 5.83109 26.3701 12.2951 26.3701V22.1174ZM4.49185 13.612C4.49185 11.3562 5.31398 9.19285 6.77738 7.59778C8.24078 6.0027 10.2256 5.1066 12.2951 5.1066V0.853897C5.83109 0.853897 0.59021 6.56634 0.59021 13.612H4.49185ZM12.2951 5.1066C14.3647 5.1066 16.3495 6.0027 17.8129 7.59778C19.2763 9.19285 20.0984 11.3562 20.0984 13.612H24C24 6.56634 18.7592 0.853897 12.2951 0.853897V5.1066Z" fill="white"/>
</svg>
