<svg width="28" height="28" viewBox="0 0 28 28" fill="none" xmlns="http://www.w3.org/2000/svg">
<path d="M23.0139 13.7143C23.0139 16.1391 22.044 18.4647 20.3176 20.1793C18.5913 21.8939 16.2498 22.8572 13.8083 22.8572V27.4286C21.434 27.4286 27.6167 21.288 27.6167 13.7143H23.0139ZM13.8083 22.8572C11.3669 22.8572 9.0254 21.8939 7.29902 20.1793C5.57265 18.4647 4.60278 16.1391 4.60278 13.7143H0C0 21.288 6.18268 27.4286 13.8083 27.4286V22.8572ZM4.60278 13.7143C4.60278 11.2895 5.57265 8.96394 7.29902 7.24932C9.0254 5.53471 11.3669 4.57145 13.8083 4.57145V1.52588e-05C6.18268 1.52588e-05 0 6.14059 0 13.7143H4.60278ZM13.8083 4.57145C16.2498 4.57145 18.5913 5.53471 20.3176 7.24932C22.044 8.96394 23.0139 11.2895 23.0139 13.7143H27.6167C27.6167 6.14059 21.434 1.52588e-05 13.8083 1.52588e-05V4.57145Z" fill="white"/>
</svg>
