<svg width="663" height="27" viewBox="0 0 663 27" fill="none" xmlns="http://www.w3.org/2000/svg">
<path d="M4.30972 21.8857L0.709717 2.02857H3.16686L5.93829 19.7714H6.13829L9.30972 6.68571H12.7383L15.9097 19.7714H16.1097L18.8811 2.02857H21.3383L17.7669 21.8857H14.2811L11.1097 8.8H10.9383L7.73829 21.8857H4.30972ZM24.1783 21.8857V5.25714H25.6926L26.0069 6.94286H26.1783L26.6069 6.62857C26.912 6.41943 27.3017 6.18057 27.7783 5.91428C28.2549 5.648 28.7589 5.40914 29.2926 5.2C29.8446 4.99086 30.3589 4.88571 30.8354 4.88571C31.1211 4.88571 31.3874 4.91429 31.6354 4.97143L32.0069 5.02857L31.8069 7.31429L31.4354 7.28571C31.2073 7.26746 30.9786 7.25793 30.7497 7.25714C30.216 7.25714 29.6731 7.33371 29.1211 7.48571C28.5874 7.63771 28.0926 7.82857 27.6354 8.05714C27.2529 8.24007 26.8892 8.46018 26.5497 8.71428V21.8857H24.1783ZM35.5931 21.8857V5.25714H37.9646V21.8857H35.5931ZM35.336 2.42857V-1.90735e-06H38.2503V2.42857H35.336ZM48.2194 22.2857C47.4011 22.2857 46.6869 22.152 46.0766 21.8857C45.4674 21.6 44.9909 21.0663 44.648 20.2857C44.3246 19.4857 44.1623 18.3051 44.1623 16.7429V8.08571H42.2766V6.6L44.248 6.2L44.8766 2.31428H46.5337V6.22857H49.848V8.14286H46.5337V16.9143C46.5337 17.9623 46.5623 18.7234 46.6194 19.2C46.6766 19.6766 46.8194 19.9806 47.048 20.1143C47.296 20.2286 47.7051 20.2857 48.2766 20.2857H49.0766C49.3051 20.2663 49.4869 20.2571 49.6194 20.2571L49.8194 20.2286V22.1429L49.3909 22.2C49.0039 22.2652 48.6117 22.2939 48.2194 22.2857ZM54.4274 21.8857V5.25714H56.7989V21.8857H54.4274ZM54.1703 2.42857V-1.90735e-06H57.0846V2.42857H54.1703ZM62.7097 21.8857V5.25714H64.3097L64.5669 6.88571H64.7097C64.8811 6.79086 65.1669 6.63771 65.5669 6.42857C65.9669 6.2 66.4423 5.97143 66.9954 5.74286C67.5474 5.49486 68.1383 5.29486 68.7669 5.14286C69.3954 4.97143 70.024 4.88571 70.6526 4.88571C71.6994 4.88571 72.4994 5.152 73.0526 5.68571C73.6046 6.2 73.976 6.90514 74.1669 7.8C74.376 8.69486 74.4812 9.70514 74.4812 10.8286V21.8857H72.1097V11.6571C72.1097 10.5337 72.0903 9.67657 72.0526 9.08571C72.0137 8.49486 71.8903 8.048 71.6811 7.74286C71.6089 7.62266 71.5137 7.51789 71.401 7.43455C71.2882 7.3512 71.1601 7.29092 71.024 7.25714C70.7383 7.18057 70.4331 7.14286 70.1097 7.14286C69.424 7.14286 68.7189 7.25714 67.9954 7.48571C67.3607 7.66923 66.74 7.8984 66.1383 8.17143C65.6046 8.4 65.2526 8.56229 65.0811 8.65714V21.8857H62.7097ZM84.2126 27C83.4514 27 82.7372 26.9623 82.0697 26.8857C81.4839 26.8229 80.9021 26.7276 80.3269 26.6C79.832 26.5051 79.4411 26.4194 79.1554 26.3429L78.7269 26.2286L79.0126 24.0857C80.1028 24.2797 81.1985 24.4417 82.2983 24.5714C83.4229 24.7234 84.5086 24.8 85.5554 24.8C86.6229 24.8 87.3372 24.7143 87.6983 24.5429C88.0606 24.3714 88.2412 24.1051 88.2412 23.7429C88.2412 23.5337 88.1943 23.3429 88.0983 23.1714C88.0034 23 87.832 22.8194 87.584 22.6286C87.3372 22.4571 86.9749 22.2571 86.4983 22.0286C86.0229 21.8 85.3943 21.5234 84.6126 21.2C83.5269 20.7429 82.7372 20.4194 82.2411 20.2286C81.7657 20.0194 81.4606 19.8857 81.3269 19.8286C81.2126 19.752 81.1554 19.6857 81.1554 19.6286C81.1554 19.6091 81.2034 19.4857 81.2983 19.2571C81.3943 19.0091 81.5177 18.7143 81.6697 18.3714C81.8229 18.0286 81.9749 17.6766 82.1269 17.3143C82.28 16.9337 82.4126 16.6091 82.5269 16.3429C81.2697 16.0949 80.2514 15.4857 79.4697 14.5143C78.7086 13.5429 78.3269 12.3623 78.3269 10.9714C78.3269 9.40914 78.632 8.19086 79.2411 7.31429C79.8254 6.45771 80.6654 5.8077 81.6412 5.45714C82.6514 5.07657 83.7372 4.88571 84.8983 4.88571C85.8802 4.89169 86.8617 4.9298 87.8412 5C88.3462 5.03451 88.851 5.07261 89.3554 5.11428C89.832 5.152 90.2126 5.18057 90.4983 5.2L90.9269 5.22857V6.74286L89.0412 7.02857C89.0412 7.00914 89.1177 7.20914 89.2697 7.62857C89.4412 8.02857 89.6034 8.53371 89.7554 9.14286C89.9269 9.73371 90.0126 10.3143 90.0126 10.8857C90.0126 11.9714 89.7749 12.9429 89.2983 13.8C88.8229 14.6377 88.1372 15.3051 87.2412 15.8C86.3463 16.2766 85.2697 16.5143 84.0126 16.5143L83.8126 17.6C83.7372 18 83.6983 18.2377 83.6983 18.3143C83.6983 18.352 83.7554 18.4091 83.8697 18.4857L84.6126 18.8C85.1736 19.0072 85.7264 19.2359 86.2697 19.4857C87.3749 19.9429 88.2229 20.3909 88.8126 20.8286C89.4034 21.2663 89.8126 21.6949 90.0412 22.1143C90.2697 22.5337 90.384 22.952 90.384 23.3714C90.384 24.1337 90.1177 24.7806 89.584 25.3143C89.0697 25.8663 88.3463 26.2857 87.4126 26.5714C86.4983 26.8571 85.432 27 84.2126 27ZM84.1554 14.4571C85.0126 14.4571 85.6983 14.352 86.2126 14.1429C86.7463 13.9337 87.1269 13.5714 87.3554 13.0571C87.6034 12.5234 87.7269 11.7806 87.7269 10.8286C87.7269 9.74286 87.6606 8.87657 87.5269 8.22857C87.3943 7.56229 87.2697 7.2 87.1554 7.14286C87.1177 7.10514 86.9554 7.07657 86.6697 7.05714C86.384 7.01943 86.0697 7 85.7269 7C85.384 6.98057 85.08 6.97143 84.8126 6.97143L84.4411 6.94286C83.5463 6.94286 82.8126 7.048 82.2411 7.25714C81.9713 7.35751 81.7239 7.51011 81.5131 7.70622C81.3022 7.90233 81.1322 8.13809 81.0126 8.4C80.7657 8.952 80.6412 9.76229 80.6412 10.8286C80.6412 12.2377 80.9086 13.2 81.4411 13.7143C81.9943 14.2091 82.8983 14.4571 84.1554 14.4571ZM107.319 22.2571C106.024 22.2571 104.881 21.9623 103.89 21.3714C102.901 20.7806 102.129 19.848 101.576 18.5714C101.024 17.2766 100.747 15.5909 100.747 13.5143C100.747 11.8194 100.929 10.4091 101.29 9.28571C101.672 8.16228 102.186 7.28572 102.833 6.65714C103.469 6.01668 104.255 5.54525 105.119 5.28571C105.995 5.01943 106.929 4.88571 107.919 4.88571C108.643 4.88571 109.376 4.93371 110.119 5.02857C110.743 5.10009 111.363 5.205 111.976 5.34286L111.69 7.34286C111.329 7.30514 110.758 7.23771 109.976 7.14286C109.195 7.02857 108.358 6.97143 107.462 6.97143C106.758 6.97143 106.158 7.02857 105.662 7.14286C105.186 7.25714 104.815 7.448 104.547 7.71428C104.186 8.11428 103.872 8.848 103.605 9.91428C103.358 10.9623 103.233 12.2194 103.233 13.6857C103.233 15.0377 103.338 16.1337 103.547 16.9714C103.758 17.7909 104.005 18.4194 104.29 18.8571C104.576 19.2766 104.833 19.5714 105.062 19.7429C105.215 19.8571 105.415 19.9623 105.662 20.0571C105.929 20.152 106.301 20.2 106.776 20.2C107.329 20.2 107.89 20.1337 108.462 20C109.033 19.8663 109.558 19.7143 110.033 19.5429C110.51 19.3714 110.89 19.2194 111.176 19.0857L111.633 18.8857L112.376 20.7429L111.747 21.1143C111.329 21.3623 110.738 21.6194 109.976 21.8857C109.215 22.1337 108.329 22.2571 107.319 22.2571ZM116.422 21.8857V5.25714H117.936L118.25 6.94286H118.422L118.85 6.62857C119.155 6.41943 119.545 6.18057 120.022 5.91428C120.498 5.648 121.002 5.40914 121.536 5.2C122.088 4.99086 122.602 4.88571 123.079 4.88571C123.365 4.88571 123.631 4.91429 123.879 4.97143L124.25 5.02857L124.05 7.31429L123.679 7.28571C123.451 7.26746 123.222 7.25793 122.993 7.25714C122.459 7.25714 121.917 7.33371 121.365 7.48571C120.831 7.63771 120.336 7.82857 119.879 8.05714C119.496 8.24007 119.133 8.46018 118.793 8.71428V21.8857H116.422ZM133.075 22.2857C131.761 22.2857 130.599 22.0091 129.59 21.4571C128.599 20.8857 127.827 19.9623 127.275 18.6857C126.723 17.3909 126.447 15.6766 126.447 13.5429C126.447 11.3143 126.733 9.57143 127.304 8.31429C127.895 7.05714 128.685 6.17143 129.675 5.65714C130.666 5.12343 131.781 4.85714 133.018 4.85714C134.256 4.85714 135.304 5.10514 136.161 5.6C137.038 6.09486 137.704 6.92343 138.161 8.08571C138.618 9.22857 138.847 10.7714 138.847 12.7143V14.5143H127.875L128.99 14.0857C128.913 15.3429 128.942 16.352 129.075 17.1143C129.227 17.8571 129.409 18.4091 129.618 18.7714C129.847 19.1337 130.038 19.3909 130.19 19.5429C130.456 19.7714 130.781 19.9429 131.161 20.0571C131.542 20.1714 132.009 20.2286 132.561 20.2286C133.113 20.2286 133.656 20.1909 134.19 20.1143C134.723 20.0194 135.218 19.9143 135.675 19.8C136.133 19.6663 136.542 19.5429 136.904 19.4286C137.266 19.2949 137.561 19.2 137.79 19.1429L138.39 21.0571C138.218 21.1337 137.885 21.2766 137.39 21.4857C136.784 21.7089 136.163 21.8903 135.533 22.0286C134.809 22.2 133.99 22.2857 133.075 22.2857ZM128.99 13.6571L127.875 12.6286L137.504 12.4286L136.418 13.4857C136.438 12.1337 136.409 10.9714 136.333 10C136.275 9.02857 136.085 8.28571 135.761 7.77143C135.627 7.56228 135.399 7.37143 135.075 7.2C134.752 7.00914 134.123 6.91428 133.19 6.91428C132.218 6.91428 131.485 7.01943 130.99 7.22857C130.513 7.43771 130.142 7.71428 129.875 8.05714C129.17 8.99086 128.875 10.8571 128.99 13.6571ZM146.741 22.2571C145.864 22.2571 145.083 22.0571 144.398 21.6571C143.731 21.2377 143.207 20.6377 142.826 19.8571C142.446 19.0571 142.255 18.0949 142.255 16.9714C142.255 15.6194 142.521 14.5623 143.055 13.8C143.607 13.0194 144.378 12.4663 145.369 12.1429C146.36 11.8194 147.512 11.6571 148.826 11.6571H151.855C151.855 10.7051 151.826 9.87657 151.769 9.17143C151.731 8.448 151.578 7.91429 151.312 7.57143C151.121 7.30514 150.855 7.13371 150.512 7.05714C150.175 6.97944 149.83 6.94109 149.483 6.94286C148.741 6.94286 148.007 7.01943 147.283 7.17143C146.626 7.29278 145.977 7.45501 145.341 7.65714C144.769 7.848 144.312 8.01943 143.969 8.17143L143.455 8.37143L142.626 6.51429L143.169 6.28571C143.531 6.11428 144.017 5.92343 144.626 5.71428C145.235 5.48571 145.912 5.29486 146.655 5.14286C147.424 4.97064 148.21 4.8844 148.998 4.88571C150.293 4.88571 151.321 5.14286 152.083 5.65714C152.846 6.152 153.389 6.85714 153.712 7.77143C154.055 8.66628 154.226 9.72343 154.226 10.9429V21.8857H152.683L152.341 20.1429H152.169C151.894 20.3347 151.618 20.5252 151.341 20.7143C150.998 20.9429 150.589 21.1806 150.112 21.4286C149.655 21.6571 149.141 21.848 148.569 22C147.975 22.1746 147.359 22.2612 146.741 22.2571ZM147.141 20.1714C147.826 20.1714 148.474 20.0766 149.083 19.8857C149.712 19.6766 150.264 19.448 150.741 19.2C151.235 18.952 151.607 18.752 151.855 18.6V13.8571C151.607 13.8194 151.235 13.7806 150.741 13.7429C150.246 13.6857 149.598 13.6571 148.798 13.6571C147.026 13.6571 145.931 13.8377 145.512 14.2C145.264 14.3909 145.074 14.7337 144.941 15.2286C144.807 15.7051 144.741 16.2857 144.741 16.9714C144.741 18.0949 144.921 18.9143 145.283 19.4286C145.664 19.9234 146.283 20.1714 147.141 20.1714ZM164.208 22.2857C163.389 22.2857 162.674 22.152 162.065 21.8857C161.455 21.6 160.979 21.0663 160.637 20.2857C160.312 19.4857 160.151 18.3051 160.151 16.7429V8.08571H158.265V6.6L160.237 6.2L160.865 2.31428H162.522V6.22857H165.837V8.14286H162.522V16.9143C162.522 17.9623 162.551 18.7234 162.608 19.2C162.665 19.6766 162.808 19.9806 163.037 20.1143C163.283 20.2286 163.694 20.2857 164.265 20.2857H165.065C165.294 20.2663 165.474 20.2571 165.608 20.2571L165.808 20.2286V22.1429L165.379 22.2C164.993 22.2652 164.6 22.2939 164.208 22.2857ZM170.415 21.8857V5.25714H172.786V21.8857H170.415ZM170.158 2.42857V-1.90735e-06H173.072V2.42857H170.158ZM181.041 21.8857L176.213 5.25714H178.755L182.498 19.8571H182.67L186.384 5.25714H188.927L184.127 21.8857H181.041ZM198.031 22.2857C196.717 22.2857 195.554 22.0091 194.545 21.4571C193.554 20.8857 192.783 19.9623 192.231 18.6857C191.679 17.3909 191.402 15.6766 191.402 13.5429C191.402 11.3143 191.688 9.57143 192.259 8.31429C192.85 7.05714 193.64 6.17143 194.631 5.65714C195.622 5.12343 196.736 4.85714 197.974 4.85714C199.211 4.85714 200.259 5.10514 201.117 5.6C201.993 6.09486 202.659 6.92343 203.117 8.08571C203.574 9.22857 203.802 10.7714 203.802 12.7143V14.5143H192.831L193.945 14.0857C193.869 15.3429 193.897 16.352 194.031 17.1143C194.183 17.8571 194.365 18.4091 194.574 18.7714C194.802 19.1337 194.993 19.3909 195.145 19.5429C195.411 19.7714 195.736 19.9429 196.117 20.0571C196.497 20.1714 196.965 20.2286 197.517 20.2286C198.069 20.2286 198.611 20.1909 199.145 20.1143C199.679 20.0194 200.174 19.9143 200.631 19.8C201.088 19.6663 201.497 19.5429 201.859 19.4286C202.222 19.2949 202.517 19.2 202.745 19.1429L203.345 21.0571C203.174 21.1337 202.84 21.2766 202.345 21.4857C201.739 21.709 201.118 21.8903 200.487 22.0286C199.763 22.2 198.944 22.2857 198.03 22.2857H198.031ZM193.945 13.6571L192.831 12.6286L202.459 12.4286L201.374 13.4857C201.393 12.1337 201.365 10.9714 201.288 10C201.231 9.02857 201.04 8.28571 200.717 7.77143C200.583 7.56228 200.354 7.37143 200.031 7.2C199.707 7.00914 199.079 6.91428 198.145 6.91428C197.174 6.91428 196.44 7.01943 195.945 7.22857C195.469 7.43771 195.097 7.71428 194.831 8.05714C194.126 8.99086 193.831 10.8571 193.945 13.6571ZM214.96 26.6286V5.25714H216.56L216.874 6.94286H217.046C217.408 6.67657 217.826 6.39086 218.303 6.08571C218.779 5.76229 219.322 5.48571 219.931 5.25714C220.56 5.00914 221.246 4.88571 221.989 4.88571C223.017 4.88571 223.903 5.18057 224.646 5.77143C225.408 6.34286 225.989 7.248 226.389 8.48571C226.808 9.70514 227.017 11.2949 227.017 13.2571C227.017 15.1051 226.846 16.6194 226.503 17.8C226.16 18.9623 225.703 19.8766 225.131 20.5429C224.56 21.1909 223.912 21.6377 223.189 21.8857C222.485 22.1487 221.74 22.2842 220.989 22.2857C220.531 22.2857 220.065 22.2663 219.589 22.2286C219.112 22.1909 218.674 22.1337 218.274 22.0571L217.331 21.9143V26.6286H214.96ZM221.531 20.1714C221.741 20.1714 221.998 20.152 222.303 20.1143C222.626 20.0571 222.912 19.9234 223.16 19.7143C223.426 19.4857 223.655 19.1337 223.846 18.6571C224.055 18.1623 224.217 17.448 224.331 16.5143C224.446 15.5806 224.503 14.3429 224.503 12.8C224.503 11.5429 224.465 10.5623 224.389 9.85714C224.331 9.13371 224.237 8.6 224.103 8.25714C223.989 7.89486 223.846 7.63771 223.674 7.48571C223.579 7.39086 223.408 7.28571 223.16 7.17143C222.931 7.05714 222.569 7 222.074 7C221.433 7.0052 220.797 7.11126 220.189 7.31429C219.56 7.50514 218.989 7.72343 218.474 7.97143C217.96 8.2 217.579 8.39086 217.331 8.54286V19.5714C217.731 19.6857 218.331 19.8194 219.131 19.9714C219.931 20.1051 220.731 20.1714 221.531 20.1714ZM231.907 21.8857V5.25714H233.422L233.736 6.94286H233.907L234.336 6.62857C234.64 6.41943 235.031 6.18057 235.507 5.91428C235.983 5.648 236.488 5.40914 237.022 5.2C237.574 4.99086 238.088 4.88571 238.565 4.88571C238.85 4.88571 239.117 4.91429 239.365 4.97143L239.736 5.02857L239.536 7.31429L239.165 7.28571C238.936 7.26746 238.708 7.25793 238.479 7.25714C237.945 7.25714 237.402 7.33371 236.85 7.48571C236.317 7.63771 235.822 7.82857 235.365 8.05714C234.907 8.28571 234.545 8.50514 234.279 8.71428V21.8857H231.907ZM248.104 22.2571C246.522 22.2571 245.275 21.9051 244.361 21.2C243.465 20.4949 242.827 19.4949 242.447 18.2C242.065 16.9051 241.875 15.3623 241.875 13.5714C241.875 11.7806 242.065 10.2377 242.447 8.94286C242.827 7.648 243.465 6.648 244.361 5.94286C245.275 5.23771 246.522 4.88571 248.104 4.88571C249.685 4.88571 250.922 5.23771 251.818 5.94286C252.733 6.648 253.379 7.648 253.761 8.94286C254.142 10.2377 254.333 11.7806 254.333 13.5714C254.333 15.3623 254.142 16.9051 253.761 18.2C253.379 19.4949 252.733 20.4949 251.818 21.2C250.922 21.9051 249.685 22.2571 248.104 22.2571ZM248.104 20.2C248.827 20.2 249.427 20.1143 249.904 19.9429C250.399 19.7714 250.79 19.4571 251.075 19C251.379 18.5429 251.59 17.8766 251.704 17C251.837 16.1234 251.904 14.9806 251.904 13.5714C251.904 12.1623 251.837 11.0194 251.704 10.1429C251.59 9.26628 251.379 8.6 251.075 8.14286C250.79 7.66628 250.399 7.352 249.904 7.2C249.427 7.02857 248.827 6.94286 248.104 6.94286C247.379 6.94286 246.77 7.02857 246.275 7.2C245.799 7.352 245.408 7.66628 245.104 8.14286C244.818 8.6 244.608 9.26628 244.475 10.1429C244.342 11.0194 244.275 12.1623 244.275 13.5714C244.275 14.9806 244.342 16.1234 244.475 17C244.608 17.8766 244.818 18.5429 245.104 19C245.408 19.4571 245.799 19.7714 246.275 19.9429C246.77 20.1143 247.379 20.2 248.104 20.2ZM259.223 21.8857V5.25714H260.823L261.08 6.88571H261.194C261.366 6.79086 261.651 6.63771 262.051 6.42857C262.451 6.2 262.918 5.97143 263.451 5.74286C263.985 5.49486 264.546 5.29486 265.137 5.14286C265.728 4.97143 266.309 4.88571 266.88 4.88571C267.699 4.88571 268.403 5.07657 268.994 5.45714C269.589 5.81981 270.042 6.374 270.28 7.02857C271.08 6.53371 271.966 6.05714 272.937 5.6C273.917 5.12626 274.992 4.88198 276.08 4.88571C277.109 4.88571 277.909 5.13371 278.48 5.62857C279.051 6.12343 279.451 6.82857 279.68 7.74286C279.909 8.63771 280.023 9.70514 280.023 10.9429V21.8857H277.651V11.7429C277.651 10.848 277.632 10.048 277.594 9.34286C277.557 8.63771 277.432 8.12343 277.223 7.8C277.138 7.65582 277.022 7.53231 276.884 7.43842C276.746 7.34452 276.588 7.2826 276.423 7.25714C276.099 7.18057 275.832 7.14286 275.623 7.14286C275.109 7.14286 274.575 7.21943 274.023 7.37143C273.504 7.49968 272.998 7.67173 272.509 7.88571C272.099 8.04569 271.699 8.22689 271.309 8.42857C271.107 8.54065 270.907 8.65494 270.709 8.77143C270.746 9.07657 270.775 9.4 270.794 9.74286C270.814 10.0857 270.823 10.448 270.823 10.8286V21.8857H268.451V11.6571C268.451 10.5714 268.423 9.73371 268.366 9.14286C268.328 8.552 268.203 8.09486 267.994 7.77143C267.825 7.5201 267.572 7.33765 267.28 7.25714C266.994 7.18057 266.718 7.14286 266.451 7.14286C265.791 7.14486 265.136 7.25092 264.509 7.45714C263.911 7.62872 263.328 7.84849 262.766 8.11428C262.251 8.34286 261.861 8.51428 261.594 8.62857V21.8857H259.223ZM284.966 26.6286V5.25714H286.566L286.88 6.94286H287.051C287.413 6.67657 287.832 6.39086 288.309 6.08571C288.785 5.76229 289.327 5.48571 289.937 5.25714C290.566 5.00914 291.251 4.88571 291.994 4.88571C293.023 4.88571 293.909 5.18057 294.651 5.77143C295.413 6.34286 295.994 7.248 296.394 8.48571C296.813 9.70514 297.023 11.2949 297.023 13.2571C297.023 15.1051 296.851 16.6194 296.509 17.8C296.166 18.9623 295.709 19.8766 295.137 20.5429C294.566 21.1909 293.918 21.6377 293.194 21.8857C292.491 22.1487 291.746 22.2842 290.994 22.2857C290.537 22.2857 290.071 22.2663 289.594 22.2286C289.118 22.1909 288.68 22.1337 288.28 22.0571L287.337 21.9143V26.6286H284.966ZM291.537 20.1714C291.746 20.1714 292.003 20.152 292.309 20.1143C292.632 20.0571 292.918 19.9234 293.166 19.7143C293.432 19.4857 293.661 19.1337 293.851 18.6571C294.061 18.1623 294.223 17.448 294.337 16.5143C294.451 15.5806 294.509 14.3429 294.509 12.8C294.509 11.5429 294.471 10.5623 294.394 9.85714C294.337 9.13371 294.241 8.6 294.109 8.25714C293.994 7.89486 293.851 7.63771 293.68 7.48571C293.584 7.39086 293.413 7.28571 293.166 7.17143C292.937 7.05714 292.575 7 292.08 7C291.439 7.0052 290.802 7.11126 290.194 7.31429C289.566 7.50514 288.994 7.72343 288.48 7.97143C287.966 8.2 287.584 8.39086 287.337 8.54286V19.5714C287.737 19.6857 288.337 19.8194 289.137 19.9714C289.937 20.1051 290.737 20.1714 291.537 20.1714ZM306.256 22.2857C305.437 22.2857 304.722 22.152 304.113 21.8857C303.503 21.6 303.027 21.0663 302.685 20.2857C302.36 19.4857 302.199 18.3051 302.199 16.7429V8.08571H300.313V6.6L302.285 6.2L302.913 2.31428H304.57V6.22857H307.885V8.14286H304.57V16.9143C304.57 17.9623 304.599 18.7234 304.656 19.2C304.713 19.6766 304.856 19.9806 305.085 20.1143C305.331 20.2286 305.742 20.2857 306.313 20.2857H307.113C307.342 20.2663 307.522 20.2571 307.656 20.2571L307.856 20.2286V22.1429L307.427 22.2C307.04 22.2652 306.648 22.2939 306.256 22.2857ZM316.434 22.2571C315.729 22.2571 315.054 22.1806 314.406 22.0286C313.758 21.8949 313.177 21.7429 312.663 21.5714C312.149 21.3806 311.739 21.2194 311.434 21.0857L311.006 20.8857L311.606 18.8571L312.034 19.0571C312.339 19.1909 312.739 19.352 313.234 19.5429C313.729 19.7143 314.291 19.8663 314.92 20C315.559 20.1344 316.21 20.2014 316.863 20.2C317.243 20.2 317.597 20.1714 317.92 20.1143C318.243 20.0377 318.501 19.9143 318.691 19.7429C318.901 19.552 319.091 19.2663 319.263 18.8857C319.434 18.5051 319.52 18.048 319.52 17.5143C319.52 16.7143 319.329 16.1051 318.949 15.6857C318.568 15.2663 318.072 14.9429 317.463 14.7143C316.854 14.4857 316.206 14.2766 315.52 14.0857C314.968 13.9337 314.425 13.7623 313.891 13.5714C313.37 13.3874 312.879 13.1275 312.434 12.8C311.998 12.4551 311.646 12.0154 311.406 11.5143C311.158 10.9623 311.034 10.2571 311.034 9.4C311.034 8.048 311.443 6.96228 312.263 6.14286C313.101 5.30514 314.501 4.88571 316.463 4.88571C317.129 4.88571 317.768 4.93371 318.377 5.02857C318.986 5.10514 319.52 5.2 319.977 5.31428C320.454 5.40914 320.806 5.49486 321.034 5.57143L320.663 7.57143L320.263 7.48571C319.925 7.38906 319.581 7.31274 319.234 7.25714C318.797 7.18057 318.301 7.11428 317.749 7.05714C317.197 6.98057 316.615 6.94286 316.006 6.94286C315.434 6.94286 314.977 6.98057 314.634 7.05714C314.291 7.11428 314.034 7.20914 313.863 7.34286C313.691 7.47657 313.549 7.69486 313.434 8C313.32 8.28571 313.263 8.62857 313.263 9.02857C313.263 9.82857 313.482 10.4286 313.92 10.8286C314.377 11.2286 314.949 11.5337 315.634 11.7429C316.339 11.952 317.063 12.1714 317.806 12.4C318.32 12.552 318.815 12.7337 319.291 12.9429C319.762 13.1485 320.196 13.4282 320.577 13.7714C320.977 14.1143 321.282 14.552 321.491 15.0857C321.72 15.6194 321.834 16.2766 321.834 17.0571C321.834 18.6 321.368 19.8571 320.434 20.8286C319.52 21.7806 318.186 22.2571 316.434 22.2571ZM337.59 22.2857C336.77 22.2857 336.056 22.152 335.447 21.8857C334.837 21.6 334.361 21.0663 334.018 20.2857C333.694 19.4857 333.533 18.3051 333.533 16.7429V8.08571H331.647V6.6L333.618 6.2L334.247 2.31428H335.904V6.22857H339.218V8.14286H335.904V16.9143C335.904 17.9623 335.933 18.7234 335.99 19.2C336.047 19.6766 336.19 19.9806 336.418 20.1143C336.665 20.2286 337.075 20.2857 337.647 20.2857H338.447C338.675 20.2663 338.856 20.2571 338.99 20.2571L339.19 20.2286V22.1429L338.761 22.2C338.374 22.2652 337.982 22.2939 337.59 22.2857ZM348.997 22.2571C347.416 22.2571 346.168 21.9051 345.254 21.2C344.359 20.4949 343.72 19.4949 343.339 18.2C342.959 16.9051 342.768 15.3623 342.768 13.5714C342.768 11.7806 342.959 10.2377 343.339 8.94286C343.72 7.648 344.359 6.648 345.254 5.94286C346.168 5.23771 347.416 4.88571 348.997 4.88571C350.577 4.88571 351.816 5.23771 352.711 5.94286C353.625 6.648 354.273 7.648 354.654 8.94286C355.034 10.2377 355.225 11.7806 355.225 13.5714C355.225 15.3623 355.034 16.9051 354.654 18.2C354.273 19.4949 353.625 20.4949 352.711 21.2C351.816 21.9051 350.577 22.2571 348.997 22.2571ZM348.997 20.2C349.72 20.2 350.32 20.1143 350.797 19.9429C351.291 19.7714 351.682 19.4571 351.968 19C352.273 18.5429 352.482 17.8766 352.597 17C352.73 16.1234 352.797 14.9806 352.797 13.5714C352.797 12.1623 352.73 11.0194 352.597 10.1429C352.482 9.26628 352.273 8.6 351.968 8.14286C351.682 7.66628 351.291 7.352 350.797 7.2C350.32 7.02857 349.72 6.94286 348.997 6.94286C348.273 6.94286 347.663 7.02857 347.168 7.2C346.691 7.352 346.302 7.66628 345.997 8.14286C345.711 8.6 345.502 9.26628 345.368 10.1429C345.234 11.0194 345.168 12.1623 345.168 13.5714C345.168 14.9806 345.234 16.1234 345.368 17C345.502 17.8766 345.711 18.5429 345.997 19C346.302 19.4571 346.691 19.7714 347.168 19.9429C347.663 20.1143 348.273 20.2 348.997 20.2ZM371.351 22.2571C370.322 22.2571 369.408 21.9623 368.608 21.3714C367.827 20.7806 367.208 19.8663 366.751 18.6286C366.313 17.3909 366.094 15.8091 366.094 13.8857C366.094 12.0377 366.256 10.5337 366.579 9.37143C366.922 8.19086 367.379 7.27657 367.951 6.62857C368.522 5.98057 369.151 5.53371 369.837 5.28571C370.542 5.01943 371.265 4.88571 372.008 4.88571C372.982 4.87634 373.953 5.00132 374.894 5.25714C375.187 5.32904 375.473 5.42459 375.751 5.54286V0.371426H378.122V21.8857H376.551L376.237 20.1714H376.094C375.846 20.3623 375.503 20.6286 375.065 20.9714C374.568 21.3281 374.031 21.6253 373.465 21.8571C372.856 22.1234 372.151 22.2571 371.351 22.2571ZM371.494 20.1429C371.874 20.1429 372.265 20.0949 372.665 20C373.065 19.8857 373.456 19.752 373.837 19.6C374.237 19.448 374.599 19.2857 374.922 19.1143C375.265 18.9429 375.542 18.7909 375.751 18.6571V7.74286C375.522 7.648 375.199 7.54286 374.779 7.42857C374.379 7.31429 373.922 7.21943 373.408 7.14286C372.894 7.048 372.351 7 371.779 7C370.713 7 369.989 7.22857 369.608 7.68571C369.456 7.89486 369.294 8.22857 369.122 8.68571C368.97 9.14286 368.837 9.8 368.722 10.6571C368.627 11.4949 368.579 12.6091 368.579 14C368.579 15.5623 368.656 16.7429 368.808 17.5429C368.979 18.3429 369.17 18.8949 369.379 19.2C369.589 19.5051 369.751 19.7051 369.865 19.8C370.017 19.9337 370.237 20.0286 370.522 20.0857C370.808 20.1234 371.131 20.1429 371.494 20.1429ZM383.723 21.8857V5.25714H386.096V21.8857H383.723ZM383.466 2.42857V-1.90735e-06H386.381V2.42857H383.466ZM396.121 22.2571C395.416 22.2571 394.739 22.1806 394.093 22.0286C393.445 21.8949 392.864 21.7429 392.35 21.5714C391.835 21.3806 391.425 21.2194 391.121 21.0857L390.693 20.8857L391.293 18.8571L391.721 19.0571C392.025 19.1909 392.425 19.352 392.921 19.5429C393.416 19.7143 393.978 19.8663 394.607 20C395.246 20.1344 395.897 20.2014 396.55 20.2C396.93 20.2 397.282 20.1714 397.607 20.1143C397.93 20.0377 398.187 19.9143 398.378 19.7429C398.587 19.552 398.778 19.2663 398.95 18.8857C399.121 18.5051 399.207 18.048 399.207 17.5143C399.207 16.7143 399.016 16.1051 398.635 15.6857C398.254 15.2663 397.759 14.9429 397.15 14.7143C396.539 14.4857 395.893 14.2766 395.207 14.0857C394.654 13.9337 394.111 13.7623 393.578 13.5714C393.057 13.3874 392.566 13.1275 392.121 12.8C391.685 12.4551 391.333 12.0154 391.093 11.5143C390.845 10.9623 390.721 10.2571 390.721 9.4C390.721 8.048 391.13 6.96228 391.95 6.14286C392.787 5.30514 394.187 4.88571 396.15 4.88571C396.816 4.88571 397.454 4.93371 398.064 5.02857C398.673 5.10514 399.207 5.2 399.664 5.31428C400.139 5.40914 400.493 5.49486 400.721 5.57143L400.35 7.57143L399.95 7.48571C399.612 7.38906 399.268 7.31274 398.921 7.25714C398.482 7.18057 397.987 7.11428 397.435 7.05714C396.882 6.98057 396.302 6.94286 395.693 6.94286C395.121 6.94286 394.664 6.98057 394.321 7.05714C393.978 7.11428 393.721 7.20914 393.55 7.34286C393.378 7.47657 393.235 7.69486 393.121 8C393.007 8.28571 392.95 8.62857 392.95 9.02857C392.95 9.82857 393.168 10.4286 393.607 10.8286C394.064 11.2286 394.635 11.5337 395.321 11.7429C396.025 11.952 396.75 12.1714 397.493 12.4C398.007 12.552 398.502 12.7337 398.978 12.9429C399.448 13.1485 399.883 13.4282 400.264 13.7714C400.664 14.1143 400.968 14.552 401.178 15.0857C401.407 15.6194 401.521 16.2766 401.521 17.0571C401.521 18.6 401.054 19.8571 400.121 20.8286C399.207 21.7806 397.873 22.2571 396.121 22.2571ZM411.755 22.2571C410.459 22.2571 409.317 21.9623 408.327 21.3714C407.336 20.7806 406.565 19.848 406.011 18.5714C405.459 17.2766 405.183 15.5909 405.183 13.5143C405.183 11.8194 405.365 10.4091 405.726 9.28571C406.107 8.16228 406.622 7.28572 407.269 6.65714C407.904 6.01664 408.69 5.54521 409.554 5.28571C410.431 5.01943 411.365 4.88571 412.354 4.88571C413.079 4.88571 413.811 4.93371 414.554 5.02857C415.178 5.10009 415.798 5.205 416.411 5.34286L416.126 7.34286C415.765 7.30514 415.193 7.23771 414.411 7.14286C413.631 7.02857 412.793 6.97143 411.897 6.97143C411.193 6.97143 410.593 7.02857 410.097 7.14286C409.622 7.25714 409.25 7.448 408.983 7.71428C408.622 8.11428 408.307 8.848 408.04 9.91428C407.793 10.9623 407.669 12.2194 407.669 13.6857C407.669 15.0377 407.774 16.1337 407.983 16.9714C408.193 17.7909 408.44 18.4194 408.726 18.8571C409.011 19.2766 409.269 19.5714 409.497 19.7429C409.65 19.8571 409.85 19.9623 410.097 20.0571C410.365 20.152 410.736 20.2 411.211 20.2C411.765 20.2 412.326 20.1337 412.897 20C413.469 19.8663 413.993 19.7143 414.469 19.5429C414.945 19.3714 415.326 19.2194 415.611 19.0857L416.069 18.8857L416.811 20.7429L416.183 21.1143C415.765 21.3623 415.174 21.6194 414.411 21.8857C413.653 22.1337 412.766 22.2571 411.755 22.2571ZM426.2 22.2571C424.618 22.2571 423.371 21.9051 422.457 21.2C421.561 20.4949 420.923 19.4949 420.543 18.2C420.161 16.9051 419.971 15.3623 419.971 13.5714C419.971 11.7806 420.161 10.2377 420.543 8.94286C420.923 7.648 421.561 6.648 422.457 5.94286C423.371 5.23771 424.618 4.88571 426.2 4.88571C427.781 4.88571 429.018 5.23771 429.914 5.94286C430.829 6.648 431.475 7.648 431.857 8.94286C432.238 10.2377 432.429 11.7806 432.429 13.5714C432.429 15.3623 432.238 16.9051 431.857 18.2C431.475 19.4949 430.829 20.4949 429.914 21.2C429.018 21.9051 427.781 22.2571 426.2 22.2571ZM426.2 20.2C426.923 20.2 427.523 20.1143 428 19.9429C428.495 19.7714 428.886 19.4571 429.171 19C429.475 18.5429 429.686 17.8766 429.8 17C429.933 16.1234 430 14.9806 430 13.5714C430 12.1623 429.933 11.0194 429.8 10.1429C429.686 9.26628 429.475 8.6 429.171 8.14286C428.886 7.66628 428.495 7.352 428 7.2C427.523 7.02857 426.923 6.94286 426.2 6.94286C425.475 6.94286 424.866 7.02857 424.371 7.2C423.895 7.352 423.504 7.66628 423.2 8.14286C422.914 8.6 422.704 9.26628 422.571 10.1429C422.438 11.0194 422.371 12.1623 422.371 13.5714C422.371 14.9806 422.438 16.1234 422.571 17C422.704 17.8766 422.914 18.5429 423.2 19C423.504 19.4571 423.895 19.7714 424.371 19.9429C424.866 20.1143 425.475 20.2 426.2 20.2ZM439.662 21.8857L434.833 5.25714H437.376L441.12 19.8571H441.291L445.006 5.25714H447.549L442.749 21.8857H439.663H439.662ZM456.651 22.2857C455.337 22.2857 454.175 22.0091 453.166 21.4571C452.175 20.8857 451.403 19.9623 450.851 18.6857C450.298 17.3909 450.023 15.6766 450.023 13.5429C450.023 11.3143 450.309 9.57143 450.88 8.31429C451.47 7.05714 452.261 6.17143 453.251 5.65714C454.241 5.12343 455.355 4.85714 456.594 4.85714C457.832 4.85714 458.88 5.10514 459.737 5.6C460.613 6.09486 461.28 6.92343 461.737 8.08571C462.194 9.22857 462.423 10.7714 462.423 12.7143V14.5143H451.451L452.566 14.0857C452.489 15.3429 452.518 16.352 452.651 17.1143C452.803 17.8571 452.984 18.4091 453.194 18.7714C453.423 19.1337 453.613 19.3909 453.766 19.5429C454.032 19.7714 454.355 19.9429 454.737 20.0571C455.118 20.1714 455.584 20.2286 456.137 20.2286C456.689 20.2286 457.232 20.1909 457.766 20.1143C458.298 20.0194 458.794 19.9143 459.251 19.8C459.709 19.6663 460.118 19.5429 460.48 19.4286C460.841 19.2949 461.137 19.2 461.366 19.1429L461.966 21.0571C461.794 21.1337 461.461 21.2766 460.966 21.4857C460.36 21.7089 459.74 21.8902 459.11 22.0286C458.385 22.2 457.567 22.2857 456.653 22.2857H456.651ZM452.566 13.6571L451.451 12.6286L461.08 12.4286L459.994 13.4857C460.018 12.3231 459.99 11.16 459.909 10C459.851 9.02857 459.661 8.28571 459.337 7.77143C459.203 7.56228 458.975 7.37143 458.651 7.2C458.327 7.00914 457.698 6.91428 456.766 6.91428C455.794 6.91428 455.061 7.01943 454.566 7.22857C454.089 7.43771 453.718 7.71428 453.451 8.05714C452.746 8.99086 452.451 10.8571 452.566 13.6571ZM467.174 21.8857V5.25714H468.688L469.002 6.94286H469.174L469.602 6.62857C469.907 6.41943 470.297 6.18057 470.774 5.91428C471.25 5.648 471.754 5.40914 472.288 5.2C472.84 4.99086 473.354 4.88571 473.831 4.88571C474.117 4.88571 474.383 4.91429 474.631 4.97143L475.002 5.02857L474.802 7.31429L474.431 7.28571C474.203 7.26746 473.974 7.25793 473.745 7.25714C473.211 7.25714 472.669 7.33371 472.117 7.48571C471.583 7.63771 471.088 7.82857 470.631 8.05714C470.248 8.24007 469.885 8.46018 469.545 8.71428V21.8857H467.174ZM485.31 21.8857V5.25714H486.91L487.167 6.88571H487.281C487.453 6.79086 487.738 6.63771 488.138 6.42857C488.538 6.2 489.006 5.97143 489.538 5.74286C490.072 5.49486 490.633 5.29486 491.224 5.14286C491.815 4.97143 492.395 4.88571 492.967 4.88571C493.786 4.88571 494.49 5.07657 495.081 5.45714C495.676 5.81981 496.129 6.374 496.367 7.02857C497.167 6.53371 498.053 6.05714 499.024 5.6C500.004 5.12626 501.079 4.88198 502.167 4.88571C503.195 4.88571 503.995 5.13371 504.567 5.62857C505.138 6.12343 505.538 6.82857 505.767 7.74286C505.995 8.63771 506.11 9.70514 506.11 10.9429V21.8857H503.738V11.7429C503.738 10.848 503.72 10.048 503.681 9.34286C503.643 8.63771 503.519 8.12343 503.31 7.8C503.225 7.65582 503.109 7.53231 502.971 7.43842C502.833 7.34452 502.675 7.2826 502.51 7.25714C502.186 7.18057 501.919 7.14286 501.71 7.14286C501.195 7.14286 500.663 7.21943 500.11 7.37143C499.591 7.49968 499.085 7.67172 498.595 7.88571C498.186 8.04569 497.786 8.22689 497.395 8.42857C497.194 8.54066 496.994 8.65495 496.795 8.77143C496.834 9.07657 496.863 9.4 496.881 9.74286C496.901 10.0857 496.91 10.448 496.91 10.8286V21.8857H494.538V11.6571C494.538 10.5714 494.51 9.73371 494.453 9.14286C494.415 8.552 494.291 8.09486 494.081 7.77143C493.912 7.5201 493.659 7.33765 493.367 7.25714C493.081 7.18057 492.806 7.14286 492.538 7.14286C491.878 7.14486 491.223 7.25092 490.595 7.45714C489.998 7.62872 489.415 7.84848 488.853 8.11428C488.338 8.34286 487.949 8.51428 487.681 8.62857V21.8857H485.31ZM516.853 22.2571C515.272 22.2571 514.024 21.9051 513.11 21.2C512.215 20.4949 511.576 19.4949 511.195 18.2C510.815 16.9051 510.624 15.3623 510.624 13.5714C510.624 11.7806 510.815 10.2377 511.195 8.94286C511.576 7.648 512.215 6.648 513.11 5.94286C514.024 5.23771 515.272 4.88571 516.853 4.88571C518.433 4.88571 519.672 5.23771 520.567 5.94286C521.481 6.648 522.129 7.648 522.51 8.94286C522.89 10.2377 523.081 11.7806 523.081 13.5714C523.081 15.3623 522.89 16.9051 522.51 18.2C522.129 19.4949 521.481 20.4949 520.567 21.2C519.672 21.9051 518.433 22.2571 516.853 22.2571ZM516.853 20.2C517.576 20.2 518.176 20.1143 518.653 19.9429C519.147 19.7714 519.538 19.4571 519.824 19C520.129 18.5429 520.338 17.8766 520.453 17C520.586 16.1234 520.653 14.9806 520.653 13.5714C520.653 12.1623 520.586 11.0194 520.453 10.1429C520.338 9.26628 520.129 8.6 519.824 8.14286C519.538 7.66628 519.147 7.352 518.653 7.2C518.176 7.02857 517.576 6.94286 516.853 6.94286C516.129 6.94286 515.519 7.02857 515.024 7.2C514.547 7.352 514.158 7.66628 513.853 8.14286C513.567 8.6 513.358 9.26628 513.224 10.1429C513.09 11.0194 513.024 12.1623 513.024 13.5714C513.024 14.9806 513.09 16.1234 513.224 17C513.358 17.8766 513.567 18.5429 513.853 19C514.158 19.4571 514.547 19.7714 515.024 19.9429C515.519 20.1143 516.129 20.2 516.853 20.2ZM527.971 21.8857V5.25714H529.486L529.8 6.94286H529.971L530.4 6.62857C530.705 6.41943 531.096 6.18057 531.571 5.91428C532.048 5.648 532.553 5.40914 533.086 5.2C533.639 4.99086 534.153 4.88571 534.629 4.88571C534.914 4.88571 535.182 4.91429 535.429 4.97143L535.8 5.02857L535.6 7.31429L535.229 7.28571C535 7.26746 534.772 7.25793 534.543 7.25714C534.01 7.25714 533.467 7.33371 532.914 7.48571C532.382 7.63771 531.886 7.82857 531.429 8.05714C531.046 8.24007 530.682 8.46018 530.343 8.71428V21.8857H527.971ZM544.625 22.2857C543.311 22.2857 542.15 22.0091 541.139 21.4571C540.15 20.8857 539.378 19.9623 538.825 18.6857C538.273 17.3909 537.997 15.6766 537.997 13.5429C537.997 11.3143 538.282 9.57143 538.854 8.31429C539.445 7.05714 540.235 6.17143 541.225 5.65714C542.216 5.12343 543.33 4.85714 544.568 4.85714C545.807 4.85714 546.854 5.10514 547.711 5.6C548.587 6.09486 549.254 6.92343 549.711 8.08571C550.168 9.22857 550.397 10.7714 550.397 12.7143V14.5143H539.425L540.539 14.0857C540.464 15.3429 540.493 16.352 540.625 17.1143C540.778 17.8571 540.959 18.4091 541.168 18.7714C541.397 19.1337 541.587 19.3909 541.739 19.5429C542.007 19.7714 542.33 19.9429 542.711 20.0571C543.093 20.1714 543.559 20.2286 544.111 20.2286C544.664 20.2286 545.207 20.1909 545.739 20.1143C546.273 20.0194 546.768 19.9143 547.225 19.8C547.682 19.6663 548.093 19.5429 548.454 19.4286C548.816 19.2949 549.111 19.2 549.339 19.1429L549.939 21.0571C549.768 21.1337 549.435 21.2766 548.939 21.4857C548.334 21.7089 547.714 21.8902 547.083 22.0286C546.36 22.2 545.541 22.2857 544.626 22.2857H544.625ZM540.539 13.6571L539.425 12.6286L549.054 12.4286L547.968 13.4857C547.992 12.3231 547.964 11.16 547.882 10C547.825 9.02857 547.635 8.28571 547.311 7.77143C547.178 7.56228 546.95 7.37143 546.625 7.2C546.302 7.00914 545.673 6.91428 544.739 6.91428C543.768 6.91428 543.035 7.01943 542.539 7.22857C542.064 7.43771 541.693 7.71428 541.425 8.05714C540.721 8.99086 540.425 10.8571 540.539 13.6571ZM565.155 22.2571C564.28 22.2571 563.498 22.0571 562.813 21.6571C562.146 21.2377 561.623 20.6377 561.241 19.8571C560.861 19.0571 560.67 18.0949 560.67 16.9714C560.67 15.6194 560.937 14.5623 561.47 13.8C562.023 13.0194 562.794 12.4663 563.784 12.1429C564.775 11.8194 565.927 11.6571 567.241 11.6571H570.27C570.27 10.7051 570.241 9.87657 570.184 9.17143C570.146 8.448 569.994 7.91429 569.727 7.57143C569.537 7.30514 569.27 7.13371 568.927 7.05714C568.59 6.97944 568.244 6.94109 567.898 6.94286C567.155 6.94286 566.423 7.01943 565.698 7.17143C565.041 7.29279 564.392 7.45501 563.755 7.65714C563.184 7.848 562.727 8.01943 562.384 8.17143L561.87 8.37143L561.041 6.51429L561.584 6.28571C561.946 6.11428 562.432 5.92343 563.041 5.71428C563.651 5.48571 564.327 5.29486 565.07 5.14286C565.839 4.97064 566.625 4.8844 567.413 4.88571C568.709 4.88571 569.737 5.14286 570.498 5.65714C571.261 6.152 571.803 6.85714 572.127 7.77143C572.47 8.66628 572.641 9.72343 572.641 10.9429V21.8857H571.098L570.755 20.1429H570.584C570.309 20.3347 570.033 20.5252 569.755 20.7143C569.413 20.9429 569.003 21.1806 568.527 21.4286C568.07 21.6571 567.555 21.848 566.984 22C566.39 22.1746 565.774 22.2612 565.155 22.2571ZM565.555 20.1714C566.241 20.1714 566.889 20.0766 567.498 19.8857C568.127 19.6766 568.68 19.448 569.155 19.2C569.651 18.952 570.023 18.752 570.27 18.6V13.8571C570.023 13.8194 569.651 13.7806 569.155 13.7429C568.661 13.6857 568.013 13.6571 567.213 13.6571C565.441 13.6571 564.346 13.8377 563.927 14.2C563.68 14.3909 563.489 14.7337 563.355 15.2286C563.223 15.7051 563.155 16.2857 563.155 16.9714C563.155 18.0949 563.337 18.9143 563.698 19.4286C564.08 19.9234 564.698 20.1714 565.555 20.1714ZM584.109 22.2571C583.594 22.2571 582.955 22.2 582.194 22.0857C581.451 21.9909 580.698 21.8663 579.937 21.7143C579.271 21.5693 578.613 21.3881 577.966 21.1714V0.371426H580.337V5.51429C580.661 5.43771 581.051 5.352 581.509 5.25714C581.966 5.16228 582.461 5.07657 582.994 5C583.546 4.92343 584.098 4.88571 584.651 4.88571C586.327 4.88571 587.613 5.552 588.509 6.88571C589.403 8.2 589.851 10.3337 589.851 13.2857C589.851 15.1143 589.689 16.6194 589.366 17.8C589.041 18.9623 588.603 19.8663 588.051 20.5143C587.499 21.1623 586.88 21.6194 586.194 21.8857C585.527 22.1334 584.82 22.2593 584.109 22.2571ZM584.109 20.1429C584.623 20.1429 585.023 20.1143 585.309 20.0571C585.613 19.9806 585.861 19.8571 586.051 19.6857C586.223 19.5143 586.413 19.2091 586.623 18.7714C586.832 18.3337 587.003 17.648 587.137 16.7143C587.289 15.7623 587.366 14.4663 587.366 12.8286C587.366 11.1909 587.28 9.94286 587.109 9.08571C586.955 8.22857 586.737 7.68571 586.451 7.45714C586.051 7.152 585.375 7 584.423 7C583.451 7 582.614 7.09486 581.909 7.28571C581.223 7.47657 580.698 7.63771 580.337 7.77143V19.6857C580.546 19.7429 580.823 19.8091 581.166 19.8857C581.509 19.9429 581.918 20 582.394 20.0571C582.889 20.1143 583.461 20.1429 584.109 20.1429ZM600.086 22.2571C598.504 22.2571 597.256 21.9051 596.342 21.2C595.447 20.4949 594.808 19.4949 594.427 18.2C594.047 16.9051 593.856 15.3623 593.856 13.5714C593.856 11.7806 594.047 10.2377 594.427 8.94286C594.808 7.648 595.447 6.648 596.342 5.94286C597.256 5.23771 598.504 4.88571 600.085 4.88571C601.665 4.88571 602.904 5.23771 603.799 5.94286C604.713 6.648 605.361 7.648 605.742 8.94286C606.122 10.2377 606.313 11.7806 606.313 13.5714C606.313 15.3623 606.122 16.9051 605.742 18.2C605.361 19.4949 604.713 20.4949 603.799 21.2C602.904 21.9051 601.666 22.2571 600.086 22.2571ZM600.086 20.2C600.808 20.2 601.408 20.1143 601.885 19.9429C602.379 19.7714 602.77 19.4571 603.056 19C603.361 18.5429 603.57 17.8766 603.685 17C603.818 16.1234 603.885 14.9806 603.885 13.5714C603.885 12.1623 603.818 11.0194 603.685 10.1429C603.57 9.26628 603.361 8.6 603.056 8.14286C602.77 7.66628 602.379 7.352 601.885 7.2C601.408 7.02857 600.808 6.94286 600.085 6.94286C599.361 6.94286 598.751 7.02857 598.256 7.2C597.779 7.352 597.39 7.66628 597.085 8.14286C596.799 8.6 596.59 9.26628 596.456 10.1429C596.322 11.0194 596.256 12.1623 596.256 13.5714C596.256 14.9806 596.322 16.1234 596.456 17C596.59 17.8766 596.799 18.5429 597.085 19C597.39 19.4571 597.779 19.7714 598.256 19.9429C598.751 20.1143 599.362 20.2 600.086 20.2ZM615.003 22.2571C614.263 22.2628 613.535 22.0757 612.889 21.7143C612.261 21.3337 611.757 20.7143 611.375 19.8571C611.014 19 610.832 17.8194 610.832 16.3143V5.25714H613.203V15.4286C613.203 16.4766 613.232 17.3337 613.289 18C613.346 18.6663 613.451 19.1337 613.603 19.4C613.737 19.6091 613.946 19.7623 614.232 19.8571C614.537 19.952 614.88 20 615.261 20C616.118 20 616.966 19.8377 617.803 19.5143C618.661 19.1714 619.461 18.8286 620.203 18.4857V5.25714H622.575V21.8857H620.975L620.689 20.2857H620.518C620.232 20.4377 619.803 20.6766 619.232 21C618.661 21.3051 618.014 21.5909 617.289 21.8571C616.557 22.1253 615.783 22.2607 615.003 22.2571ZM632.679 22.2857C631.859 22.2857 631.145 22.152 630.536 21.8857C629.926 21.6 629.45 21.0663 629.107 20.2857C628.783 19.4857 628.622 18.3051 628.622 16.7429V8.08571H626.736V6.6L628.707 6.2L629.336 2.31428H630.993V6.22857H634.307V8.14286H630.993V16.9143C630.993 17.9623 631.022 18.7234 631.079 19.2C631.136 19.6766 631.279 19.9806 631.507 20.1143C631.754 20.2286 632.165 20.2857 632.736 20.2857H633.536C633.765 20.2663 633.945 20.2571 634.079 20.2571L634.279 20.2286V22.1429L633.85 22.2C633.463 22.2652 633.071 22.2939 632.679 22.2857ZM642.864 21.8857L648.264 2.02857H651.635L657.035 21.8857H654.578L653.064 15.9429L654.264 16.6286H645.693L646.835 15.9429L645.321 21.8857H642.864ZM646.893 15.6286L646.093 14.5143H653.807L653.007 15.6286L649.778 3.08571L651.121 4.14286H648.778L650.121 3.08571L646.893 15.6286ZM660.174 21.9143L660.259 12.8L660.174 2.02857H662.602L662.488 10.8L662.602 21.8857L660.174 21.9143Z" fill="black"/>
</svg>
