<svg width="26" height="28" viewBox="0 0 26 28" fill="none" xmlns="http://www.w3.org/2000/svg">
<path d="M21.6125 14.1431C21.6125 16.568 20.7269 18.8935 19.1506 20.6081C17.5742 22.3227 15.4363 23.286 13.207 23.286V27.8574C20.1699 27.8574 25.8153 21.7168 25.8153 14.1431H21.6125ZM13.207 23.286C10.9777 23.286 8.83969 22.3227 7.26334 20.6081C5.68699 18.8935 4.80141 16.568 4.80141 14.1431H0.598633C0.598633 21.7168 6.24401 27.8574 13.207 27.8574V23.286ZM4.80141 14.1431C4.80141 11.7183 5.68699 9.39278 7.26334 7.67816C8.83969 5.96354 10.9777 5.00028 13.207 5.00028V0.428848C6.24401 0.428848 0.598633 6.56942 0.598633 14.1431H4.80141ZM13.207 5.00028C15.4363 5.00028 17.5742 5.96354 19.1506 7.67816C20.7269 9.39278 21.6125 11.7183 21.6125 14.1431H25.8153C25.8153 6.56942 20.1699 0.428848 13.207 0.428848V5.00028Z" fill="black"/>
</svg>
