<svg width="100" height="15" viewBox="0 0 100 15" fill="none" xmlns="http://www.w3.org/2000/svg">
<path d="M0 14.6252V2.67029e-05H1.85829V13.0892H8.70857V14.6252H0ZM10.0434 9.56231V9.24231C10.0434 7.66746 10.4731 6.38174 11.3303 5.38403C12.1943 4.38631 13.3326 3.88688 14.7451 3.88688C16.1646 3.88688 17.2526 4.35317 18.0091 5.28346C18.7726 6.21488 19.1543 7.47774 19.1543 9.07088V9.80346H11.1394V8.35774H17.3566V8.13717C17.3566 7.37374 17.1394 6.72003 16.704 6.17831C16.2754 5.63546 15.6491 5.3646 14.8251 5.3646C13.8411 5.3646 13.104 5.73946 12.616 6.48917C12.1269 7.23203 11.8823 8.14974 11.8823 9.24117V9.5646C11.8823 10.656 12.1406 11.576 12.656 12.3269C13.1714 13.0697 13.9646 13.4412 15.0366 13.4412C15.6994 13.4412 16.2686 13.2972 16.744 13.0092C17.2263 12.7143 17.6183 12.3669 17.9189 11.9646L19.0743 12.8995C18.7531 13.3943 18.2469 13.856 17.5577 14.2846C16.8674 14.7075 16.0274 14.9177 15.0366 14.9177C13.4297 14.9177 12.1943 14.4229 11.3303 13.432C10.4731 12.4332 10.0446 11.144 10.0446 9.5646L10.0434 9.56231ZM20.8217 11.5623C20.8217 10.504 21.2411 9.68003 22.0777 9.09031C22.9143 8.50174 23.9829 8.20688 25.2823 8.20688H27.6526V7.46403C27.6526 6.82746 27.488 6.31546 27.1611 5.92688C26.832 5.53146 26.2697 5.33374 25.4731 5.33374C24.6754 5.33374 24.1006 5.49831 23.7451 5.82631C23.5801 5.96973 23.4479 6.14712 23.3578 6.34635C23.2677 6.54558 23.2216 6.76193 23.2229 6.9806V7.04231H21.4354V6.97146C21.4354 6.1406 21.8 5.42174 22.5303 4.81146C23.2663 4.19546 24.2606 3.88803 25.5131 3.88803C26.7657 3.88803 27.7326 4.18517 28.416 4.78174C29.1051 5.37717 29.4503 6.27203 29.4503 7.46403V12.2149C29.4503 12.6492 29.4846 13.0617 29.5509 13.4492C29.6183 13.832 29.7109 14.1692 29.832 14.4652V14.6252H28.0949C27.9846 14.4176 27.8968 14.1988 27.8331 13.9726C27.7604 13.71 27.7133 13.4409 27.6926 13.1692C27.4526 13.6035 27.056 13.9897 26.5074 14.3235C25.9589 14.6526 25.2514 14.816 24.3874 14.816C23.3897 14.816 22.5474 14.5383 21.8571 13.9817C21.1669 13.4206 20.8217 12.6137 20.8217 11.5623ZM22.6206 11.4617C22.6206 12.064 22.7943 12.536 23.1429 12.8777C23.4971 13.2126 24.04 13.3806 24.7691 13.3806C25.5006 13.3806 26.1634 13.1292 26.7577 12.6263C27.3543 12.1177 27.6526 11.5749 27.6526 10.9989V9.4926H25.4834C24.5383 9.4926 23.8263 9.66974 23.3429 10.0252C23.1127 10.1859 22.9262 10.4013 22.8001 10.6521C22.674 10.9029 22.6123 11.1812 22.6206 11.4617ZM32.3131 14.6252V4.17946H33.9406L34.0206 5.53488H34.0709C34.3394 5.0926 34.6903 4.7086 35.1257 4.3806C35.56 4.05146 36.08 3.88803 36.6823 3.88803C36.8309 3.88803 36.984 3.90403 37.1451 3.93831C37.3051 3.97146 37.4194 4.00117 37.4857 4.0286V5.69603C37.352 5.6686 37.2114 5.64917 37.064 5.63546C36.9166 5.61488 36.7554 5.60574 36.5817 5.60574C35.9863 5.60574 35.4777 5.76231 35.0549 6.07774C34.641 6.38245 34.3153 6.79138 34.1109 7.26288V14.6252H32.3131ZM39.2034 14.6252V4.17946H40.8309L40.9109 5.53488H40.9611C41.3315 5.05665 41.8055 4.66863 42.3474 4.40003C42.896 4.11888 43.5063 3.97717 44.176 3.97717C45.2206 3.97717 46.0549 4.28003 46.6766 4.88231C47.2994 5.47774 47.6114 6.47546 47.6114 7.87546V14.6252H45.8137V7.86517C45.8137 7.01488 45.6229 6.40917 45.2411 6.04803C44.8651 5.67888 44.3337 5.49488 43.6434 5.49488C43.048 5.49488 42.5223 5.65488 42.0663 5.97717C41.6111 6.29864 41.245 6.73042 41.0023 7.23203V14.6263L39.2034 14.6252ZM55.336 14.6252V4.17946H56.9623L57.0423 5.54517H57.0937C57.4686 5.06288 57.9166 4.68117 58.4389 4.40003C58.968 4.11888 59.5577 3.97717 60.2069 3.97717C60.9109 3.97717 61.5166 4.11888 62.0252 4.40003C62.5337 4.68117 62.9166 5.13374 63.1703 5.75546H63.2309C63.6594 5.13374 64.1417 4.68117 64.6766 4.40003C65.2137 4.11888 65.8286 3.97717 66.5257 3.97717C67.5966 3.97717 68.4343 4.28003 69.0366 4.88231C69.6457 5.47774 69.9509 6.47546 69.9509 7.87546V14.6252H68.152V7.85488C68.152 7.0046 67.9714 6.39888 67.6103 6.03774C67.248 5.67546 66.736 5.49488 66.0732 5.49488C65.5303 5.48614 65.0001 5.65911 64.5669 5.98631C64.1319 6.31514 63.7807 6.74194 63.5417 7.23203V14.6263H61.744V7.85488C61.744 7.0046 61.5634 6.39888 61.2011 6.03774C60.84 5.67546 60.3314 5.49488 59.6743 5.49488C59.0994 5.49488 58.5966 5.65946 58.168 5.98631C57.7322 6.31663 57.3783 6.74288 57.1337 7.23203V14.6263L55.336 14.6252ZM72.1394 9.56231V9.24231C72.1394 7.66746 72.5851 6.38174 73.4766 5.38403C74.3669 4.38631 75.5589 3.88688 77.0526 3.88688C78.5383 3.88688 79.7269 4.38631 80.6183 5.38403C81.5086 6.38174 81.9543 7.66746 81.9543 9.24117V9.5646C81.9543 11.1383 81.5086 12.424 80.6171 13.4217C79.7269 14.4195 78.5383 14.9189 77.0514 14.9189C75.5589 14.9189 74.3657 14.4195 73.4766 13.4217C72.5851 12.424 72.1394 11.1383 72.1394 9.5646V9.56231ZM73.9794 9.24231V9.56231C73.9794 10.6549 74.2366 11.5749 74.752 12.3257C75.2674 13.0686 76.0309 13.44 77.0423 13.44C78.0594 13.44 78.8263 13.0686 79.3417 12.3257C79.8583 11.5749 80.1154 10.6549 80.1154 9.56346V9.24117C80.1154 8.14974 79.8583 7.23203 79.3417 6.48917C78.8274 5.73946 78.0594 5.3646 77.0423 5.3646C76.0309 5.3646 75.2674 5.73946 74.752 6.48917C74.2366 7.23203 73.9783 8.14974 73.9783 9.24117L73.9794 9.24231ZM84.2446 14.6252V4.17946H85.8709L85.9509 5.53488H86.0023C86.2697 5.0926 86.6217 4.7086 87.056 4.3806C87.4914 4.05146 88.0103 3.88803 88.6137 3.88803C88.7611 3.88803 88.9143 3.90403 89.0754 3.93831C89.2354 3.97146 89.3497 4.00117 89.4171 4.0286V5.69603C89.2834 5.6686 89.1429 5.64917 88.9943 5.63546C88.848 5.61488 88.6869 5.60574 88.5131 5.60574C87.9166 5.60574 87.408 5.76231 86.9863 6.07774C86.5724 6.38245 86.2467 6.79138 86.0423 7.26288V14.6252H84.2446ZM90.3006 9.56231V9.24231C90.3006 7.66746 90.7291 6.38174 91.5863 5.38403C92.4503 4.38631 93.5886 3.88688 95.0023 3.88688C96.4217 3.88688 97.5097 4.35317 98.2663 5.28346C99.0297 6.21488 99.4114 7.47774 99.4114 9.07088V9.80346H91.3954V8.35774H97.6126V8.13717C97.6126 7.37374 97.3954 6.72003 96.9612 6.17831C96.5314 5.63546 95.9063 5.3646 95.0823 5.3646C94.0983 5.3646 93.3611 5.73946 92.872 6.48917C92.384 7.23203 92.1394 8.14974 92.1394 9.24117V9.5646C92.1394 10.656 92.3966 11.576 92.912 12.3269C93.4286 13.0697 94.2217 13.4412 95.2926 13.4412C95.9554 13.4412 96.5257 13.2972 97.0011 13.0092C97.4823 12.7143 97.8743 12.3669 98.176 11.9646L99.3303 12.8995C99.0103 13.3943 98.504 13.856 97.8149 14.2846C97.1246 14.7075 96.2834 14.9177 95.2926 14.9177C93.6857 14.9177 92.4503 14.4229 91.5863 13.432C90.7291 12.4332 90.3006 11.144 90.3006 9.5646V9.56231Z" fill="white"/>
</svg>
