<svg width="591" height="65" viewBox="0 0 591 65" fill="none" xmlns="http://www.w3.org/2000/svg">
<path d="M7.72676 20.7033C6.125 20.7033 4.78099 20.4655 3.69473 19.9901C2.60847 19.4964 1.77077 18.8655 1.18161 18.0975C0.610869 17.3113 0.307086 16.4792 0.270264 15.6015C0.270264 15.4552 0.325497 15.3273 0.435964 15.2175C0.564841 15.0895 0.71213 15.0255 0.87783 15.0255H2.28628C2.50721 15.0255 2.67291 15.0804 2.78338 15.1901C2.89131 15.2954 2.96778 15.4283 3.00431 15.5741C3.09637 16.013 3.3173 16.4518 3.66711 16.8907C4.03534 17.3113 4.54164 17.6678 5.18603 17.9604C5.84883 18.2347 6.69574 18.3718 7.72676 18.3718C9.31012 18.3718 10.47 18.0975 11.2065 17.549C11.9613 16.9821 12.3387 16.2324 12.3387 15.2998C12.3387 14.6598 12.1362 14.1478 11.7312 13.7638C11.3445 13.3615 10.7462 13.005 9.9361 12.6941C9.12601 12.3833 8.07658 12.045 6.7878 11.6792C5.44379 11.2952 4.32991 10.8747 3.44618 10.4175C2.56245 9.96039 1.89965 9.39354 1.45778 8.71696C1.03432 8.04039 0.822597 7.18097 0.822597 6.13868C0.822597 5.15125 1.08956 4.27353 1.62348 3.50554C2.1574 2.71925 2.92146 2.09753 3.91566 1.64039C4.92828 1.18325 6.15261 0.954678 7.58868 0.954678C8.73017 0.954678 9.72437 1.11011 10.5713 1.42097C11.4366 1.71354 12.1546 2.11582 12.7254 2.62782C13.2961 3.12154 13.7288 3.66096 14.0234 4.24611C14.3179 4.81297 14.4744 5.37068 14.4928 5.91925C14.4889 6.05854 14.4406 6.19299 14.3548 6.30325C14.2627 6.41296 14.1154 6.46782 13.9129 6.46782H12.4492C12.3044 6.46371 12.1626 6.42615 12.035 6.35811C11.9061 6.28497 11.8048 6.14782 11.7312 5.94668C11.6207 5.19696 11.1973 4.5661 10.4608 4.0541C9.72437 3.54211 8.76699 3.28611 7.58868 3.28611C6.39196 3.28611 5.41617 3.51468 4.66131 3.97182C3.92487 4.42896 3.55665 5.14211 3.55665 6.11125C3.55665 6.73297 3.73155 7.25411 4.08136 7.67468C4.43118 8.07697 4.98351 8.43353 5.73836 8.74439C6.49322 9.05525 7.47821 9.38439 8.69335 9.73182C10.1662 10.1341 11.3722 10.5638 12.3111 11.021C13.2501 11.4598 13.9405 12.0175 14.3824 12.6941C14.8427 13.3524 15.0728 14.2027 15.0728 15.245C15.0728 16.397 14.769 17.3844 14.1614 18.2073C13.5539 19.0118 12.6978 19.6335 11.5931 20.0724C10.5068 20.493 9.21806 20.7033 7.72676 20.7033ZM22.3383 20.7033C21.4177 20.7033 20.58 20.5204 19.8252 20.1547C19.1045 19.8169 18.4786 19.3082 18.0025 18.6735C17.5422 18.0518 17.312 17.3478 17.312 16.5615C17.312 15.2998 17.8276 14.2941 18.8586 13.5444C19.8896 12.7947 21.2336 12.301 22.8906 12.0633L27.0055 11.4873V10.6918C27.0055 9.81411 26.7477 9.1284 26.2322 8.63468C25.7351 8.14096 24.9158 7.8941 23.7743 7.8941C22.9459 7.8941 22.2738 8.05868 21.7583 8.38782C21.2844 8.68914 20.9174 9.13038 20.7089 9.64953C20.5984 9.92382 20.4051 10.061 20.129 10.061H18.8862C18.6837 10.061 18.5272 10.0061 18.4167 9.89639C18.3247 9.76851 18.2763 9.61471 18.2786 9.45753C18.2786 9.18325 18.3799 8.84496 18.5824 8.44268C18.8034 8.04039 19.1347 7.64725 19.5766 7.26325C20.0185 6.87925 20.58 6.55925 21.2612 6.30325C21.9609 6.02896 22.8078 5.89182 23.802 5.89182C24.9066 5.89182 25.8364 6.03811 26.5912 6.33068C27.3461 6.60496 27.9353 6.97982 28.3587 7.45525C28.8006 7.93068 29.1136 8.47011 29.2977 9.07354C29.4984 9.66576 29.601 10.2864 29.6015 10.9112V19.7981C29.6031 19.8848 29.5867 19.9709 29.5535 20.0512C29.5202 20.1314 29.4708 20.2039 29.4081 20.2644C29.3496 20.3202 29.2802 20.3636 29.2043 20.3919C29.1283 20.4202 29.0473 20.4328 28.9663 20.429H27.6959C27.4934 20.429 27.3369 20.3741 27.2264 20.2644C27.1153 20.1345 27.0563 19.9685 27.0607 19.7981V18.6187C26.7826 18.9877 26.4578 19.3196 26.0942 19.6061C25.6891 19.917 25.1828 20.1821 24.5752 20.4015C23.9677 20.6027 23.222 20.7033 22.3383 20.7033ZM22.9182 18.6461C23.6731 18.6461 24.3635 18.4907 24.9895 18.1798C25.6155 17.8507 26.1034 17.3478 26.4532 16.6712C26.8214 15.9947 27.0055 15.1444 27.0055 14.1204V13.3524L23.802 13.8187C22.4948 14.0015 21.5098 14.3124 20.847 14.7512C20.1842 15.1718 19.8528 15.7113 19.8528 16.3695C19.8528 16.8815 20.0001 17.3113 20.2946 17.6587C20.6166 17.9935 21.0142 18.2474 21.4545 18.3993C21.9332 18.5638 22.4211 18.6461 22.9182 18.6461ZM35.7876 25.6404C35.7153 25.6407 35.6436 25.6262 35.5771 25.5979C35.5106 25.5696 35.4507 25.528 35.401 25.4758C35.3484 25.4265 35.3066 25.3669 35.2781 25.3009C35.2496 25.2348 35.235 25.1637 35.2353 25.0918C35.2353 25.0187 35.2445 24.9455 35.2629 24.8724C35.2813 24.7992 35.3181 24.7078 35.3734 24.5981L37.4998 19.5787L32.225 7.20839C32.133 6.98896 32.087 6.83353 32.087 6.74211C32.0844 6.66578 32.0977 6.58974 32.1259 6.5187C32.1541 6.44767 32.1968 6.38315 32.2511 6.32915C32.3055 6.27514 32.3705 6.23281 32.442 6.20476C32.5135 6.17672 32.5901 6.16356 32.6669 6.1661H34.0201C34.1792 6.15799 34.3359 6.20664 34.462 6.30325C34.5679 6.38787 34.645 6.50278 34.6829 6.63239L38.8807 16.6164L43.1889 6.63239C43.2406 6.50962 43.3156 6.39788 43.4098 6.30325C43.5203 6.21182 43.6768 6.1661 43.8793 6.1661H45.1773C45.254 6.16397 45.3303 6.17747 45.4016 6.20578C45.4728 6.23408 45.5375 6.27659 45.5915 6.33068C45.6441 6.38004 45.6859 6.43958 45.7144 6.50563C45.7429 6.57168 45.7575 6.64283 45.7572 6.71468C45.7572 6.80611 45.7112 6.97068 45.6191 7.20839L37.776 25.1741C37.7209 25.302 37.6356 25.4149 37.5275 25.5033C37.4354 25.5947 37.2881 25.6404 37.0856 25.6404H35.7876ZM60.409 26.4632C59.1571 26.4632 58.126 26.2987 57.3159 25.9695C56.5243 25.6404 55.8983 25.2381 55.438 24.7627C54.9961 24.3055 54.674 23.8392 54.4714 23.3638C54.2873 22.9067 54.1861 22.541 54.1676 22.2667C54.1568 22.1815 54.1661 22.095 54.1949 22.014C54.2236 21.9331 54.271 21.8599 54.3333 21.8004C54.4603 21.6805 54.6277 21.6121 54.8028 21.6084H56.1284C56.2744 21.603 56.4187 21.6412 56.5427 21.7181C56.6531 21.7912 56.7452 21.9467 56.8188 22.1844C56.9293 22.4587 57.095 22.7604 57.3159 23.0895C57.5369 23.437 57.8775 23.7295 58.3378 23.9672C58.798 24.2232 59.4424 24.3512 60.2709 24.3512C61.1362 24.3512 61.8635 24.2324 62.4526 23.9947C63.0418 23.7752 63.4837 23.373 63.7782 22.7878C64.0912 22.221 64.2477 21.4347 64.2477 20.429V18.5638C63.8059 19.1307 63.2259 19.6061 62.5079 19.9901C61.7898 20.3558 60.8877 20.5387 59.8014 20.5387C58.7704 20.5387 57.8867 20.365 57.1502 20.0175C56.4138 19.6518 55.8062 19.1673 55.3275 18.5638C54.8673 17.9421 54.5175 17.2381 54.2781 16.4518C54.0542 15.6464 53.9244 14.8181 53.8915 13.9832C53.8731 13.4712 53.8731 12.9684 53.8915 12.4747C53.9283 11.6152 54.0572 10.7924 54.2781 10.0061C54.5175 9.21982 54.8673 8.51582 55.3275 7.8941C55.8062 7.27239 56.4138 6.78782 57.1502 6.44039C57.8867 6.07468 58.7704 5.89182 59.8014 5.89182C60.9061 5.89182 61.8175 6.1021 62.5355 6.52267C63.2719 6.92496 63.8703 7.41868 64.3306 8.00382V6.82439C64.3306 6.64153 64.3858 6.48611 64.4963 6.35811C64.5572 6.29593 64.6302 6.2468 64.711 6.21378C64.7917 6.18075 64.8784 6.16453 64.9658 6.1661H66.2361C66.4202 6.1661 66.5767 6.23011 66.7056 6.35811C66.7682 6.41857 66.8177 6.49115 66.8509 6.57135C66.8842 6.65155 66.9005 6.73767 66.8989 6.82439V20.1273C66.8989 21.3524 66.6872 22.4404 66.2637 23.3913C65.8587 24.3421 65.1775 25.0918 64.2201 25.6404C63.2811 26.189 62.0108 26.4632 60.409 26.4632ZM60.3538 18.3444C61.2743 18.3444 62.0108 18.1341 62.5631 17.7135C63.1339 17.293 63.5481 16.7627 63.8059 16.1227C64.082 15.4827 64.2293 14.8335 64.2477 14.1753C64.2661 13.9193 64.2753 13.6084 64.2753 13.2427C64.2753 12.8587 64.2661 12.5387 64.2477 12.2827C64.2264 11.6115 64.0765 10.9506 63.8059 10.3353C63.5511 9.69908 63.1203 9.14753 62.5631 8.74439C62.0108 8.32382 61.2743 8.11354 60.3538 8.11354C59.4332 8.11354 58.6968 8.32382 58.1444 8.74439C57.5901 9.14931 57.1753 9.71454 56.9569 10.3627C56.7117 11.0512 56.572 11.7724 56.5427 12.5021C56.5243 12.9865 56.5243 13.4714 56.5427 13.9558C56.5738 14.6943 56.7134 15.4243 56.9569 16.1227C57.1851 16.7657 57.598 17.3283 58.1444 17.741C58.6968 18.1432 59.4332 18.3444 60.3538 18.3444ZM76.887 20.7033C75.4877 20.7033 74.3186 20.4381 73.3796 19.9078C72.4623 19.3996 71.7138 18.6372 71.2255 17.7135C70.7284 16.7627 70.4523 15.6838 70.397 14.477C70.3786 14.1661 70.3694 13.773 70.3694 13.2975C70.3694 12.8038 70.3786 12.4107 70.397 12.1181C70.4523 10.893 70.7284 9.81411 71.2255 8.88154C71.7298 7.96031 72.4861 7.19958 73.4073 6.68725C74.3462 6.15696 75.5061 5.89182 76.887 5.89182C78.2678 5.89182 79.4277 6.15696 80.3666 6.68725C81.284 7.19545 82.0324 7.95791 82.5208 8.88154C83.0363 9.81411 83.3216 10.893 83.3769 12.1181C83.3953 12.4107 83.4045 12.8038 83.4045 13.2975C83.4045 13.773 83.3953 14.1661 83.3769 14.477C83.3216 15.6838 83.0455 16.7627 82.5484 17.7135C82.0601 18.6372 81.3116 19.3996 80.3943 19.9078C79.4553 20.4381 78.2862 20.7033 76.887 20.7033ZM76.887 18.5913C78.0284 18.5913 78.9398 18.2347 79.621 17.5215C80.3022 16.7901 80.6704 15.7295 80.7257 14.3398C80.7441 14.0655 80.7533 13.7181 80.7533 13.2975C80.7533 12.877 80.7441 12.5295 80.7257 12.2553C80.6704 10.8655 80.3022 9.81411 79.621 9.10096C78.9398 8.36953 78.0284 8.00382 76.887 8.00382C75.7455 8.00382 74.8249 8.36953 74.1253 9.10096C73.4441 9.81411 73.0851 10.8655 73.0482 12.2553C73.0298 12.5295 73.0206 12.877 73.0206 13.2975C73.0206 13.7181 73.0298 14.0655 73.0482 14.3398C73.0851 15.7295 73.4441 16.7901 74.1253 17.5215C74.8249 18.2347 75.7455 18.5913 76.887 18.5913ZM92.7447 20.7033C91.3454 20.7033 90.1763 20.4381 89.2374 19.9078C88.3201 19.3996 87.5716 18.6372 87.0833 17.7135C86.5862 16.7627 86.31 15.6838 86.2548 14.477C86.2363 14.1661 86.2271 13.773 86.2271 13.2975C86.2271 12.8038 86.2363 12.4107 86.2548 12.1181C86.31 10.893 86.5862 9.81411 87.0833 8.88154C87.5875 7.96031 88.3438 7.19958 89.265 6.68725C90.2039 6.15696 91.3638 5.89182 92.7447 5.89182C94.1255 5.89182 95.2854 6.15696 96.2244 6.68725C97.1417 7.19545 97.8902 7.95791 98.3785 8.88154C98.894 9.81411 99.1794 10.893 99.2346 12.1181C99.253 12.4107 99.2622 12.8038 99.2622 13.2975C99.2622 13.773 99.253 14.1661 99.2346 14.477C99.1794 15.6838 98.9032 16.7627 98.4061 17.7135C97.9178 18.6372 97.1693 19.3996 96.252 19.9078C95.313 20.4381 94.1439 20.7033 92.7447 20.7033ZM92.7447 18.5913C93.8862 18.5913 94.7975 18.2347 95.4787 17.5215C96.1599 16.7901 96.5282 15.7295 96.5834 14.3398C96.6018 14.0655 96.611 13.7181 96.611 13.2975C96.611 12.877 96.6018 12.5295 96.5834 12.2553C96.5282 10.8655 96.1599 9.81411 95.4787 9.10096C94.7975 8.36953 93.8862 8.00382 92.7447 8.00382C91.6032 8.00382 90.6826 8.36953 89.983 9.10096C89.3018 9.81411 88.9428 10.8655 88.906 12.2553C88.8876 12.5295 88.8783 12.877 88.8783 13.2975C88.8783 13.7181 88.8876 14.0655 88.906 14.3398C88.9428 15.7295 89.3018 16.7901 89.983 17.5215C90.6826 18.2347 91.6032 18.5913 92.7447 18.5913ZM107.968 20.7033C106.956 20.7033 106.081 20.5295 105.345 20.1821C104.608 19.8164 104.001 19.3318 103.522 18.7284C103.062 18.1067 102.712 17.4027 102.473 16.6164C102.247 15.802 102.118 14.9644 102.086 14.1204C102.068 13.8278 102.058 13.5535 102.058 13.2975C102.058 13.0415 102.068 12.7673 102.086 12.4747C102.123 11.6152 102.252 10.7924 102.473 10.0061C102.712 9.21982 103.062 8.51582 103.522 7.8941C104.001 7.27239 104.608 6.78782 105.345 6.44039C106.081 6.07468 106.956 5.89182 107.968 5.89182C109.055 5.89182 109.957 6.08382 110.675 6.46782C111.354 6.82063 111.955 7.30569 112.442 7.8941V1.58553C112.442 1.40268 112.497 1.25639 112.608 1.14668C112.669 1.0845 112.742 1.03537 112.823 1.00235C112.903 0.969322 112.99 0.953102 113.077 0.954678H114.403C114.487 0.951408 114.57 0.966988 114.646 1.00024C114.723 1.0335 114.791 1.08357 114.845 1.14668C114.908 1.20055 114.959 1.26803 114.992 1.34404C115.026 1.42006 115.042 1.50262 115.038 1.58553V19.7981C115.04 19.8848 115.023 19.9709 114.99 20.0512C114.957 20.1314 114.908 20.2039 114.845 20.2644C114.786 20.3202 114.717 20.3636 114.641 20.3919C114.565 20.4202 114.484 20.4328 114.403 20.429H113.16C112.958 20.429 112.801 20.3741 112.691 20.2644C112.58 20.1345 112.521 19.9685 112.525 19.7981V18.6461C112.065 19.2313 111.466 19.725 110.73 20.1273C109.994 20.5113 109.073 20.7033 107.968 20.7033ZM108.548 18.4815C109.469 18.4815 110.205 18.2713 110.758 17.8507C111.31 17.4301 111.724 16.8998 112 16.2598C112.277 15.6015 112.424 14.9341 112.442 14.2575C112.461 13.965 112.47 13.6175 112.47 13.2153C112.47 12.7947 112.461 12.4381 112.442 12.1455C112.42 11.4891 112.26 10.8446 111.973 10.253C111.697 9.63125 111.273 9.11925 110.702 8.71696C110.15 8.31468 109.432 8.11354 108.548 8.11354C107.609 8.11354 106.864 8.32382 106.311 8.74439C105.757 9.14931 105.342 9.71454 105.124 10.3627C104.879 11.0512 104.739 11.7724 104.71 12.5021C104.691 13.0322 104.691 13.5628 104.71 14.093C104.741 14.8314 104.88 15.5614 105.124 16.2598C105.352 16.9029 105.765 17.4655 106.311 17.8781C106.864 18.2804 107.609 18.4815 108.548 18.4815ZM126.243 20.7033C125.138 20.7033 124.217 20.5113 123.481 20.1273C122.744 19.725 122.155 19.2313 121.713 18.6461V19.7981C121.715 19.8848 121.699 19.9709 121.665 20.0512C121.632 20.1314 121.583 20.2039 121.52 20.2644C121.462 20.3202 121.392 20.3636 121.316 20.3919C121.24 20.4202 121.159 20.4328 121.078 20.429H119.808C119.636 20.4334 119.469 20.3748 119.338 20.2644C119.227 20.1345 119.168 19.9685 119.173 19.7981V1.58553C119.173 1.40268 119.228 1.25639 119.338 1.14668C119.399 1.0845 119.472 1.03537 119.553 1.00235C119.634 0.969322 119.721 0.953102 119.808 0.954678H121.133C121.221 0.949562 121.309 0.964169 121.39 0.997414C121.472 1.03065 121.544 1.08167 121.603 1.14668C121.659 1.20481 121.703 1.27371 121.731 1.34916C121.76 1.42461 121.772 1.50504 121.769 1.58553V7.8941C122.229 7.32725 122.818 6.85182 123.536 6.46782C124.273 6.08382 125.175 5.89182 126.243 5.89182C127.274 5.89182 128.148 6.07468 128.866 6.44039C129.578 6.76771 130.195 7.26763 130.661 7.8941C131.14 8.51582 131.499 9.21982 131.738 10.0061C131.978 10.7924 132.106 11.6152 132.125 12.4747C132.143 12.7673 132.153 13.0415 132.153 13.2975C132.153 13.5535 132.143 13.8278 132.125 14.1204C132.111 14.966 131.981 15.8059 131.738 16.6164C131.511 17.3793 131.146 18.0949 130.661 18.7284C130.201 19.3318 129.603 19.8164 128.866 20.1821C128.148 20.5295 127.274 20.7033 126.243 20.7033ZM125.663 18.4815C126.62 18.4815 127.366 18.2804 127.9 17.8781C128.452 17.4575 128.848 16.9181 129.087 16.2598C129.326 15.5832 129.464 14.861 129.501 14.093C129.52 13.5627 129.52 13.0324 129.501 12.5021C129.472 11.7724 129.332 11.0512 129.087 10.3627C128.869 9.71454 128.454 9.14931 127.9 8.74439C127.366 8.32382 126.62 8.11354 125.663 8.11354C124.797 8.11354 124.079 8.31468 123.508 8.71696C122.948 9.10723 122.5 9.6369 122.211 10.253C121.94 10.8491 121.79 11.4921 121.769 12.1455C121.748 12.5017 121.739 12.8585 121.741 13.2153C121.741 13.6175 121.75 13.965 121.769 14.2575C121.808 14.9441 121.957 15.62 122.211 16.2598C122.487 16.8998 122.901 17.4301 123.453 17.8507C124.024 18.2713 124.76 18.4815 125.663 18.4815ZM137.544 25.6404C137.471 25.6407 137.4 25.6262 137.333 25.5979C137.267 25.5696 137.207 25.528 137.157 25.4758C137.104 25.4265 137.062 25.3669 137.034 25.3009C137.005 25.2348 136.991 25.1637 136.991 25.0918C136.991 25.0187 137 24.9455 137.019 24.8724C137.037 24.7992 137.074 24.7078 137.129 24.5981L139.256 19.5787L133.981 7.20839C133.889 6.98896 133.843 6.83353 133.843 6.74211C133.84 6.66578 133.854 6.58974 133.882 6.5187C133.91 6.44767 133.953 6.38315 134.007 6.32915C134.061 6.27514 134.126 6.23281 134.198 6.20476C134.269 6.17672 134.346 6.16356 134.423 6.1661H135.776C135.935 6.15799 136.092 6.20664 136.218 6.30325C136.324 6.38787 136.401 6.50278 136.439 6.63239L140.637 16.6164L144.945 6.63239C144.996 6.50962 145.072 6.39788 145.166 6.30325C145.276 6.21182 145.433 6.1661 145.635 6.1661H146.933C147.01 6.16397 147.086 6.17747 147.157 6.20578C147.229 6.23408 147.293 6.27659 147.347 6.33068C147.4 6.38004 147.442 6.43958 147.47 6.50563C147.499 6.57168 147.513 6.64283 147.513 6.71468C147.513 6.80611 147.467 6.97068 147.375 7.20839L139.532 25.1741C139.477 25.302 139.392 25.4149 139.283 25.5033C139.191 25.5947 139.044 25.6404 138.841 25.6404H137.544ZM155.472 20.7033C153.576 20.7033 152.066 20.1272 150.943 18.9752C149.82 17.805 149.204 16.2141 149.093 14.2027C149.075 13.965 149.065 13.6632 149.065 13.2975C149.065 12.9135 149.075 12.6027 149.093 12.365C149.167 11.0667 149.47 9.93296 150.004 8.96382C150.538 7.97639 151.266 7.21753 152.186 6.68725C153.125 6.15696 154.221 5.89182 155.472 5.89182C156.872 5.89182 158.041 6.18439 158.98 6.76954C159.937 7.35468 160.664 8.18668 161.162 9.26553C161.659 10.3444 161.907 11.6061 161.907 13.0507V13.517C161.912 13.6041 161.898 13.6913 161.864 13.772C161.831 13.8528 161.779 13.925 161.714 13.9832C161.655 14.0391 161.586 14.0824 161.51 14.1107C161.434 14.139 161.353 14.1516 161.272 14.1478H151.717V14.3947C151.748 15.1233 151.917 15.8396 152.214 16.5067C152.493 17.1284 152.931 17.6672 153.484 18.0701C154.036 18.4724 154.699 18.6735 155.472 18.6735C156.135 18.6735 156.688 18.573 157.129 18.3718C157.571 18.1707 157.93 17.9512 158.207 17.7135C158.483 17.4575 158.667 17.2655 158.759 17.1375C158.925 16.8998 159.053 16.7627 159.146 16.7261C159.238 16.6712 159.385 16.6438 159.587 16.6438H160.913C161.097 16.6438 161.244 16.6987 161.355 16.8084C161.484 16.8998 161.539 17.037 161.521 17.2198C161.502 17.4941 161.355 17.8324 161.079 18.2347C160.803 18.6187 160.407 19.0027 159.891 19.3867C159.376 19.7707 158.75 20.0907 158.013 20.3467C157.277 20.5844 156.43 20.7033 155.472 20.7033ZM151.717 12.2553H159.284V12.173C159.284 11.3501 159.127 10.6187 158.814 9.97868C158.52 9.33868 158.087 8.83582 157.516 8.47011C156.945 8.08611 156.264 7.8941 155.472 7.8941C154.681 7.8941 154 8.08611 153.429 8.47011C152.87 8.84335 152.43 9.3665 152.158 9.97868C151.864 10.6187 151.717 11.3501 151.717 12.173V12.2553ZM176.99 20.429C175.959 20.429 175.123 20.237 174.479 19.853C173.834 19.4507 173.365 18.893 173.07 18.1798C172.775 17.4484 172.628 16.589 172.628 15.6015V8.36039H170.473C170.302 8.3645 170.135 8.30592 170.005 8.19582C169.893 8.06594 169.834 7.89992 169.839 7.72953V6.79696C169.839 6.61411 169.894 6.46782 170.005 6.35811C170.065 6.29607 170.138 6.24702 170.219 6.214C170.299 6.18098 170.386 6.16468 170.473 6.1661H172.628V1.58553C172.628 1.40268 172.683 1.25639 172.793 1.14668C172.854 1.08435 172.927 1.03515 173.008 1.00212C173.089 0.969093 173.176 0.952942 173.263 0.954678H174.56C174.644 0.951408 174.727 0.966988 174.803 1.00024C174.88 1.0335 174.948 1.08357 175.002 1.14668C175.066 1.20055 175.116 1.26803 175.15 1.34404C175.183 1.42006 175.199 1.50262 175.195 1.58553V6.1661H178.62C178.703 6.16283 178.786 6.17842 178.863 6.21168C178.94 6.24493 179.007 6.295 179.062 6.35811C179.125 6.41198 179.176 6.47945 179.209 6.55547C179.243 6.63148 179.258 6.71406 179.255 6.79696V7.72953C179.257 7.81625 179.24 7.90238 179.207 7.98258C179.174 8.06278 179.124 8.13535 179.062 8.19582C179.003 8.25163 178.934 8.295 178.858 8.32329C178.782 8.35159 178.701 8.36421 178.62 8.36039H175.195V15.4095C175.195 16.269 175.344 16.9455 175.638 17.4393C175.932 17.933 176.458 18.1798 177.211 18.1798H178.897C178.981 18.1766 179.064 18.1921 179.14 18.2254C179.217 18.2586 179.285 18.3087 179.339 18.3718C179.403 18.4257 179.453 18.4932 179.486 18.5692C179.52 18.6452 179.536 18.7278 179.532 18.8107V19.7981C179.534 19.8848 179.518 19.9709 179.484 20.0512C179.451 20.1314 179.402 20.2039 179.339 20.2644C179.281 20.3202 179.211 20.3636 179.135 20.3919C179.059 20.4202 178.978 20.4328 178.897 20.429H176.99ZM188.054 20.7033C186.655 20.7033 185.486 20.4381 184.547 19.9078C183.63 19.3994 182.882 18.637 182.394 17.7135C181.897 16.7627 181.621 15.6838 181.566 14.477C181.545 14.0842 181.535 13.6909 181.537 13.2975C181.537 12.8038 181.546 12.4107 181.566 12.1181C181.621 10.893 181.897 9.81411 182.394 8.88154C182.898 7.96047 183.654 7.19975 184.575 6.68725C185.514 6.15696 186.675 5.89182 188.056 5.89182C189.436 5.89182 190.596 6.15696 191.535 6.68725C192.452 7.19563 193.2 7.95807 193.688 8.88154C194.204 9.81411 194.489 10.893 194.544 12.1181C194.564 12.4107 194.573 12.8038 194.573 13.2975C194.573 13.773 194.564 14.1661 194.544 14.477C194.489 15.6838 194.213 16.7627 193.716 17.7135C193.228 18.637 192.48 19.3994 191.563 19.9078C190.624 20.4381 189.455 20.7033 188.056 20.7033H188.054ZM188.054 18.5913C189.197 18.5913 190.108 18.2347 190.79 17.5215C191.471 16.7901 191.838 15.7295 191.894 14.3398C191.913 14.0655 191.922 13.7181 191.922 13.2975C191.922 12.877 191.913 12.5295 191.893 12.2553C191.838 10.8655 191.471 9.81411 190.788 9.10096C190.108 8.36953 189.197 8.00382 188.056 8.00382C186.913 8.00382 185.992 8.36953 185.294 9.10096C184.613 9.81411 184.254 10.8655 184.217 12.2553C184.196 12.6023 184.186 12.9499 184.188 13.2975C184.188 13.7181 184.197 14.0655 184.217 14.3398C184.253 15.7295 184.613 16.7901 185.294 17.5215C185.992 18.2347 186.913 18.5913 188.056 18.5913H188.054ZM205.436 20.429C205.264 20.4334 205.097 20.3748 204.966 20.2644C204.855 20.1345 204.796 19.9685 204.8 19.7981V6.79696C204.8 6.61411 204.856 6.46782 204.966 6.35811C205.027 6.29593 205.1 6.2468 205.181 6.21378C205.262 6.18075 205.348 6.16453 205.436 6.1661H206.678C206.762 6.16283 206.845 6.17842 206.922 6.21168C206.998 6.24493 207.066 6.295 207.12 6.35811C207.184 6.41198 207.234 6.47945 207.268 6.55547C207.301 6.63148 207.317 6.71406 207.314 6.79696V7.75697C207.737 7.19011 208.271 6.74211 208.915 6.41296C209.56 6.06554 210.333 5.89182 211.235 5.89182C213.316 5.87354 214.788 6.71468 215.654 8.41525C216.083 7.64127 216.725 7.00407 217.504 6.57753C218.314 6.12039 219.235 5.89182 220.266 5.89182C221.223 5.89182 222.089 6.11125 222.862 6.55011C223.653 6.98896 224.27 7.65639 224.712 8.55239C225.172 9.43011 225.402 10.5364 225.402 11.8713V19.7981C225.404 19.8848 225.388 19.9709 225.355 20.0512C225.321 20.1314 225.272 20.2039 225.209 20.2644C225.151 20.3202 225.081 20.3636 225.005 20.3919C224.929 20.4202 224.848 20.4328 224.767 20.429H223.469C223.298 20.4334 223.131 20.3748 223 20.2644C222.889 20.1345 222.83 19.9685 222.834 19.7981V12.1181C222.834 11.0941 222.687 10.2895 222.392 9.70439C222.098 9.11925 221.702 8.70782 221.205 8.47011C220.696 8.22976 220.139 8.10781 219.575 8.11354C219.097 8.11354 218.609 8.2324 218.112 8.47011C217.615 8.70782 217.2 9.11925 216.869 9.70439C216.556 10.2895 216.399 11.0941 216.399 12.1181V19.7981C216.401 19.8848 216.385 19.9709 216.351 20.0512C216.318 20.1314 216.269 20.2039 216.206 20.2644C216.148 20.3202 216.078 20.3636 216.002 20.3919C215.926 20.4202 215.845 20.4328 215.764 20.429H214.466C214.295 20.4334 214.128 20.3748 213.997 20.2644C213.886 20.1345 213.827 19.9685 213.831 19.7981V12.1181C213.831 11.0941 213.675 10.2895 213.362 9.70439C213.049 9.11925 212.644 8.70782 212.146 8.47011C211.656 8.23386 211.118 8.11191 210.572 8.11354C210.094 8.11354 209.606 8.2324 209.109 8.47011C208.612 8.70782 208.197 9.11925 207.866 9.70439C207.553 10.2895 207.396 11.085 207.396 12.0907V19.7981C207.398 19.8848 207.382 19.9709 207.348 20.0512C207.315 20.1314 207.266 20.2039 207.203 20.2644C207.145 20.3202 207.075 20.3636 206.999 20.3919C206.923 20.4202 206.842 20.4328 206.761 20.429H205.436ZM233.347 20.7033C232.426 20.7033 231.589 20.5204 230.834 20.1547C230.113 19.8169 229.487 19.3082 229.011 18.6735C228.551 18.0518 228.321 17.3478 228.321 16.5615C228.321 15.2998 228.836 14.2941 229.867 13.5444C230.898 12.7947 232.242 12.301 233.899 12.0633L238.014 11.4873V10.6918C238.014 9.81411 237.756 9.1284 237.241 8.63468C236.744 8.14096 235.924 7.8941 234.783 7.8941C233.954 7.8941 233.282 8.05868 232.767 8.38782C232.293 8.68914 231.926 9.13038 231.718 9.64953C231.607 9.92382 231.414 10.061 231.138 10.061H229.895C229.692 10.061 229.536 10.0061 229.425 9.89639C229.333 9.76851 229.285 9.61471 229.287 9.45753C229.287 9.18325 229.389 8.84496 229.591 8.44268C229.812 8.04039 230.143 7.64725 230.585 7.26325C231.027 6.87925 231.589 6.55925 232.27 6.30325C232.969 6.02896 233.816 5.89182 234.811 5.89182C235.915 5.89182 236.845 6.03811 237.6 6.33068C238.355 6.60496 238.944 6.97982 239.367 7.45525C239.809 7.93068 240.122 8.47011 240.306 9.07354C240.507 9.66576 240.61 10.2864 240.61 10.9112V19.7981C240.612 19.8848 240.595 19.9709 240.562 20.0512C240.529 20.1314 240.479 20.2039 240.417 20.2644C240.358 20.3202 240.289 20.3636 240.213 20.3919C240.137 20.4202 240.056 20.4328 239.975 20.429H238.705C238.502 20.429 238.346 20.3741 238.235 20.2644C238.124 20.1345 238.065 19.9685 238.069 19.7981V18.6187C237.791 18.9877 237.466 19.3196 237.103 19.6061C236.698 19.917 236.191 20.1821 235.584 20.4015C234.976 20.6027 234.231 20.7033 233.347 20.7033ZM233.927 18.6461C234.682 18.6461 235.372 18.4907 235.998 18.1798C236.624 17.8507 237.112 17.3478 237.462 16.6712C237.83 15.9947 238.014 15.1444 238.014 14.1204V13.3524L234.811 13.8187C233.503 14.0015 232.518 14.3124 231.856 14.7512C231.193 15.1718 230.861 15.7113 230.861 16.3695C230.861 16.8815 231.009 17.3113 231.303 17.6587C231.625 17.9935 232.023 18.2474 232.463 18.3993C232.942 18.5638 233.43 18.6461 233.927 18.6461ZM245.215 20.429C245.044 20.4334 244.876 20.3748 244.746 20.2644C244.635 20.1345 244.576 19.9685 244.58 19.7981V6.79696C244.58 6.61411 244.635 6.46782 244.746 6.35811C244.807 6.29593 244.88 6.2468 244.96 6.21378C245.041 6.18075 245.128 6.16453 245.215 6.1661H246.513C246.597 6.16283 246.68 6.17842 246.756 6.21168C246.833 6.24493 246.901 6.295 246.955 6.35811C247.019 6.41198 247.069 6.47945 247.102 6.55547C247.136 6.63148 247.152 6.71406 247.148 6.79696V8.00382C247.627 7.38211 248.225 6.87925 248.943 6.49525C249.68 6.09296 250.619 5.89182 251.76 5.89182C252.957 5.89182 253.97 6.15696 254.798 6.68725C255.643 7.19703 256.309 7.9539 256.704 8.85411C257.127 9.76839 257.339 10.8381 257.339 12.0633V19.7981C257.343 19.9685 257.284 20.1345 257.173 20.2644C257.115 20.3202 257.045 20.3636 256.969 20.3919C256.893 20.4202 256.812 20.4328 256.731 20.429H255.35C255.179 20.4334 255.012 20.3748 254.881 20.2644C254.77 20.1345 254.711 19.9685 254.715 19.7981V12.2004C254.715 10.9204 254.402 9.92382 253.776 9.21068C253.15 8.47925 252.23 8.11354 251.015 8.11354C249.873 8.11354 248.953 8.47925 248.253 9.21068C247.572 9.92382 247.231 10.9204 247.231 12.2004V19.7981C247.233 19.8848 247.216 19.9709 247.183 20.0512C247.15 20.1314 247.1 20.2039 247.038 20.2644C246.979 20.3202 246.91 20.3636 246.834 20.3919C246.758 20.4202 246.677 20.4328 246.596 20.429H245.215ZM266.686 20.7033C265.508 20.7033 264.504 20.4473 263.676 19.9352C262.866 19.405 262.249 18.6735 261.825 17.741C261.402 16.8084 261.19 15.7387 261.19 14.5318V6.79696C261.19 6.61411 261.245 6.46782 261.356 6.35811C261.417 6.29593 261.49 6.2468 261.571 6.21378C261.651 6.18075 261.738 6.16453 261.825 6.1661H263.206C263.29 6.16283 263.373 6.17842 263.449 6.21168C263.526 6.24493 263.594 6.295 263.648 6.35811C263.712 6.41198 263.762 6.47945 263.796 6.55547C263.829 6.63148 263.845 6.71406 263.841 6.79696V14.3947C263.841 17.1192 265.038 18.4815 267.432 18.4815C268.573 18.4815 269.484 18.125 270.166 17.4118C270.865 16.6804 271.215 15.6747 271.215 14.3947V6.79696C271.215 6.61411 271.27 6.46782 271.381 6.35811C271.442 6.29598 271.515 6.24689 271.596 6.21387C271.676 6.18085 271.763 6.16459 271.85 6.1661H273.203C273.291 6.16099 273.379 6.17559 273.46 6.20884C273.542 6.24208 273.614 6.2931 273.673 6.35811C273.729 6.41624 273.773 6.48514 273.801 6.56059C273.83 6.63604 273.843 6.71647 273.839 6.79696V19.7981C273.843 19.9685 273.784 20.1345 273.673 20.2644C273.562 20.3741 273.406 20.429 273.203 20.429H271.933C271.762 20.4334 271.594 20.3748 271.464 20.2644C271.353 20.1345 271.294 19.9685 271.298 19.7981V18.5913C270.807 19.226 270.186 19.7496 269.475 20.1273C268.776 20.5113 267.846 20.7033 266.686 20.7033ZM281.945 20.7033C281.025 20.7033 280.187 20.5204 279.432 20.1547C278.712 19.8169 278.086 19.3082 277.609 18.6735C277.149 18.0518 276.919 17.3478 276.919 16.5615C276.919 15.2998 277.435 14.2941 278.466 13.5444C279.497 12.7947 280.841 12.301 282.498 12.0633L286.613 11.4873V10.6918C286.613 9.81411 286.355 9.1284 285.839 8.63468C285.342 8.14096 284.523 7.8941 283.381 7.8941C282.553 7.8941 281.881 8.05868 281.365 8.38782C280.891 8.68914 280.524 9.13038 280.316 9.64953C280.205 9.92382 280.012 10.061 279.736 10.061H278.493C278.291 10.061 278.134 10.0061 278.024 9.89639C277.932 9.76851 277.883 9.61471 277.886 9.45753C277.886 9.18325 277.987 8.84496 278.189 8.44268C278.41 8.04039 278.742 7.64725 279.184 7.26325C279.626 6.87925 280.187 6.55925 280.868 6.30325C281.568 6.02896 282.415 5.89182 283.409 5.89182C284.514 5.89182 285.443 6.03811 286.198 6.33068C286.953 6.60496 287.542 6.97982 287.966 7.45525C288.408 7.93068 288.721 8.47011 288.905 9.07354C289.105 9.66576 289.208 10.2864 289.208 10.9112V19.7981C289.21 19.8848 289.194 19.9709 289.161 20.0512C289.127 20.1314 289.078 20.2039 289.015 20.2644C288.957 20.3202 288.887 20.3636 288.811 20.3919C288.735 20.4202 288.654 20.4328 288.573 20.429H287.303C287.1 20.429 286.944 20.3741 286.833 20.2644C286.722 20.1345 286.663 19.9685 286.668 19.7981V18.6187C286.39 18.9877 286.065 19.3196 285.701 19.6061C285.296 19.917 284.79 20.1821 284.182 20.4015C283.575 20.6027 282.829 20.7033 281.945 20.7033ZM282.525 18.6461C283.28 18.6461 283.971 18.4907 284.597 18.1798C285.223 17.8507 285.71 17.3478 286.06 16.6712C286.428 15.9947 286.613 15.1444 286.613 14.1204V13.3524L283.409 13.8187C282.102 14.0015 281.117 14.3124 280.454 14.7512C279.791 15.1718 279.46 15.7113 279.46 16.3695C279.46 16.8815 279.607 17.3113 279.902 17.6587C280.224 17.9935 280.621 18.2474 281.062 18.3993C281.54 18.5638 282.028 18.6461 282.525 18.6461ZM293.841 20.429C293.67 20.4334 293.503 20.3748 293.372 20.2644C293.261 20.1345 293.202 19.9685 293.206 19.7981V1.58553C293.206 1.40268 293.261 1.25639 293.372 1.14668C293.433 1.0845 293.506 1.03537 293.586 1.00235C293.667 0.969322 293.754 0.953102 293.841 0.954678H295.139C295.227 0.949562 295.315 0.964169 295.396 0.997414C295.477 1.03065 295.55 1.08167 295.609 1.14668C295.665 1.20481 295.709 1.27371 295.737 1.34916C295.766 1.42461 295.778 1.50504 295.774 1.58553V19.7981C295.779 19.9685 295.72 20.1345 295.609 20.2644C295.498 20.3741 295.342 20.429 295.139 20.429H293.841ZM307.326 25.6404C307.239 25.642 307.152 25.6257 307.071 25.5927C306.991 25.5597 306.918 25.5106 306.857 25.4484C306.801 25.3903 306.757 25.3214 306.728 25.2459C306.7 25.1705 306.687 25.09 306.691 25.0095V6.79696C306.691 6.61411 306.746 6.46782 306.857 6.35811C306.918 6.29593 306.991 6.2468 307.071 6.21378C307.152 6.18075 307.239 6.16453 307.326 6.1661H308.597C308.68 6.16283 308.763 6.17842 308.84 6.21168C308.916 6.24493 308.984 6.295 309.038 6.35811C309.102 6.41198 309.152 6.47945 309.186 6.55547C309.219 6.63148 309.235 6.71406 309.232 6.79696V8.00382C309.674 7.40039 310.263 6.89754 310.999 6.49525C311.736 6.09296 312.656 5.89182 313.761 5.89182C314.792 5.89182 315.666 6.06554 316.384 6.41296C317.121 6.7604 317.719 7.23582 318.18 7.83925C318.664 8.4529 319.029 9.15041 319.257 9.89639C319.496 10.6644 319.625 11.4873 319.643 12.365C319.662 12.6575 319.671 12.9684 319.671 13.2975C319.671 13.6267 319.662 13.9375 319.643 14.2301C319.628 15.0666 319.498 15.8972 319.257 16.6987C319.029 17.4447 318.664 18.1422 318.18 18.7558C317.697 19.3591 317.083 19.8466 316.384 20.1821C315.666 20.5295 314.792 20.7033 313.761 20.7033C312.693 20.7033 311.791 20.5113 311.054 20.1273C310.372 19.755 309.771 19.2515 309.287 18.6461V25.0095C309.291 25.09 309.278 25.1705 309.25 25.2459C309.221 25.3214 309.177 25.3903 309.121 25.4484C309.063 25.5134 308.99 25.5644 308.909 25.5977C308.827 25.6309 308.74 25.6455 308.652 25.6404H307.326ZM313.181 18.4815C314.138 18.4815 314.884 18.2804 315.418 17.8781C315.97 17.4575 316.366 16.9181 316.605 16.2598C316.845 15.5832 316.983 14.861 317.02 14.093C317.038 13.5627 317.038 13.0324 317.02 12.5021C316.99 11.7724 316.851 11.0512 316.605 10.3627C316.387 9.71454 315.972 9.14931 315.418 8.74439C314.884 8.32382 314.138 8.11354 313.181 8.11354C312.279 8.11354 311.542 8.32382 310.972 8.74439C310.419 9.16496 310.005 9.70439 309.729 10.3627C309.473 10.9924 309.324 11.6596 309.287 12.3375C309.267 12.6846 309.258 13.0322 309.259 13.3798C309.259 13.7821 309.269 14.1387 309.287 14.4495C309.305 15.0895 309.453 15.7204 309.729 16.3421C310.019 16.9581 310.466 17.4878 311.027 17.8781C311.598 18.2804 312.316 18.4815 313.181 18.4815ZM323.75 20.429C323.578 20.4334 323.411 20.3748 323.281 20.2644C323.169 20.1345 323.11 19.9685 323.115 19.7981V6.82439C323.115 6.64153 323.17 6.48611 323.281 6.35811C323.341 6.29593 323.415 6.2468 323.495 6.21378C323.576 6.18075 323.663 6.16453 323.75 6.1661H325.02C325.205 6.1661 325.361 6.23011 325.49 6.35811C325.552 6.41857 325.602 6.49115 325.635 6.57135C325.668 6.65155 325.685 6.73767 325.683 6.82439V8.03125C326.051 7.40953 326.558 6.94325 327.202 6.63239C327.847 6.32153 328.62 6.1661 329.522 6.1661H330.627C330.71 6.16283 330.793 6.17842 330.87 6.21168C330.946 6.24493 331.014 6.295 331.068 6.35811C331.125 6.41624 331.168 6.48514 331.197 6.56059C331.225 6.63604 331.238 6.71647 331.234 6.79696V7.92154C331.238 8.00203 331.225 8.08245 331.197 8.15791C331.168 8.23336 331.125 8.30226 331.068 8.36039C331.01 8.41619 330.941 8.45957 330.865 8.48787C330.789 8.51616 330.708 8.52879 330.627 8.52496H328.97C327.975 8.52496 327.193 8.81754 326.622 9.40268C326.051 9.96954 325.766 10.7467 325.766 11.7341V19.7981C325.768 19.8848 325.751 19.9709 325.718 20.0512C325.685 20.1314 325.635 20.2039 325.573 20.2644C325.442 20.3748 325.275 20.4334 325.103 20.429H323.75ZM339.219 20.7033C337.82 20.7033 336.65 20.4381 335.712 19.9078C334.794 19.3996 334.046 18.6372 333.557 17.7135C333.06 16.7627 332.784 15.6838 332.729 14.477C332.711 14.1661 332.701 13.773 332.701 13.2975C332.701 12.8038 332.711 12.4107 332.729 12.1181C332.784 10.893 333.06 9.81411 333.557 8.88154C334.062 7.96031 334.818 7.19958 335.739 6.68725C336.678 6.15696 337.838 5.89182 339.219 5.89182C340.6 5.89182 341.76 6.15696 342.699 6.68725C343.616 7.19545 344.364 7.95791 344.853 8.88154C345.368 9.81411 345.654 10.893 345.709 12.1181C345.727 12.4107 345.736 12.8038 345.736 13.2975C345.736 13.773 345.727 14.1661 345.709 14.477C345.654 15.6838 345.377 16.7627 344.88 17.7135C344.392 18.6372 343.643 19.3996 342.726 19.9078C341.787 20.4381 340.618 20.7033 339.219 20.7033ZM339.219 18.5913C340.36 18.5913 341.272 18.2347 341.953 17.5215C342.634 16.7901 343.002 15.7295 343.058 14.3398C343.076 14.0655 343.085 13.7181 343.085 13.2975C343.085 12.877 343.076 12.5295 343.058 12.2553C343.002 10.8655 342.634 9.81411 341.953 9.10096C341.272 8.36953 340.36 8.00382 339.219 8.00382C338.077 8.00382 337.157 8.36953 336.457 9.10096C335.776 9.81411 335.417 10.8655 335.38 12.2553C335.362 12.5295 335.353 12.877 335.353 13.2975C335.353 13.7181 335.362 14.0655 335.38 14.3398C335.417 15.7295 335.776 16.7901 336.457 17.5215C337.157 18.2347 338.077 18.5913 339.219 18.5913ZM354.994 20.7033C353.687 20.7033 352.554 20.4564 351.597 19.9627C350.673 19.466 349.915 18.7131 349.415 17.7958C348.9 16.845 348.623 15.7113 348.587 14.3947C348.568 14.1204 348.559 13.7547 348.559 13.2975C348.559 12.8404 348.568 12.4747 348.587 12.2004C348.623 10.8838 348.9 9.75925 349.415 8.82668C349.905 7.90163 350.665 7.14602 351.597 6.65982C352.554 6.14782 353.687 5.89182 354.994 5.89182C356.062 5.89182 356.973 6.03811 357.728 6.33068C358.501 6.62325 359.136 6.99811 359.633 7.45525C360.13 7.91239 360.499 8.40611 360.738 8.93639C360.996 9.46668 361.134 9.96954 361.152 10.445C361.165 10.5261 361.156 10.609 361.127 10.6858C361.098 10.7627 361.05 10.8308 360.987 10.8838C360.856 10.9942 360.689 11.0528 360.517 11.0484H359.191C359.007 11.0484 358.869 11.0118 358.777 10.9387C358.685 10.8473 358.593 10.701 358.501 10.4998C358.17 9.60382 357.719 8.97297 357.148 8.60725C356.577 8.24154 355.868 8.05868 355.021 8.05868C353.917 8.05868 353.015 8.39697 352.315 9.07354C351.634 9.75011 351.265 10.8381 351.21 12.3375C351.192 12.9774 351.192 13.6177 351.21 14.2575C351.265 15.7752 351.634 16.8724 352.315 17.549C353.015 18.2073 353.917 18.5364 355.021 18.5364C355.868 18.5364 356.577 18.3535 357.148 17.9878C357.719 17.6221 358.17 16.9913 358.501 16.0953C358.593 15.8941 358.685 15.757 358.777 15.6838C358.869 15.5924 359.007 15.5467 359.191 15.5467H360.517C360.701 15.5467 360.858 15.6015 360.987 15.7113C361.05 15.7642 361.098 15.8324 361.127 15.9092C361.156 15.9861 361.165 16.069 361.152 16.1501C361.13 16.5535 361.046 16.9511 360.904 17.3295C360.731 17.7758 360.489 18.1924 360.186 18.5638C359.849 18.9881 359.448 19.3582 358.998 19.661C358.519 19.9718 357.939 20.2278 357.258 20.429C356.595 20.6118 355.841 20.7033 354.994 20.7033ZM370.148 20.7033C368.252 20.7033 366.742 20.1272 365.619 18.9752C364.496 17.805 363.879 16.2141 363.769 14.2027C363.751 13.965 363.741 13.6632 363.741 13.2975C363.741 12.9135 363.751 12.6027 363.769 12.365C363.843 11.0667 364.146 9.93296 364.68 8.96382C365.214 7.97639 365.941 7.21753 366.862 6.68725C367.801 6.15696 368.896 5.89182 370.148 5.89182C371.548 5.89182 372.717 6.18439 373.656 6.76954C374.613 7.35468 375.34 8.18668 375.837 9.26553C376.334 10.3444 376.583 11.6061 376.583 13.0507V13.517C376.588 13.6041 376.573 13.6913 376.54 13.772C376.507 13.8528 376.455 13.925 376.39 13.9832C376.331 14.0391 376.262 14.0824 376.186 14.1107C376.11 14.139 376.029 14.1516 375.948 14.1478H366.393V14.3947C366.424 15.1233 366.593 15.8396 366.89 16.5067C367.169 17.1284 367.607 17.6672 368.16 18.0701C368.712 18.4724 369.375 18.6735 370.148 18.6735C370.811 18.6735 371.363 18.573 371.805 18.3718C372.247 18.1707 372.606 17.9512 372.882 17.7135C373.159 17.4575 373.343 17.2655 373.435 17.1375C373.6 16.8998 373.729 16.7627 373.821 16.7261C373.913 16.6712 374.061 16.6438 374.263 16.6438H375.589C375.773 16.6438 375.92 16.6987 376.031 16.8084C376.16 16.8998 376.215 17.037 376.196 17.2198C376.178 17.4941 376.031 17.8324 375.755 18.2347C375.478 18.6187 375.083 19.0027 374.567 19.3867C374.051 19.7707 373.426 20.0907 372.689 20.3467C371.953 20.5844 371.106 20.7033 370.148 20.7033ZM366.393 12.2553H373.959V12.173C373.959 11.3501 373.803 10.6187 373.49 9.97868C373.195 9.33868 372.763 8.83582 372.192 8.47011C371.621 8.08611 370.94 7.8941 370.148 7.8941C369.357 7.8941 368.675 8.08611 368.105 8.47011C367.546 8.84335 367.105 9.3665 366.834 9.97868C366.54 10.6187 366.393 11.3501 366.393 12.173V12.2553ZM384.857 20.7033C383.826 20.7033 382.942 20.5753 382.205 20.3193C381.469 20.0633 380.871 19.7524 380.41 19.3867C379.95 19.021 379.6 18.6553 379.361 18.2895C379.14 17.9238 379.02 17.6312 379.002 17.4118C378.983 17.2107 379.048 17.0553 379.195 16.9455C379.32 16.8439 379.475 16.786 379.637 16.781H380.852C380.939 16.7752 381.025 16.7943 381.101 16.8358C381.174 16.8541 381.266 16.9273 381.377 17.0553C381.616 17.3113 381.883 17.5672 382.178 17.8232C382.472 18.0793 382.831 18.2895 383.255 18.4541C383.697 18.6187 384.24 18.701 384.884 18.701C385.823 18.701 386.596 18.5272 387.204 18.1798C387.812 17.8141 388.115 17.2838 388.115 16.589C388.115 16.1318 387.986 15.7661 387.729 15.4918C387.489 15.2175 387.047 14.9707 386.403 14.7512C385.777 14.5318 384.912 14.3032 383.807 14.0655C382.702 13.8095 381.828 13.4987 381.184 13.133C380.539 12.749 380.079 12.301 379.803 11.789C379.527 11.2587 379.388 10.6644 379.388 10.0061C379.388 9.32953 379.591 8.68039 379.996 8.05868C380.401 7.41868 380.99 6.89754 381.763 6.49525C382.555 6.09296 383.54 5.89182 384.718 5.89182C385.676 5.89182 386.495 6.01068 387.176 6.24839C387.858 6.48611 388.419 6.78782 388.861 7.15353C389.303 7.50097 389.634 7.84839 389.855 8.19582C390.076 8.54325 390.196 8.83582 390.214 9.07354C390.225 9.15871 390.216 9.24522 390.187 9.32618C390.158 9.40714 390.111 9.4803 390.048 9.53982C389.927 9.64695 389.769 9.70555 389.607 9.70439H388.447C388.331 9.70765 388.216 9.67919 388.115 9.62211C388.037 9.56337 387.963 9.49921 387.894 9.43011C387.71 9.19239 387.489 8.95468 387.232 8.71696C386.992 8.47925 386.67 8.28725 386.265 8.14096C385.878 7.97639 385.363 7.8941 384.718 7.8941C383.798 7.8941 383.107 8.08611 382.647 8.47011C382.187 8.85411 381.957 9.33868 381.957 9.92382C381.957 10.2713 382.058 10.5821 382.261 10.8564C382.463 11.1307 382.85 11.3775 383.42 11.597C383.991 11.8164 384.838 12.0541 385.961 12.3101C387.176 12.5478 388.134 12.8678 388.833 13.2701C389.533 13.6724 390.03 14.1387 390.325 14.669C390.619 15.1992 390.766 15.8118 390.766 16.5067C390.766 17.2747 390.536 17.9787 390.076 18.6187C389.634 19.2587 388.971 19.7707 388.088 20.1547C387.222 20.5204 386.145 20.7033 384.857 20.7033ZM398.934 20.7033C397.903 20.7033 397.019 20.5753 396.283 20.3193C395.546 20.0633 394.948 19.7524 394.488 19.3867C394.028 19.021 393.678 18.6553 393.438 18.2895C393.217 17.9238 393.098 17.6312 393.079 17.4118C393.061 17.2107 393.125 17.0553 393.273 16.9455C393.398 16.8439 393.553 16.786 393.715 16.781H394.93C395.016 16.7752 395.102 16.7943 395.178 16.8358C395.252 16.8541 395.344 16.9273 395.454 17.0553C395.694 17.3113 395.961 17.5672 396.255 17.8232C396.55 18.0793 396.909 18.2895 397.332 18.4541C397.774 18.6187 398.317 18.701 398.962 18.701C399.901 18.701 400.674 18.5272 401.282 18.1798C401.889 17.8141 402.193 17.2838 402.193 16.589C402.193 16.1318 402.064 15.7661 401.806 15.4918C401.567 15.2175 401.125 14.9707 400.481 14.7512C399.855 14.5318 398.989 14.3032 397.885 14.0655C396.78 13.8095 395.905 13.4987 395.261 13.133C394.617 12.749 394.156 12.301 393.88 11.789C393.604 11.2587 393.466 10.6644 393.466 10.0061C393.466 9.32953 393.669 8.68039 394.074 8.05868C394.479 7.41868 395.068 6.89754 395.841 6.49525C396.633 6.09296 397.618 5.89182 398.796 5.89182C399.753 5.89182 400.573 6.01068 401.254 6.24839C401.935 6.48611 402.497 6.78782 402.939 7.15353C403.38 7.50097 403.712 7.84839 403.933 8.19582C404.154 8.54325 404.273 8.83582 404.292 9.07354C404.303 9.15871 404.293 9.24522 404.265 9.32618C404.236 9.40714 404.188 9.4803 404.126 9.53982C404.004 9.64695 403.847 9.70555 403.684 9.70439H402.524C402.408 9.70765 402.294 9.67919 402.193 9.62211C402.115 9.56337 402.041 9.49921 401.972 9.43011C401.788 9.19239 401.567 8.95468 401.309 8.71696C401.07 8.47925 400.748 8.28725 400.343 8.14096C399.956 7.97639 399.44 7.8941 398.796 7.8941C397.875 7.8941 397.185 8.08611 396.725 8.47011C396.265 8.85411 396.034 9.33868 396.034 9.92382C396.034 10.2713 396.136 10.5821 396.338 10.8564C396.541 11.1307 396.927 11.3775 397.498 11.597C398.069 11.8164 398.916 12.0541 400.039 12.3101C401.254 12.5478 402.211 12.8678 402.911 13.2701C403.611 13.6724 404.108 14.1387 404.402 14.669C404.697 15.1992 404.844 15.8118 404.844 16.5067C404.844 17.2747 404.614 17.9787 404.154 18.6187C403.712 19.2587 403.049 19.7707 402.165 20.1547C401.3 20.5204 400.223 20.7033 398.934 20.7033ZM413.759 20.7033C411.862 20.7033 410.352 20.1272 409.229 18.9752C408.106 17.805 407.49 16.2141 407.379 14.2027C407.361 13.965 407.351 13.6632 407.351 13.2975C407.351 12.9135 407.361 12.6027 407.379 12.365C407.453 11.0667 407.757 9.93296 408.29 8.96382C408.824 7.97639 409.552 7.21753 410.472 6.68725C411.411 6.15696 412.507 5.89182 413.759 5.89182C415.158 5.89182 416.327 6.18439 417.266 6.76954C418.223 7.35468 418.95 8.18668 419.448 9.26553C419.945 10.3444 420.193 11.6061 420.193 13.0507V13.517C420.198 13.6041 420.184 13.6913 420.15 13.772C420.117 13.8528 420.065 13.925 420 13.9832C419.941 14.0391 419.872 14.0824 419.796 14.1107C419.72 14.139 419.639 14.1516 419.558 14.1478H410.003V14.3947C410.035 15.1233 410.203 15.8396 410.5 16.5067C410.78 17.1284 411.217 17.6672 411.77 18.0701C412.322 18.4724 412.985 18.6735 413.759 18.6735C414.421 18.6735 414.974 18.573 415.416 18.3718C415.857 18.1707 416.216 17.9512 416.493 17.7135C416.769 17.4575 416.953 17.2655 417.045 17.1375C417.211 16.8998 417.339 16.7627 417.432 16.7261C417.524 16.6712 417.671 16.6438 417.873 16.6438H419.199C419.383 16.6438 419.53 16.6987 419.641 16.8084C419.77 16.8998 419.825 17.037 419.807 17.2198C419.788 17.4941 419.641 17.8324 419.365 18.2347C419.089 18.6187 418.693 19.0027 418.177 19.3867C417.662 19.7707 417.036 20.0907 416.299 20.3467C415.563 20.5844 414.716 20.7033 413.759 20.7033ZM410.003 12.2553H417.57V12.173C417.57 11.3501 417.413 10.6187 417.1 9.97868C416.806 9.33868 416.373 8.83582 415.802 8.47011C415.231 8.08611 414.55 7.8941 413.759 7.8941C412.967 7.8941 412.286 8.08611 411.715 8.47011C411.156 8.84335 410.716 9.3665 410.445 9.97868C410.15 10.6187 410.003 11.3501 410.003 12.173V12.2553ZM428.466 20.7033C427.435 20.7033 426.551 20.5753 425.814 20.3193C425.078 20.0633 424.48 19.7524 424.019 19.3867C423.559 19.021 423.209 18.6553 422.97 18.2895C422.749 17.9238 422.629 17.6312 422.611 17.4118C422.592 17.2107 422.657 17.0553 422.804 16.9455C422.929 16.8439 423.085 16.786 423.246 16.781H424.461C424.548 16.7752 424.634 16.7943 424.71 16.8358C424.783 16.8541 424.875 16.9273 424.986 17.0553C425.225 17.3113 425.492 17.5672 425.787 17.8232C426.081 18.0793 426.44 18.2895 426.864 18.4541C427.306 18.6187 427.849 18.701 428.493 18.701C429.432 18.701 430.205 18.5272 430.813 18.1798C431.421 17.8141 431.724 17.2838 431.724 16.589C431.724 16.1318 431.595 15.7661 431.338 15.4918C431.098 15.2175 430.656 14.9707 430.012 14.7512C429.386 14.5318 428.521 14.3032 427.416 14.0655C426.311 13.8095 425.437 13.4987 424.793 13.133C424.148 12.749 423.688 12.301 423.412 11.789C423.136 11.2587 422.997 10.6644 422.997 10.0061C422.997 9.32953 423.2 8.68039 423.605 8.05868C424.01 7.41868 424.599 6.89754 425.372 6.49525C426.164 6.09296 427.149 5.89182 428.327 5.89182C429.285 5.89182 430.104 6.01068 430.785 6.24839C431.467 6.48611 432.028 6.78782 432.47 7.15353C432.912 7.50097 433.243 7.84839 433.464 8.19582C433.685 8.54325 433.805 8.83582 433.823 9.07354C433.834 9.15871 433.825 9.24522 433.796 9.32618C433.767 9.40714 433.72 9.4803 433.658 9.53982C433.536 9.64695 433.378 9.70555 433.216 9.70439H432.056C431.94 9.70765 431.825 9.67919 431.724 9.62211C431.646 9.56337 431.572 9.49921 431.503 9.43011C431.319 9.19239 431.098 8.95468 430.841 8.71696C430.601 8.47925 430.279 8.28725 429.874 8.14096C429.487 7.97639 428.972 7.8941 428.327 7.8941C427.407 7.8941 426.716 8.08611 426.256 8.47011C425.796 8.85411 425.566 9.33868 425.566 9.92382C425.566 10.2713 425.667 10.5821 425.87 10.8564C426.072 11.1307 426.459 11.3775 427.029 11.597C427.6 11.8164 428.447 12.0541 429.57 12.3101C430.785 12.5478 431.743 12.8678 432.442 13.2701C433.142 13.6724 433.639 14.1387 433.934 14.669C434.228 15.1992 434.376 15.8118 434.376 16.5067C434.376 17.2747 434.145 17.9787 433.685 18.6187C433.243 19.2587 432.58 19.7707 431.697 20.1547C430.831 20.5204 429.754 20.7033 428.466 20.7033ZM448.346 20.7033C447.426 20.7033 446.588 20.5204 445.833 20.1547C445.112 19.8169 444.486 19.3082 444.01 18.6735C443.55 18.0518 443.32 17.3478 443.32 16.5615C443.32 15.2998 443.835 14.2941 444.866 13.5444C445.897 12.7947 447.241 12.301 448.898 12.0633L453.013 11.4873V10.6918C453.013 9.81411 452.756 9.1284 452.24 8.63468C451.743 8.14096 450.924 7.8941 449.782 7.8941C448.954 7.8941 448.282 8.05868 447.766 8.38782C447.292 8.68914 446.925 9.13038 446.717 9.64953C446.606 9.92382 446.413 10.061 446.137 10.061H444.894C444.691 10.061 444.535 10.0061 444.425 9.89639C444.332 9.76851 444.284 9.61471 444.286 9.45753C444.286 9.18325 444.388 8.84496 444.59 8.44268C444.811 8.04039 445.143 7.64725 445.584 7.26325C446.026 6.87925 446.588 6.55925 447.269 6.30325C447.969 6.02896 448.816 5.89182 449.81 5.89182C450.914 5.89182 451.844 6.03811 452.599 6.33068C453.354 6.60496 453.943 6.97982 454.367 7.45525C454.808 7.93068 455.121 8.47011 455.305 9.07354C455.506 9.66576 455.609 10.2864 455.609 10.9112V19.7981C455.611 19.8848 455.595 19.9709 455.561 20.0512C455.528 20.1314 455.479 20.2039 455.416 20.2644C455.357 20.3202 455.288 20.3636 455.212 20.3919C455.136 20.4202 455.055 20.4328 454.974 20.429H453.704C453.501 20.429 453.345 20.3741 453.234 20.2644C453.123 20.1345 453.064 19.9685 453.069 19.7981V18.6187C452.79 18.9878 452.466 19.3196 452.102 19.6061C451.697 19.917 451.191 20.1821 450.583 20.4015C449.975 20.6027 449.23 20.7033 448.346 20.7033ZM448.926 18.6461C449.681 18.6461 450.371 18.4907 450.997 18.1798C451.623 17.8507 452.111 17.3478 452.461 16.6712C452.829 15.9947 453.013 15.1444 453.013 14.1204V13.3524L449.81 13.8187C448.503 14.0015 447.518 14.3124 446.855 14.7512C446.192 15.1718 445.861 15.7113 445.861 16.3695C445.861 16.8815 446.008 17.3113 446.302 17.6587C446.624 17.9935 447.022 18.2474 447.462 18.3993C447.941 18.5638 448.429 18.6461 448.926 18.6461ZM460.216 20.429C460.044 20.4334 459.877 20.3748 459.746 20.2644C459.635 20.1345 459.576 19.9685 459.58 19.7981V6.79696C459.58 6.61411 459.636 6.46782 459.746 6.35811C459.807 6.29593 459.88 6.2468 459.961 6.21378C460.042 6.18075 460.128 6.16453 460.216 6.1661H461.513C461.597 6.16283 461.68 6.17842 461.757 6.21168C461.833 6.24493 461.901 6.295 461.955 6.35811C462.019 6.41198 462.069 6.47945 462.103 6.55547C462.136 6.63148 462.152 6.71406 462.149 6.79696V8.00382C462.627 7.38211 463.226 6.87925 463.944 6.49525C464.68 6.09296 465.619 5.89182 466.761 5.89182C467.957 5.89182 468.97 6.15696 469.798 6.68725C470.643 7.19703 471.309 7.9539 471.704 8.85411C472.128 9.76839 472.339 10.8381 472.339 12.0633V19.7981C472.344 19.9685 472.285 20.1345 472.174 20.2644C472.115 20.3202 472.046 20.3636 471.97 20.3919C471.894 20.4202 471.813 20.4328 471.732 20.429H470.351C470.179 20.4334 470.012 20.3748 469.881 20.2644C469.77 20.1345 469.711 19.9685 469.716 19.7981V12.2004C469.716 10.9204 469.403 9.92382 468.777 9.21068C468.151 8.47925 467.23 8.11354 466.015 8.11354C464.874 8.11354 463.953 8.47925 463.253 9.21068C462.572 9.92382 462.232 10.9204 462.232 12.2004V19.7981C462.233 19.8848 462.217 19.9709 462.184 20.0512C462.15 20.1314 462.101 20.2039 462.038 20.2644C461.98 20.3202 461.91 20.3636 461.834 20.3919C461.758 20.4202 461.677 20.4328 461.596 20.429H460.216ZM481.575 20.7033C480.562 20.7033 479.688 20.5295 478.951 20.1821C478.215 19.8164 477.607 19.3318 477.128 18.7284C476.668 18.1067 476.318 17.4027 476.079 16.6164C475.854 15.802 475.724 14.9644 475.692 14.1204C475.674 13.8278 475.665 13.5535 475.665 13.2975C475.665 13.0415 475.674 12.7673 475.692 12.4747C475.729 11.6152 475.858 10.7924 476.079 10.0061C476.318 9.21982 476.668 8.51582 477.128 7.8941C477.607 7.27239 478.215 6.78782 478.951 6.44039C479.688 6.07468 480.562 5.89182 481.575 5.89182C482.661 5.89182 483.563 6.08382 484.281 6.46782C484.961 6.82063 485.562 7.30569 486.049 7.8941V1.58553C486.049 1.40268 486.104 1.25639 486.214 1.14668C486.275 1.0845 486.348 1.03537 486.429 1.00235C486.51 0.969322 486.596 0.953102 486.684 0.954678H488.009C488.093 0.951408 488.176 0.966988 488.253 1.00024C488.329 1.0335 488.397 1.08357 488.451 1.14668C488.515 1.20055 488.565 1.26803 488.599 1.34404C488.632 1.42006 488.648 1.50262 488.645 1.58553V19.7981C488.646 19.8848 488.63 19.9709 488.597 20.0512C488.563 20.1314 488.514 20.2039 488.451 20.2644C488.393 20.3202 488.323 20.3636 488.247 20.3919C488.171 20.4202 488.09 20.4328 488.009 20.429H486.767C486.564 20.429 486.408 20.3741 486.297 20.2644C486.186 20.1345 486.127 19.9685 486.131 19.7981V18.6461C485.671 19.2313 485.073 19.725 484.336 20.1273C483.6 20.5113 482.679 20.7033 481.575 20.7033ZM482.155 18.4815C483.075 18.4815 483.812 18.2713 484.364 17.8507C484.916 17.4301 485.331 16.8998 485.607 16.2598C485.883 15.6015 486.03 14.9341 486.049 14.2575C486.067 13.965 486.076 13.6175 486.076 13.2153C486.076 12.7947 486.067 12.4381 486.049 12.1455C486.026 11.4891 485.866 10.8446 485.579 10.253C485.303 9.63125 484.88 9.11925 484.309 8.71696C483.756 8.31468 483.038 8.11354 482.155 8.11354C481.216 8.11354 480.47 8.32382 479.918 8.74439C479.363 9.14931 478.949 9.71454 478.73 10.3627C478.485 11.0512 478.345 11.7724 478.316 12.5021C478.298 13.0322 478.298 13.5628 478.316 14.093C478.347 14.8314 478.487 15.5614 478.73 16.2598C478.958 16.9029 479.371 17.4655 479.918 17.8781C480.47 18.2804 481.216 18.4815 482.155 18.4815ZM500.185 20.429C500.013 20.4334 499.846 20.3748 499.715 20.2644C499.604 20.1345 499.545 19.9685 499.55 19.7981V1.58553C499.55 1.40268 499.605 1.25639 499.715 1.14668C499.776 1.0845 499.849 1.03537 499.93 1.00235C500.011 0.969322 500.098 0.953102 500.185 0.954678H501.566C501.653 0.949562 501.741 0.964169 501.823 0.997414C501.904 1.03065 501.977 1.08167 502.035 1.14668C502.091 1.20481 502.135 1.27371 502.164 1.34916C502.192 1.42461 502.205 1.50504 502.201 1.58553V7.97639C502.698 7.35468 503.306 6.85182 504.024 6.46782C504.742 6.08382 505.653 5.89182 506.758 5.89182C507.954 5.89182 508.967 6.15696 509.796 6.68725C510.641 7.19703 511.306 7.9539 511.701 8.85411C512.143 9.76839 512.364 10.8381 512.364 12.0633V19.7981C512.368 19.9685 512.309 20.1345 512.198 20.2644C512.088 20.3741 511.931 20.429 511.729 20.429H510.348C510.176 20.4334 510.009 20.3748 509.878 20.2644C509.767 20.1345 509.708 19.9685 509.713 19.7981V12.2004C509.713 10.9204 509.4 9.92382 508.774 9.21068C508.148 8.47925 507.227 8.11354 506.012 8.11354C504.871 8.11354 503.95 8.47925 503.25 9.21068C502.551 9.92382 502.201 10.9204 502.201 12.2004V19.7981C502.205 19.9685 502.146 20.1345 502.035 20.2644C501.925 20.3741 501.768 20.429 501.566 20.429H500.185ZM522.068 20.7033C520.171 20.7033 518.662 20.1272 517.539 18.9752C516.415 17.805 515.799 16.2141 515.688 14.2027C515.67 13.965 515.661 13.6632 515.661 13.2975C515.661 12.9135 515.67 12.6027 515.688 12.365C515.762 11.0667 516.066 9.93296 516.6 8.96382C517.133 7.97639 517.861 7.21753 518.781 6.68725C519.72 6.15696 520.816 5.89182 522.068 5.89182C523.467 5.89182 524.636 6.18439 525.575 6.76954C526.532 7.35468 527.26 8.18668 527.757 9.26553C528.254 10.3444 528.502 11.6061 528.502 13.0507V13.517C528.507 13.6041 528.493 13.6913 528.459 13.772C528.426 13.8528 528.374 13.925 528.309 13.9832C528.25 14.0391 528.181 14.0824 528.105 14.1107C528.029 14.139 527.948 14.1516 527.867 14.1478H518.312V14.3947C518.344 15.1233 518.512 15.8396 518.809 16.5067C519.089 17.1284 519.526 17.6672 520.079 18.0701C520.632 18.4724 521.294 18.6735 522.068 18.6735C522.73 18.6735 523.283 18.573 523.725 18.3718C524.167 18.1707 524.526 17.9512 524.802 17.7135C525.078 17.4575 525.262 17.2655 525.354 17.1375C525.52 16.8998 525.649 16.7627 525.741 16.7261C525.833 16.6712 525.98 16.6438 526.182 16.6438H527.508C527.692 16.6438 527.84 16.6987 527.95 16.8084C528.079 16.8998 528.134 17.037 528.116 17.2198C528.097 17.4941 527.95 17.8324 527.674 18.2347C527.398 18.6187 527.002 19.0027 526.486 19.3867C525.971 19.7707 525.345 20.0907 524.608 20.3467C523.872 20.5844 523.025 20.7033 522.068 20.7033ZM518.312 12.2553H525.879V12.173C525.879 11.3501 525.722 10.6187 525.409 9.97868C525.115 9.33868 524.682 8.83582 524.111 8.47011C523.541 8.08611 522.859 7.8941 522.068 7.8941C521.276 7.8941 520.595 8.08611 520.024 8.47011C519.465 8.84335 519.025 9.3665 518.754 9.97868C518.459 10.6187 518.312 11.3501 518.312 12.173V12.2553ZM532.466 20.429C532.295 20.4334 532.128 20.3748 531.997 20.2644C531.886 20.1345 531.827 19.9685 531.831 19.7981V1.58553C531.831 1.40268 531.887 1.25639 531.997 1.14668C532.058 1.0845 532.131 1.03537 532.212 1.00235C532.292 0.969322 532.379 0.953102 532.466 0.954678H533.764C533.852 0.949562 533.94 0.964169 534.021 0.997414C534.103 1.03065 534.175 1.08167 534.234 1.14668C534.29 1.20481 534.334 1.27371 534.362 1.34916C534.391 1.42461 534.403 1.50504 534.4 1.58553V19.7981C534.404 19.9685 534.345 20.1345 534.234 20.2644C534.123 20.3741 533.967 20.429 533.764 20.429H532.466ZM539.182 20.429C539.01 20.4334 538.843 20.3748 538.712 20.2644C538.601 20.1345 538.542 19.9685 538.547 19.7981V1.58553C538.547 1.40268 538.602 1.25639 538.712 1.14668C538.773 1.0845 538.846 1.03537 538.927 1.00235C539.008 0.969322 539.095 0.953102 539.182 0.954678H540.48C540.568 0.949562 540.655 0.964169 540.737 0.997414C540.818 1.03065 540.891 1.08167 540.949 1.14668C541.006 1.20481 541.049 1.27371 541.078 1.34916C541.106 1.42461 541.119 1.50504 541.115 1.58553V19.7981C541.12 19.9685 541.061 20.1345 540.949 20.2644C540.839 20.3741 540.682 20.429 540.48 20.429H539.182ZM551.117 20.7033C549.718 20.7033 548.549 20.4381 547.61 19.9078C546.692 19.3996 545.944 18.6372 545.456 17.7135C544.958 16.7627 544.682 15.6838 544.627 14.477C544.609 14.1661 544.599 13.773 544.599 13.2975C544.599 12.8038 544.609 12.4107 544.627 12.1181C544.682 10.893 544.958 9.81411 545.456 8.88154C545.96 7.96031 546.716 7.19958 547.637 6.68725C548.576 6.15696 549.736 5.89182 551.117 5.89182C552.498 5.89182 553.658 6.15696 554.597 6.68725C555.514 7.19545 556.262 7.95791 556.751 8.88154C557.266 9.81411 557.552 10.893 557.607 12.1181C557.625 12.4107 557.634 12.8038 557.634 13.2975C557.634 13.773 557.625 14.1661 557.607 14.477C557.552 15.6838 557.275 16.7627 556.778 17.7135C556.29 18.6372 555.542 19.3996 554.624 19.9078C553.685 20.4381 552.516 20.7033 551.117 20.7033ZM551.117 18.5913C552.258 18.5913 553.17 18.2347 553.851 17.5215C554.532 16.7901 554.9 15.7295 554.956 14.3398C554.974 14.0655 554.983 13.7181 554.983 13.2975C554.983 12.877 554.974 12.5295 554.956 12.2553C554.9 10.8655 554.532 9.81411 553.851 9.10096C553.17 8.36953 552.258 8.00382 551.117 8.00382C549.975 8.00382 549.055 8.36953 548.355 9.10096C547.674 9.81411 547.315 10.8655 547.278 12.2553C547.26 12.5295 547.251 12.877 547.251 13.2975C547.251 13.7181 547.26 14.0655 547.278 14.3398C547.315 15.7295 547.674 16.7901 548.355 17.5215C549.055 18.2347 549.975 18.5913 551.117 18.5913ZM572.875 20.429C571.844 20.429 571.007 20.237 570.362 19.853C569.718 19.4507 569.248 18.893 568.954 18.1798C568.659 17.4484 568.512 16.589 568.512 15.6015V8.36039H566.358C566.186 8.36478 566.019 8.30618 565.888 8.19582C565.777 8.06594 565.718 7.89992 565.723 7.72953V6.79696C565.723 6.61411 565.778 6.46782 565.888 6.35811C565.949 6.29598 566.022 6.24689 566.103 6.21387C566.184 6.18085 566.271 6.16459 566.358 6.1661H568.512V1.58553C568.512 1.40268 568.567 1.25639 568.678 1.14668C568.739 1.0845 568.812 1.03537 568.892 1.00235C568.973 0.969322 569.06 0.953102 569.147 0.954678H570.445C570.529 0.951408 570.612 0.966988 570.688 1.00024C570.765 1.0335 570.833 1.08357 570.887 1.14668C570.951 1.20055 571.001 1.26803 571.034 1.34404C571.068 1.42006 571.084 1.50262 571.08 1.58553V6.1661H574.505C574.588 6.16283 574.671 6.17842 574.748 6.21168C574.824 6.24493 574.892 6.295 574.947 6.35811C575.01 6.41198 575.061 6.47945 575.094 6.55547C575.128 6.63148 575.143 6.71406 575.14 6.79696V7.72953C575.142 7.81625 575.125 7.90238 575.092 7.98258C575.059 8.06278 575.009 8.13535 574.947 8.19582C574.888 8.25163 574.819 8.295 574.743 8.32329C574.667 8.35159 574.586 8.36421 574.505 8.36039H571.08V15.4095C571.08 16.269 571.228 16.9455 571.522 17.4393C571.817 17.933 572.341 18.1798 573.096 18.1798H574.781C574.864 18.1766 574.948 18.1921 575.024 18.2254C575.101 18.2586 575.169 18.3087 575.223 18.3718C575.286 18.4257 575.337 18.4932 575.37 18.5692C575.404 18.6452 575.419 18.7278 575.416 18.8107V19.7981C575.418 19.8848 575.401 19.9709 575.368 20.0512C575.335 20.1314 575.285 20.2039 575.223 20.2644C575.164 20.3202 575.095 20.3636 575.019 20.3919C574.943 20.4202 574.862 20.4328 574.781 20.429H572.875ZM583.939 20.7033C582.54 20.7033 581.371 20.4381 580.432 19.9078C579.515 19.3996 578.766 18.6372 578.278 17.7135C577.781 16.7627 577.505 15.6838 577.449 14.477C577.431 14.1661 577.422 13.773 577.422 13.2975C577.422 12.8038 577.431 12.4107 577.449 12.1181C577.505 10.893 577.781 9.81411 578.278 8.88154C578.782 7.96031 579.539 7.19958 580.46 6.68725C581.399 6.15696 582.558 5.89182 583.939 5.89182C585.32 5.89182 586.48 6.15696 587.419 6.68725C588.336 7.19545 589.085 7.95791 589.573 8.88154C590.089 9.81411 590.374 10.893 590.429 12.1181C590.448 12.4107 590.457 12.8038 590.457 13.2975C590.457 13.773 590.448 14.1661 590.429 14.477C590.374 15.6838 590.098 16.7627 589.601 17.7135C589.112 18.6372 588.364 19.3996 587.447 19.9078C586.508 20.4381 585.339 20.7033 583.939 20.7033ZM583.939 18.5913C585.081 18.5913 585.992 18.2347 586.673 17.5215C587.355 16.7901 587.723 15.7295 587.778 14.3398C587.796 14.0655 587.806 13.7181 587.806 13.2975C587.806 12.877 587.796 12.5295 587.778 12.2553C587.723 10.8655 587.355 9.81411 586.673 9.10096C585.992 8.36953 585.081 8.00382 583.939 8.00382C582.798 8.00382 581.877 8.36953 581.178 9.10096C580.496 9.81411 580.137 10.8655 580.101 12.2553C580.082 12.5295 580.073 12.877 580.073 13.2975C580.073 13.7181 580.082 14.0655 580.101 14.3398C580.137 15.7295 580.496 16.7901 581.178 17.5215C581.877 18.2347 582.798 18.5913 583.939 18.5913ZM1.78918 59.2861C1.61763 59.2905 1.45047 59.2319 1.3197 59.1215C1.20858 58.9917 1.14958 58.8256 1.154 58.6553V45.6541C1.154 45.4713 1.20923 45.325 1.3197 45.2153C1.38058 45.1531 1.45365 45.1039 1.5344 45.0709C1.61515 45.0379 1.70187 45.0217 1.78918 45.0233H3.11478C3.19826 45.02 3.28139 45.0356 3.35793 45.0688C3.43447 45.1021 3.50241 45.1521 3.55665 45.2153C3.61283 45.2734 3.6565 45.3423 3.68499 45.4177C3.71348 45.4932 3.72619 45.5736 3.72235 45.6541V58.6553C3.72676 58.8256 3.66777 58.9917 3.55665 59.1215C3.49811 59.1773 3.42875 59.2207 3.35277 59.249C3.2768 59.2773 3.19583 59.2899 3.11478 59.2861H1.78918ZM1.56825 42.3627C1.39669 42.3671 1.22954 42.3085 1.09876 42.1981C0.987643 42.0682 0.928646 41.9022 0.933064 41.7318V40.2507C0.933064 40.0678 0.988297 39.9215 1.09876 39.8118C1.15964 39.7496 1.23272 39.7005 1.31347 39.6675C1.39422 39.6345 1.48093 39.6182 1.56825 39.6198H3.3081C3.39157 39.6166 3.47471 39.6321 3.55125 39.6654C3.62778 39.6986 3.69573 39.7487 3.74996 39.8118C3.81351 39.8657 3.86392 39.9332 3.8974 40.0092C3.93089 40.0852 3.94657 40.1678 3.94328 40.2507V41.7318C3.94487 41.8185 3.92853 41.9047 3.89528 41.9849C3.86203 42.0651 3.81257 42.1376 3.74996 42.1981C3.69143 42.2539 3.62206 42.2973 3.54609 42.3256C3.47012 42.3539 3.38914 42.3665 3.3081 42.3627H1.56825ZM8.74743 59.2861C8.57588 59.2905 8.40872 59.2319 8.27795 59.1215C8.16683 58.9917 8.10783 58.8256 8.11225 58.6553V45.6541C8.11225 45.4713 8.16748 45.325 8.27795 45.2153C8.33883 45.1531 8.4119 45.1039 8.49265 45.0709C8.5734 45.0379 8.66012 45.0217 8.74743 45.0233H10.0454C10.1289 45.02 10.212 45.0356 10.2886 45.0688C10.3651 45.1021 10.433 45.1521 10.4873 45.2153C10.5508 45.2691 10.6012 45.3366 10.6347 45.4126C10.6682 45.4886 10.6839 45.5712 10.6806 45.6541V46.861C11.1593 46.2393 11.7576 45.7364 12.4757 45.3524C13.2121 44.9501 14.1511 44.749 15.2926 44.749C16.4893 44.749 17.5019 45.0141 18.3304 45.5444C19.1754 46.0542 19.841 46.811 20.236 47.7113C20.6594 48.6255 20.8711 49.6953 20.8711 50.9204V58.6553C20.8756 58.8256 20.8166 58.9917 20.7054 59.1215C20.6469 59.1773 20.5775 59.2207 20.5016 59.249C20.4256 59.2773 20.3446 59.2899 20.2636 59.2861H18.8827C18.7112 59.2905 18.544 59.2319 18.4133 59.1215C18.3021 58.9917 18.2431 58.8256 18.2476 58.6553V51.0575C18.2476 49.7775 17.9346 48.781 17.3086 48.0678C16.6826 47.3364 15.7621 46.9707 14.5469 46.9707C13.4054 46.9707 12.4849 47.3364 11.7853 48.0678C11.1041 48.781 10.7634 49.7775 10.7634 51.0575V58.6553C10.765 58.742 10.7487 58.8281 10.7154 58.9083C10.6822 58.9885 10.6327 59.0611 10.5701 59.1215C10.5116 59.1773 10.4422 59.2207 10.3663 59.249C10.2903 59.2773 10.2093 59.2899 10.1283 59.2861H8.74743ZM30.6601 59.5604C29.3529 59.5604 28.2206 59.3135 27.2633 58.8198C26.3397 58.3231 25.5817 57.5702 25.0815 56.653C24.566 55.7021 24.2899 54.5684 24.253 53.2518C24.2346 52.9775 24.2254 52.6118 24.2254 52.1547C24.2254 51.6975 24.2346 51.3318 24.253 51.0575C24.2899 49.741 24.566 48.6164 25.0815 47.6838C25.5711 46.7588 26.3319 46.0032 27.2633 45.517C28.2206 45.005 29.3529 44.749 30.6601 44.749C31.7279 44.749 32.6393 44.8953 33.3942 45.1878C34.1674 45.4804 34.8026 45.8553 35.2997 46.3124C35.7968 46.7695 36.165 47.2633 36.4044 47.7935C36.6621 48.3238 36.8002 48.8267 36.8186 49.3021C36.8311 49.3832 36.8224 49.4662 36.7934 49.543C36.7644 49.6198 36.716 49.688 36.6529 49.741C36.5221 49.8513 36.355 49.9099 36.1834 49.9055H34.8578C34.6737 49.9055 34.5356 49.869 34.4436 49.7958C34.3515 49.7044 34.2595 49.5581 34.1674 49.357C33.836 48.461 33.385 47.8301 32.8142 47.4644C32.2435 47.0987 31.5346 46.9158 30.6877 46.9158C29.5831 46.9158 28.6809 47.2541 27.9813 47.9307C27.3001 48.6073 26.9319 49.6953 26.8766 51.1947C26.8582 51.8345 26.8582 52.4748 26.8766 53.1147C26.9319 54.6324 27.3001 55.7295 27.9813 56.4061C28.6809 57.0644 29.5831 57.3935 30.6877 57.3935C31.5346 57.3935 32.2435 57.2107 32.8142 56.845C33.385 56.4793 33.836 55.8484 34.1674 54.9524C34.2595 54.7513 34.3515 54.6141 34.4436 54.541C34.5356 54.4495 34.6737 54.4038 34.8578 54.4038H36.1834C36.3675 54.4038 36.524 54.4587 36.6529 54.5684C36.716 54.6214 36.7644 54.6895 36.7934 54.7664C36.8224 54.8432 36.8311 54.9261 36.8186 55.0073C36.7962 55.4106 36.7124 55.8082 36.5701 56.1867C36.3974 56.633 36.1551 57.0495 35.852 57.421C35.5154 57.8452 35.1149 58.2153 34.6645 58.5181C34.1858 58.829 33.6059 59.085 32.9247 59.2861C32.2619 59.469 31.507 59.5604 30.6601 59.5604ZM40.7333 59.2861C40.5617 59.2905 40.3946 59.2319 40.2638 59.1215C40.1527 58.9917 40.0937 58.8256 40.0981 58.6553V45.6815C40.0981 45.4987 40.1533 45.3433 40.2638 45.2153C40.3247 45.1531 40.3978 45.1039 40.4785 45.0709C40.5593 45.0379 40.646 45.0217 40.7333 45.0233H42.0037C42.1878 45.0233 42.3443 45.0872 42.4731 45.2153C42.5357 45.2757 42.5852 45.3483 42.6185 45.4285C42.6517 45.5087 42.668 45.5948 42.6665 45.6815V46.8884C43.0347 46.2667 43.541 45.8004 44.1854 45.4895C44.8298 45.1787 45.603 45.0233 46.5052 45.0233H47.6098C47.6933 45.02 47.7764 45.0356 47.853 45.0688C47.9295 45.1021 47.9975 45.1521 48.0517 45.2153C48.1079 45.2734 48.1516 45.3423 48.18 45.4177C48.2085 45.4932 48.2212 45.5736 48.2174 45.6541V46.7787C48.2212 46.8592 48.2085 46.9396 48.18 47.0151C48.1516 47.0905 48.1079 47.1594 48.0517 47.2175C47.9932 47.2733 47.9238 47.3167 47.8478 47.345C47.7719 47.3733 47.6909 47.3859 47.6098 47.3821H45.9528C44.9586 47.3821 44.1762 47.6747 43.6054 48.2598C43.0347 48.8267 42.7493 49.6038 42.7493 50.5913V58.6553C42.7509 58.742 42.7346 58.8281 42.7013 58.9083C42.6681 58.9885 42.6186 59.0611 42.556 59.1215C42.4252 59.2319 42.2581 59.2905 42.0865 59.2861H40.7333ZM56.0364 59.5604C54.14 59.5604 52.6303 58.9844 51.5072 57.8324C50.3842 56.6621 49.7674 55.0713 49.6569 53.0598C49.6385 52.8221 49.6293 52.5204 49.6293 52.1547C49.6293 51.7707 49.6385 51.4598 49.6569 51.2221C49.7306 49.9238 50.0344 48.7901 50.5683 47.821C51.1022 46.8335 51.8294 46.0747 52.75 45.5444C53.689 45.0141 54.7844 44.749 56.0364 44.749C57.4356 44.749 58.6047 45.0415 59.5437 45.6267C60.5011 46.2118 61.2283 47.0438 61.7254 48.1227C62.2225 49.2015 62.4711 50.4633 62.4711 51.9078V52.3741C62.4762 52.4613 62.4615 52.5485 62.428 52.6292C62.3946 52.7099 62.3432 52.7821 62.2777 52.8404C62.2192 52.8962 62.1498 52.9396 62.0739 52.9679C61.9979 52.9962 61.9169 53.0088 61.8359 53.005H52.2805V53.2518C52.3123 53.9804 52.4809 54.6967 52.7776 55.3638C53.0574 55.9856 53.4951 56.5244 54.048 56.9273C54.6003 57.3295 55.2631 57.5307 56.0364 57.5307C56.6992 57.5307 57.2515 57.4301 57.6934 57.229C58.1352 57.0278 58.4943 56.8084 58.7704 56.5707C59.0466 56.3147 59.2307 56.1227 59.3228 55.9947C59.4885 55.757 59.6173 55.6198 59.7094 55.5833C59.8014 55.5284 59.9487 55.501 60.1513 55.501H61.4769C61.661 55.501 61.8083 55.5558 61.9187 55.6655C62.0476 55.757 62.1028 55.8941 62.0844 56.077C62.066 56.3513 61.9187 56.6895 61.6426 57.0918C61.3664 57.4758 60.9706 57.8598 60.455 58.2438C59.9395 58.6278 59.3135 58.9478 58.5771 59.2038C57.8407 59.4415 56.9938 59.5604 56.0364 59.5604ZM52.2805 51.1124H59.8475V51.0301C59.8475 50.2073 59.691 49.4758 59.378 48.8358C59.0834 48.1958 58.6508 47.693 58.08 47.3272C57.5093 46.9433 56.828 46.7513 56.0364 46.7513C55.2447 46.7513 54.5635 46.9433 53.9927 47.3272C53.434 47.7005 52.9935 48.2236 52.7224 48.8358C52.4278 49.4758 52.2805 50.2073 52.2805 51.0301V51.1124ZM69.7768 59.5604C68.8563 59.5604 68.0186 59.3775 67.2637 59.0118C66.543 58.674 65.9171 58.1654 65.441 57.5307C64.9807 56.909 64.7506 56.205 64.7506 55.4187C64.7506 54.157 65.2661 53.1513 66.2971 52.4015C67.3281 51.6518 68.6721 51.1581 70.3291 50.9204L74.444 50.3444V49.549C74.444 48.6713 74.1863 47.9855 73.6708 47.4918C73.1737 46.9981 72.3544 46.7513 71.2129 46.7513C70.3844 46.7513 69.7124 46.9158 69.1969 47.245C68.7229 47.5463 68.3559 47.9875 68.1474 48.5067C68.037 48.781 67.8437 48.9181 67.5675 48.9181H66.3247C66.1222 48.9181 65.9657 48.8633 65.8552 48.7535C65.7632 48.6256 65.7148 48.4719 65.7172 48.3147C65.7172 48.0404 65.8184 47.7021 66.0209 47.2998C66.2419 46.8975 66.5733 46.5044 67.0152 46.1204C67.457 45.7364 68.0186 45.4164 68.6998 45.1604C69.3994 44.8861 70.2463 44.749 71.2405 44.749C72.3452 44.749 73.2749 44.8953 74.0298 45.1878C74.7846 45.4621 75.3738 45.837 75.7972 46.3124C76.2391 46.7878 76.5521 47.3272 76.7362 47.9307C76.9369 48.5229 77.0395 49.1435 77.04 49.7684V58.6553C77.0416 58.742 77.0252 58.8281 76.992 58.9083C76.9587 58.9885 76.9093 59.0611 76.8467 59.1215C76.7881 59.1773 76.7188 59.2207 76.6428 59.249C76.5668 59.2773 76.4859 59.2899 76.4048 59.2861H75.1344C74.9319 59.2861 74.7754 59.2313 74.665 59.1215C74.5538 58.9917 74.4948 58.8256 74.4993 58.6553V57.4758C74.2212 57.8449 73.8963 58.1768 73.5327 58.4633C73.1276 58.7741 72.6213 59.0393 72.0138 59.2587C71.4062 59.4598 70.6605 59.5604 69.7768 59.5604ZM70.3568 57.5033C71.1116 57.5033 71.802 57.3478 72.428 57.037C73.054 56.7078 73.5419 56.205 73.8917 55.5284C74.2599 54.8518 74.444 54.0015 74.444 52.9775V52.2095L71.2405 52.6758C69.9333 52.8587 68.9483 53.1695 68.2855 53.6084C67.6227 54.029 67.2913 54.5684 67.2913 55.2267C67.2913 55.7387 67.4386 56.1684 67.7332 56.5158C68.0551 56.8507 68.4527 57.1045 68.8931 57.2564C69.3718 57.421 69.8597 57.5033 70.3568 57.5033ZM85.9809 59.5604C84.9499 59.5604 84.0661 59.4324 83.3297 59.1764C82.5932 58.9204 81.9949 58.6095 81.5346 58.2438C81.0743 57.8781 80.7245 57.5124 80.4852 57.1467C80.2642 56.781 80.1446 56.4884 80.1262 56.269C80.1077 56.0678 80.1722 55.9124 80.3195 55.8027C80.4445 55.701 80.5998 55.6432 80.7613 55.6381H81.9765C82.0629 55.6324 82.1492 55.6514 82.225 55.693C82.2987 55.7113 82.3907 55.7844 82.5012 55.9124C82.7546 56.1819 83.022 56.4383 83.3021 56.6804C83.5966 56.9364 83.9557 57.1467 84.3791 57.3113C84.821 57.4758 85.3641 57.5581 86.0085 57.5581C86.9475 57.5581 87.7207 57.3844 88.3283 57.037C88.9359 56.6713 89.2397 56.141 89.2397 55.4461C89.2397 54.989 89.1108 54.6233 88.853 54.349C88.6137 54.0747 88.1718 53.8278 87.5274 53.6084C86.9014 53.389 86.0361 53.1604 84.9315 52.9227C83.8268 52.6667 82.9523 52.3558 82.3079 51.9901C81.6635 51.6061 81.2032 51.1581 80.927 50.6461C80.6509 50.1158 80.5128 49.5215 80.5128 48.8632C80.5128 48.1867 80.7153 47.5375 81.1204 46.9158C81.5254 46.2758 82.1146 45.7547 82.8878 45.3524C83.6795 44.9501 84.6645 44.749 85.8428 44.749C86.8002 44.749 87.6195 44.8678 88.3007 45.1055C88.9819 45.3433 89.5434 45.645 89.9853 46.0107C90.4272 46.3581 90.7586 46.7055 90.9795 47.053C91.2004 47.4004 91.3201 47.693 91.3385 47.9307C91.3494 48.0159 91.3401 48.1024 91.3113 48.1833C91.2825 48.2643 91.2351 48.3374 91.1728 48.397C91.051 48.5041 90.8936 48.5627 90.731 48.5615H89.5711C89.4551 48.5648 89.3404 48.5363 89.2397 48.4792C89.1615 48.4205 89.0877 48.3564 89.0187 48.2873C88.8346 48.0495 88.6137 47.8118 88.3559 47.5741C88.1166 47.3364 87.7944 47.1444 87.3893 46.9981C87.0027 46.8335 86.4872 46.7513 85.8428 46.7513C84.9222 46.7513 84.2318 46.9433 83.7716 47.3272C83.3113 47.7113 83.0811 48.1958 83.0811 48.781C83.0811 49.1284 83.1824 49.4393 83.3849 49.7135C83.5874 49.9878 83.9741 50.2347 84.5448 50.4541C85.1156 50.6735 85.9625 50.9113 87.0856 51.1673C88.3007 51.405 89.2581 51.725 89.9577 52.1273C90.6573 52.5295 91.1544 52.9958 91.449 53.5261C91.7436 54.0564 91.8909 54.669 91.8909 55.3638C91.8909 56.1318 91.6607 56.8358 91.2004 57.4758C90.7586 58.1158 90.0958 58.6278 89.212 59.0118C88.3467 59.3775 87.2697 59.5604 85.9809 59.5604ZM100.805 59.5604C98.9089 59.5604 97.3992 58.9844 96.2762 57.8324C95.1531 56.6621 94.5363 55.0713 94.4258 53.0598C94.4074 52.8221 94.3982 52.5204 94.3982 52.1547C94.3982 51.7707 94.4074 51.4598 94.4258 51.2221C94.4995 49.9238 94.8033 48.7901 95.3372 47.821C95.8711 46.8335 96.5984 46.0747 97.5189 45.5444C98.4579 45.0141 99.5533 44.749 100.805 44.749C102.205 44.749 103.374 45.0415 104.313 45.6267C105.27 46.2118 105.997 47.0438 106.494 48.1227C106.991 49.2015 107.24 50.4633 107.24 51.9078V52.3741C107.245 52.4613 107.23 52.5485 107.197 52.6292C107.163 52.7099 107.112 52.7821 107.047 52.8404C106.988 52.8962 106.919 52.9396 106.843 52.9679C106.767 52.9962 106.686 53.0088 106.605 53.005H97.0494V53.2518C97.0813 53.9804 97.2498 54.6967 97.5465 55.3638C97.8263 55.9856 98.2641 56.5244 98.8169 56.9273C99.3692 57.3295 100.032 57.5307 100.805 57.5307C101.468 57.5307 102.02 57.4301 102.462 57.229C102.904 57.0278 103.263 56.8084 103.539 56.5707C103.815 56.3147 104 56.1227 104.092 55.9947C104.257 55.757 104.386 55.6198 104.478 55.5833C104.57 55.5284 104.718 55.501 104.92 55.501H106.246C106.43 55.501 106.577 55.5558 106.688 55.6655C106.817 55.757 106.872 55.8941 106.853 56.077C106.835 56.3513 106.688 56.6895 106.411 57.0918C106.135 57.4758 105.739 57.8598 105.224 58.2438C104.708 58.6278 104.082 58.9478 103.346 59.2038C102.61 59.4415 101.763 59.5604 100.805 59.5604ZM97.0494 51.1124H104.616V51.0301C104.616 50.2073 104.46 49.4758 104.147 48.8358C103.852 48.1958 103.42 47.693 102.849 47.3272C102.278 46.9433 101.597 46.7513 100.805 46.7513C100.014 46.7513 99.3324 46.9433 98.7617 47.3272C98.2029 47.7005 97.7624 48.2236 97.4913 48.8358C97.1967 49.4758 97.0494 50.2073 97.0494 51.0301V51.1124ZM115.788 59.5604C114.776 59.5604 113.901 59.3867 113.165 59.0393C112.428 58.6735 111.822 58.189 111.342 57.5855C110.882 56.9638 110.532 56.2598 110.293 55.4735C110.067 54.6591 109.938 53.8216 109.906 52.9775C109.888 52.685 109.879 52.4107 109.879 52.1547C109.879 51.8987 109.888 51.6244 109.906 51.3318C109.944 50.4724 110.073 49.6495 110.293 48.8632C110.532 48.077 110.882 47.373 111.342 46.7513C111.821 46.1295 112.428 45.645 113.165 45.2975C113.901 44.9318 114.776 44.749 115.788 44.749C116.875 44.749 117.778 44.941 118.496 45.325C119.175 45.6779 119.776 46.163 120.262 46.7513V40.4427C120.262 40.2598 120.319 40.1135 120.429 40.0038C120.49 39.9416 120.563 39.8925 120.644 39.8595C120.725 39.8265 120.811 39.8102 120.899 39.8118H122.224C122.308 39.8087 122.391 39.8244 122.467 39.8576C122.543 39.8909 122.611 39.9409 122.665 40.0038C122.729 40.0576 122.779 40.125 122.813 40.201C122.847 40.2771 122.863 40.3597 122.859 40.4427V58.6553C122.861 58.7421 122.844 58.8282 122.811 58.9084C122.778 58.9886 122.728 59.0612 122.665 59.1215C122.607 59.1772 122.537 59.2205 122.462 59.2488C122.386 59.2771 122.305 59.2898 122.224 59.2861H120.982C120.778 59.2861 120.623 59.2313 120.512 59.1215C120.401 58.9918 120.341 58.8258 120.345 58.6553V57.5033C119.885 58.0884 119.287 58.5821 118.55 58.9844C117.814 59.3684 116.893 59.5604 115.788 59.5604ZM116.37 57.3387C117.29 57.3387 118.027 57.1284 118.579 56.7078C119.131 56.2873 119.545 55.757 119.822 55.117C120.098 54.4587 120.244 53.7913 120.262 53.1147C120.281 52.8221 120.291 52.4747 120.291 52.0724C120.291 51.6518 120.281 51.2953 120.262 51.0027C120.24 50.3464 120.081 49.7018 119.794 49.1101C119.518 48.4884 119.093 47.9764 118.523 47.5741C117.97 47.1718 117.253 46.9707 116.37 46.9707C115.431 46.9707 114.684 47.181 114.133 47.6015C113.578 48.0063 113.163 48.5715 112.944 49.2198C112.699 49.9083 112.559 50.6295 112.53 51.3593C112.511 51.8894 112.511 52.42 112.53 52.9501C112.561 53.6886 112.7 54.4186 112.944 55.117C113.172 55.7602 113.586 56.3228 114.133 56.7353C114.685 57.1375 115.431 57.3387 116.37 57.3387ZM134.399 64.4975C134.311 64.4991 134.225 64.4829 134.144 64.4499C134.063 64.4168 133.99 64.3677 133.929 64.3055C133.873 64.2474 133.829 64.1785 133.801 64.1031C133.772 64.0276 133.76 63.9472 133.763 63.8667V45.6541C133.763 45.4713 133.819 45.325 133.929 45.2153C133.99 45.1531 134.063 45.1039 134.144 45.0709C134.225 45.0379 134.311 45.0217 134.399 45.0233H135.669C135.753 45.02 135.836 45.0356 135.912 45.0688C135.989 45.1021 136.057 45.1521 136.111 45.2153C136.174 45.2691 136.225 45.3366 136.258 45.4126C136.292 45.4886 136.307 45.5712 136.304 45.6541V46.861C136.746 46.2575 137.335 45.7547 138.072 45.3524C138.808 44.9501 139.729 44.749 140.833 44.749C141.864 44.749 142.739 44.9227 143.457 45.2701C144.193 45.6175 144.792 46.093 145.252 46.6964C145.736 47.31 146.101 48.0076 146.329 48.7535C146.568 49.5215 146.697 50.3444 146.716 51.2221C146.734 51.5147 146.743 51.8255 146.743 52.1547C146.743 52.4838 146.734 52.7947 146.716 53.0873C146.701 53.9238 146.571 54.7544 146.329 55.5558C146.101 56.3018 145.736 56.9993 145.252 57.613C144.769 58.2162 144.156 58.7037 143.457 59.0393C142.739 59.3867 141.864 59.5604 140.833 59.5604C139.766 59.5604 138.863 59.3684 138.127 58.9844C137.445 58.6121 136.844 58.1086 136.359 57.5033V63.8667C136.363 63.9472 136.351 64.0276 136.322 64.1031C136.294 64.1785 136.25 64.2474 136.194 64.3055C136.135 64.3705 136.062 64.4216 135.981 64.4548C135.9 64.488 135.812 64.5027 135.724 64.4975H134.399ZM140.253 57.3387C141.211 57.3387 141.956 57.1375 142.49 56.7353C143.043 56.3147 143.439 55.7753 143.678 55.117C143.917 54.4404 144.055 53.7181 144.092 52.9501C144.111 52.4198 144.111 51.8895 144.092 51.3593C144.063 50.6295 143.923 49.9083 143.678 49.2198C143.46 48.5717 143.045 48.0065 142.49 47.6015C141.956 47.181 141.211 46.9707 140.253 46.9707C139.351 46.9707 138.615 47.181 138.044 47.6015C137.492 48.0221 137.077 48.5615 136.801 49.2198C136.546 49.8495 136.397 50.5168 136.359 51.1947C136.341 51.4873 136.332 51.8347 136.332 52.237C136.332 52.6393 136.341 52.9958 136.359 53.3067C136.378 53.9467 136.525 54.5775 136.801 55.1993C137.091 55.8153 137.539 56.345 138.099 56.7353C138.67 57.1375 139.388 57.3387 140.253 57.3387ZM150.823 59.2861C150.651 59.2905 150.484 59.2319 150.353 59.1215C150.242 58.9917 150.183 58.8256 150.187 58.6553V45.6815C150.187 45.4987 150.243 45.3433 150.353 45.2153C150.414 45.1531 150.487 45.1039 150.568 45.0709C150.649 45.0379 150.735 45.0217 150.823 45.0233H152.093C152.277 45.0233 152.434 45.0872 152.562 45.2153C152.625 45.2757 152.674 45.3483 152.708 45.4285C152.741 45.5087 152.757 45.5948 152.756 45.6815V46.8884C153.124 46.2667 153.63 45.8004 154.275 45.4895C154.919 45.1787 155.692 45.0233 156.594 45.0233H157.699C157.783 45.02 157.866 45.0356 157.942 45.0688C158.019 45.1021 158.087 45.1521 158.141 45.2153C158.197 45.2734 158.241 45.3423 158.269 45.4177C158.298 45.4932 158.311 45.5736 158.307 45.6541V46.7787C158.311 46.8592 158.298 46.9396 158.269 47.0151C158.241 47.0905 158.197 47.1594 158.141 47.2175C158.082 47.2733 158.013 47.3167 157.937 47.345C157.861 47.3733 157.78 47.3859 157.699 47.3821H156.042C155.048 47.3821 154.265 47.6747 153.695 48.2598C153.124 48.8267 152.839 49.6038 152.839 50.5913V58.6553C152.84 58.742 152.824 58.8281 152.791 58.9083C152.757 58.9885 152.708 59.0611 152.645 59.1215C152.514 59.2319 152.347 59.2905 152.176 59.2861H150.823ZM166.29 59.5604C164.891 59.5604 163.722 59.2953 162.783 58.765C161.866 58.2568 161.117 57.4943 160.629 56.5707C160.132 55.6198 159.855 54.541 159.8 53.3341C159.78 52.9413 159.771 52.548 159.773 52.1547C159.773 51.661 159.782 51.2678 159.8 50.9753C159.855 49.7501 160.132 48.6712 160.629 47.7387C161.133 46.8175 161.889 46.0567 162.81 45.5444C163.749 45.0141 164.909 44.749 166.29 44.749C167.671 44.749 168.831 45.0141 169.77 45.5444C170.687 46.0526 171.436 46.8151 171.924 47.7387C172.439 48.6712 172.725 49.7501 172.78 50.9753C172.798 51.2678 172.808 51.661 172.808 52.1547C172.808 52.6301 172.798 53.0233 172.78 53.3341C172.725 54.541 172.449 55.6198 171.952 56.5707C171.463 57.4943 170.715 58.2568 169.797 58.765C168.859 59.2953 167.689 59.5604 166.29 59.5604ZM166.29 57.4484C167.432 57.4484 168.343 57.0918 169.024 56.3787C169.705 55.6473 170.074 54.5867 170.129 53.197C170.147 52.9227 170.156 52.5753 170.156 52.1547C170.156 51.7341 170.147 51.3867 170.129 51.1124C170.074 49.7227 169.705 48.6713 169.024 47.9581C168.343 47.2267 167.432 46.861 166.29 46.861C165.149 46.861 164.228 47.2267 163.529 47.9581C162.847 48.6713 162.488 49.7227 162.451 51.1124C162.431 51.4594 162.422 51.807 162.424 52.1547C162.424 52.5753 162.433 52.9227 162.451 53.197C162.488 54.5867 162.847 55.6473 163.529 56.3787C164.228 57.0918 165.149 57.4484 166.29 57.4484ZM181.514 59.5604C180.501 59.5604 179.627 59.3867 178.89 59.0393C178.154 58.6735 177.546 58.189 177.068 57.5855C176.607 56.9638 176.257 56.2598 176.018 55.4735C175.793 54.6591 175.663 53.8216 175.632 52.9775C175.613 52.685 175.604 52.4107 175.604 52.1547C175.604 51.8987 175.613 51.6244 175.632 51.3318C175.668 50.4724 175.797 49.6495 176.018 48.8632C176.257 48.077 176.607 47.373 177.068 46.7513C177.546 46.1295 178.154 45.645 178.89 45.2975C179.627 44.9318 180.501 44.749 181.514 44.749C182.6 44.749 183.502 44.941 184.22 45.325C184.9 45.6778 185.501 46.1628 185.988 46.7513V40.4427C185.988 40.2598 186.043 40.1135 186.153 40.0038C186.214 39.9416 186.287 39.8925 186.368 39.8595C186.449 39.8265 186.536 39.8102 186.623 39.8118H187.949C188.032 39.8086 188.115 39.8241 188.192 39.8574C188.268 39.8906 188.336 39.9407 188.39 40.0038C188.454 40.0577 188.504 40.1252 188.538 40.2012C188.571 40.2772 188.587 40.3598 188.584 40.4427V58.6553C188.585 58.742 188.569 58.8281 188.536 58.9083C188.502 58.9885 188.453 59.0611 188.39 59.1215C188.332 59.1773 188.262 59.2207 188.187 59.249C188.111 59.2773 188.03 59.2899 187.949 59.2861H186.706C186.503 59.2861 186.347 59.2313 186.236 59.1215C186.125 58.9917 186.066 58.8256 186.071 58.6553V57.5033C185.61 58.0884 185.012 58.5821 184.276 58.9844C183.539 59.3684 182.619 59.5604 181.514 59.5604ZM182.094 57.3387C183.014 57.3387 183.751 57.1284 184.303 56.7078C184.855 56.2873 185.27 55.757 185.546 55.117C185.822 54.4587 185.969 53.7913 185.988 53.1147C186.006 52.8221 186.015 52.4747 186.015 52.0724C186.015 51.6518 186.006 51.2953 185.988 51.0027C185.965 50.3463 185.805 49.7017 185.518 49.1101C185.242 48.4884 184.819 47.9764 184.248 47.5741C183.696 47.1718 182.978 46.9707 182.094 46.9707C181.155 46.9707 180.409 47.181 179.857 47.6015C179.302 48.0065 178.888 48.5717 178.669 49.2198C178.424 49.9083 178.284 50.6295 178.255 51.3593C178.237 51.8894 178.237 52.42 178.255 52.9501C178.286 53.6886 178.426 54.4186 178.669 55.117C178.898 55.76 179.31 56.3226 179.857 56.7353C180.409 57.1375 181.155 57.3387 182.094 57.3387ZM198.048 59.5604C196.87 59.5604 195.866 59.3044 195.038 58.7924C194.228 58.2621 193.611 57.5307 193.188 56.5981C192.764 55.6655 192.552 54.5958 192.552 53.389V45.6541C192.552 45.4713 192.608 45.325 192.718 45.2153C192.779 45.1531 192.852 45.1039 192.933 45.0709C193.014 45.0379 193.1 45.0217 193.188 45.0233H194.568C194.652 45.02 194.735 45.0356 194.812 45.0688C194.888 45.1021 194.956 45.1521 195.01 45.2153C195.074 45.2691 195.124 45.3366 195.158 45.4126C195.191 45.4886 195.207 45.5712 195.204 45.6541V53.2518C195.204 55.9764 196.4 57.3387 198.794 57.3387C199.935 57.3387 200.847 56.9821 201.528 56.269C202.228 55.5375 202.577 54.5318 202.577 53.2518V45.6541C202.577 45.4713 202.633 45.325 202.743 45.2153C202.804 45.1531 202.877 45.104 202.958 45.071C203.039 45.038 203.125 45.0217 203.213 45.0233H204.566C204.653 45.0181 204.741 45.0327 204.823 45.066C204.904 45.0992 204.977 45.1502 205.035 45.2153C205.091 45.2734 205.135 45.3423 205.164 45.4177C205.192 45.4932 205.205 45.5736 205.201 45.6541V58.6553C205.205 58.8256 205.146 58.9917 205.035 59.1215C204.925 59.2313 204.768 59.2861 204.566 59.2861H203.295C203.124 59.2905 202.957 59.2319 202.826 59.1215C202.715 58.9917 202.656 58.8256 202.66 58.6553V57.4484C202.169 58.0832 201.548 58.6068 200.837 58.9844C200.138 59.3684 199.208 59.5604 198.048 59.5604ZM215.104 59.5604C213.797 59.5604 212.664 59.3135 211.707 58.8198C210.783 58.3231 210.025 57.5702 209.525 56.653C209.01 55.7021 208.734 54.5684 208.697 53.2518C208.678 52.9775 208.669 52.6118 208.669 52.1547C208.669 51.6975 208.678 51.3318 208.697 51.0575C208.734 49.741 209.01 48.6164 209.525 47.6838C210.015 46.7588 210.776 46.0032 211.707 45.517C212.664 45.005 213.797 44.749 215.104 44.749C216.172 44.749 217.083 44.8953 217.838 45.1878C218.611 45.4804 219.246 45.8553 219.743 46.3124C220.24 46.7695 220.609 47.2633 220.848 47.7935C221.106 48.3238 221.244 48.8267 221.262 49.3021C221.275 49.3832 221.266 49.4662 221.237 49.543C221.208 49.6198 221.16 49.688 221.097 49.741C220.966 49.8513 220.799 49.9099 220.627 49.9055H219.302C219.117 49.9055 218.979 49.869 218.887 49.7958C218.795 49.7044 218.703 49.5581 218.611 49.357C218.28 48.461 217.829 47.8301 217.258 47.4644C216.687 47.0987 215.978 46.9158 215.131 46.9158C214.027 46.9158 213.125 47.2541 212.425 47.9307C211.744 48.6073 211.376 49.6953 211.32 51.1947C211.302 51.8345 211.302 52.4748 211.32 53.1147C211.376 54.6324 211.744 55.7295 212.425 56.4061C213.125 57.0644 214.027 57.3935 215.131 57.3935C215.978 57.3935 216.687 57.2107 217.258 56.845C217.829 56.4793 218.28 55.8484 218.611 54.9524C218.703 54.7513 218.795 54.6141 218.887 54.541C218.979 54.4495 219.117 54.4038 219.302 54.4038H220.627C220.811 54.4038 220.968 54.4587 221.097 54.5684C221.16 54.6214 221.208 54.6895 221.237 54.7664C221.266 54.8432 221.275 54.9261 221.262 55.0073C221.24 55.4106 221.156 55.8082 221.014 56.1867C220.841 56.633 220.599 57.0495 220.296 57.421C219.959 57.8452 219.559 58.2153 219.108 58.5181C218.63 58.829 218.05 59.085 217.368 59.2861C216.706 59.469 215.951 59.5604 215.104 59.5604ZM230.148 59.2861C229.117 59.2861 228.279 59.0941 227.635 58.7101C226.99 58.3078 226.521 57.7501 226.226 57.037C225.932 56.3055 225.785 55.4461 225.785 54.4587V47.2175H223.63C223.459 47.2219 223.292 47.1633 223.161 47.053C223.05 46.9231 222.991 46.7571 222.995 46.5867V45.6541C222.995 45.4713 223.05 45.325 223.161 45.2153C223.222 45.1531 223.295 45.1039 223.376 45.0709C223.456 45.0379 223.543 45.0217 223.63 45.0233H225.785V40.4427C225.785 40.2598 225.84 40.1135 225.95 40.0038C226.011 39.9416 226.084 39.8925 226.165 39.8595C226.246 39.8265 226.332 39.8102 226.42 39.8118H227.718C227.801 39.8086 227.884 39.8241 227.961 39.8574C228.037 39.8906 228.105 39.9407 228.16 40.0038C228.223 40.0577 228.273 40.1252 228.307 40.2012C228.34 40.2772 228.356 40.3598 228.353 40.4427V45.0233H231.777C231.861 45.02 231.944 45.0356 232.02 45.0688C232.097 45.1021 232.165 45.1521 232.219 45.2153C232.283 45.2691 232.333 45.3366 232.367 45.4126C232.4 45.4886 232.416 45.5712 232.413 45.6541V46.5867C232.414 46.6734 232.398 46.7595 232.365 46.8397C232.331 46.9199 232.282 46.9925 232.219 47.053C232.161 47.1088 232.091 47.1521 232.015 47.1804C231.939 47.2087 231.858 47.2214 231.777 47.2175H228.353V54.2667C228.353 55.1261 228.5 55.8027 228.795 56.2964C229.089 56.7901 229.614 57.037 230.369 57.037H232.054C232.137 57.0337 232.22 57.0493 232.297 57.0825C232.373 57.1158 232.441 57.1659 232.495 57.229C232.559 57.2828 232.609 57.3503 232.643 57.4263C232.676 57.5023 232.692 57.5849 232.689 57.6678V58.6553C232.69 58.742 232.674 58.8281 232.641 58.9083C232.607 58.9885 232.558 59.0611 232.495 59.1215C232.437 59.1773 232.367 59.2207 232.292 59.249C232.216 59.2773 232.135 59.2899 232.054 59.2861H230.148ZM235.965 59.2861C235.793 59.2905 235.626 59.2319 235.495 59.1215C235.384 58.9917 235.325 58.8256 235.33 58.6553V45.6541C235.33 45.4713 235.385 45.325 235.495 45.2153C235.556 45.1531 235.629 45.1039 235.71 45.0709C235.791 45.0379 235.877 45.0217 235.965 45.0233H237.29C237.374 45.02 237.457 45.0356 237.533 45.0688C237.61 45.1021 237.678 45.1521 237.732 45.2153C237.788 45.2734 237.832 45.3423 237.861 45.4177C237.889 45.4932 237.902 45.5736 237.898 45.6541V58.6553C237.902 58.8256 237.843 58.9917 237.732 59.1215C237.674 59.1773 237.604 59.2207 237.528 59.249C237.452 59.2773 237.371 59.2899 237.29 59.2861H235.965ZM235.744 42.3627C235.572 42.3671 235.405 42.3085 235.274 42.1981C235.163 42.0682 235.104 41.9022 235.109 41.7318V40.2507C235.109 40.0678 235.164 39.9215 235.274 39.8118C235.335 39.7496 235.408 39.7005 235.489 39.6675C235.57 39.6345 235.656 39.6182 235.744 39.6198H237.484C237.567 39.6166 237.65 39.6321 237.727 39.6654C237.803 39.6986 237.871 39.7487 237.925 39.8118C237.989 39.8657 238.039 39.9332 238.073 40.0092C238.106 40.0852 238.122 40.1678 238.119 40.2507V41.7318C238.12 41.8185 238.104 41.9047 238.071 41.9849C238.038 42.0651 237.988 42.1376 237.925 42.1981C237.867 42.2539 237.798 42.2973 237.722 42.3256C237.646 42.3539 237.565 42.3665 237.484 42.3627H235.744ZM247.016 59.2861C246.74 59.2861 246.519 59.2221 246.353 59.0941C246.199 58.957 246.077 58.7886 245.994 58.6004L240.885 45.8735C240.849 45.7865 240.83 45.6934 240.83 45.5993C240.827 45.5229 240.841 45.4469 240.869 45.3758C240.897 45.3048 240.94 45.2403 240.994 45.1863C241.048 45.1323 241.113 45.09 241.185 45.0619C241.256 45.0339 241.333 45.0207 241.41 45.0233H242.735C242.938 45.0233 243.094 45.0781 243.205 45.1878C243.297 45.2679 243.364 45.3727 243.398 45.4895L247.624 56.2964L251.821 45.4895C251.858 45.3981 251.923 45.2975 252.015 45.1878C252.125 45.0781 252.282 45.0233 252.484 45.0233H253.837C253.91 45.023 253.981 45.0374 254.048 45.0658C254.114 45.0941 254.174 45.1356 254.224 45.1878C254.285 45.2374 254.335 45.3002 254.368 45.3715C254.402 45.4427 254.418 45.5206 254.417 45.5993C254.417 45.6907 254.399 45.7821 254.362 45.8735L249.225 58.6004C249.156 58.7958 249.031 58.9672 248.866 59.0941C248.719 59.2221 248.498 59.2861 248.204 59.2861H247.016ZM257.944 59.2861C257.773 59.2905 257.605 59.2319 257.475 59.1215C257.364 58.9917 257.305 58.8256 257.309 58.6553V45.6541C257.309 45.4713 257.364 45.325 257.475 45.2153C257.536 45.1531 257.609 45.1039 257.689 45.0709C257.77 45.0379 257.857 45.0217 257.944 45.0233H259.27C259.353 45.02 259.436 45.0356 259.513 45.0688C259.589 45.1021 259.657 45.1521 259.712 45.2153C259.768 45.2734 259.811 45.3423 259.84 45.4177C259.868 45.4932 259.881 45.5736 259.877 45.6541V58.6553C259.882 58.8256 259.823 58.9917 259.712 59.1215C259.653 59.1773 259.584 59.2207 259.508 59.249C259.432 59.2773 259.351 59.2899 259.27 59.2861H257.944ZM257.723 42.3627C257.552 42.3671 257.384 42.3085 257.254 42.1981C257.143 42.0682 257.084 41.9022 257.088 41.7318V40.2507C257.088 40.0678 257.143 39.9215 257.254 39.8118C257.315 39.7496 257.388 39.7005 257.468 39.6675C257.549 39.6345 257.636 39.6182 257.723 39.6198H259.463C259.547 39.6166 259.63 39.6321 259.706 39.6654C259.783 39.6986 259.851 39.7487 259.905 39.8118C259.968 39.8657 260.019 39.9332 260.052 40.0092C260.086 40.0852 260.102 40.1678 260.098 40.2507V41.7318C260.1 41.8185 260.083 41.9047 260.05 41.9849C260.017 42.0651 259.968 42.1376 259.905 42.1981C259.846 42.2539 259.777 42.2973 259.701 42.3256C259.625 42.3539 259.544 42.3665 259.463 42.3627H257.723ZM269.604 59.2861C268.573 59.2861 267.735 59.0941 267.091 58.7101C266.447 58.3078 265.977 57.7501 265.683 57.037C265.388 56.3055 265.241 55.4461 265.241 54.4587V47.2175H263.087C262.915 47.2219 262.748 47.1633 262.617 47.053C262.506 46.9231 262.447 46.7571 262.451 46.5867V45.6541C262.451 45.4713 262.507 45.325 262.617 45.2153C262.678 45.1531 262.751 45.1039 262.832 45.0709C262.913 45.0379 262.999 45.0217 263.087 45.0233H265.241V40.4427C265.241 40.2598 265.296 40.1135 265.406 40.0038C265.467 39.9416 265.54 39.8925 265.621 39.8595C265.702 39.8265 265.789 39.8102 265.876 39.8118H267.174C267.257 39.8086 267.34 39.8241 267.417 39.8574C267.494 39.8906 267.561 39.9407 267.616 40.0038C267.679 40.0577 267.73 40.1252 267.763 40.2012C267.797 40.2772 267.812 40.3598 267.809 40.4427V45.0233H271.233C271.317 45.02 271.4 45.0356 271.477 45.0688C271.553 45.1021 271.621 45.1521 271.675 45.2153C271.739 45.2691 271.789 45.3366 271.823 45.4126C271.856 45.4886 271.872 45.5712 271.869 45.6541V46.5867C271.87 46.6734 271.854 46.7595 271.821 46.8397C271.787 46.9199 271.738 46.9925 271.675 47.053C271.617 47.1088 271.547 47.1521 271.471 47.1804C271.396 47.2087 271.315 47.2214 271.233 47.2175H267.809V54.2667C267.809 55.1261 267.956 55.8027 268.251 56.2964C268.545 56.7901 269.07 57.037 269.825 57.037H271.51C271.593 57.0337 271.676 57.0493 271.753 57.0825C271.829 57.1158 271.897 57.1659 271.952 57.229C272.015 57.2828 272.065 57.3503 272.099 57.4263C272.132 57.5023 272.148 57.5849 272.145 57.6678V58.6553C272.146 58.742 272.13 58.8281 272.097 58.9083C272.064 58.9885 272.014 59.0611 271.952 59.1215C271.893 59.1773 271.824 59.2207 271.748 59.249C271.672 59.2773 271.591 59.2899 271.51 59.2861H269.604ZM277.299 64.4975C277.226 64.4978 277.155 64.4833 277.088 64.455C277.022 64.4267 276.962 64.3852 276.912 64.333C276.86 64.2836 276.818 64.2241 276.789 64.158C276.761 64.092 276.746 64.0208 276.746 63.949C276.746 63.8758 276.756 63.8027 276.774 63.7295C276.793 63.6564 276.829 63.565 276.885 63.4553L279.011 58.4358L273.736 46.0655C273.644 45.8461 273.598 45.6907 273.598 45.5993C273.596 45.5229 273.609 45.4469 273.637 45.3758C273.665 45.3048 273.708 45.2403 273.762 45.1863C273.817 45.1323 273.882 45.09 273.953 45.0619C274.025 45.0339 274.101 45.0207 274.178 45.0233H275.531C275.69 45.0151 275.847 45.0638 275.973 45.1604C276.079 45.245 276.156 45.3599 276.194 45.4895L280.392 55.4735L284.7 45.4895C284.752 45.3668 284.827 45.255 284.921 45.1604C285.031 45.069 285.188 45.0233 285.391 45.0233H286.689C286.765 45.0211 286.842 45.0346 286.913 45.0629C286.984 45.0912 287.049 45.1337 287.103 45.1878C287.155 45.2372 287.197 45.2967 287.226 45.3628C287.254 45.4288 287.269 45.5 287.268 45.5718C287.268 45.6632 287.222 45.8278 287.13 46.0655L279.287 64.0313C279.232 64.1592 279.147 64.272 279.039 64.3604C278.947 64.4518 278.799 64.4975 278.597 64.4975H277.299ZM288.875 59.2861C288.703 59.2908 288.535 59.2322 288.404 59.1215C288.293 58.9917 288.234 58.8256 288.238 58.6553V56.6804C288.238 56.4975 288.294 56.3513 288.404 56.2415C288.465 56.1794 288.538 56.1302 288.619 56.0972C288.7 56.0642 288.786 56.048 288.874 56.0495H290.862C290.946 56.0463 291.029 56.0618 291.105 56.0951C291.182 56.1284 291.25 56.1784 291.304 56.2415C291.367 56.2954 291.418 56.3629 291.451 56.4389C291.485 56.5149 291.501 56.5975 291.497 56.6804V58.6553C291.499 58.742 291.482 58.8281 291.449 58.9083C291.416 58.9885 291.367 59.0611 291.304 59.1215C291.245 59.1773 291.176 59.2207 291.1 59.249C291.024 59.2773 290.943 59.2899 290.862 59.2861H288.874H288.875Z" fill="white"/>
</svg>
