<svg width="89" height="97" viewBox="0 0 89 97" fill="none" xmlns="http://www.w3.org/2000/svg">
<path d="M84.4459 48.8574C84.4459 72.8426 66.5705 92.286 44.5195 92.286V96.8574C68.8915 96.8574 88.6487 75.3671 88.6487 48.8574H84.4459ZM44.5195 92.286C22.4686 92.286 4.59316 72.8426 4.59316 48.8574H0.390381C0.390381 75.3671 20.1476 96.8574 44.5195 96.8574V92.286ZM4.59316 48.8574C4.59316 24.8723 22.4686 5.42885 44.5195 5.42885V0.857414C20.1476 0.857414 0.390381 22.3477 0.390381 48.8574H4.59316ZM44.5195 5.42885C66.5705 5.42885 84.4459 24.8723 84.4459 48.8574H88.6487C88.6487 22.3477 68.8915 0.857414 44.5195 0.857414V5.42885Z" fill="black"/>
</svg>
