<svg width="488" height="20" viewBox="0 0 488 20" fill="none" xmlns="http://www.w3.org/2000/svg">
<path d="M0.631087 19.6667C0.460703 19.6711 0.294684 19.6125 0.164801 19.5021C0.0544369 19.3722 -0.00415793 19.2062 0.000229725 19.0358V1.12498C0.000229725 0.923834 0.0550869 0.768408 0.164801 0.658693C0.225266 0.59651 0.297843 0.547388 0.378044 0.514364C0.458245 0.48134 0.544367 0.465115 0.631087 0.466692H2.00252C2.22194 0.466692 2.38652 0.521549 2.49623 0.631264C2.60594 0.740978 2.66994 0.832407 2.68823 0.90555L8.50309 11.9867L14.3454 0.90555C14.3819 0.832407 14.4459 0.740978 14.5374 0.631264C14.6471 0.521549 14.8117 0.466692 15.0311 0.466692H16.3751C16.4622 0.461575 16.5494 0.476183 16.6302 0.509424C16.7109 0.542665 16.7831 0.593689 16.8414 0.658693C16.9064 0.716978 16.9574 0.789173 16.9906 0.869904C17.0239 0.950634 17.0385 1.03782 17.0334 1.12498V19.0358C17.035 19.1226 17.0187 19.2087 16.9857 19.2889C16.9527 19.3691 16.9036 19.4417 16.8414 19.5021C16.7317 19.6118 16.5762 19.6667 16.3751 19.6667H15.0311C14.8607 19.6711 14.6947 19.6125 14.5648 19.5021C14.4544 19.3722 14.3958 19.2062 14.4002 19.0358V5.54098L9.81966 14.4827C9.75305 14.6568 9.63904 14.8088 9.49051 14.9216C9.3243 15.0182 9.13409 15.0657 8.94194 15.0587H8.09166C7.8906 15.0678 7.69102 15.0203 7.51566 14.9216C7.37772 14.7987 7.2658 14.6495 7.18652 14.4827L2.60594 5.54098V19.0358C2.60752 19.1226 2.5913 19.2087 2.55827 19.2889C2.52525 19.3691 2.47613 19.4417 2.41394 19.5021C2.35581 19.5579 2.28691 19.6013 2.21146 19.6296C2.13601 19.6579 2.05558 19.6705 1.97509 19.6667H0.631087ZM27.2619 19.941C25.8722 19.941 24.7111 19.6758 23.7785 19.1456C22.8675 18.6373 22.1241 17.8749 21.6391 16.9513C21.1454 16.0004 20.8711 14.9216 20.8162 13.7147C20.7979 13.4038 20.7888 13.0107 20.7888 12.5353C20.7888 12.0416 20.7979 11.6484 20.8162 11.3558C20.8711 10.1307 21.1454 9.05184 21.6391 8.11926C22.1399 7.19804 22.8911 6.43731 23.8059 5.92498C24.7385 5.39469 25.8905 5.12955 27.2619 5.12955C28.6334 5.12955 29.7854 5.39469 30.7179 5.92498C31.629 6.43318 32.3724 7.19564 32.8574 8.11926C33.3694 9.05184 33.6528 10.1307 33.7077 11.3558C33.7259 11.6484 33.7351 12.0416 33.7351 12.5353C33.7351 13.0107 33.7259 13.4038 33.7077 13.7147C33.6528 14.9216 33.3785 16.0004 32.8848 16.9513C32.3998 17.8749 31.6564 18.6373 30.7454 19.1456C29.8128 19.6758 28.6517 19.941 27.2619 19.941ZM27.2619 17.829C28.3957 17.829 29.3008 17.4724 29.9774 16.7593C30.6539 16.0278 31.0197 14.9673 31.0745 13.5776C31.0928 13.3033 31.1019 12.9558 31.1019 12.5353C31.1019 12.1147 31.0928 11.7673 31.0745 11.493C31.0197 10.1033 30.6539 9.05184 29.9774 8.33869C29.3008 7.60726 28.3957 7.24155 27.2619 7.24155C26.1282 7.24155 25.2139 7.60726 24.5191 8.33869C23.8425 9.05184 23.4859 10.1033 23.4494 11.493C23.4311 11.7673 23.4219 12.1147 23.4219 12.5353C23.4219 12.9558 23.4311 13.3033 23.4494 13.5776C23.4859 14.9673 23.8425 16.0278 24.5191 16.7593C25.2139 17.4724 26.1282 17.829 27.2619 17.829ZM42.1077 19.941C41.0837 19.941 40.2059 19.813 39.4745 19.557C38.7431 19.301 38.1488 18.9901 37.6917 18.6244C37.2345 18.2587 36.8871 17.893 36.6494 17.5273C36.4299 17.1616 36.3111 16.869 36.2928 16.6496C36.2745 16.4484 36.3385 16.293 36.4848 16.1833C36.609 16.0816 36.7632 16.0238 36.9237 16.0187H38.1305C38.2164 16.013 38.302 16.032 38.3774 16.0736C38.4505 16.0918 38.5419 16.165 38.6517 16.293C38.8894 16.549 39.1545 16.805 39.4471 17.061C39.7397 17.317 40.0962 17.5273 40.5168 17.6918C40.9557 17.8564 41.4951 17.9387 42.1351 17.9387C43.0677 17.9387 43.8357 17.765 44.4391 17.4176C45.0425 17.0518 45.3442 16.5216 45.3442 15.8267C45.3442 15.3696 45.2162 15.0038 44.9602 14.7296C44.7225 14.4553 44.2837 14.2084 43.6437 13.989C43.0219 13.7696 42.1625 13.541 41.0654 13.3033C39.9682 13.0473 39.0997 12.7364 38.4597 12.3707C37.8197 11.9867 37.3625 11.5387 37.0882 11.0267C36.8139 10.4964 36.6768 9.90212 36.6768 9.24384C36.6768 8.56726 36.8779 7.91812 37.2802 7.29641C37.6825 6.65641 38.2677 6.13526 39.0357 5.73298C39.8219 5.33069 40.8002 5.12955 41.9705 5.12955C42.9214 5.12955 43.7351 5.24841 44.4117 5.48612C45.0882 5.72384 45.6459 6.02555 46.0848 6.39126C46.5237 6.73869 46.8528 7.08612 47.0722 7.43355C47.2917 7.78098 47.4105 8.07355 47.4288 8.31126C47.4396 8.39644 47.4303 8.48295 47.4018 8.56391C47.3732 8.64487 47.3261 8.71803 47.2642 8.77755C47.1433 8.88467 46.9869 8.94329 46.8254 8.94212H45.6734C45.5582 8.94538 45.4443 8.91692 45.3442 8.85984C45.2666 8.8011 45.1933 8.73694 45.1248 8.66784C44.9419 8.43012 44.7225 8.19241 44.4665 7.95469C44.2288 7.71698 43.9088 7.52498 43.5065 7.37869C43.1225 7.21412 42.6105 7.13183 41.9705 7.13183C41.0562 7.13183 40.3705 7.32384 39.9134 7.70784C39.4562 8.09184 39.2277 8.57641 39.2277 9.16155C39.2277 9.50898 39.3282 9.81984 39.5294 10.0941C39.7305 10.3684 40.1145 10.6153 40.6814 10.8347C41.2482 11.0541 42.0894 11.2918 43.2048 11.5478C44.4117 11.7856 45.3625 12.1056 46.0574 12.5078C46.7522 12.9101 47.2459 13.3764 47.5385 13.9067C47.8311 14.437 47.9774 15.0496 47.9774 15.7444C47.9774 16.5124 47.7488 17.2164 47.2917 17.8564C46.8528 18.4964 46.1945 19.0084 45.3168 19.3924C44.4574 19.7581 43.3877 19.941 42.1077 19.941ZM56.6939 19.6667C55.6699 19.6667 54.8379 19.4747 54.1979 19.0907C53.5579 18.6884 53.0917 18.1307 52.7991 17.4176C52.5065 16.6861 52.3602 15.8267 52.3602 14.8393V7.59812H50.2208C50.0504 7.60251 49.8844 7.54391 49.7545 7.43355C49.6442 7.30367 49.5856 7.13765 49.5899 6.96727V6.03469C49.5899 5.85184 49.6448 5.70555 49.7545 5.59584C49.815 5.53365 49.8876 5.48453 49.9678 5.45151C50.048 5.41848 50.1341 5.40226 50.2208 5.40384H52.3602V0.823263C52.3602 0.640406 52.4151 0.494122 52.5248 0.384407C52.5853 0.322224 52.6578 0.2731 52.738 0.240076C52.8182 0.207052 52.9044 0.19083 52.9911 0.192408H54.2802C54.3631 0.189138 54.4457 0.20472 54.5217 0.237976C54.5977 0.271233 54.6652 0.321299 54.7191 0.384407C54.7822 0.438274 54.8323 0.505756 54.8655 0.581772C54.8988 0.657787 54.9144 0.740355 54.9111 0.823263V5.40384H58.3122C58.3951 5.40057 58.4777 5.41615 58.5537 5.4494C58.6297 5.48266 58.6972 5.53273 58.7511 5.59584C58.8142 5.6497 58.8643 5.71719 58.8975 5.7932C58.9308 5.86922 58.9464 5.95179 58.9431 6.03469V6.96727C58.9447 7.05398 58.9284 7.14011 58.8954 7.22031C58.8624 7.30051 58.8133 7.37309 58.7511 7.43355C58.6929 7.48935 58.6241 7.53273 58.5486 7.56102C58.4731 7.58932 58.3927 7.60194 58.3122 7.59812H54.9111V14.6473C54.9111 15.5067 55.0574 16.1833 55.3499 16.677C55.6425 17.1707 56.1637 17.4176 56.9134 17.4176H58.5865C58.6694 17.4143 58.752 17.4299 58.828 17.4631C58.904 17.4964 58.9715 17.5464 59.0254 17.6096C59.0885 17.6634 59.1385 17.7309 59.1718 17.8069C59.2051 17.8829 59.2206 17.9655 59.2174 18.0484V19.0358C59.219 19.1226 59.2027 19.2087 59.1697 19.2889C59.1367 19.3691 59.0876 19.4417 59.0254 19.5021C58.9672 19.5579 58.8983 19.6013 58.8229 19.6296C58.7474 19.6579 58.667 19.6705 58.5865 19.6667H56.6939ZM73.5419 19.6667C72.5179 19.6667 71.6859 19.4747 71.0459 19.0907C70.4059 18.6884 69.9397 18.1307 69.6471 17.4176C69.3545 16.6861 69.2082 15.8267 69.2082 14.8393V7.59812H67.0688C66.8984 7.60251 66.7324 7.54391 66.6025 7.43355C66.4921 7.30367 66.4336 7.13765 66.4379 6.96727V6.03469C66.4379 5.85184 66.4928 5.70555 66.6025 5.59584C66.663 5.53365 66.7355 5.48453 66.8158 5.45151C66.896 5.41848 66.9821 5.40226 67.0688 5.40384H69.2082V0.823263C69.2082 0.640406 69.2631 0.494122 69.3728 0.384407C69.4333 0.322224 69.5058 0.2731 69.586 0.240076C69.6662 0.207052 69.7524 0.19083 69.8391 0.192408H71.1282C71.2111 0.189138 71.2937 0.20472 71.3697 0.237976C71.4457 0.271233 71.5132 0.321299 71.5671 0.384407C71.6302 0.438274 71.6803 0.505756 71.7135 0.581772C71.7468 0.657787 71.7624 0.740355 71.7591 0.823263V5.40384H75.1602C75.2431 5.40057 75.3257 5.41615 75.4017 5.4494C75.4777 5.48266 75.5452 5.53273 75.5991 5.59584C75.6622 5.6497 75.7123 5.71719 75.7455 5.7932C75.7788 5.86922 75.7944 5.95179 75.7911 6.03469V6.96727C75.7927 7.05398 75.7764 7.14011 75.7434 7.22031C75.7104 7.30051 75.6613 7.37309 75.5991 7.43355C75.541 7.48935 75.4721 7.53273 75.3966 7.56102C75.3212 7.58932 75.2407 7.60194 75.1602 7.59812H71.7591V14.6473C71.7591 15.5067 71.9054 16.1833 72.1979 16.677C72.4905 17.1707 73.0117 17.4176 73.7614 17.4176H75.4345C75.5174 17.4143 75.6 17.4299 75.676 17.4631C75.752 17.4964 75.8195 17.5464 75.8734 17.6096C75.9365 17.6634 75.9865 17.7309 76.0198 17.8069C76.0531 17.8829 76.0686 17.9655 76.0654 18.0484V19.0358C76.0669 19.1226 76.0507 19.2087 76.0177 19.2889C75.9847 19.3691 75.9356 19.4417 75.8734 19.5021C75.8152 19.5579 75.7463 19.6013 75.6709 19.6296C75.5954 19.6579 75.515 19.6705 75.4345 19.6667H73.5419ZM79.3191 19.6667C79.1487 19.6711 78.9827 19.6125 78.8528 19.5021C78.7424 19.3722 78.6838 19.2062 78.6882 19.0358V6.06212C78.6882 5.87926 78.7431 5.72384 78.8528 5.59584C78.9133 5.53365 78.9858 5.48453 79.066 5.45151C79.1462 5.41848 79.2324 5.40226 79.3191 5.40384H80.5808C80.7637 5.40384 80.9191 5.46784 81.0471 5.59584C81.1093 5.6563 81.1584 5.72888 81.1914 5.80908C81.2244 5.88928 81.2407 5.9754 81.2391 6.06212V7.26898C81.6048 6.64726 82.1077 6.18098 82.7477 5.87012C83.3876 5.55926 84.1557 5.40384 85.0517 5.40384H86.1488C86.2317 5.40057 86.3143 5.41615 86.3903 5.4494C86.4663 5.48266 86.5338 5.53273 86.5877 5.59584C86.6435 5.65397 86.6868 5.72287 86.7151 5.79832C86.7434 5.87377 86.7561 5.9542 86.7522 6.03469V7.15926C86.7561 7.23976 86.7434 7.32019 86.7151 7.39564C86.6868 7.47109 86.6435 7.53999 86.5877 7.59812C86.5295 7.65393 86.4606 7.6973 86.3852 7.72559C86.3097 7.75389 86.2293 7.76651 86.1488 7.76269H84.5031C83.5157 7.76269 82.7385 8.05526 82.1717 8.64041C81.6048 9.20726 81.3214 9.98441 81.3214 10.9718V19.0358C81.323 19.1226 81.3067 19.2087 81.2737 19.2889C81.2407 19.3691 81.1916 19.4417 81.1294 19.5021C80.9995 19.6125 80.8335 19.6711 80.6631 19.6667H79.3191ZM94.4288 19.941C93.2585 19.941 92.2619 19.685 91.4391 19.173C90.6345 18.6427 90.0219 17.9113 89.6014 16.9787C89.1808 16.0461 88.9705 14.9764 88.9705 13.7696V6.03469C88.9705 5.85184 89.0254 5.70555 89.1351 5.59584C89.1956 5.53365 89.2681 5.48453 89.3483 5.45151C89.4285 5.41848 89.5146 5.40226 89.6014 5.40384H90.9728C91.0557 5.40057 91.1383 5.41615 91.2143 5.4494C91.2903 5.48266 91.3578 5.53273 91.4117 5.59584C91.4748 5.6497 91.5248 5.71719 91.5581 5.7932C91.5913 5.86922 91.6069 5.95179 91.6037 6.03469V13.6324C91.6037 16.357 92.7922 17.7193 95.1694 17.7193C96.3031 17.7193 97.2082 17.3627 97.8848 16.6496C98.5797 15.9181 98.9271 14.9124 98.9271 13.6324V6.03469C98.9271 5.85184 98.9819 5.70555 99.0917 5.59584C99.1521 5.53365 99.2247 5.48453 99.3049 5.45151C99.3851 5.41848 99.4712 5.40226 99.5579 5.40384H100.902C100.989 5.39872 101.076 5.41333 101.157 5.44657C101.238 5.47981 101.31 5.53083 101.368 5.59584C101.424 5.65397 101.467 5.72287 101.496 5.79832C101.524 5.87377 101.537 5.9542 101.533 6.03469V19.0358C101.537 19.2062 101.479 19.3722 101.368 19.5021C101.259 19.6118 101.103 19.6667 100.902 19.6667H99.6402C99.4698 19.6711 99.3038 19.6125 99.1739 19.5021C99.0636 19.3722 99.005 19.2062 99.0094 19.0358V17.829C98.5219 18.4637 97.9047 18.9873 97.1991 19.365C96.5042 19.749 95.5808 19.941 94.4288 19.941ZM110.544 19.941C109.52 19.941 108.643 19.813 107.911 19.557C107.18 19.301 106.585 18.9901 106.128 18.6244C105.671 18.2587 105.324 17.893 105.086 17.5273C104.867 17.1616 104.748 16.869 104.729 16.6496C104.711 16.4484 104.775 16.293 104.921 16.1833C105.046 16.0816 105.2 16.0238 105.36 16.0187H106.567C106.653 16.013 106.739 16.032 106.814 16.0736C106.887 16.0918 106.979 16.165 107.088 16.293C107.326 16.549 107.591 16.805 107.884 17.061C108.176 17.317 108.533 17.5273 108.953 17.6918C109.392 17.8564 109.932 17.9387 110.572 17.9387C111.504 17.9387 112.272 17.765 112.876 17.4176C113.479 17.0518 113.781 16.5216 113.781 15.8267C113.781 15.3696 113.653 15.0038 113.397 14.7296C113.159 14.4553 112.72 14.2084 112.08 13.989C111.459 13.7696 110.599 13.541 109.502 13.3033C108.405 13.0473 107.536 12.7364 106.896 12.3707C106.256 11.9867 105.799 11.5387 105.525 11.0267C105.251 10.4964 105.113 9.90212 105.113 9.24384C105.113 8.56726 105.315 7.91812 105.717 7.29641C106.119 6.65641 106.704 6.13526 107.472 5.73298C108.259 5.33069 109.237 5.12955 110.407 5.12955C111.358 5.12955 112.172 5.24841 112.848 5.48612C113.525 5.72384 114.083 6.02555 114.521 6.39126C114.96 6.73869 115.289 7.08612 115.509 7.43355C115.728 7.78098 115.847 8.07355 115.865 8.31126C115.876 8.39644 115.867 8.48295 115.838 8.56391C115.81 8.64487 115.763 8.71803 115.701 8.77755C115.58 8.88467 115.424 8.94329 115.262 8.94212H114.11C113.995 8.94538 113.881 8.91692 113.781 8.85984C113.703 8.8011 113.63 8.73694 113.561 8.66784C113.379 8.43012 113.159 8.19241 112.903 7.95469C112.665 7.71698 112.345 7.52498 111.943 7.37869C111.559 7.21412 111.047 7.13183 110.407 7.13183C109.493 7.13183 108.807 7.32384 108.35 7.70784C107.893 8.09184 107.664 8.57641 107.664 9.16155C107.664 9.50898 107.765 9.81984 107.966 10.0941C108.167 10.3684 108.551 10.6153 109.118 10.8347C109.685 11.0541 110.526 11.2918 111.641 11.5478C112.848 11.7856 113.799 12.1056 114.494 12.5078C115.189 12.9101 115.683 13.3764 115.975 13.9067C116.268 14.437 116.414 15.0496 116.414 15.7444C116.414 16.5124 116.185 17.2164 115.728 17.8564C115.289 18.4964 114.631 19.0084 113.753 19.3924C112.894 19.7581 111.824 19.941 110.544 19.941ZM125.131 19.6667C124.107 19.6667 123.275 19.4747 122.635 19.0907C121.995 18.6884 121.528 18.1307 121.236 17.4176C120.943 16.6861 120.797 15.8267 120.797 14.8393V7.59812H118.657C118.487 7.60251 118.321 7.54391 118.191 7.43355C118.081 7.30367 118.022 7.13765 118.027 6.96727V6.03469C118.027 5.85184 118.081 5.70555 118.191 5.59584C118.252 5.53371 118.324 5.48462 118.404 5.4516C118.485 5.41858 118.571 5.40233 118.657 5.40384H120.797V0.823263C120.797 0.640406 120.852 0.494122 120.961 0.384407C121.022 0.322224 121.094 0.2731 121.175 0.240076C121.255 0.207052 121.341 0.19083 121.428 0.192408H122.717C122.8 0.189138 122.882 0.20472 122.958 0.237976C123.034 0.271233 123.102 0.321299 123.156 0.384407C123.219 0.438274 123.269 0.505756 123.302 0.581772C123.335 0.657787 123.351 0.740355 123.348 0.823263V5.40384H126.749C126.832 5.40057 126.914 5.41615 126.99 5.4494C127.066 5.48266 127.134 5.53273 127.188 5.59584C127.251 5.6497 127.301 5.71719 127.334 5.7932C127.367 5.86922 127.383 5.95179 127.38 6.03469V6.96727C127.381 7.05398 127.365 7.14011 127.332 7.22031C127.299 7.30051 127.25 7.37309 127.188 7.43355C127.13 7.48935 127.061 7.53273 126.985 7.56102C126.91 7.58932 126.829 7.60194 126.749 7.59812H123.348V14.6473C123.348 15.5067 123.494 16.1833 123.787 16.677C124.079 17.1707 124.6 17.4176 125.35 17.4176H127.023C127.106 17.4143 127.189 17.4299 127.265 17.4631C127.341 17.4964 127.408 17.5464 127.462 17.6096C127.525 17.6634 127.575 17.7309 127.608 17.8069C127.642 17.8829 127.657 17.9655 127.654 18.0484V19.0358C127.656 19.1226 127.639 19.2087 127.606 19.2889C127.573 19.3691 127.524 19.4417 127.462 19.5021C127.404 19.5579 127.335 19.6013 127.259 19.6296C127.184 19.6579 127.104 19.6705 127.023 19.6667H125.131ZM135.954 19.941C134.071 19.941 132.572 19.365 131.456 18.213C130.341 17.0427 129.728 15.4518 129.618 13.4404C129.598 13.1391 129.589 12.8372 129.591 12.5353C129.591 12.1513 129.6 11.8404 129.618 11.6027C129.692 10.3044 129.993 9.17069 130.524 8.20155C131.054 7.21412 131.776 6.45526 132.691 5.92498C133.623 5.39469 134.711 5.12955 135.954 5.12955C137.344 5.12955 138.505 5.42212 139.438 6.00727C140.389 6.59241 141.111 7.42441 141.605 8.50326C142.099 9.58212 142.345 10.8438 142.345 12.2884V12.7547C142.35 12.8419 142.336 12.929 142.303 13.0098C142.269 13.0905 142.218 13.1627 142.153 13.221C142.095 13.2768 142.026 13.3202 141.951 13.3485C141.875 13.3767 141.795 13.3894 141.715 13.3856H132.224V13.6324C132.256 14.361 132.423 15.0773 132.718 15.7444C132.996 16.3662 133.431 16.905 133.98 17.3078C134.528 17.7101 135.187 17.9113 135.954 17.9113C136.613 17.9113 137.161 17.8107 137.6 17.6096C138.039 17.4084 138.396 17.189 138.67 16.9513C138.944 16.6953 139.127 16.5033 139.219 16.3753C139.383 16.1376 139.511 16.0004 139.603 15.9638C139.694 15.909 139.84 15.8816 140.041 15.8816H141.358C141.541 15.8816 141.687 15.9364 141.797 16.0461C141.925 16.1376 141.98 16.2747 141.961 16.4576C141.943 16.7318 141.797 17.0701 141.523 17.4724C141.248 17.8564 140.855 18.2404 140.343 18.6244C139.831 19.0084 139.209 19.3284 138.478 19.5844C137.747 19.8221 136.905 19.941 135.954 19.941ZM132.225 11.493H139.741V11.4107C139.741 10.5878 139.585 9.85641 139.275 9.21641C138.982 8.57641 138.552 8.07355 137.985 7.70784C137.419 7.32384 136.742 7.13183 135.956 7.13183C135.169 7.13183 134.493 7.32384 133.926 7.70784C133.371 8.08108 132.933 8.60422 132.664 9.21641C132.372 9.85641 132.225 10.5878 132.225 11.4107V11.493ZM150.838 19.941C149.832 19.941 148.964 19.7673 148.232 19.4198C147.501 19.0541 146.897 18.5696 146.422 17.9661C145.965 17.3444 145.617 16.6404 145.38 15.8541C145.156 15.0397 145.027 14.2021 144.996 13.3581C144.977 13.0656 144.968 12.7913 144.968 12.5353C144.968 12.2793 144.977 12.005 144.996 11.7124C145.032 10.853 145.16 10.0301 145.38 9.24384C145.617 8.45755 145.965 7.75355 146.422 7.13183C146.897 6.51012 147.501 6.02555 148.232 5.67812C148.964 5.31241 149.832 5.12955 150.838 5.12955C151.917 5.12955 152.813 5.32155 153.526 5.70555C154.201 6.05836 154.798 6.54342 155.281 7.13183V0.823263C155.281 0.640406 155.336 0.494122 155.446 0.384407C155.506 0.322224 155.579 0.2731 155.659 0.240076C155.739 0.207052 155.826 0.19083 155.912 0.192408H157.229C157.312 0.189138 157.394 0.20472 157.47 0.237976C157.546 0.271233 157.614 0.321299 157.668 0.384407C157.731 0.438274 157.781 0.505756 157.814 0.581772C157.847 0.657787 157.863 0.740355 157.86 0.823263V19.0358C157.861 19.1226 157.845 19.2087 157.812 19.2889C157.779 19.3691 157.73 19.4417 157.668 19.5021C157.61 19.5579 157.541 19.6013 157.465 19.6296C157.39 19.6579 157.309 19.6705 157.229 19.6667H155.995C155.793 19.6667 155.638 19.6118 155.528 19.5021C155.418 19.3722 155.359 19.2062 155.364 19.0358V17.8838C154.907 18.469 154.312 18.9627 153.581 19.365C152.849 19.749 151.935 19.941 150.838 19.941ZM151.414 17.7193C152.328 17.7193 153.06 17.509 153.608 17.0884C154.157 16.6678 154.568 16.1376 154.843 15.4976C155.117 14.8393 155.263 14.1718 155.281 13.4953C155.3 13.2027 155.309 12.8553 155.309 12.453C155.309 12.0324 155.3 11.6758 155.281 11.3833C155.259 10.7269 155.1 10.0823 154.815 9.49069C154.541 8.86898 154.12 8.35698 153.553 7.95469C153.005 7.55241 152.292 7.35126 151.414 7.35126C150.481 7.35126 149.741 7.56155 149.192 7.98212C148.642 8.38704 148.23 8.95227 148.013 9.60041C147.769 10.2889 147.631 11.0101 147.601 11.7398C147.583 12.27 147.583 12.8006 147.601 13.3307C147.632 14.0692 147.771 14.7991 148.013 15.4976C148.239 16.1406 148.649 16.7032 149.192 17.1158C149.741 17.5181 150.481 17.7193 151.414 17.7193ZM167.007 19.6667C166.935 19.6671 166.864 19.6527 166.797 19.6244C166.731 19.5961 166.671 19.5545 166.622 19.5021C166.57 19.4528 166.528 19.3932 166.5 19.3272C166.472 19.2611 166.457 19.19 166.457 19.1181C166.457 19.0267 166.467 18.9261 166.485 18.8164L173.287 1.07012C173.361 0.887262 173.462 0.740978 173.59 0.631264C173.718 0.521549 173.91 0.466692 174.165 0.466692H176.031C176.268 0.466692 176.451 0.521549 176.58 0.631264C176.728 0.744118 176.841 0.896122 176.908 1.07012L183.684 18.8164C183.718 18.9134 183.737 19.0153 183.739 19.1181C183.739 19.1901 183.724 19.2613 183.695 19.3273C183.667 19.3934 183.625 19.4529 183.573 19.5021C183.523 19.5543 183.464 19.5959 183.398 19.6242C183.332 19.6525 183.261 19.667 183.189 19.6667H181.79C181.571 19.6667 181.406 19.6118 181.297 19.5021C181.218 19.412 181.153 19.3103 181.105 19.2004L179.597 15.3056H170.6L169.092 19.2004C169.058 19.3174 168.991 19.4222 168.899 19.5021C168.79 19.6118 168.624 19.6667 168.406 19.6667H167.007ZM171.396 12.9467H178.801L175.099 3.20955L171.396 12.9467ZM187.302 19.6667C187.101 19.6667 186.945 19.6118 186.836 19.5021C186.725 19.3722 186.667 19.2062 186.671 19.0358V1.09755C186.671 0.914694 186.726 0.768408 186.836 0.658693C186.894 0.593689 186.966 0.542665 187.047 0.509424C187.128 0.476183 187.215 0.461575 187.302 0.466692H188.756C188.839 0.463423 188.921 0.479004 188.997 0.51226C189.073 0.545517 189.141 0.595585 189.195 0.658693C189.258 0.712561 189.308 0.780041 189.341 0.856056C189.374 0.932072 189.39 1.01464 189.387 1.09755V19.0358C189.388 19.1226 189.372 19.2087 189.339 19.2889C189.306 19.3691 189.257 19.4417 189.195 19.5021C189.136 19.5579 189.067 19.6013 188.992 19.6296C188.917 19.6579 188.836 19.6705 188.756 19.6667H187.302ZM205.025 19.6667C204.855 19.6711 204.689 19.6125 204.559 19.5021C204.449 19.3722 204.39 19.2062 204.395 19.0358V2.90784H199.128C198.958 2.91222 198.792 2.85363 198.662 2.74327C198.552 2.61338 198.493 2.44736 198.497 2.27698V1.12498C198.497 0.923834 198.552 0.768408 198.662 0.658693C198.722 0.59651 198.795 0.547388 198.875 0.514364C198.955 0.48134 199.042 0.465115 199.128 0.466692H212.349C212.436 0.461575 212.523 0.476183 212.604 0.509424C212.685 0.542665 212.757 0.593689 212.815 0.658693C212.88 0.716978 212.931 0.789173 212.964 0.869904C212.998 0.950634 213.012 1.03782 213.007 1.12498V2.27698C213.009 2.3637 212.992 2.44982 212.959 2.53002C212.926 2.61022 212.877 2.6828 212.815 2.74327C212.705 2.85298 212.55 2.90784 212.349 2.90784H207.11V19.0358C207.112 19.1226 207.095 19.2087 207.062 19.2889C207.029 19.3691 206.98 19.4417 206.918 19.5021C206.808 19.6118 206.653 19.6667 206.452 19.6667H205.025ZM218.942 19.941C217.552 19.941 216.391 19.6758 215.459 19.1456C214.547 18.6373 213.804 17.8749 213.319 16.9513C212.825 16.0004 212.551 14.9216 212.496 13.7147C212.476 13.3219 212.467 12.9286 212.469 12.5353C212.469 12.0416 212.478 11.6484 212.496 11.3558C212.551 10.1307 212.825 9.05184 213.319 8.11926C213.82 7.19804 214.571 6.43731 215.486 5.92498C216.419 5.39469 217.571 5.12955 218.942 5.12955C220.313 5.12955 221.465 5.39469 222.398 5.92498C223.309 6.43318 224.052 7.19564 224.537 8.11926C225.049 9.05184 225.333 10.1307 225.388 11.3558C225.406 11.6484 225.415 12.0416 225.415 12.5353C225.415 13.0107 225.406 13.4038 225.388 13.7147C225.333 14.9216 225.059 16.0004 224.565 16.9513C224.08 17.8749 223.336 18.6373 222.425 19.1456C221.493 19.6758 220.332 19.941 218.942 19.941ZM218.942 17.829C220.076 17.829 220.981 17.4724 221.657 16.7593C222.334 16.0278 222.7 14.9673 222.755 13.5776C222.773 13.3033 222.782 12.9558 222.782 12.5353C222.782 12.1147 222.773 11.7673 222.755 11.493C222.7 10.1033 222.334 9.05184 221.657 8.33869C220.981 7.60726 220.076 7.24155 218.942 7.24155C217.808 7.24155 216.894 7.60726 216.199 8.33869C215.523 9.05184 215.166 10.1033 215.129 11.493C215.109 11.84 215.1 12.1876 215.102 12.5353C215.102 12.9558 215.111 13.3033 215.129 13.5776C215.166 14.9673 215.523 16.0278 216.199 16.7593C216.894 17.4724 217.808 17.829 218.942 17.829ZM234.692 19.941C233.302 19.941 232.141 19.6758 231.208 19.1456C230.297 18.6373 229.554 17.8749 229.069 16.9513C228.575 16.0004 228.301 14.9216 228.246 13.7147C228.226 13.3219 228.216 12.9286 228.219 12.5353C228.219 12.0416 228.228 11.6484 228.246 11.3558C228.301 10.1307 228.575 9.05184 229.069 8.11926C229.57 7.19804 230.321 6.43731 231.236 5.92498C232.168 5.39469 233.32 5.12955 234.692 5.12955C236.063 5.12955 237.215 5.39469 238.148 5.92498C239.059 6.43318 239.802 7.19564 240.287 8.11926C240.799 9.05184 241.083 10.1307 241.137 11.3558C241.156 11.6484 241.165 12.0416 241.165 12.5353C241.165 13.0107 241.156 13.4038 241.137 13.7147C241.083 14.9216 240.808 16.0004 240.315 16.9513C239.83 17.8749 239.086 18.6373 238.175 19.1456C237.243 19.6758 236.081 19.941 234.692 19.941ZM234.692 17.829C235.825 17.829 236.731 17.4724 237.407 16.7593C238.084 16.0278 238.449 14.9673 238.504 13.5776C238.523 13.3033 238.532 12.9558 238.532 12.5353C238.532 12.1147 238.523 11.7673 238.504 11.493C238.449 10.1033 238.084 9.05184 237.407 8.33869C236.731 7.60726 235.825 7.24155 234.692 7.24155C233.558 7.24155 232.644 7.60726 231.949 8.33869C231.272 9.05184 230.916 10.1033 230.879 11.493C230.859 11.84 230.85 12.1876 230.852 12.5353C230.852 12.9558 230.861 13.3033 230.879 13.5776C230.916 14.9673 231.272 16.0278 231.949 16.7593C232.644 17.4724 233.558 17.829 234.692 17.829ZM245.259 19.6667C245.088 19.6711 244.922 19.6125 244.792 19.5021C244.682 19.3722 244.623 19.2062 244.628 19.0358V0.823263C244.628 0.640406 244.683 0.494122 244.792 0.384407C244.853 0.322224 244.925 0.2731 245.005 0.240076C245.086 0.207052 245.172 0.19083 245.259 0.192408H246.548C246.635 0.18729 246.722 0.201899 246.803 0.23514C246.883 0.268381 246.956 0.319403 247.014 0.384407C247.07 0.442541 247.113 0.511438 247.141 0.586891C247.17 0.662344 247.182 0.742769 247.179 0.823263V19.0358C247.183 19.2062 247.124 19.3722 247.014 19.5021C246.904 19.6118 246.749 19.6667 246.548 19.6667H245.259ZM256.207 19.941C255.183 19.941 254.305 19.813 253.574 19.557C252.843 19.301 252.248 18.9901 251.791 18.6244C251.334 18.2587 250.987 17.893 250.749 17.5273C250.529 17.1616 250.411 16.869 250.392 16.6496C250.374 16.4484 250.438 16.293 250.584 16.1833C250.708 16.0816 250.863 16.0238 251.023 16.0187H252.23C252.316 16.013 252.401 16.032 252.477 16.0736C252.55 16.0918 252.641 16.165 252.751 16.293C252.989 16.549 253.254 16.805 253.547 17.061C253.839 17.317 254.196 17.5273 254.616 17.6918C255.055 17.8564 255.595 17.9387 256.235 17.9387C257.167 17.9387 257.935 17.765 258.539 17.4176C259.142 17.0518 259.444 16.5216 259.444 15.8267C259.444 15.3696 259.316 15.0038 259.06 14.7296C258.822 14.4553 258.383 14.2084 257.743 13.989C257.121 13.7696 256.262 13.541 255.165 13.3033C254.068 13.0473 253.199 12.7364 252.559 12.3707C251.919 11.9867 251.462 11.5387 251.188 11.0267C250.913 10.4964 250.776 9.90212 250.776 9.24384C250.776 8.56726 250.977 7.91812 251.38 7.29641C251.782 6.65641 252.367 6.13526 253.135 5.73298C253.921 5.33069 254.9 5.12955 256.07 5.12955C257.021 5.12955 257.835 5.24841 258.511 5.48612C259.188 5.72384 259.745 6.02555 260.184 6.39126C260.623 6.73869 260.952 7.08612 261.172 7.43355C261.391 7.78098 261.51 8.07355 261.528 8.31126C261.539 8.39644 261.53 8.48295 261.501 8.56391C261.473 8.64487 261.426 8.71803 261.364 8.77755C261.243 8.88467 261.086 8.94329 260.925 8.94212H259.773C259.658 8.94538 259.544 8.91692 259.444 8.85984C259.366 8.8011 259.293 8.73694 259.224 8.66784C259.041 8.43012 258.822 8.19241 258.566 7.95469C258.328 7.71698 258.008 7.52498 257.606 7.37869C257.222 7.21412 256.71 7.13183 256.07 7.13183C255.156 7.13183 254.47 7.32384 254.013 7.70784C253.556 8.09184 253.327 8.57641 253.327 9.16155C253.327 9.50898 253.428 9.81984 253.629 10.0941C253.83 10.3684 254.214 10.6153 254.781 10.8347C255.348 11.0541 256.189 11.2918 257.304 11.5478C258.511 11.7856 259.462 12.1056 260.157 12.5078C260.852 12.9101 261.345 13.3764 261.638 13.9067C261.931 14.437 262.077 15.0496 262.077 15.7444C262.077 16.5124 261.848 17.2164 261.391 17.8564C260.952 18.4964 260.294 19.0084 259.416 19.3924C258.557 19.7581 257.487 19.941 256.207 19.941ZM284.02 19.941C282.849 19.941 281.853 19.685 281.03 19.173C280.225 18.6427 279.613 17.9113 279.192 16.9787C278.772 16.0461 278.561 14.9764 278.561 13.7696V6.03469C278.561 5.85184 278.616 5.70555 278.726 5.59584C278.786 5.53365 278.859 5.48453 278.939 5.45151C279.019 5.41848 279.106 5.40226 279.192 5.40384H280.564C280.647 5.40057 280.729 5.41615 280.805 5.4494C280.881 5.48266 280.949 5.53273 281.003 5.59584C281.066 5.6497 281.116 5.71719 281.149 5.7932C281.182 5.86922 281.198 5.95179 281.195 6.03469V13.6324C281.195 16.357 282.383 17.7193 284.76 17.7193C285.894 17.7193 286.799 17.3627 287.476 16.6496C288.171 15.9181 288.518 14.9124 288.518 13.6324V6.03469C288.518 5.85184 288.573 5.70555 288.683 5.59584C288.743 5.53371 288.816 5.48462 288.896 5.4516C288.976 5.41858 289.062 5.40233 289.149 5.40384H290.493C290.58 5.39872 290.667 5.41333 290.748 5.44657C290.829 5.47981 290.901 5.53083 290.959 5.59584C291.015 5.65397 291.058 5.72287 291.087 5.79832C291.115 5.87377 291.128 5.9542 291.124 6.03469V19.0358C291.128 19.2062 291.069 19.3722 290.959 19.5021C290.849 19.6118 290.694 19.6667 290.493 19.6667H289.231C289.061 19.6711 288.895 19.6125 288.765 19.5021C288.654 19.3722 288.596 19.2062 288.6 19.0358V17.829C288.113 18.4637 287.496 18.9874 286.79 19.365C286.095 19.749 285.172 19.941 284.02 19.941ZM300.135 19.941C299.111 19.941 298.233 19.813 297.502 19.557C296.771 19.301 296.176 18.9901 295.719 18.6244C295.262 18.2587 294.915 17.893 294.677 17.5273C294.457 17.1616 294.339 16.869 294.32 16.6496C294.302 16.4484 294.366 16.293 294.512 16.1833C294.636 16.0816 294.791 16.0238 294.951 16.0187H296.158C296.244 16.013 296.329 16.032 296.405 16.0736C296.478 16.0918 296.569 16.165 296.679 16.293C296.917 16.549 297.182 16.805 297.475 17.061C297.767 17.317 298.124 17.5273 298.544 17.6918C298.983 17.8564 299.523 17.9387 300.163 17.9387C301.095 17.9387 301.863 17.765 302.466 17.4176C303.07 17.0518 303.372 16.5216 303.372 15.8267C303.372 15.3696 303.244 15.0038 302.988 14.7296C302.75 14.4553 302.311 14.2084 301.671 13.989C301.049 13.7696 300.19 13.541 299.093 13.3033C297.996 13.0473 297.127 12.7364 296.487 12.3707C295.847 11.9867 295.39 11.5387 295.116 11.0267C294.841 10.4964 294.704 9.90212 294.704 9.24384C294.704 8.56726 294.905 7.91812 295.308 7.29641C295.71 6.65641 296.295 6.13526 297.063 5.73298C297.849 5.33069 298.828 5.12955 299.998 5.12955C300.949 5.12955 301.763 5.24841 302.439 5.48612C303.116 5.72384 303.673 6.02555 304.112 6.39126C304.551 6.73869 304.88 7.08612 305.1 7.43355C305.319 7.78098 305.438 8.07355 305.456 8.31126C305.467 8.39644 305.458 8.48295 305.429 8.56391C305.401 8.64487 305.354 8.71803 305.292 8.77755C305.171 8.88467 305.014 8.94329 304.853 8.94212H303.701C303.586 8.94538 303.472 8.91692 303.372 8.85984C303.294 8.8011 303.221 8.73694 303.152 8.66784C302.969 8.43012 302.75 8.19241 302.494 7.95469C302.256 7.71698 301.936 7.52498 301.534 7.37869C301.15 7.21412 300.638 7.13183 299.998 7.13183C299.084 7.13183 298.398 7.32384 297.941 7.70784C297.484 8.09184 297.255 8.57641 297.255 9.16155C297.255 9.50898 297.356 9.81984 297.557 10.0941C297.758 10.3684 298.142 10.6153 298.709 10.8347C299.276 11.0541 300.117 11.2918 301.232 11.5478C302.439 11.7856 303.39 12.1056 304.085 12.5078C304.78 12.9101 305.273 13.3764 305.566 13.9067C305.859 14.437 306.005 15.0496 306.005 15.7444C306.005 16.5124 305.776 17.2164 305.319 17.8564C304.88 18.4964 304.222 19.0084 303.344 19.3924C302.485 19.7581 301.415 19.941 300.135 19.941ZM314.857 19.941C312.974 19.941 311.475 19.365 310.359 18.213C309.244 17.0427 308.631 15.4518 308.521 13.4404C308.503 13.2027 308.494 12.901 308.494 12.5353C308.494 12.1513 308.503 11.8404 308.521 11.6027C308.595 10.3044 308.896 9.17069 309.426 8.20155C309.957 7.21412 310.679 6.45526 311.593 5.92498C312.526 5.39469 313.614 5.12955 314.857 5.12955C316.247 5.12955 317.408 5.42212 318.341 6.00727C319.292 6.59241 320.014 7.42441 320.508 8.50326C321.001 9.58212 321.248 10.8438 321.248 12.2884V12.7547C321.253 12.8419 321.239 12.929 321.205 13.0098C321.172 13.0905 321.121 13.1627 321.056 13.221C320.998 13.2768 320.929 13.3202 320.854 13.3485C320.778 13.3767 320.698 13.3894 320.617 13.3856H311.127V13.6324C311.159 14.361 311.326 15.0773 311.621 15.7444C311.899 16.3662 312.333 16.905 312.883 17.3078C313.431 17.7101 314.089 17.9113 314.857 17.9113C315.516 17.9113 316.064 17.8107 316.503 17.6096C316.942 17.4084 317.299 17.189 317.573 16.9513C317.847 16.6953 318.03 16.5033 318.121 16.3753C318.286 16.1376 318.414 16.0004 318.505 15.9638C318.597 15.909 318.743 15.8816 318.944 15.8816H320.261C320.444 15.8816 320.59 15.9364 320.7 16.0461C320.828 16.1376 320.883 16.2747 320.864 16.4576C320.846 16.7318 320.7 17.0701 320.425 17.4724C320.151 17.8564 319.758 18.2404 319.246 18.6244C318.734 19.0084 318.112 19.3284 317.381 19.5844C316.649 19.8221 315.808 19.941 314.857 19.941ZM311.126 11.493H318.641V11.4107C318.641 10.5878 318.486 9.85641 318.175 9.21641C317.883 8.57641 317.453 8.07355 316.886 7.70784C316.319 7.32384 315.643 7.13183 314.856 7.13183C314.07 7.13183 313.393 7.32384 312.827 7.70784C312.272 8.08108 311.834 8.60422 311.565 9.21641C311.272 9.85641 311.126 10.5878 311.126 11.4107V11.493ZM329.738 19.941C328.733 19.941 327.864 19.7673 327.133 19.4198C326.401 19.0541 325.798 18.5696 325.322 17.9661C324.865 17.3444 324.518 16.6404 324.28 15.8541C324.056 15.0397 323.928 14.2021 323.896 13.3581C323.878 13.0656 323.869 12.7913 323.869 12.5353C323.869 12.2793 323.878 12.005 323.896 11.7124C323.933 10.853 324.061 10.0301 324.28 9.24384C324.518 8.45755 324.865 7.75355 325.322 7.13183C325.798 6.51012 326.401 6.02555 327.133 5.67812C327.864 5.31241 328.733 5.12955 329.738 5.12955C330.817 5.12955 331.713 5.32155 332.426 5.70555C333.101 6.05836 333.698 6.54342 334.182 7.13183V0.823263C334.182 0.640406 334.237 0.494122 334.347 0.384407C334.407 0.322224 334.48 0.2731 334.56 0.240076C334.64 0.207052 334.726 0.19083 334.813 0.192408H336.129C336.212 0.189138 336.295 0.20472 336.371 0.237976C336.447 0.271233 336.514 0.321299 336.568 0.384407C336.631 0.438274 336.681 0.505756 336.715 0.581772C336.748 0.657787 336.763 0.740355 336.76 0.823263V19.0358C336.762 19.1226 336.746 19.2087 336.713 19.2889C336.68 19.3691 336.63 19.4417 336.568 19.5021C336.51 19.5579 336.441 19.6013 336.366 19.6296C336.29 19.6579 336.21 19.6705 336.129 19.6667H334.895C334.694 19.6667 334.539 19.6118 334.429 19.5021C334.318 19.3722 334.26 19.2062 334.264 19.0358V17.8838C333.807 18.469 333.213 18.9627 332.481 19.365C331.75 19.749 330.836 19.941 329.738 19.941ZM330.315 17.7193C331.229 17.7193 331.96 17.509 332.509 17.0884C333.057 16.6678 333.469 16.1376 333.743 15.4976C334.017 14.8393 334.164 14.1718 334.182 13.4953C334.2 13.2027 334.209 12.8553 334.209 12.453C334.209 12.0324 334.2 11.6758 334.182 11.3833C334.16 10.7269 334.001 10.0823 333.716 9.49069C333.441 8.86898 333.021 8.35698 332.454 7.95469C331.905 7.55241 331.192 7.35126 330.315 7.35126C329.382 7.35126 328.641 7.56155 328.093 7.98212C327.542 8.38704 327.13 8.95227 326.913 9.60041C326.67 10.2889 326.531 11.0101 326.502 11.7398C326.484 12.27 326.484 12.8006 326.502 13.3307C326.533 14.0692 326.671 14.7991 326.913 15.4976C327.14 16.1406 327.55 16.7032 328.093 17.1158C328.641 17.5181 329.382 17.7193 330.315 17.7193ZM357.451 19.6667C357.241 19.6764 357.036 19.608 356.875 19.4747C356.733 19.3212 356.638 19.1311 356.6 18.9261L353.062 1.31698C353.045 1.25431 353.036 1.18985 353.035 1.12498V1.01526C353.035 0.868979 353.089 0.740978 353.199 0.631264C353.248 0.579046 353.308 0.5375 353.374 0.509195C353.44 0.48089 353.511 0.466423 353.583 0.466692H355.009C355.393 0.466692 355.613 0.62212 355.668 0.932978L358.465 15.0861L361.428 5.37641C361.483 5.21059 361.577 5.06023 361.702 4.93755C361.848 4.79126 362.049 4.71812 362.305 4.71812H363.32C363.595 4.71812 363.796 4.79126 363.924 4.93755C364.047 5.05679 364.133 5.20927 364.171 5.37641L367.16 15.0861L369.931 0.932978C369.985 0.62212 370.214 0.466692 370.616 0.466692H372.043C372.114 0.466423 372.186 0.48089 372.252 0.509195C372.318 0.5375 372.377 0.579046 372.427 0.631264C372.479 0.680626 372.52 0.74017 372.549 0.806215C372.577 0.872261 372.591 0.943409 372.591 1.01526C372.587 1.05285 372.577 1.08971 372.564 1.12498V1.31698L369.025 18.9261C368.986 19.1365 368.88 19.3287 368.724 19.4747C368.596 19.6027 368.413 19.6667 368.175 19.6667H367.105C366.849 19.6667 366.648 19.6027 366.502 19.4747C366.354 19.3441 366.249 19.1721 366.2 18.981L362.799 8.53069L359.425 18.981C359.36 19.171 359.246 19.341 359.096 19.4747C358.968 19.6027 358.776 19.6667 358.52 19.6667H357.451ZM381.075 19.941C379.685 19.941 378.524 19.6758 377.591 19.1456C376.68 18.6373 375.937 17.8749 375.452 16.9513C374.958 16.0004 374.684 14.9216 374.629 13.7147C374.611 13.4038 374.601 13.0107 374.601 12.5353C374.601 12.0416 374.611 11.6484 374.629 11.3558C374.684 10.1307 374.958 9.05184 375.452 8.11926C375.952 7.19804 376.704 6.43731 377.618 5.92498C378.551 5.39469 379.703 5.12955 381.075 5.12955C382.446 5.12955 383.598 5.39469 384.531 5.92498C385.442 6.43318 386.185 7.19564 386.67 8.11926C387.182 9.05184 387.465 10.1307 387.52 11.3558C387.538 11.6484 387.548 12.0416 387.548 12.5353C387.548 13.0107 387.538 13.4038 387.52 13.7147C387.465 14.9216 387.191 16.0004 386.697 16.9513C386.212 17.8749 385.469 18.6373 384.558 19.1456C383.625 19.6758 382.464 19.941 381.075 19.941ZM381.075 17.829C382.208 17.829 383.113 17.4724 383.79 16.7593C384.467 16.0278 384.832 14.9673 384.887 13.5776C384.905 13.3033 384.914 12.9558 384.914 12.5353C384.914 12.1147 384.905 11.7673 384.887 11.493C384.832 10.1033 384.467 9.05184 383.79 8.33869C383.113 7.60726 382.208 7.24155 381.075 7.24155C379.941 7.24155 379.027 7.60726 378.332 8.33869C377.655 9.05184 377.299 10.1033 377.262 11.493C377.244 11.7673 377.234 12.1147 377.234 12.5353C377.234 12.9558 377.244 13.3033 377.262 13.5776C377.299 14.9673 377.655 16.0278 378.332 16.7593C379.027 17.4724 379.941 17.829 381.075 17.829ZM391.614 19.6667C391.444 19.6711 391.278 19.6125 391.148 19.5021C391.037 19.3722 390.979 19.2062 390.983 19.0358V6.06212C390.983 5.87926 391.038 5.72384 391.148 5.59584C391.208 5.53365 391.281 5.48453 391.361 5.45151C391.441 5.41848 391.527 5.40226 391.614 5.40384H392.876C393.059 5.40384 393.214 5.46784 393.342 5.59584C393.404 5.6563 393.453 5.72888 393.486 5.80908C393.519 5.88928 393.536 5.9754 393.534 6.06212V7.26898C393.9 6.64726 394.403 6.18098 395.043 5.87012C395.683 5.55926 396.451 5.40384 397.347 5.40384H398.444C398.527 5.40057 398.609 5.41615 398.685 5.4494C398.761 5.48266 398.829 5.53273 398.883 5.59584C398.938 5.65397 398.982 5.72287 399.01 5.79832C399.038 5.87377 399.051 5.9542 399.047 6.03469V7.15926C399.051 7.23976 399.038 7.32019 399.01 7.39564C398.982 7.47109 398.938 7.53999 398.883 7.59812C398.824 7.65393 398.755 7.6973 398.68 7.72559C398.605 7.75389 398.524 7.76651 398.444 7.76269H396.798C395.811 7.76269 395.033 8.05526 394.466 8.64041C393.9 9.20726 393.616 9.98441 393.616 10.9718V19.0358C393.618 19.1226 393.602 19.2087 393.569 19.2889C393.536 19.3691 393.486 19.4417 393.424 19.5021C393.294 19.6125 393.128 19.6711 392.958 19.6667H391.614ZM402.061 19.6667C401.89 19.6711 401.724 19.6125 401.595 19.5021C401.484 19.3722 401.426 19.2062 401.43 19.0358V0.823263C401.43 0.640406 401.485 0.494122 401.595 0.384407C401.655 0.322224 401.728 0.2731 401.808 0.240076C401.888 0.207052 401.974 0.19083 402.061 0.192408H403.35C403.437 0.18729 403.524 0.201899 403.605 0.23514C403.686 0.268381 403.758 0.319403 403.816 0.384407C403.872 0.442541 403.915 0.511438 403.944 0.586891C403.972 0.662344 403.985 0.742769 403.981 0.823263V19.0358C403.985 19.2062 403.927 19.3722 403.816 19.5021C403.707 19.6118 403.551 19.6667 403.35 19.6667H402.061ZM413.284 19.941C412.278 19.941 411.409 19.7673 410.678 19.4198C409.947 19.0541 409.343 18.5696 408.868 17.9661C408.411 17.3444 408.063 16.6404 407.825 15.8541C407.602 15.0397 407.473 14.2021 407.441 13.3581C407.423 13.0656 407.414 12.7913 407.414 12.5353C407.414 12.2793 407.423 12.005 407.441 11.7124C407.478 10.853 407.606 10.0301 407.825 9.24384C408.063 8.45755 408.411 7.75355 408.868 7.13183C409.343 6.51012 409.947 6.02555 410.678 5.67812C411.409 5.31241 412.278 5.12955 413.284 5.12955C414.362 5.12955 415.259 5.32155 415.972 5.70555C416.647 6.05836 417.244 6.54342 417.727 7.13183V0.823263C417.727 0.640406 417.782 0.494122 417.892 0.384407C417.952 0.322224 418.025 0.2731 418.105 0.240076C418.185 0.207052 418.271 0.19083 418.358 0.192408H419.674C419.757 0.189138 419.84 0.20472 419.916 0.237976C419.992 0.271233 420.06 0.321299 420.113 0.384407C420.176 0.438274 420.227 0.505756 420.26 0.581772C420.293 0.657787 420.309 0.740355 420.305 0.823263V19.0358C420.307 19.1226 420.291 19.2087 420.258 19.2889C420.225 19.3691 420.176 19.4417 420.113 19.5021C420.055 19.5579 419.986 19.6013 419.911 19.6296C419.835 19.6579 419.755 19.6705 419.674 19.6667H418.44C418.239 19.6667 418.084 19.6118 417.974 19.5021C417.864 19.3722 417.805 19.2062 417.809 19.0358V17.8838C417.352 18.469 416.758 18.9627 416.026 19.365C415.295 19.749 414.381 19.941 413.284 19.941ZM413.86 17.7193C414.774 17.7193 415.505 17.509 416.054 17.0884C416.603 16.6678 417.014 16.1376 417.288 15.4976C417.562 14.8393 417.709 14.1718 417.727 13.4953C417.745 13.2027 417.755 12.8553 417.755 12.453C417.755 12.0324 417.745 11.6758 417.727 11.3833C417.705 10.7269 417.546 10.0823 417.261 9.49069C416.987 8.86898 416.566 8.35698 415.999 7.95469C415.451 7.55241 414.737 7.35126 413.86 7.35126C412.927 7.35126 412.187 7.56155 411.638 7.98212C411.087 8.38704 410.675 8.95227 410.459 9.60041C410.215 10.2889 410.076 11.0101 410.047 11.7398C410.029 12.27 410.029 12.8006 410.047 13.3307C410.078 14.0692 410.217 14.7991 410.459 15.4976C410.685 16.1406 411.095 16.7032 411.638 17.1158C412.187 17.5181 412.927 17.7193 413.86 17.7193ZM434.272 19.6667C434.063 19.6764 433.858 19.608 433.696 19.4747C433.555 19.3212 433.46 19.1311 433.422 18.9261L429.884 1.31698C429.867 1.25431 429.858 1.18985 429.856 1.12498V1.01526C429.856 0.868979 429.911 0.740978 430.021 0.631264C430.07 0.579046 430.13 0.5375 430.196 0.509195C430.262 0.48089 430.333 0.466423 430.405 0.466692H431.831C432.215 0.466692 432.435 0.62212 432.489 0.932978L435.287 15.0861L438.249 5.37641C438.305 5.21059 438.399 5.06023 438.524 4.93755C438.67 4.79126 438.871 4.71812 439.127 4.71812H440.142C440.416 4.71812 440.617 4.79126 440.745 4.93755C440.868 5.05679 440.954 5.20927 440.992 5.37641L443.982 15.0861L446.752 0.932978C446.807 0.62212 447.036 0.466692 447.438 0.466692H448.864C448.936 0.466423 449.007 0.48089 449.073 0.509195C449.139 0.5375 449.199 0.579046 449.248 0.631264C449.3 0.680626 449.342 0.74017 449.37 0.806215C449.399 0.872261 449.413 0.943409 449.413 1.01526C449.408 1.05285 449.399 1.08971 449.385 1.12498V1.31698L445.847 18.9261C445.808 19.1365 445.702 19.3287 445.545 19.4747C445.417 19.6027 445.235 19.6667 444.997 19.6667H443.927C443.671 19.6667 443.47 19.6027 443.324 19.4747C443.176 19.3441 443.071 19.1721 443.022 18.981L439.621 8.53069L436.247 18.981C436.181 19.171 436.068 19.341 435.918 19.4747C435.79 19.6027 435.598 19.6667 435.342 19.6667H434.272ZM453.275 19.6667C453.104 19.6711 452.938 19.6125 452.808 19.5021C452.698 19.3722 452.639 19.2062 452.644 19.0358V6.03469C452.644 5.85184 452.699 5.70555 452.808 5.59584C452.869 5.53365 452.941 5.48453 453.021 5.45151C453.102 5.41848 453.188 5.40226 453.275 5.40384H454.591C454.674 5.40057 454.757 5.41615 454.833 5.4494C454.909 5.48266 454.976 5.53273 455.03 5.59584C455.086 5.65401 455.129 5.72291 455.157 5.79835C455.186 5.8738 455.198 5.95421 455.194 6.03469V19.0358C455.199 19.2062 455.14 19.3722 455.03 19.5021C454.972 19.5579 454.903 19.6013 454.827 19.6296C454.752 19.6579 454.672 19.6705 454.591 19.6667H453.275ZM453.055 2.74327C452.885 2.74765 452.719 2.68906 452.589 2.57869C452.478 2.44881 452.42 2.28279 452.424 2.11241V0.631264C452.424 0.448406 452.479 0.302122 452.589 0.192408C452.649 0.130224 452.722 0.0811005 452.802 0.0480766C452.882 0.0150528 452.968 -0.00117111 453.055 0.000406265H454.783C454.866 -0.00286293 454.949 0.0127201 455.025 0.0459766C455.101 0.0792332 455.168 0.129299 455.222 0.192408C455.285 0.246275 455.335 0.313757 455.368 0.389772C455.402 0.465788 455.417 0.548355 455.414 0.631264V2.11241C455.416 2.19913 455.399 2.28525 455.366 2.36545C455.333 2.44565 455.284 2.51823 455.222 2.57869C455.164 2.6345 455.095 2.67787 455.019 2.70617C454.944 2.73446 454.864 2.74708 454.783 2.74327H453.055ZM464.497 19.941C463.492 19.941 462.623 19.7673 461.892 19.4198C461.16 19.0541 460.557 18.5696 460.081 17.9661C459.624 17.3444 459.277 16.6404 459.039 15.8541C458.815 15.0397 458.686 14.2021 458.655 13.3581C458.637 13.0656 458.628 12.7913 458.628 12.5353C458.628 12.2793 458.637 12.005 458.655 11.7124C458.692 10.853 458.82 10.0301 459.039 9.24384C459.277 8.45755 459.624 7.75355 460.081 7.13183C460.557 6.51012 461.16 6.02555 461.892 5.67812C462.623 5.31241 463.492 5.12955 464.497 5.12955C465.576 5.12955 466.472 5.32155 467.185 5.70555C467.86 6.05836 468.457 6.54342 468.941 7.13183V0.823263C468.941 0.640406 468.996 0.494122 469.105 0.384407C469.166 0.322224 469.238 0.2731 469.319 0.240076C469.399 0.207052 469.485 0.19083 469.572 0.192408H470.888C470.971 0.189138 471.054 0.20472 471.13 0.237976C471.206 0.271233 471.273 0.321299 471.327 0.384407C471.39 0.438274 471.44 0.505756 471.474 0.581772C471.507 0.657787 471.522 0.740355 471.519 0.823263V19.0358C471.521 19.1226 471.504 19.2087 471.471 19.2889C471.438 19.3691 471.389 19.4417 471.327 19.5021C471.269 19.5579 471.2 19.6013 471.125 19.6296C471.049 19.6579 470.969 19.6705 470.888 19.6667H469.654C469.453 19.6667 469.297 19.6118 469.188 19.5021C469.077 19.3722 469.019 19.2062 469.023 19.0358V17.8838C468.566 18.469 467.972 18.9627 467.24 19.365C466.509 19.749 465.595 19.941 464.497 19.941ZM465.073 17.7193C465.988 17.7193 466.719 17.509 467.268 17.0884C467.816 16.6678 468.228 16.1376 468.502 15.4976C468.776 14.8393 468.923 14.1718 468.941 13.4953C468.959 13.2027 468.968 12.8553 468.968 12.453C468.968 12.0324 468.959 11.6758 468.941 11.3833C468.919 10.7269 468.76 10.0823 468.475 9.49069C468.2 8.86898 467.78 8.35698 467.213 7.95469C466.664 7.55241 465.951 7.35126 465.073 7.35126C464.141 7.35126 463.4 7.56155 462.852 7.98212C462.301 8.38704 461.889 8.95227 461.672 9.60041C461.429 10.2889 461.29 11.0101 461.261 11.7398C461.243 12.27 461.243 12.8006 461.261 13.3307C461.292 14.0692 461.43 14.7991 461.672 15.4976C461.899 16.1406 462.309 16.7032 462.852 17.1158C463.4 17.5181 464.141 17.7193 465.073 17.7193ZM481.277 19.941C479.393 19.941 477.894 19.365 476.779 18.213C475.663 17.0427 475.051 15.4518 474.941 13.4404C474.923 13.2027 474.913 12.901 474.913 12.5353C474.913 12.1513 474.923 11.8404 474.941 11.6027C475.014 10.3044 475.316 9.17069 475.846 8.20155C476.376 7.21412 477.099 6.45526 478.013 5.92498C478.945 5.39469 480.033 5.12955 481.277 5.12955C482.667 5.12955 483.828 5.42212 484.76 6.00727C485.711 6.59241 486.433 7.42441 486.927 8.50326C487.421 9.58212 487.668 10.8438 487.668 12.2884V12.7547C487.673 12.8419 487.658 12.929 487.625 13.0098C487.592 13.0905 487.541 13.1627 487.476 13.221C487.418 13.2768 487.349 13.3202 487.273 13.3485C487.198 13.3767 487.117 13.3894 487.037 13.3856H477.547V13.6324C477.578 14.361 477.746 15.0773 478.04 15.7444C478.318 16.3662 478.753 16.905 479.302 17.3078C479.851 17.7101 480.509 17.9113 481.277 17.9113C481.935 17.9113 482.484 17.8107 482.923 17.6096C483.361 17.4084 483.718 17.189 483.992 16.9513C484.267 16.6953 484.449 16.5033 484.541 16.3753C484.705 16.1376 484.833 16.0004 484.925 15.9638C485.016 15.909 485.163 15.8816 485.364 15.8816H486.68C486.863 15.8816 487.009 15.9364 487.119 16.0461C487.247 16.1376 487.302 16.2747 487.284 16.4576C487.265 16.7318 487.119 17.0701 486.845 17.4724C486.57 17.8564 486.177 18.2404 485.665 18.6244C485.153 19.0084 484.532 19.3284 483.8 19.5844C483.069 19.8221 482.228 19.941 481.277 19.941ZM477.547 11.493H485.062V11.4107C485.062 10.5878 484.907 9.85641 484.596 9.21641C484.303 8.57641 483.873 8.07355 483.307 7.70784C482.74 7.32384 482.063 7.13183 481.277 7.13183C480.491 7.13183 479.814 7.32384 479.247 7.70784C478.692 8.08108 478.255 8.60422 477.985 9.21641C477.693 9.85641 477.547 10.5878 477.547 11.4107V11.493Z" fill="black"/>
</svg>
