<svg width="28" height="28" viewBox="0 0 28 28" fill="none" xmlns="http://www.w3.org/2000/svg">
<path d="M22.8571 13.7143C22.8571 16.1391 21.8939 18.4647 20.1793 20.1793C18.4646 21.8939 16.1391 22.8572 13.7143 22.8572V27.4286C21.288 27.4286 27.4286 21.288 27.4286 13.7143H22.8571ZM13.7143 22.8572C11.2894 22.8572 8.96393 21.8939 7.24931 20.1793C5.53469 18.4647 4.57143 16.1391 4.57143 13.7143H0C0 21.288 6.14057 27.4286 13.7143 27.4286V22.8572ZM4.57143 13.7143C4.57143 11.2895 5.53469 8.96394 7.24931 7.24932C8.96393 5.53471 11.2894 4.57145 13.7143 4.57145V1.52588e-05C6.14057 1.52588e-05 0 6.14059 0 13.7143H4.57143ZM13.7143 4.57145C16.1391 4.57145 18.4646 5.53471 20.1793 7.24932C21.8939 8.96394 22.8571 11.2895 22.8571 13.7143H27.4286C27.4286 6.14059 21.288 1.52588e-05 13.7143 1.52588e-05V4.57145Z" fill="white"/>
</svg>
