<svg width="42" height="46" viewBox="0 0 42 46" fill="none" xmlns="http://www.w3.org/2000/svg">
<path fill-rule="evenodd" clip-rule="evenodd" d="M35.3601 38.5689H29.1749V26.9289C29.1749 23.498 27.8126 22.4397 26.0961 22.4397C24.2606 22.4397 22.4561 23.9471 22.4561 27.0249V38.5689H16.2698V17.2774H22.2183V20.2271H22.3075C22.8995 18.9449 24.9715 16.7003 28.1681 16.7003C31.6309 16.7003 35.3612 18.8809 35.3612 25.3906L35.3601 38.5689ZM9.46291 14.2946C7.48005 14.2946 5.91091 12.6923 5.91091 10.4477C5.91091 8.23515 7.48005 6.59972 9.46291 6.59972C11.4172 6.59972 13.0149 8.234 13.0149 10.4477C13.0149 12.6923 11.4161 14.2957 9.46291 14.2957V14.2946ZM6.3532 38.5369H12.5703V17.2454H6.3532V38.5369ZM38.4115 0.571148H3.33377C1.64577 0.571148 0.285767 2.04543 0.285767 3.874V41.8717C0.285767 43.6683 1.64691 45.1426 3.33491 45.1426H38.4092C40.0663 45.1426 41.4286 43.6683 41.4286 41.8717V3.874C41.4286 2.04543 40.0675 0.571148 38.4092 0.571148H38.4115Z" fill="black" fill-opacity="0.8"/>
</svg>
