<svg width="43" height="40" viewBox="0 0 43 40" fill="none" xmlns="http://www.w3.org/2000/svg">
<path d="M21.1429 0.429802C15.6458 0.374947 10.3498 2.45152 6.42063 6.20123C2.49149 9.95323 0.251489 15.0709 0.190918 20.4321C0.21693 24.6838 1.61728 28.8131 4.18292 32.2035C6.78433 35.6352 10.3984 38.1627 14.5143 39.4287C15.5623 39.6138 15.9429 39.0012 15.9429 38.4629V35.0641C10.1143 36.2721 8.87663 32.3909 8.87663 32.3909C8.48199 31.1645 7.65666 30.1223 6.5532 29.4572C4.64806 28.2309 6.7052 28.2492 6.7052 28.2492C7.36166 28.3348 7.99092 28.5651 8.54749 28.9235C9.0989 29.2772 9.56307 29.7512 9.9052 30.3098C10.5047 31.3171 11.4736 32.0506 12.6058 32.3544C13.7453 32.6636 14.9599 32.5246 16.0001 31.9658C16.1088 30.9424 16.5823 29.9923 17.3338 29.2892C12.6858 28.7864 7.81035 27.0789 7.81035 19.4081C7.77276 17.3982 8.53299 15.4553 9.92463 14.0047C9.60955 13.1554 9.46581 12.2522 9.50171 11.3472C9.5376 10.4421 9.75243 9.55311 10.1338 8.73152C10.1338 8.73152 11.9052 8.19209 15.8481 10.7738C19.2801 9.88237 22.8926 9.88237 26.3246 10.7738C30.3246 8.19209 32.0389 8.73152 32.0389 8.73152C32.4204 9.55327 32.6353 10.4425 32.6712 11.3477C32.7071 12.253 32.5633 13.1564 32.2481 14.0058C33.6716 15.4291 34.473 17.3585 34.4766 19.3715C34.4766 27.0595 29.5623 28.7498 24.9532 29.2515C25.4572 29.7292 25.8469 30.3098 26.0949 30.9521C26.3413 31.5931 26.439 32.2816 26.3806 32.9658V38.4458C26.3806 38.4458 26.7623 39.6149 27.8092 39.4115C31.9143 38.1369 35.5167 35.6077 38.1098 32.1795C40.6675 28.794 42.0655 24.6739 42.0961 20.4309C42.0355 15.0709 39.7943 9.95209 35.8652 6.20237C31.9372 2.45152 26.6423 0.374947 21.1429 0.429802Z" fill="#231F20" fill-opacity="0.8"/>
</svg>
