<svg width="97" height="97" viewBox="0 0 97 97" fill="none" xmlns="http://www.w3.org/2000/svg">
<path d="M92.1429 48.8569C92.1429 72.8421 72.6995 92.2855 48.7144 92.2855V96.8569C75.2241 96.8569 96.7144 75.3666 96.7144 48.8569H92.1429ZM48.7144 92.2855C24.7292 92.2855 5.28578 72.8421 5.28578 48.8569H0.714355C0.714355 75.3666 22.2046 96.8569 48.7144 96.8569V92.2855ZM5.28578 48.8569C5.28578 24.8718 24.7292 5.42836 48.7144 5.42836V0.856926C22.2046 0.856926 0.714355 22.3472 0.714355 48.8569H5.28578ZM48.7144 5.42836C72.6995 5.42836 92.1429 24.8718 92.1429 48.8569H96.7144C96.7144 22.3472 75.2241 0.856926 48.7144 0.856926V5.42836Z" fill="black"/>
</svg>
