<svg width="100" height="16" viewBox="0 0 100 16" fill="none" xmlns="http://www.w3.org/2000/svg">
<path d="M11.28 8.14642V13.5007C11.0994 13.7681 10.8114 14.0699 10.416 14.4036C10.0206 14.7327 9.47543 15.0207 8.77828 15.2687C8.08914 15.5087 7.19771 15.6299 6.10629 15.6299C5.216 15.6299 4.39543 15.4756 3.64571 15.1681C2.90867 14.8575 2.24748 14.3913 1.70743 13.8013C1.16457 13.199 0.742857 12.4687 0.441142 11.6116C0.147428 10.7487 0 9.77042 0 8.679V7.54414C0 6.45271 0.125712 5.47785 0.381712 4.62071C0.642283 3.76357 1.024 3.03671 1.52686 2.44128C2.0232 1.84314 2.65737 1.37447 3.37486 1.07557C4.104 0.76014 4.94057 0.603569 5.88571 0.603569C7.00457 0.603569 7.93828 0.797854 8.688 1.18643C9.4137 1.54001 10.0261 2.08945 10.456 2.77271C10.8934 3.47439 11.1741 4.26225 11.2789 5.08243H9.34057C9.25997 4.5717 9.08271 4.08103 8.81828 3.63671C8.56457 3.20128 8.19886 2.85271 7.72343 2.59214C7.248 2.32357 6.63543 2.18985 5.88571 2.18985C5.20914 2.18985 4.624 2.31443 4.128 2.56128C3.6357 2.8064 3.21404 3.17299 2.90286 3.62642C2.58057 4.08814 2.33943 4.64814 2.17943 5.30414C2.01774 6.03267 1.94028 6.77736 1.94857 7.52357V8.679C1.94857 9.52242 2.04572 10.2756 2.24 10.9396C2.41634 11.5532 2.70589 12.1284 3.09371 12.6356C3.44488 13.084 3.89511 13.4451 4.40914 13.6904C4.92457 13.9304 5.49486 14.0516 6.11657 14.0516C6.80686 14.0516 7.36571 13.9944 7.79428 13.8801C8.22285 13.7601 8.55771 13.6196 8.79886 13.4596C9.03886 13.2916 9.224 13.1339 9.35086 12.9864V9.71214H5.96571V8.14642H11.28ZM18.7223 15.6299C17.9657 15.6299 17.28 15.503 16.664 15.2481C16.0681 14.9964 15.531 14.6236 15.0869 14.1533C14.6514 13.6847 14.3166 13.1293 14.0811 12.4859C13.8412 11.8087 13.7224 11.0945 13.7303 10.3761V9.95442C13.7303 9.071 13.8617 8.28357 14.1223 7.59443C14.384 6.89728 14.7394 6.30871 15.1874 5.82643C15.6149 5.35944 16.1348 4.98658 16.7143 4.73157C17.2711 4.48654 17.8728 4.36005 18.4811 4.36014C19.2583 4.36014 19.928 4.49385 20.4903 4.76128C21.0419 5.01493 21.5219 5.40177 21.8869 5.887C22.2623 6.39138 22.5353 6.96447 22.6903 7.57385C22.8704 8.26244 22.9584 8.97185 22.952 9.68357V10.5179H14.8354V9.00014H21.0937V8.85957C21.0669 8.37815 20.9651 7.90388 20.792 7.45385C20.624 6.99785 20.3577 6.623 19.9886 6.32814C19.6206 6.03443 19.1177 5.887 18.4811 5.887C18.0755 5.88305 17.6749 5.97673 17.3131 6.16012C16.9513 6.34351 16.6389 6.61124 16.4023 6.94071C16.13 7.32732 15.9295 7.75972 15.8103 8.21728C15.6614 8.78407 15.5903 9.36847 15.5989 9.95442V10.3773C15.5989 10.8916 15.6697 11.3773 15.8103 11.8333C15.9577 12.2813 16.168 12.6767 16.4423 13.0184C16.7234 13.3601 17.0617 13.6276 17.4571 13.8219C17.8594 14.0161 18.3143 14.1133 18.8229 14.1133C19.48 14.1133 20.0343 13.9796 20.4914 13.711C20.9463 13.4436 21.344 13.0847 21.6857 12.6367L22.8114 13.5304C22.5586 13.9062 22.2578 14.2474 21.9166 14.5453C21.5227 14.8855 21.0699 15.1509 20.5806 15.3281C20.0583 15.5293 19.4389 15.6299 18.7223 15.6299ZM29.6709 4.56014V5.98642H23.7954V4.56014H29.6709ZM25.7851 1.919H27.6423V12.7373C27.6423 13.1053 27.6994 13.383 27.8137 13.5716C27.9109 13.7445 28.0677 13.8761 28.2549 13.9419C28.4354 14.0024 28.6297 14.0333 28.8377 14.0333C28.992 14.0333 29.152 14.0196 29.32 13.9921C29.4937 13.959 29.624 13.9327 29.712 13.9121L29.7211 15.4287C29.5301 15.4855 29.3353 15.529 29.1383 15.559C28.857 15.6101 28.5715 15.6338 28.2857 15.6299C27.8297 15.6299 27.4114 15.5384 27.0297 15.359C26.648 15.1773 26.344 14.8767 26.1154 14.455C25.8949 14.0264 25.784 13.4493 25.784 12.727L25.7851 1.919ZM43.2823 12.5464C43.2823 12.2779 43.2217 12.031 43.1006 11.8036C42.9863 11.5681 42.7497 11.3579 42.3874 11.1704C42.0331 10.9761 41.4971 10.8081 40.7806 10.6676C40.2256 10.5537 39.6789 10.4029 39.144 10.2161C38.7046 10.064 38.2887 9.85085 37.9086 9.583C37.589 9.35259 37.3247 9.05394 37.1349 8.70871C36.9472 8.34607 36.8537 7.94208 36.8629 7.53385C36.8629 7.10528 36.9577 6.69957 37.1451 6.319C37.3394 5.93728 37.6103 5.599 37.9577 5.30414C38.3131 5.00928 38.7383 4.77843 39.2343 4.61042C39.7291 4.44357 40.2823 4.359 40.8914 4.359C41.7623 4.359 42.5051 4.51328 43.1211 4.82185C43.7383 5.13043 44.2091 5.54185 44.5383 6.05728C44.8651 6.56585 45.0297 7.13157 45.0297 7.75443H43.1714C43.1714 7.45385 43.08 7.16242 42.9006 6.88128C42.7257 6.59328 42.4686 6.35557 42.1269 6.16814C41.792 5.98071 41.3806 5.887 40.8914 5.887C40.376 5.887 39.9577 5.967 39.6354 6.127C39.3211 6.28128 39.0903 6.479 38.9429 6.72128C38.8264 6.91608 38.7558 7.13488 38.7366 7.36104C38.7174 7.5872 38.75 7.81477 38.832 8.02642C38.9063 8.17957 39.0331 8.32357 39.2137 8.45842C39.3943 8.58414 39.6491 8.70528 39.9771 8.81957C40.3051 8.93385 40.7234 9.04814 41.2331 9.16128C42.1234 9.36242 42.856 9.60357 43.4331 9.88471C44.008 10.1659 44.4366 10.511 44.7189 10.919C45 11.327 45.1406 11.8219 45.1406 12.4047C45.1434 12.8564 45.0405 13.3026 44.8401 13.7074C44.6396 14.1122 44.3472 14.4645 43.9863 14.7361C43.5863 15.0333 43.1372 15.2577 42.6594 15.399C42.1013 15.5598 41.5225 15.6375 40.9417 15.6299C39.984 15.6299 39.1737 15.4584 38.5109 15.1179C37.848 14.775 37.3451 14.3339 37.0046 13.7921C36.6719 13.2808 36.4938 12.6844 36.4914 12.0744H38.36C38.3863 12.583 38.5337 12.9887 38.8023 13.2893C39.0697 13.5841 39.3977 13.7956 39.7863 13.9224C40.1749 14.0424 40.56 14.103 40.9406 14.103C41.4503 14.103 41.8754 14.0356 42.2171 13.9019C42.5657 13.7681 42.8297 13.5841 43.0103 13.3499C43.192 13.1156 43.2823 12.847 43.2823 12.5464ZM52.1303 4.56014V5.98642H46.256V4.56014H52.1303ZM48.2446 1.919H50.1017V12.7373C50.1017 13.1053 50.1589 13.383 50.2731 13.5716C50.3706 13.7447 50.5278 13.8764 50.7154 13.9419C50.896 14.0024 51.0903 14.0333 51.2983 14.0333C51.4514 14.0333 51.6126 14.0196 51.7794 13.9921C51.9543 13.959 52.0846 13.9327 52.1714 13.9121L52.1817 15.4287C51.9907 15.4855 51.7959 15.529 51.5989 15.559C51.3172 15.6101 51.0313 15.6339 50.7451 15.6299C50.2903 15.6299 49.8709 15.5384 49.4891 15.359C49.1074 15.1773 48.8034 14.8767 48.5749 14.455C48.3543 14.0264 48.2434 13.4493 48.2434 12.727L48.2446 1.919ZM60.72 13.5704V7.97614C60.72 7.54757 60.632 7.17614 60.4583 6.86071C60.2903 6.53957 60.0354 6.29157 59.6949 6.11785C59.3531 5.943 58.9314 5.85614 58.4297 5.85614C57.9611 5.85614 57.5497 5.93614 57.1943 6.09728C56.872 6.23781 56.5891 6.4552 56.3703 6.73042C56.1828 6.97176 56.0804 7.26828 56.0789 7.57385H54.2206C54.2206 7.18528 54.3211 6.80014 54.5223 6.41957C54.7223 6.03671 55.0103 5.69271 55.3863 5.38414C55.7669 5.06985 56.2229 4.82185 56.752 4.64128C57.288 4.45385 57.8834 4.36014 58.5394 4.36014C59.3303 4.36014 60.0263 4.49385 60.6286 4.76128C61.2389 5.02985 61.7143 5.43557 62.0549 5.97728C62.4034 6.51214 62.5771 7.18528 62.5771 7.99557V13.0584C62.5771 13.4196 62.608 13.8047 62.6686 14.2127C62.7349 14.6219 62.832 14.9739 62.9589 15.2687V15.4287H61.0206C60.911 15.1547 60.8369 14.8678 60.8 14.575C60.7463 14.2139 60.72 13.8779 60.72 13.5704ZM61.04 8.839L61.0606 10.1453H59.1829C58.6537 10.1453 58.1817 10.1887 57.7657 10.2756C57.3987 10.3388 57.0453 10.4648 56.7211 10.6481C56.456 10.7998 56.2347 11.0175 56.0789 11.2801C55.9269 11.546 55.8506 11.8483 55.8583 12.1544C55.8583 12.4961 55.9349 12.807 56.0891 13.0881C56.249 13.3759 56.4898 13.6104 56.7817 13.7624C57.0971 13.9224 57.4811 14.0024 57.936 14.0024C58.5063 14.0024 59.008 13.8824 59.4446 13.6413C59.8789 13.4001 60.224 13.1053 60.4789 12.7567C60.7394 12.4093 60.88 12.071 60.9006 11.743L61.6937 12.6367C61.6469 12.9179 61.52 13.2287 61.312 13.5704C60.8223 14.3539 60.1032 14.9676 59.2526 15.3281C58.7499 15.5357 58.2101 15.6384 57.6663 15.6299C56.9291 15.6299 56.2834 15.4859 55.7269 15.1979C55.2038 14.9335 54.7601 14.5352 54.4411 14.0436C54.139 13.5513 53.9825 12.9834 53.9897 12.4059C53.9897 11.823 54.104 11.311 54.3314 10.8687C54.5589 10.4196 54.8869 10.0481 55.3154 9.75328C55.744 9.45271 56.2594 9.22528 56.8617 9.071C57.5226 8.91018 58.201 8.83263 58.8811 8.84014H61.0411L61.04 8.839ZM67.3589 6.26871V15.4287H65.5006V4.56014H67.3086L67.3589 6.26871ZM70.7531 4.50071L70.744 6.22757C70.5897 6.19443 70.4423 6.175 70.3017 6.16814C70.1482 6.15371 69.9941 6.14684 69.84 6.14757C69.4114 6.14757 69.0331 6.215 68.7051 6.34871C68.3897 6.47377 68.1051 6.66559 67.8709 6.911C67.6434 7.15214 67.4629 7.44014 67.3291 7.775C67.1969 8.12396 67.1124 8.48915 67.0777 8.86071L66.5554 9.16128C66.5554 8.50528 66.6194 7.88928 66.7463 7.31328C66.88 6.73728 67.0846 6.22757 67.3589 5.78643C67.6331 5.33728 67.9817 4.98871 68.4034 4.74185C68.832 4.487 69.3406 4.36014 69.9303 4.36014C70.064 4.36014 70.2183 4.37614 70.392 4.41043C70.5163 4.42386 70.6371 4.45424 70.7531 4.50071ZM77.5234 4.56014V5.98642H71.648V4.56014H77.5234ZM73.6377 1.919H75.4949V12.7373C75.4949 13.1053 75.552 13.383 75.6663 13.5716C75.7634 13.7445 75.9203 13.8761 76.1074 13.9419C76.2891 14.0024 76.4823 14.0333 76.6903 14.0333C76.8446 14.0333 77.0046 14.0196 77.1726 13.9921C77.3463 13.959 77.4777 13.9327 77.5646 13.9121L77.5749 15.4287C77.3838 15.4855 77.189 15.529 76.992 15.559C76.7104 15.6101 76.4245 15.6339 76.1383 15.6299C75.6823 15.6299 75.264 15.5384 74.8823 15.359C74.5006 15.1773 74.1966 14.8767 73.968 14.455C73.7474 14.0264 73.6366 13.4493 73.6366 12.727L73.6377 1.919ZM84.2137 15.6299C83.4571 15.6299 82.7703 15.503 82.1543 15.2481C81.5584 14.9964 81.0213 14.6236 80.5771 14.1533C80.1429 13.6847 79.808 13.1293 79.5737 12.4859C79.3334 11.8088 79.2142 11.0946 79.2217 10.3761V9.95442C79.2217 9.071 79.352 8.28357 79.6137 7.59443C79.8743 6.89728 80.2297 6.30871 80.6777 5.82643C81.1051 5.35944 81.6251 4.98658 82.2046 4.73157C82.7617 4.48639 83.3638 4.35989 83.9726 4.36014C84.7497 4.36014 85.4194 4.49385 85.9817 4.76128C86.5333 5.01497 87.0133 5.40181 87.3783 5.887C87.7537 6.39138 88.0267 6.96447 88.1817 7.57385C88.3614 8.26249 88.449 8.9719 88.4423 9.68357V10.5179H80.3269V9.00014H86.584V8.85957C86.5575 8.37822 86.4561 7.90394 86.2834 7.45385C86.1154 6.99785 85.848 6.623 85.48 6.32814C85.1108 6.03443 84.6091 5.887 83.9726 5.887C83.5668 5.88287 83.1659 5.97646 82.8039 6.15986C82.4419 6.34326 82.1293 6.61108 81.8926 6.94071C81.6203 7.32732 81.4198 7.75972 81.3006 8.21728C81.1521 8.78413 81.0813 9.36852 81.0903 9.95442V10.3773C81.0903 10.8916 81.16 11.3773 81.3006 11.8333C81.4491 12.2813 81.6594 12.6767 81.9337 13.0184C82.2149 13.3601 82.5531 13.6276 82.9486 13.8219C83.3497 14.0161 83.8057 14.1133 84.3143 14.1133C84.9703 14.1133 85.5257 13.9796 85.9817 13.711C86.4366 13.4436 86.8354 13.0847 87.1771 12.6367L88.3017 13.5304C88.0492 13.9062 87.7488 14.2473 87.408 14.5453C87.0141 14.8855 86.5614 15.1509 86.072 15.3281C85.5497 15.5293 84.9303 15.6299 84.2137 15.6299ZM97.4629 13.3201V0.00014019H99.3314V15.4287H97.624L97.4629 13.3201ZM90.1497 10.1156V9.90414C90.1497 9.07442 90.2503 8.32014 90.4514 7.64471C90.6594 6.96128 90.9509 6.37614 91.3257 5.887C91.7074 5.39785 92.16 5.023 92.6811 4.76128C93.2103 4.49385 93.8 4.36014 94.4491 4.36014C95.1326 4.36014 95.7291 4.48014 96.2377 4.72128C96.7509 4.95395 97.1991 5.30912 97.5428 5.75557C97.9051 6.20471 98.1897 6.74757 98.3966 7.383C98.6176 8.08542 98.7624 8.80959 98.8286 9.543V10.4664C98.7683 11.1973 98.6234 11.9187 98.3966 12.6161C98.2135 13.2061 97.9242 13.7576 97.5428 14.2436C97.1953 14.6863 96.7481 15.0407 96.2377 15.2779C95.7211 15.5121 95.1189 15.6299 94.4297 15.6299C93.8221 15.6369 93.2219 15.4957 92.6811 15.2184C92.1506 14.9366 91.688 14.5422 91.3257 14.063C90.9345 13.5356 90.6386 12.9438 90.4514 12.3144C90.2451 11.5999 90.1435 10.8592 90.1497 10.1156ZM92.0183 9.90414V10.1156C92.0183 10.6573 92.072 11.167 92.1783 11.6424C92.2926 12.1179 92.4674 12.5361 92.7017 12.8973C92.9265 13.2497 93.2331 13.5426 93.5954 13.751C93.9577 13.9521 94.3886 14.0527 94.8914 14.0527C95.5074 14.0527 96.0126 13.9224 96.408 13.6607C96.8103 13.4001 97.1314 13.055 97.3726 12.6264C97.6126 12.1979 97.8011 11.7327 97.9349 11.2299V8.80928C97.8549 8.44128 97.7371 8.08585 97.5829 7.74528C97.4417 7.40665 97.2446 7.09412 97 6.82071C96.7669 6.54642 96.4743 6.32928 96.1269 6.16814C95.7851 6.00814 95.3806 5.927 94.9109 5.927C94.4023 5.927 93.9634 6.03442 93.5966 6.24814C93.2319 6.4583 92.9245 6.75504 92.7017 7.11214C92.4561 7.50066 92.2794 7.92866 92.1794 8.37728C92.0697 8.87874 92.0149 9.39083 92.0183 9.90414Z" fill="white"/>
</svg>
