<svg width="89" height="97" viewBox="0 0 89 97" fill="none" xmlns="http://www.w3.org/2000/svg">
<path d="M84.6351 48.5713C84.6351 72.5564 66.7597 91.9999 44.7088 91.9999V96.5713C69.0807 96.5713 88.8379 75.081 88.8379 48.5713H84.6351ZM44.7088 91.9999C22.6578 91.9999 4.78237 72.5564 4.78237 48.5713H0.57959C0.57959 75.081 20.3368 96.5713 44.7088 96.5713V91.9999ZM4.78237 48.5713C4.78237 24.5861 22.6578 5.14272 44.7088 5.14272V0.571281C20.3368 0.571281 0.57959 22.0616 0.57959 48.5713H4.78237ZM44.7088 5.14272C66.7597 5.14272 84.6351 24.5861 84.6351 48.5713H88.8379C88.8379 22.0616 69.0807 0.571281 44.7088 0.571281V5.14272Z" fill="black"/>
</svg>
