<svg width="545" height="26" viewBox="0 0 545 26" fill="none" xmlns="http://www.w3.org/2000/svg">
<path d="M10.176 12.0137H2.4V20.2674H0V1.58057H11.4743V3.608H2.4V9.99886H10.1783V12.0137H10.176ZM15.9394 6.37943H23.0366V18.2126H27.568V20.2674H15.9394V18.2137H20.6629V8.44571H15.9394V6.37943ZM20.3554 2.73371C20.3554 2.528 20.3851 2.336 20.4446 2.15657C20.507 1.99082 20.6047 1.84066 20.731 1.71651C20.8574 1.59237 21.0092 1.49723 21.176 1.43772C21.3566 1.36914 21.5566 1.33486 21.7794 1.33486C22.0023 1.33486 22.1989 1.36914 22.3703 1.43772C22.5289 1.49032 22.6735 1.57825 22.7931 1.69486C22.9317 1.81666 23.0377 1.97101 23.1017 2.144C23.1703 2.32343 23.2046 2.52114 23.2046 2.73486C23.2046 3.11886 23.0846 3.44 22.8446 3.69714C22.6046 3.95314 22.2503 4.08228 21.7794 4.08228C21.2994 4.08228 20.9406 3.95314 20.7017 3.69714C20.4709 3.44 20.3554 3.11771 20.3554 2.73371ZM31.3543 20.2663V6.37943H33.4846L33.6514 8.43314C33.8571 8.14171 34.08 7.87657 34.3189 7.63771C34.908 7.04444 35.6359 6.60762 36.4366 6.36686C36.9355 6.21081 37.4545 6.12841 37.9771 6.12229C38.6488 6.11353 39.3172 6.21784 39.9543 6.43086C40.5531 6.63657 41.0617 6.95657 41.4811 7.39314C41.9006 7.82971 42.2217 8.38629 42.4434 9.06171C42.6743 9.72914 42.7897 10.5246 42.7897 11.4491V20.2663H40.416V11.5006C40.416 10.8834 40.3474 10.3623 40.2103 9.93486C40.0731 9.50628 39.872 9.16 39.6069 8.89486C39.3326 8.62971 39 8.43771 38.6057 8.31771C38.1723 8.19127 37.7223 8.13078 37.2709 8.13828C36.8343 8.13828 36.4286 8.20229 36.0514 8.33029C35.6825 8.44633 35.3323 8.61492 35.0114 8.83086C34.7502 9.02371 34.5096 9.24318 34.2937 9.48571C34.0766 9.7386 33.8874 10.0141 33.7291 10.3074V20.2663H31.3543ZM46.6903 13.208C46.6903 12.1726 46.8194 11.2229 47.0754 10.3577C47.3406 9.48571 47.7177 8.73714 48.2057 8.112C48.6846 7.488 49.2663 7 49.9509 6.64914C50.6354 6.29829 51.4011 6.12343 52.248 6.12343C53.0777 6.12343 53.8023 6.264 54.4171 6.54629C55.0413 6.8198 55.5945 7.23264 56.0343 7.75314V0.553141H58.4091V20.2674H56.2263L56.1234 18.8046C55.6792 19.355 55.1125 19.7941 54.4686 20.0869C53.8274 20.3783 53.0777 20.5234 52.2229 20.5234C51.384 20.5234 50.6229 20.344 49.9371 19.984C49.2585 19.621 48.6681 19.1129 48.208 18.496C47.7084 17.8221 47.3305 17.0659 47.0914 16.2617C46.8194 15.3586 46.6842 14.4198 46.6903 13.4766V13.208ZM49.0651 13.4766C49.0651 14.1531 49.1383 14.7943 49.2834 15.4023C49.4286 16.0103 49.656 16.5451 49.9634 17.0069C50.2552 17.4616 50.6513 17.8401 51.1189 18.1109C51.5897 18.376 52.1543 18.5086 52.8126 18.5086C53.6091 18.5086 54.2674 18.3291 54.7897 17.9691C55.312 17.6103 55.7269 17.1269 56.0354 16.5189V10.0754C55.7269 9.51086 55.312 9.04914 54.7897 8.68914C54.2674 8.32228 53.6171 8.13828 52.8389 8.13828C52.1714 8.13828 51.5977 8.27543 51.1189 8.54857C50.6518 8.81952 50.256 9.19799 49.9646 9.65257C49.6441 10.1519 49.4136 10.7034 49.2834 11.2823C49.1356 11.9134 49.0627 12.5598 49.0663 13.208L49.0651 13.4766ZM84.336 3.01829V6.38057H89.624V8.21486H84.336V15.7611C84.336 16.3006 84.4046 16.7451 84.5417 17.096C84.6535 17.4051 84.8376 17.683 85.0788 17.9063C85.32 18.1296 85.6112 18.2918 85.928 18.3794C86.2446 18.4651 86.5783 18.5086 86.9292 18.5086C87.1863 18.5086 87.4514 18.496 87.7246 18.4697C88.2365 18.4058 88.7461 18.3246 89.2526 18.2263C89.4834 18.1749 89.672 18.1314 89.8171 18.0971L90.1509 19.7794C89.9235 19.9126 89.682 20.0199 89.4309 20.0994C89.1275 20.19 88.8192 20.2629 88.5074 20.3177C88.1555 20.3889 87.7999 20.4404 87.4423 20.472C87.0743 20.5063 86.7063 20.5234 86.3383 20.5234C85.7223 20.5234 85.1451 20.4377 84.6057 20.2663C84.0854 20.0932 83.6114 19.804 83.2194 19.4206C82.8263 19.0434 82.5143 18.5554 82.2823 17.9566C82.0606 17.3486 81.9497 16.6171 81.9497 15.7623V8.21486H78.304V6.37943H81.9497V3.01714L84.336 3.01829ZM96.8766 8.44686C97.064 8.16457 97.2743 7.90743 97.5051 7.67657C97.736 7.43657 97.9794 7.22743 98.2366 7.048C98.648 6.74857 99.096 6.52229 99.5851 6.368C100.748 6.01882 101.992 6.04562 103.139 6.44457C103.738 6.65029 104.248 6.97486 104.666 7.42057C105.086 7.86514 105.407 8.42971 105.63 9.11428C105.861 9.79086 105.976 10.5943 105.976 11.5269V20.2674H103.601V11.5017C103.601 10.9531 103.537 10.4754 103.409 10.064C103.281 9.64457 103.093 9.29829 102.845 9.024C102.573 8.7202 102.228 8.49052 101.843 8.35657C101.4 8.19611 100.929 8.1224 100.457 8.13943C100.03 8.13943 99.6229 8.19886 99.2377 8.31886C98.859 8.43558 98.4999 8.60855 98.1726 8.832C97.9118 9.00654 97.6708 9.20887 97.4537 9.43543C97.2361 9.66278 97.0427 9.91212 96.8766 10.1794V20.2674H94.5017V0.553141H96.8766V8.44571V8.44686ZM116.424 20.5246C115.448 20.5246 114.55 20.3577 113.728 20.024C112.915 19.6903 112.218 19.224 111.637 18.6251C111.046 18.0125 110.584 17.2883 110.277 16.4949C109.945 15.6396 109.779 14.7289 109.787 13.8114V13.2731C109.787 12.152 109.968 11.1509 110.327 10.2697C110.687 9.37943 111.166 8.62629 111.765 8.01029C112.355 7.40343 113.026 6.936 113.779 6.61143C114.517 6.29123 115.312 6.12516 116.115 6.12343C117.117 6.12343 117.99 6.29943 118.734 6.64914C119.461 6.97173 120.103 7.45975 120.608 8.07429C121.104 8.69143 121.472 9.41372 121.712 10.2434C121.966 11.1192 122.091 12.0275 122.083 12.9394V14.0046H112.163V14.0949C112.208 14.7053 112.342 15.3059 112.56 15.8777C112.774 16.392 113.065 16.8457 113.433 17.2389C113.81 17.6583 114.263 17.9874 114.793 18.2274C115.325 18.4674 115.91 18.5863 116.552 18.5863C117.399 18.5863 118.152 18.4149 118.81 18.0731C119.47 17.7303 120.017 17.2777 120.454 16.7131L121.904 17.8423C121.442 18.544 120.75 19.168 119.824 19.7166C118.91 20.2549 117.776 20.5246 116.424 20.5246ZM116.115 8.07429C115.635 8.07429 115.183 8.16457 114.755 8.344C114.324 8.51754 113.931 8.7751 113.6 9.10171C113.257 9.44457 112.967 9.86286 112.727 10.3589C112.481 10.8965 112.317 11.4677 112.239 12.0537H119.71V11.9383C119.71 11.5097 119.627 11.0526 119.465 10.5646C119.303 10.0686 119.077 9.64114 118.785 9.28114C118.484 8.91384 118.108 8.61597 117.681 8.408C117.245 8.18629 116.723 8.07429 116.115 8.07429ZM141.849 25.6069V6.38057H144.018L144.134 7.89486C144.322 7.65486 144.528 7.44114 144.751 7.25371C144.973 7.056 145.213 6.88914 145.469 6.75314C145.829 6.54743 146.226 6.39314 146.663 6.29029C147.107 6.17943 147.582 6.12343 148.087 6.12343C148.977 6.12343 149.765 6.29943 150.449 6.64914C151.129 6.99621 151.717 7.4976 152.168 8.11314C152.631 8.73829 152.982 9.48686 153.221 10.3589C153.461 11.224 153.581 12.1737 153.581 13.2091V13.4777C153.587 14.4181 153.466 15.355 153.221 16.2629C152.981 17.12 152.631 17.8629 152.169 18.4971C151.719 19.1197 151.13 19.6291 150.449 19.9851C149.773 20.3451 148.998 20.5246 148.126 20.5246C147.595 20.5246 147.098 20.4686 146.637 20.3577C146.206 20.2553 145.792 20.0954 145.405 19.8823C145.185 19.7563 144.975 19.615 144.776 19.4594C144.58 19.2975 144.395 19.1219 144.224 18.9337V25.608L141.849 25.6069ZM151.206 13.2091C151.206 12.5326 151.129 11.8914 150.975 11.2834C150.845 10.7047 150.615 10.1531 150.295 9.65371C149.986 9.19922 149.578 8.82153 149.101 8.54972C148.622 8.27543 148.049 8.13828 147.381 8.13828C147.014 8.13828 146.672 8.18171 146.354 8.26743C146.059 8.34758 145.777 8.47328 145.52 8.64C145.247 8.80198 145 9.00513 144.789 9.24228C144.572 9.48628 144.382 9.75342 144.224 10.0389V16.7246C144.369 16.9817 144.536 17.2217 144.725 17.4446C144.913 17.6663 145.127 17.8549 145.366 18.0091C145.64 18.1886 145.944 18.3291 146.278 18.432C146.621 18.5349 146.997 18.5863 147.407 18.5863C148.065 18.5863 148.634 18.4491 149.114 18.1749C149.593 17.8937 149.986 17.5166 150.295 17.0469C150.603 16.576 150.83 16.032 150.975 15.416C151.129 14.8 151.206 14.1543 151.206 13.4777V13.2091ZM163.784 20.5246C162.809 20.5246 161.91 20.3577 161.089 20.024C160.275 19.6903 159.578 19.224 158.998 18.6251C158.407 18.0126 157.944 17.2884 157.637 16.4949C157.305 15.6395 157.139 14.7288 157.149 13.8114V13.2731C157.149 12.152 157.328 11.1509 157.688 10.2697C158.047 9.37943 158.526 8.62629 159.125 8.01029C159.715 7.40343 160.387 6.936 161.141 6.61143C161.877 6.29138 162.672 6.12532 163.475 6.12343C164.477 6.12343 165.35 6.29943 166.095 6.64914C166.822 6.97173 167.464 7.45975 167.969 8.07429C168.464 8.69143 168.832 9.41372 169.072 10.2434C169.327 11.1192 169.452 12.0274 169.445 12.9394V14.0046H159.523V14.0949C159.569 14.7053 159.703 15.3059 159.921 15.8777C160.135 16.392 160.425 16.8457 160.793 17.2389C161.17 17.6583 161.624 17.9874 162.153 18.2274C162.685 18.4674 163.271 18.5863 163.913 18.5863C164.759 18.5863 165.513 18.4149 166.171 18.0731C166.83 17.7303 167.378 17.2777 167.814 16.7131L169.265 17.8423C168.802 18.544 168.11 19.168 167.185 19.7166C166.27 20.2549 165.136 20.5246 163.784 20.5246ZM163.475 8.07429C162.997 8.07429 162.543 8.16457 162.115 8.344C161.684 8.5177 161.292 8.77525 160.961 9.10171C160.618 9.44457 160.327 9.86286 160.088 10.3589C159.842 10.8965 159.678 11.4677 159.6 12.0537H167.07V11.9383C167.07 11.5097 166.989 11.0526 166.826 10.5646C166.663 10.0686 166.437 9.64114 166.145 9.28114C165.845 8.91397 165.469 8.61611 165.042 8.408C164.606 8.18629 164.083 8.07429 163.477 8.07429H163.475ZM182.536 6.12343C182.973 6.12343 183.425 6.15429 183.896 6.21371C184.376 6.27314 184.735 6.35543 184.975 6.45714L184.654 8.78057C184.191 8.67771 183.751 8.60571 183.331 8.56343C182.92 8.51086 182.489 8.48571 182.035 8.48571C181.453 8.48571 180.927 8.55771 180.456 8.70286C179.986 8.84 179.576 9.04571 179.224 9.32C178.9 9.56788 178.618 9.86705 178.39 10.2057C178.159 10.5486 177.967 10.9326 177.813 11.36V20.2674H175.425V6.38057H177.685L177.787 8.24114L177.799 8.58857C178.337 7.84992 179.029 7.23663 179.827 6.79086C180.623 6.34628 181.526 6.12343 182.536 6.12343ZM192.765 20.2674V8.21486H188.941V6.37943H192.765V5.40343C192.765 4.51429 192.894 3.73486 193.15 3.06857C193.415 2.392 193.787 1.82743 194.266 1.37371C194.737 0.920002 195.306 0.578285 195.974 0.347429C196.641 0.116571 197.385 0 198.207 0C198.55 0 198.887 0.0228577 199.221 0.0651436C199.554 0.0994301 199.883 0.145144 200.209 0.205713C200.423 0.249142 200.637 0.296 200.851 0.347429C201.065 0.389715 201.283 0.441145 201.505 0.500572L201.223 2.46514C200.82 2.3321 200.409 2.22897 199.991 2.15657C199.5 2.05991 199.002 2.01282 198.502 2.016C197.963 2.016 197.485 2.08457 197.065 2.22171C196.681 2.33434 196.329 2.53643 196.038 2.81143C195.747 3.08571 195.525 3.44 195.37 3.87657C195.225 4.31314 195.153 4.82171 195.153 5.40343V6.37943H200.504V8.21486H195.152V20.2663L192.765 20.2674ZM211.144 20.5246C210.169 20.5246 209.27 20.3577 208.449 20.024C207.637 19.6903 206.939 19.224 206.358 18.6251C205.767 18.0125 205.305 17.2883 204.998 16.4949C204.666 15.6396 204.5 14.7289 204.509 13.8114V13.2731C204.509 12.152 204.689 11.1509 205.048 10.2697C205.407 9.37943 205.887 8.62629 206.486 8.01029C207.075 7.40343 207.747 6.936 208.501 6.61143C209.238 6.29123 210.033 6.12516 210.837 6.12343C211.838 6.12343 212.711 6.29943 213.454 6.64914C214.181 6.97173 214.823 7.45975 215.328 8.07429C215.825 8.69143 216.193 9.41372 216.432 10.2434C216.687 11.1192 216.812 12.0274 216.805 12.9394V14.0046H206.883V14.0949C206.929 14.7053 207.063 15.3059 207.281 15.8777C207.495 16.392 207.786 16.8457 208.154 17.2389C208.531 17.6583 208.984 17.9874 209.514 18.2274C210.045 18.4674 210.631 18.5863 211.273 18.5863C212.12 18.5863 212.873 18.4149 213.531 18.0731C214.191 17.7303 214.738 17.2777 215.175 16.7131L216.625 17.8423C216.163 18.544 215.471 19.168 214.545 19.7166C213.631 20.2549 212.496 20.5246 211.144 20.5246ZM210.835 8.07429C210.358 8.07429 209.904 8.16457 209.475 8.344C209.044 8.5177 208.652 8.77525 208.321 9.10171C207.978 9.44457 207.688 9.86286 207.448 10.3589C207.202 10.8965 207.038 11.4677 206.96 12.0537H214.43V11.9383C214.43 11.5097 214.35 11.0526 214.186 10.5646C214.024 10.0686 213.798 9.64114 213.506 9.28114C213.206 8.91384 212.829 8.61597 212.402 8.408C211.966 8.18629 211.445 8.07429 210.837 8.07429H210.835ZM226.713 18.5989C227.141 18.5989 227.555 18.5303 227.959 18.3931C228.369 18.256 228.733 18.0629 229.049 17.8149C229.366 17.5749 229.618 17.2937 229.807 16.9691C230.003 16.6343 230.106 16.2754 230.115 15.8903H232.36C232.35 16.5124 232.183 17.1219 231.873 17.6617C231.558 18.2262 231.135 18.7233 230.627 19.1246C230.088 19.5621 229.482 19.9087 228.831 20.1509C228.153 20.3995 227.436 20.5257 226.713 20.5234C225.662 20.5234 224.741 20.3349 223.953 19.9589C223.193 19.6029 222.522 19.0807 221.99 18.4309C221.452 17.7845 221.047 17.039 220.797 16.2366C220.529 15.3811 220.395 14.4895 220.399 13.5931V13.0537C220.399 12.1383 220.531 11.2606 220.797 10.4229C221.062 9.584 221.459 8.84343 221.99 8.20229C222.525 7.55909 223.195 7.04201 223.953 6.688C224.742 6.31086 225.661 6.12229 226.713 6.12229C227.535 6.12229 228.288 6.25486 228.973 6.52114C229.631 6.75747 230.24 7.11399 230.769 7.57257C231.263 8.02286 231.66 8.56874 231.937 9.17714C232.219 9.79428 232.36 10.4526 232.36 11.1543H230.114C230.108 10.7448 230.012 10.3417 229.832 9.97371C229.664 9.60109 229.424 9.2652 229.126 8.98514C228.813 8.6947 228.447 8.46799 228.048 8.31771C227.637 8.15543 227.192 8.07314 226.713 8.07314C225.977 8.07314 225.357 8.22286 224.853 8.52229C224.366 8.80354 223.953 9.19499 223.646 9.66514C223.332 10.1574 223.106 10.7003 222.978 11.2697C222.85 11.8554 222.786 12.4531 222.785 13.0526V13.5931C222.785 14.2 222.85 14.8034 222.978 15.4023C223.115 15.9931 223.337 16.5223 223.646 16.9943C223.945 17.4731 224.354 17.8736 224.839 18.1623C225.344 18.4526 225.969 18.5989 226.713 18.5989ZM242.205 3.01714V6.37943H247.493V8.21486H242.205V15.7611C242.205 16.3006 242.273 16.7451 242.41 17.096C242.522 17.4051 242.706 17.683 242.947 17.9063C243.189 18.1296 243.48 18.2918 243.797 18.3794C244.113 18.4651 244.447 18.5086 244.798 18.5086C245.054 18.5086 245.319 18.496 245.593 18.4697C246.105 18.4057 246.614 18.3245 247.12 18.2263C247.352 18.1749 247.539 18.1314 247.686 18.0971L248.019 19.7794C247.792 19.9126 247.551 20.0199 247.299 20.0994C246.996 20.19 246.688 20.2629 246.376 20.3177C246.024 20.3889 245.669 20.4404 245.311 20.472C244.943 20.5063 244.575 20.5234 244.207 20.5234C243.591 20.5234 243.014 20.4377 242.474 20.2663C241.954 20.0932 241.48 19.804 241.088 19.4206C240.695 19.0434 240.382 18.5554 240.151 17.9566C239.929 17.3486 239.817 16.6171 239.817 15.7623V8.21486H236.171V6.37943H239.817V3.01714H242.206H242.205ZM277.079 15.4274H270.84L269.338 20.2663H266.965L272.997 1.57943H274.985L280.917 20.2663H278.554L277.079 15.4274ZM271.482 13.3611H276.449L273.985 5.25028L271.482 13.3611ZM283.945 1.57943H295.239V3.64571H290.76V18.2126H295.24V20.2674H283.945V18.2137H288.322V3.64571H283.945V1.57943ZM319.059 20.2663V8.21486H315.235V6.37943H319.059V5.40343C319.059 4.51429 319.189 3.73486 319.445 3.06857C319.71 2.392 320.082 1.82743 320.561 1.37371C321.032 0.920002 321.601 0.578285 322.269 0.347429C322.936 0.116571 323.68 0 324.502 0C324.845 0 325.182 0.0228577 325.515 0.0651436C325.849 0.0994301 326.178 0.145144 326.504 0.205713C326.718 0.249142 326.931 0.296 327.145 0.347429C327.36 0.389715 327.578 0.441145 327.8 0.500572L327.518 2.46514C327.115 2.33211 326.703 2.22897 326.286 2.15657C325.795 2.05991 325.296 2.01282 324.797 2.016C324.258 2.016 323.779 2.08457 323.359 2.22171C322.975 2.3345 322.623 2.53659 322.333 2.81143C322.041 3.08571 321.818 3.44 321.665 3.87657C321.52 4.31314 321.448 4.82171 321.448 5.40343V6.37943H326.799V8.21486H321.447V20.2663H319.059ZM330.637 13.1943C330.637 12.1931 330.782 11.2651 331.073 10.4091C331.341 9.58551 331.768 8.82251 332.33 8.16343C332.872 7.52804 333.547 7.01964 334.307 6.67428C335.086 6.30628 335.963 6.12229 336.938 6.12229C337.922 6.12229 338.803 6.30628 339.583 6.67428C340.351 7.01923 341.034 7.52741 341.585 8.16343C342.141 8.82524 342.563 9.58764 342.831 10.4091C343.128 11.3073 343.275 12.2483 343.265 13.1943V13.4766C343.265 14.4777 343.121 15.4069 342.831 16.2617C342.562 17.079 342.139 17.8373 341.585 18.496C341.037 19.1294 340.358 19.637 339.595 19.984C338.817 20.344 337.939 20.5234 336.965 20.5234C335.981 20.5234 335.095 20.344 334.307 19.984C333.547 19.639 332.872 19.131 332.33 18.496C331.77 17.84 331.343 17.0811 331.073 16.2617C330.775 15.3637 330.628 14.4226 330.637 13.4766V13.1943ZM333.011 13.4766C333.011 14.1623 333.091 14.816 333.255 15.4411C333.417 16.0571 333.666 16.6 334 17.0709C334.317 17.5345 334.74 17.917 335.232 18.1874C335.728 18.4617 336.306 18.5989 336.965 18.5989C337.615 18.5989 338.184 18.4617 338.671 18.1874C339.168 17.9131 339.583 17.5417 339.917 17.0709C340.241 16.6 340.486 16.0571 340.648 15.4411C340.81 14.816 340.891 14.1611 340.891 13.4766V13.1943C340.891 12.5189 340.806 11.8731 340.635 11.2571C340.49 10.6706 340.243 10.1143 339.904 9.61371C339.579 9.15137 339.153 8.76943 338.658 8.49714C338.17 8.21486 337.598 8.07429 336.938 8.07429C336.28 8.07429 335.706 8.21486 335.218 8.49714C334.732 8.77051 334.315 9.15264 334 9.61371C333.654 10.1116 333.401 10.6685 333.255 11.2571C333.09 11.8896 333.009 12.5408 333.011 13.1943V13.4766ZM356.191 6.12229C356.627 6.12229 357.081 6.15314 357.551 6.21257C358.031 6.272 358.39 6.35428 358.63 6.456L358.309 8.77943C357.847 8.67657 357.406 8.60457 356.986 8.56228C356.575 8.50971 356.144 8.48457 355.69 8.48457C355.107 8.48457 354.582 8.55657 354.112 8.70171C353.641 8.83886 353.231 9.04457 352.88 9.31886C352.556 9.56673 352.274 9.86591 352.046 10.2046C351.814 10.5474 351.622 10.9314 351.467 11.3589V20.2674H349.08V6.38057H351.339L351.442 8.24114L351.454 8.58857C351.992 7.84992 352.684 7.23663 353.482 6.79086C354.279 6.34628 355.182 6.12229 356.191 6.12229ZM379.782 25.8754C379.559 25.8754 379.298 25.8503 378.999 25.7989C378.698 25.7474 378.473 25.704 378.318 25.6697L378.703 23.7326C378.917 23.7497 379.126 23.7623 379.331 23.7703C379.546 23.7874 379.713 23.7966 379.833 23.7966C380.158 23.7966 380.453 23.7063 380.718 23.5269C380.992 23.3474 381.235 23.1337 381.449 22.8846C381.655 22.6366 381.831 22.3806 381.976 22.1154C382.13 21.8491 382.25 21.632 382.335 21.4606L383.286 19.6126L377.304 6.37943H379.961L383.773 15.3383L384.39 17.0194L385.043 15.3897L388.624 6.37943H391.281L384.235 22.4103C384.053 22.8057 383.843 23.1876 383.607 23.5531C383.352 23.9626 383.046 24.3375 382.695 24.6686C382.335 25.0114 381.917 25.2971 381.438 25.5291C380.958 25.76 380.407 25.8754 379.782 25.8754ZM393.784 13.1943C393.784 12.1931 393.929 11.2651 394.221 10.4091C394.489 9.58551 394.916 8.82251 395.478 8.16343C396.02 7.52804 396.695 7.01964 397.455 6.67428C398.233 6.30628 399.111 6.12229 400.086 6.12229C401.07 6.12229 401.951 6.30628 402.73 6.67428C403.498 7.01923 404.181 7.52741 404.733 8.16343C405.288 8.82533 405.71 9.58773 405.977 10.4091C406.275 11.3072 406.422 12.2482 406.414 13.1943V13.4766C406.414 14.4777 406.269 15.4069 405.977 16.2617C405.708 17.079 405.285 17.8373 404.731 18.496C404.183 19.1293 403.505 19.6368 402.743 19.984C401.965 20.344 401.087 20.5234 400.112 20.5234C399.128 20.5234 398.242 20.344 397.455 19.984C396.695 19.639 396.02 19.131 395.478 18.496C394.918 17.84 394.491 17.0811 394.221 16.2617C393.923 15.3637 393.775 14.4226 393.784 13.4766V13.1943ZM396.159 13.4766C396.159 14.1623 396.239 14.816 396.402 15.4411C396.565 16.0571 396.814 16.6 397.146 17.0709C397.464 17.5346 397.887 17.9171 398.379 18.1874C398.875 18.4617 399.454 18.5989 400.112 18.5989C400.762 18.5989 401.331 18.4617 401.818 18.1874C402.315 17.9131 402.73 17.5417 403.064 17.0709C403.389 16.6 403.633 16.0571 403.795 15.4411C403.958 14.816 404.039 14.1611 404.039 13.4766V13.1943C404.039 12.5189 403.953 11.8731 403.783 11.2571C403.638 10.6706 403.39 10.1143 403.051 9.61371C402.727 9.15137 402.301 8.76943 401.806 8.49714C401.318 8.21486 400.745 8.07429 400.086 8.07429C399.427 8.07429 398.854 8.21486 398.366 8.49714C397.879 8.77036 397.461 9.15251 397.146 9.61371C396.8 10.1116 396.548 10.6686 396.402 11.2571C396.238 11.8896 396.156 12.5408 396.159 13.1943V13.4766ZM419.39 20.2674L419.248 18.3554C418.807 19.0208 418.213 19.571 417.515 19.96C416.823 20.3371 416.023 20.5246 415.115 20.5246C414.389 20.5246 413.729 20.4137 413.138 20.1909C412.554 19.9643 412.035 19.5987 411.624 19.1257C411.206 18.6457 410.88 18.0389 410.649 17.3029C410.426 16.5589 410.315 15.6686 410.315 14.6331V6.38057H412.69V14.6583C412.69 15.4114 412.75 16.0354 412.87 16.5326C412.99 17.0286 413.169 17.4217 413.408 17.7131C413.648 18.0126 413.939 18.2217 414.281 18.3417C414.671 18.4674 415.079 18.528 415.488 18.5211C416.018 18.5211 416.494 18.4617 416.912 18.3417C417.331 18.2137 417.695 18.0377 418.003 17.816C418.261 17.6354 418.483 17.4217 418.671 17.1737C418.867 16.9166 419.03 16.6389 419.159 16.3394V6.37943H421.546V20.2663L419.39 20.2674ZM435.125 6.12343C435.561 6.12343 436.015 6.15429 436.485 6.21371C436.965 6.27314 437.325 6.35543 437.563 6.45714L437.243 8.78057C436.781 8.67771 436.341 8.60571 435.921 8.56343C435.51 8.51086 435.078 8.48571 434.624 8.48571C434.042 8.48571 433.515 8.55771 433.046 8.70286C432.575 8.84 432.165 9.04571 431.814 9.32C431.489 9.56788 431.207 9.86705 430.979 10.2057C430.749 10.5486 430.557 10.9326 430.402 11.36V20.2674H428.014V6.38057H430.273L430.376 8.24114L430.389 8.58857C430.927 7.84992 431.619 7.23663 432.417 6.79086C433.213 6.34628 434.115 6.12343 435.126 6.12343H435.125ZM457.599 20.2674V6.38057H459.729L459.896 8.43428C460.102 8.14286 460.325 7.87771 460.563 7.63886C461.153 7.04559 461.88 6.60876 462.681 6.368C463.18 6.21195 463.699 6.12956 464.222 6.12343C464.893 6.11467 465.562 6.21898 466.199 6.432C466.797 6.63771 467.306 6.95771 467.726 7.39428C468.145 7.83085 468.465 8.38743 468.688 9.06286C468.919 9.73029 469.034 10.5257 469.034 11.4503V20.2674H466.661V11.5017C466.661 10.8846 466.592 10.3634 466.455 9.936C466.318 9.50743 466.117 9.16114 465.851 8.896C465.577 8.63086 465.245 8.43886 464.85 8.31886C464.417 8.19241 463.967 8.13193 463.515 8.13943C463.079 8.13943 462.673 8.20343 462.296 8.33143C461.927 8.44747 461.577 8.61606 461.256 8.832C460.995 9.02486 460.754 9.24432 460.538 9.48686C460.321 9.73974 460.132 10.0152 459.974 10.3086V20.2674H457.599ZM479.521 20.5246C478.545 20.5246 477.647 20.3577 476.825 20.024C476.013 19.6903 475.315 19.224 474.734 18.6251C474.143 18.0125 473.681 17.2883 473.374 16.4949C473.042 15.6396 472.876 14.7289 472.885 13.8114V13.2731C472.885 12.152 473.065 11.1509 473.424 10.2697C473.784 9.37943 474.263 8.62629 474.862 8.01029C475.434 7.41529 476.119 6.93982 476.877 6.61143C477.614 6.29123 478.409 6.12516 479.213 6.12343C480.214 6.12343 481.087 6.29943 481.831 6.64914C482.558 6.97173 483.2 7.45975 483.705 8.07429C484.201 8.69143 484.569 9.41372 484.809 10.2434C485.064 11.1192 485.189 12.0275 485.181 12.9394V14.0046H475.259V14.0949C475.305 14.7053 475.439 15.3059 475.657 15.8777C475.871 16.392 476.162 16.8457 476.53 17.2389C476.907 17.6583 477.36 17.9874 477.89 18.2274C478.421 18.4674 479.007 18.5863 479.649 18.5863C480.496 18.5863 481.249 18.4149 481.907 18.0731C482.567 17.7303 483.114 17.2777 483.551 16.7131L485.001 17.8423C484.539 18.544 483.847 19.168 482.921 19.7166C482.007 20.2549 480.873 20.5246 479.521 20.5246ZM479.213 8.07429C478.733 8.07429 478.28 8.16457 477.853 8.344C477.421 8.51754 477.028 8.7751 476.697 9.10171C476.354 9.44457 476.064 9.86286 475.824 10.3589C475.578 10.8965 475.414 11.4677 475.336 12.0537H482.807V11.9383C482.807 11.5097 482.725 11.0526 482.562 10.5646C482.4 10.0686 482.174 9.64114 481.882 9.28114C481.582 8.91384 481.205 8.61597 480.778 8.408C480.342 8.18629 479.821 8.07429 479.213 8.07429ZM495.307 20.5246C494.333 20.5246 493.433 20.3577 492.613 20.024C491.799 19.6903 491.102 19.224 490.521 18.6251C489.93 18.0126 489.468 17.2884 489.16 16.4949C488.828 15.6395 488.663 14.7288 488.672 13.8114V13.2731C488.672 12.152 488.851 11.1509 489.211 10.2697C489.57 9.37943 490.049 8.62629 490.648 8.01029C491.221 7.41517 491.906 6.93969 492.664 6.61143C493.401 6.29123 494.196 6.12516 495 6.12343C496 6.12343 496.874 6.29943 497.617 6.64914C498.344 6.97173 498.986 7.45975 499.491 8.07429C499.987 8.69143 500.355 9.41372 500.595 10.2434C500.85 11.1192 500.976 12.0274 500.968 12.9394V14.0046H491.047V14.0949C491.092 14.7053 491.226 15.3059 491.445 15.8777C491.658 16.392 491.949 16.8457 492.317 17.2389C492.694 17.6583 493.147 17.9874 493.677 18.2274C494.208 18.4674 494.794 18.5863 495.437 18.5863C496.282 18.5863 497.037 18.4149 497.695 18.0731C498.353 17.7303 498.902 17.2777 499.337 16.7131L500.789 17.8423C500.326 18.544 499.633 19.168 498.709 19.7166C497.793 20.2549 496.659 20.5246 495.307 20.5246ZM494.999 8.07429C494.52 8.07429 494.066 8.16457 493.639 8.344C493.208 8.51768 492.815 8.77523 492.485 9.10171C492.142 9.44457 491.85 9.86286 491.611 10.3589C491.366 10.8965 491.201 11.4677 491.123 12.0537H498.593V11.9383C498.593 11.5097 498.512 11.0526 498.35 10.5646C498.186 10.0686 497.96 9.64114 497.669 9.28114C497.368 8.91397 496.992 8.61611 496.566 8.408C496.129 8.18629 495.607 8.07429 495 8.07429H494.999ZM504.51 13.2091C504.51 12.1737 504.639 11.224 504.895 10.3589C505.16 9.48686 505.537 8.73829 506.024 8.11314C506.504 7.48914 507.086 7.00114 507.77 6.65029C508.455 6.29943 509.221 6.12457 510.067 6.12457C510.897 6.12457 511.621 6.26514 512.237 6.54743C512.861 6.82098 513.414 7.23381 513.854 7.75429V0.554285H516.229V20.2674H514.046L513.943 18.8046C513.499 19.355 512.932 19.7941 512.288 20.0869C511.646 20.3783 510.897 20.5234 510.042 20.5234C509.203 20.5234 508.442 20.344 507.757 19.984C507.077 19.6212 506.486 19.1132 506.025 18.496C505.526 17.8221 505.148 17.0659 504.909 16.2617C504.638 15.3584 504.504 14.4196 504.511 13.4766V13.208L504.51 13.2091ZM506.885 13.4777C506.885 14.1543 506.958 14.7954 507.102 15.4034C507.248 16.0114 507.475 16.5463 507.783 17.008C508.074 17.4626 508.47 17.8411 508.937 18.112C509.409 18.3771 509.974 18.5097 510.632 18.5097C511.429 18.5097 512.087 18.3303 512.609 17.9703C513.13 17.6114 513.546 17.128 513.855 16.52V10.0766C513.546 9.512 513.13 9.05029 512.609 8.69028C512.087 8.32343 511.437 8.13943 510.658 8.13943C509.991 8.13943 509.417 8.27657 508.938 8.54972C508.471 8.82066 508.076 9.19913 507.784 9.65371C507.464 10.153 507.233 10.7046 507.103 11.2834C506.955 11.9145 506.881 12.5609 506.885 13.2091V13.4777ZM529.975 16.584C529.975 16.3017 529.918 16.0491 529.808 15.8274C529.676 15.5732 529.481 15.3568 529.242 15.1989C528.977 15.0103 528.626 14.8389 528.191 14.6846C527.66 14.4962 527.114 14.3502 526.56 14.248C525.82 14.1009 525.091 13.9038 524.378 13.6583C523.787 13.457 523.226 13.1763 522.71 12.824C522.239 12.5074 521.875 12.1349 521.619 11.7074C521.362 11.2709 521.234 10.7657 521.234 10.192C521.234 9.62743 521.367 9.10171 521.632 8.61486C521.897 8.11771 522.27 7.68571 522.749 7.31771C523.229 6.94971 523.797 6.65829 524.455 6.44457C525.122 6.23086 525.855 6.12457 526.649 6.12457C527.506 6.12457 528.275 6.23543 528.96 6.45714C529.595 6.65305 530.187 6.9667 530.706 7.38172C531.185 7.77486 531.552 8.23771 531.809 8.768C532.075 9.29029 532.208 9.85371 532.208 10.4617H529.833C529.833 10.1623 529.757 9.872 529.602 9.58971C529.448 9.29828 529.234 9.04114 528.96 8.81943C528.66 8.5827 528.321 8.40014 527.959 8.28C527.574 8.14286 527.138 8.07429 526.65 8.07429C526.2 8.06727 525.75 8.12344 525.315 8.24114C524.979 8.33308 524.661 8.48524 524.378 8.69028C524.138 8.86062 523.94 9.08487 523.801 9.34514C523.675 9.58245 523.609 9.84681 523.608 10.1154C523.608 10.3897 523.659 10.6331 523.762 10.8469C523.865 11.0606 524.045 11.2537 524.302 11.4251C524.55 11.5966 524.883 11.7497 525.303 11.8869C525.73 12.024 526.27 12.1566 526.92 12.2846C527.775 12.464 528.541 12.6731 529.217 12.9131C529.893 13.144 530.463 13.4229 530.925 13.7474C531.386 14.0811 531.736 14.4674 531.976 14.9029C532.225 15.3394 532.349 15.8446 532.349 16.4171C532.349 17.0343 532.208 17.5943 531.926 18.0983C531.644 18.6126 531.249 19.0562 530.77 19.3954C530.229 19.776 529.625 20.0584 528.986 20.2297C528.246 20.4326 527.482 20.5319 526.714 20.5246C525.773 20.5246 524.935 20.4 524.199 20.152C523.463 19.896 522.842 19.5577 522.337 19.1383C521.824 18.7269 521.431 18.248 521.157 17.7006C520.891 17.1531 520.759 16.584 520.759 15.9943H523.134C523.168 16.4811 523.296 16.8926 523.519 17.2263C523.75 17.56 524.037 17.8297 524.378 18.0343C524.712 18.24 525.085 18.3851 525.495 18.4709C525.896 18.5553 526.305 18.5982 526.714 18.5989C527.347 18.5989 527.899 18.5269 528.37 18.3817C528.84 18.2274 529.208 18.0171 529.474 17.7531C529.637 17.5897 529.76 17.4103 529.846 17.2137C529.931 17.016 529.975 16.8069 529.975 16.5851V16.584ZM540.665 18.728C540.665 18.2229 540.819 17.7909 541.128 17.4309C541.437 17.072 541.902 16.8926 542.527 16.8926C543.143 16.8926 543.609 17.072 543.926 17.4309C544.251 17.7817 544.414 18.2137 544.414 18.728C544.414 19.232 544.251 19.656 543.926 19.9989C543.601 20.3406 543.135 20.512 542.527 20.512C541.91 20.512 541.445 20.3406 541.128 19.9977C540.819 19.648 540.666 19.224 540.666 18.728H540.665Z" fill="black"/>
</svg>
