<svg width="99" height="16" viewBox="0 0 99 16" fill="none" xmlns="http://www.w3.org/2000/svg">
<path d="M0 8.49831V7.59431C0 5.33716 0.565714 3.58288 1.69829 2.33031C2.82971 1.07202 4.29943 0.442307 6.10743 0.442307C7.74171 0.442307 9.02057 0.881165 9.944 1.75774C10.8686 2.63545 11.3806 3.68002 11.4811 4.89145L11.4914 5.01259H9.63314V4.90174C9.63314 4.19888 9.32457 3.54631 8.70857 2.94288C8.09257 2.33374 7.21943 2.02859 6.08686 2.02859C4.81486 2.02859 3.79429 2.52116 3.024 3.50631C2.26057 4.48916 1.87886 5.85259 1.87886 7.59431V8.49716C1.87886 10.2389 2.264 11.6023 3.03314 12.5863C3.80343 13.5703 4.88914 14.0629 6.288 14.0629C7.01828 14.0629 7.648 13.9852 8.176 13.832C8.71951 13.6744 9.23259 13.4264 9.69371 13.0983V9.61259H6.08686V8.07659H11.4914V13.7715C11.056 14.2206 10.3931 14.6457 9.50286 15.0469C8.61828 15.4492 7.54743 15.6503 6.288 15.6503C4.36686 15.6503 2.83657 15.024 1.69829 13.7715C0.566857 12.512 0 10.7543 0 8.49831ZM13.5806 10.296V9.97488C13.5806 8.40116 14.0091 7.11545 14.8663 6.11774C15.7303 5.12002 16.8686 4.62059 18.2811 4.62059C19.7006 4.62059 20.7897 5.08574 21.5463 6.01716C22.3097 6.94745 22.6914 8.21031 22.6914 9.80345V10.5372H14.6754V9.09031H20.8926V8.86974C20.8926 8.10631 20.6754 7.45259 20.2411 6.91088C19.8114 6.36802 19.1851 6.09716 18.3623 6.09716C17.3771 6.09716 16.6411 6.47202 16.152 7.22174C15.6629 7.96459 15.4183 8.88345 15.4183 9.97488V10.296C15.4183 11.3875 15.6766 12.3075 16.192 13.0583C16.7074 13.8012 17.5017 14.1737 18.5726 14.1737C19.2354 14.1737 19.8046 14.0297 20.28 13.7417C20.7623 13.4469 21.1543 13.0983 21.456 12.6972L22.6103 13.6309C22.2903 14.1269 21.784 14.5886 21.0937 15.0172C20.4046 15.4389 19.5634 15.6503 18.5726 15.6503C16.9657 15.6503 15.7303 15.1543 14.8663 14.1635C14.0091 13.1657 13.5806 11.8766 13.5806 10.296ZM23.4846 6.29831V4.91202H29.4206V6.29831H23.4846ZM25.3531 12.7566V2.22059H27.1509V12.7577C27.1509 13.2457 27.2446 13.5943 27.432 13.8012C27.6194 14.0023 27.9177 14.1029 28.3257 14.1029C28.5074 14.1029 28.688 14.0823 28.8686 14.0423C29.0491 14.0023 29.2297 13.9486 29.4114 13.8823V15.3589C29.1996 15.4527 28.9769 15.5199 28.7486 15.5589C28.4545 15.6215 28.1544 15.6522 27.8537 15.6503C27.0903 15.6503 26.4823 15.4183 26.0251 14.9566C25.5771 14.4949 25.3531 13.7612 25.3531 12.7566ZM35.6994 11.3703V11.2H37.5566V11.3715C37.5566 12.2686 37.8514 12.9406 38.4411 13.3897C39.0366 13.8389 39.8674 14.0629 40.9326 14.0629C41.9966 14.0629 42.8103 13.8343 43.3726 13.3795C43.9417 12.9177 44.2263 12.312 44.2263 11.5623C44.2263 10.8789 43.9554 10.336 43.4137 9.93488C42.8709 9.52574 41.8423 9.09716 40.3291 8.64916C38.7634 8.18059 37.648 7.64116 36.9851 7.03202C36.328 6.41488 36 5.53488 36 4.38974C36 3.25831 36.4251 2.31774 37.2754 1.56688C38.1326 0.817164 39.3189 0.442307 40.832 0.442307C42.3451 0.442307 43.5463 0.836593 44.4377 1.62745C45.3349 2.41145 45.784 3.41831 45.784 4.65145V4.81145H43.9257V4.65145C43.9257 3.86059 43.664 3.22745 43.1417 2.75202C42.6263 2.26974 41.856 2.02974 40.832 2.02974C39.8069 2.02974 39.0503 2.23659 38.5611 2.65145C38.0731 3.06745 37.8286 3.62974 37.8286 4.33945C37.8286 4.98859 38.0766 5.50174 38.5714 5.87659C39.0743 6.25145 40.0949 6.66288 41.6343 7.11088C43.1817 7.56002 44.3074 8.11659 45.0103 8.77945C45.7131 9.44231 46.0651 10.3692 46.0651 11.5612C46.0651 12.7612 45.6034 13.7417 44.6789 14.5052C43.7543 15.2686 42.5063 15.6503 40.9326 15.6503C39.352 15.6503 38.0823 15.2686 37.1257 14.5052C36.1749 13.7417 35.6994 12.6972 35.6994 11.3703ZM46.8686 6.29831V4.91202H52.8046V6.29831H46.8686ZM48.7371 12.7566V2.22059H50.5349V12.7577C50.5349 13.2457 50.6286 13.5943 50.816 13.8012C51.0034 14.0023 51.3017 14.1029 51.7097 14.1029C51.8903 14.1029 52.072 14.0823 52.2526 14.0423C52.4331 14.0023 52.6137 13.9486 52.7954 13.8823V15.3589C52.5836 15.4527 52.3609 15.5199 52.1326 15.5589C51.8385 15.6215 51.5384 15.6522 51.2377 15.6503C50.4743 15.6503 49.8651 15.4183 49.4091 14.9566C48.9611 14.4949 48.7371 13.7612 48.7371 12.7566ZM54.152 12.2949C54.152 11.2366 54.5703 10.4126 55.408 9.82402C56.2446 9.23431 57.3131 8.93945 58.6114 8.93945H60.9829V8.19659C60.9829 7.56002 60.8183 7.04802 60.4903 6.65945C60.1623 6.26517 59.5989 6.06745 58.8023 6.06745C58.0057 6.06745 57.4309 6.23088 57.0754 6.55888C56.9102 6.70242 56.778 6.88 56.6878 7.07944C56.5977 7.27887 56.5517 7.49545 56.5531 7.71431V7.77488H54.7646V7.70402C54.7646 6.87431 55.1303 6.15431 55.8594 5.54402C56.5966 4.92916 57.5909 4.62059 58.8423 4.62059C60.0949 4.62059 61.0629 4.91774 61.7451 5.51431C62.4354 6.11088 62.7806 7.00459 62.7806 8.19659V12.9475C62.7806 13.3829 62.8149 13.7943 62.8811 14.1829C62.9474 14.5646 63.0411 14.9029 63.1623 15.1977V15.3577H61.4251C61.3146 15.1506 61.2264 14.9322 61.1623 14.7063C61.0899 14.4433 61.0432 14.1738 61.0229 13.9017C60.7817 14.3372 60.3863 14.7223 59.8377 15.0572C59.2891 15.3852 58.5817 15.5486 57.7177 15.5486C56.72 15.5486 55.8766 15.2709 55.1863 14.7155C54.4971 14.1532 54.152 13.3463 54.152 12.2949ZM55.9497 12.1943C55.9497 12.7966 56.1246 13.2686 56.472 13.6115C56.8263 13.9452 57.3691 14.1132 58.0994 14.1132C58.8297 14.1132 59.4926 13.8617 60.088 13.3589C60.6846 12.8503 60.9829 12.3075 60.9829 11.7326V10.2252H58.8126C57.8686 10.2252 57.1554 10.4035 56.6731 10.7577C56.4428 10.9183 56.256 11.1337 56.1297 11.3845C56.0034 11.6353 55.9416 11.9136 55.9497 12.1943ZM65.6434 15.3589V4.91202H67.2709L67.3509 6.26859H67.4011C67.6686 5.82631 68.0206 5.44116 68.456 5.11316C68.8903 4.78516 69.4103 4.62174 70.0126 4.62174C70.16 4.62174 70.3143 4.63774 70.4743 4.67088C70.6343 4.70516 70.7486 4.73488 70.8171 4.76231V6.42745C70.6823 6.40117 70.5417 6.38174 70.3943 6.36688C70.2469 6.34745 70.0857 6.33716 69.912 6.33716C69.3166 6.33716 68.8069 6.49488 68.3851 6.80917C67.9713 7.11388 67.6456 7.5228 67.4411 7.99431V15.3577L65.6434 15.3589ZM71.6 6.29831V4.91202H77.536V6.29831H71.6ZM73.4663 12.7566V2.22059H75.2651V12.7577C75.2651 13.2457 75.3589 13.5943 75.5463 13.8012C75.7337 14.0023 76.032 14.1029 76.44 14.1029C76.6206 14.1029 76.8011 14.0823 76.9829 14.0423C77.1634 14.0023 77.344 13.9486 77.5246 13.8823V15.3589C77.3127 15.4527 77.0901 15.5199 76.8617 15.5589C76.568 15.6215 76.2683 15.6521 75.968 15.6503C75.2046 15.6503 74.5954 15.4183 74.1394 14.9566C73.6914 14.4949 73.4663 13.7612 73.4663 12.7566ZM78.8297 10.296V9.97488C78.8297 8.40116 79.2594 7.11545 80.1166 6.11774C80.9806 5.12002 82.1189 4.62059 83.5314 4.62059C84.9509 4.62059 86.0389 5.08574 86.7954 6.01716C87.5589 6.94745 87.9406 8.21031 87.9406 9.80345V10.5372H79.9257V9.09031H86.1429V8.86974C86.1429 8.10631 85.9257 7.45259 85.4903 6.91088C85.0617 6.36802 84.4354 6.09716 83.6114 6.09716C82.6274 6.09716 81.8903 6.47202 81.4023 7.22174C80.9132 7.96459 80.6686 8.88345 80.6686 9.97488V10.296C80.6686 11.3875 80.9269 12.3075 81.4423 13.0583C81.9577 13.8012 82.7509 14.1737 83.8229 14.1737C84.4857 14.1737 85.0549 14.0297 85.5303 13.7417C86.0126 13.4469 86.4046 13.0983 86.7052 12.6972L87.8606 13.6309C87.5394 14.1269 87.0331 14.5886 86.344 15.0172C85.6537 15.4389 84.8137 15.6503 83.8229 15.6503C82.216 15.6503 80.9806 15.1543 80.1166 14.1635C79.2594 13.1657 78.8309 11.8766 78.8309 10.296H78.8297ZM89.5577 10.296V9.97488C89.5577 8.45488 89.9531 7.19888 90.744 6.20802C91.5406 5.21031 92.5989 4.71088 93.9177 4.71088C94.6537 4.71088 95.2777 4.84116 95.7863 5.10288C96.2776 5.34391 96.7016 5.70276 97.0206 6.14745V2.09808e-05H98.8194V15.3589H97.192L97.112 13.9829H97.0617C96.7943 14.4172 96.3851 14.7897 95.8366 15.0972C95.288 15.4057 94.648 15.5589 93.9166 15.5589C92.5909 15.5589 91.5337 15.064 90.744 14.0732C89.9531 13.0755 89.5577 11.816 89.5577 10.296ZM91.3966 10.296C91.3966 11.3669 91.6309 12.2686 92.0994 12.9977C92.568 13.7212 93.3051 14.0835 94.3097 14.0835C94.9726 14.0835 95.5383 13.8983 96.0069 13.5303C96.4754 13.1623 96.8137 12.744 97.0217 12.2743V7.98516C96.8137 7.51659 96.4754 7.10174 96.0069 6.73945C95.5383 6.37831 94.9726 6.19774 94.3097 6.19774C93.304 6.19774 92.568 6.55888 92.0994 7.28345C91.6309 8.00574 91.3966 8.90288 91.3966 9.97488V10.296Z" fill="white"/>
</svg>
