<svg width="81" height="20" viewBox="0 0 81 20" fill="none" xmlns="http://www.w3.org/2000/svg">
<path d="M11.3993 12.1829V8.33951C11.3993 7.8138 11.3048 7.3178 11.1157 6.8538C10.9349 6.37951 10.6849 5.96923 10.3644 5.62066C10.0403 5.26946 9.6553 4.99171 9.23177 4.80352C8.80413 4.5978 8.34918 4.49494 7.86481 4.49494C7.38044 4.49494 6.92024 4.5978 6.48525 4.80352C6.06664 4.99416 5.6862 5.27171 5.36521 5.62066C5.04111 5.97495 4.78188 6.39304 4.60136 6.85266C4.41989 7.32333 4.32803 7.82914 4.33133 8.33951V12.1829H11.3993ZM14.9328 19.8572H11.3983V16.0138H4.33133V19.8572H0.80835V8.33951C0.80835 7.27666 0.993272 6.28237 1.36207 5.35323C1.73191 4.41609 2.23309 3.59894 2.86456 2.9018C3.50548 2.2058 4.25148 1.65609 5.10569 1.25494C5.96726 0.852657 6.88662 0.652657 7.86376 0.652657C8.84091 0.652657 9.75501 0.852657 10.6092 1.25494C11.4507 1.64146 12.2159 2.20059 12.863 2.9018C13.5076 3.60566 14.0217 4.43795 14.377 5.35323C14.749 6.29646 14.9375 7.3132 14.9307 8.33951V19.8572H14.9328ZM21.5322 19.8572H17.9977V0.652657H21.5322V19.8572ZM35.4214 19.8572H31.8868V0.652657H35.4203V8.33951H42.4757V0.652657H46.0103V19.8572H42.4757V12.1829H35.4203L35.4214 19.8572ZM63.2227 12.1829C63.2227 13.2458 63.0389 14.2458 62.669 15.1829C62.3114 16.0928 61.7976 16.9202 61.155 17.6207C60.5052 18.3152 59.7405 18.8697 58.9012 19.2549C58.0341 19.6595 57.0993 19.8646 56.1558 19.8572C55.1786 19.8572 54.2593 19.6572 53.3977 19.2549C52.5633 18.8673 51.8032 18.313 51.1566 17.6207C50.5201 16.9173 50.0105 16.0905 49.6541 15.1829C49.2828 14.2347 49.0944 13.2136 49.1004 12.1829V0.651514H52.6223V12.1829C52.6223 12.7098 52.7127 13.2058 52.8923 13.6698C53.0814 14.1349 53.3357 14.5407 53.6562 14.8892C53.9766 15.2367 54.3496 15.5144 54.7762 15.7189C55.2135 15.916 55.6825 16.0162 56.1558 16.0138C56.6391 16.0138 57.0951 15.9155 57.5217 15.7189C57.9577 15.5132 58.3349 15.2367 58.6554 14.8892C58.9748 14.5407 59.2259 14.1349 59.4066 13.6698C59.5957 13.2058 59.6903 12.7098 59.6903 12.1841V0.651514H63.2227V12.1829ZM80.4121 14.0984C80.4121 14.8938 80.2724 15.6389 79.9929 16.3349C79.4483 17.7122 78.439 18.81 77.1728 19.4024C76.5242 19.7075 75.8243 19.8624 75.1177 19.8572H66.2876V0.652657H75.1166C75.8468 0.652657 76.5319 0.803514 77.1728 1.10752C77.7998 1.40115 78.3686 1.82419 78.8476 2.35323C79.3309 2.87094 79.7134 3.4778 79.9929 4.17494C80.2713 4.87094 80.4111 5.61609 80.4111 6.41152C80.4111 6.76809 80.3659 7.13494 80.2745 7.50866C80.1844 7.88456 80.0569 8.24862 79.8941 8.59437C79.7336 8.93653 79.5349 9.25589 79.3026 9.54523C79.0824 9.82202 78.8253 10.0613 78.5398 10.2549C78.8266 10.4241 79.0861 10.6572 79.3152 10.9521C79.7845 11.5395 80.1142 12.2431 80.2755 13.0012C80.3659 13.3749 80.4121 13.7418 80.4121 14.0984ZM69.8232 16.0138H75.1177C75.4642 16.0162 75.8036 15.9067 76.093 15.6992C76.3823 15.4917 76.6086 15.1955 76.7431 14.8481C76.8334 14.6161 76.8786 14.3669 76.8786 14.0984C76.8786 13.8309 76.8334 13.5807 76.742 13.3487C76.6547 13.1213 76.5248 12.9162 76.3606 12.7464C76.2046 12.5674 76.016 12.4257 75.8069 12.3304C75.5887 12.2311 75.3542 12.181 75.1177 12.1829H69.8222L69.8232 16.0138ZM69.8232 8.33951H75.1177C75.4642 8.34193 75.8036 8.23245 76.093 8.02494C76.3823 7.81744 76.6086 7.52122 76.7431 7.1738C76.8334 6.9338 76.8786 6.67894 76.8786 6.41152C76.8786 6.14294 76.8334 5.8938 76.742 5.66066C76.6547 5.43329 76.5248 5.22818 76.3606 5.05837C76.2045 4.8798 76.0159 4.73852 75.8069 4.64351C75.5887 4.54386 75.3543 4.49332 75.1177 4.49494H69.8222V8.34066L69.8232 8.33951Z" fill="black"/>
</svg>
