<svg width="83" height="90" viewBox="0 0 83 90" fill="none" xmlns="http://www.w3.org/2000/svg">
<path d="M78.2254 45.2035C78.2254 67.5164 61.6308 85.6042 41.1598 85.6042V89.8569C63.7854 89.8569 82.1271 69.865 82.1271 45.2035H78.2254ZM41.1598 85.6042C20.6889 85.6042 4.09427 67.5164 4.09427 45.2035H0.192627C0.192627 69.865 18.5342 89.8569 41.1598 89.8569V85.6042ZM4.09427 45.2035C4.09427 22.8907 20.6889 4.80287 41.1598 4.80287V0.550163C18.5342 0.550163 0.192627 20.5421 0.192627 45.2035H4.09427ZM41.1598 4.80287C61.6308 4.80287 78.2254 22.8907 78.2254 45.2035H82.1271C82.1271 20.5421 63.7854 0.550163 41.1598 0.550163V4.80287Z" fill="white"/>
</svg>
