<svg width="97" height="97" viewBox="0 0 97 97" fill="none" xmlns="http://www.w3.org/2000/svg">
<path d="M91.8573 48.5713C91.8573 72.5564 72.4139 91.9999 48.4287 91.9999V96.5713C74.9384 96.5713 96.4287 75.081 96.4287 48.5713H91.8573ZM48.4287 91.9999C24.4436 91.9999 5.00014 72.5564 5.00014 48.5713H0.428711C0.428711 75.081 21.919 96.5713 48.4287 96.5713V91.9999ZM5.00014 48.5713C5.00014 24.5861 24.4436 5.14272 48.4287 5.14272V0.571281C21.919 0.571281 0.428711 22.0616 0.428711 48.5713H5.00014ZM48.4287 5.14272C72.4139 5.14272 91.8573 24.5861 91.8573 48.5713H96.4287C96.4287 22.0616 74.9384 0.571281 48.4287 0.571281V5.14272Z" fill="black"/>
</svg>
