<svg width="71" height="18" viewBox="0 0 71 18" fill="none" xmlns="http://www.w3.org/2000/svg">
<path d="M7.94858 8.10536H2.90858V11.9145H8.79429V13.5716H0.892578V1.38421H8.75201V3.04936H2.90972V6.48136H7.94972L7.94858 8.10536ZM11.1291 13.5716V4.5145H12.9371L13.0629 5.80364C13.3046 5.46323 13.6021 5.1661 13.9429 4.92479C14.4967 4.54487 15.1535 4.34347 15.8251 4.34764C16.2574 4.34246 16.6874 4.41007 17.0971 4.54764C17.4737 4.67587 17.8132 4.89443 18.0857 5.18421C18.3589 5.4745 18.5714 5.84593 18.7211 6.29736C18.872 6.74307 18.9474 7.28479 18.9474 7.92136V13.5716H16.9474V7.9545C16.9474 7.58078 16.9051 7.26878 16.8217 7.01736C16.7515 6.78865 16.6245 6.58146 16.4526 6.41507C16.2869 6.26198 16.0859 6.15242 15.8674 6.09621C15.6389 6.02993 15.376 5.99564 15.08 5.99564C14.8343 5.99564 14.6057 6.02993 14.3943 6.09621C14.0265 6.20039 13.6957 6.40641 13.44 6.6905C13.3226 6.8193 13.2189 6.95985 13.1303 7.10993V13.5716H11.1291ZM21.1657 8.97621C21.1657 8.2905 21.2491 7.66421 21.4171 7.10193C21.5648 6.57184 21.8118 6.07463 22.1451 5.63678C22.4629 5.22878 22.8457 4.91336 23.2914 4.6905C23.744 4.46193 24.2514 4.34764 24.8149 4.34764C25.1497 4.34764 25.4549 4.38307 25.728 4.45621C26.1565 4.55882 26.553 4.76571 26.8823 5.0585C27.0119 5.17134 27.1323 5.2944 27.2423 5.4265L27.3269 4.5145H29.1429V13.3202C29.1429 13.9282 29.0423 14.4676 28.8411 14.9362C28.6571 15.3939 28.3741 15.8052 28.0126 16.1408C27.6332 16.4742 27.1888 16.7252 26.7074 16.8779C25.8981 17.1461 25.0343 17.2067 24.1954 17.0539C23.8814 16.996 23.5734 16.9092 23.2754 16.7945C22.9652 16.6758 22.6698 16.5212 22.3954 16.3339C22.119 16.1469 21.8757 15.9152 21.6754 15.6482L22.6217 14.4334C22.9189 14.7965 23.2938 15.0882 23.7189 15.2871C23.9132 15.3762 24.112 15.4414 24.3131 15.4802C24.5143 15.5248 24.7177 15.5465 24.9246 15.5465C25.2811 15.5465 25.5966 15.4962 25.8697 15.3968C26.1486 15.2962 26.3863 15.1511 26.5817 14.9614C26.76 14.7774 26.8971 14.5499 26.992 14.2825C27.0926 14.0151 27.1429 13.7111 27.1429 13.3705V12.7419C27.0267 12.8638 26.9035 12.9787 26.7737 13.0859C26.448 13.3546 26.0641 13.5436 25.6526 13.6379C25.3733 13.707 25.0865 13.7408 24.7989 13.7385C24.24 13.7385 23.7383 13.6242 23.2914 13.3956C22.8431 13.1593 22.4518 12.8278 22.1451 12.4242C21.8185 11.9889 21.572 11.499 21.4171 10.9774C21.2456 10.3847 21.1609 9.77031 21.1657 9.15336V8.97621ZM23.1749 9.15221C23.1749 9.55336 23.2137 9.93278 23.2914 10.2905C23.376 10.6471 23.5063 10.9568 23.6857 11.2196C23.8583 11.4928 24.0789 11.7076 24.3463 11.8642C24.6149 12.0151 24.9326 12.0894 25.3006 12.0894C25.5291 12.0894 25.736 12.0654 25.92 12.0151C26.1097 11.9648 26.28 11.8951 26.4309 11.8048C26.5817 11.7099 26.7154 11.5956 26.8331 11.4619C26.9497 11.3282 27.0526 11.1808 27.1417 11.0185V7.0505C27.0544 6.88579 26.9448 6.73388 26.816 6.59907C26.6915 6.46399 26.5474 6.34841 26.3886 6.25621C26.2354 6.1746 26.0726 6.1124 25.904 6.07107C25.713 6.01917 25.5157 5.99378 25.3177 5.99564C24.944 5.99564 24.6229 6.0745 24.3554 6.23107C24.0853 6.38876 23.8578 6.61003 23.6926 6.87564C23.5068 7.16777 23.374 7.49045 23.3006 7.82878C23.2147 8.20515 23.1725 8.59017 23.1749 8.97621V9.15221ZM32.1063 0.7145H36.9863V11.9145H39.7314V13.5716H32.1063V11.9145H34.9691V2.37964H32.1063V0.7145ZM42.4766 4.5145H47.2823V11.9145H49.944V13.5716H42.4766V11.9145H45.2651V6.18079H42.4766V4.5145ZM45.08 2.17164C45.0783 2.0193 45.107 1.86814 45.1646 1.72707C45.2176 1.59323 45.2988 1.47238 45.4027 1.37278C45.5067 1.27318 45.6309 1.19717 45.7669 1.14993C45.912 1.09278 46.0732 1.0665 46.2526 1.0665C46.5532 1.0665 46.7966 1.14421 46.9806 1.30079C47.0721 1.3709 47.1482 1.45897 47.2044 1.5596C47.2607 1.66022 47.2957 1.77127 47.3074 1.88593C47.351 2.10896 47.3059 2.34019 47.1817 2.5305C47.0535 2.71294 46.8621 2.84124 46.6446 2.8905C46.527 2.99667 46.3828 3.06895 46.2274 3.09964C46.0482 3.13219 45.8636 3.11802 45.6914 3.0585C45.5043 3.00694 45.3413 2.89124 45.2309 2.73164C45.1285 2.56303 45.0762 2.36883 45.08 2.17164ZM58.2309 11.1191C58.233 10.9723 58.1951 10.8276 58.1211 10.7008C58.0358 10.5584 57.9184 10.4379 57.7783 10.3488C57.6057 10.2482 57.3794 10.1545 57.1006 10.0642C56.7571 9.95917 56.4075 9.87521 56.0537 9.81278C55.5649 9.71668 55.0836 9.58529 54.6137 9.41964C54.1851 9.26307 53.8137 9.07336 53.5006 8.8505C53.2087 8.65423 52.9631 8.39685 52.7806 8.09621C52.6091 7.80707 52.5223 7.46993 52.5223 7.08478C52.5223 6.71564 52.608 6.36707 52.7817 6.03793C52.96 5.70307 53.2137 5.40936 53.5429 5.15907C53.8663 4.90764 54.2571 4.70993 54.7143 4.56479C55.1783 4.41964 55.6914 4.34764 56.2549 4.34764C56.8571 4.34764 57.3989 4.42307 57.8789 4.57279C58.3589 4.71793 58.7657 4.91907 59.1017 5.17621C59.4297 5.43221 59.6846 5.73621 59.8629 6.08821C60.0411 6.44021 60.1303 6.81964 60.1303 7.2265H58.1303C58.1308 7.06146 58.0937 6.89847 58.0217 6.74993C57.9524 6.59007 57.8495 6.44701 57.72 6.3305C57.5457 6.17504 57.3404 6.0582 57.1177 5.98764C56.8401 5.89322 56.5481 5.84798 56.2549 5.85393C55.9531 5.85393 55.6891 5.88821 55.4594 5.9545C55.2604 6.00448 55.0729 6.09258 54.9074 6.21393C54.7705 6.30514 54.6582 6.42881 54.5806 6.57393C54.509 6.7046 54.4717 6.85124 54.472 7.00021C54.472 7.15679 54.5029 7.29964 54.5634 7.42764C54.6392 7.56536 54.7526 7.67871 54.8903 7.7545C55.0354 7.85393 55.2366 7.9465 55.4937 8.02993C55.7566 8.11336 56.0846 8.18993 56.4811 8.25621C57.0331 8.35678 57.5383 8.47907 57.9966 8.62421C58.4096 8.74891 58.8037 8.92923 59.168 9.16021C59.4914 9.38307 59.7429 9.64593 59.9223 9.9465C60.0994 10.2482 60.1897 10.6059 60.1897 11.0185C60.1897 11.4208 60.0949 11.7888 59.904 12.1236C59.7116 12.4675 59.4425 12.7623 59.1177 12.9854C58.739 13.24 58.3202 13.4293 57.8789 13.5454C57.3576 13.6851 56.8197 13.7531 56.28 13.7476C55.6274 13.7476 55.0469 13.6608 54.5394 13.4882C54.0366 13.3145 53.616 13.0859 53.2754 12.8025C52.9453 12.5432 52.6764 12.2142 52.488 11.8391C52.3097 11.4756 52.2206 11.1076 52.2206 10.7339H54.1634C54.1716 10.9863 54.2465 11.232 54.3806 11.4459C54.5143 11.6356 54.6811 11.7888 54.8823 11.9054C55.0766 12.0288 55.3006 12.1179 55.552 12.1739C55.8026 12.2241 56.0576 12.2494 56.3131 12.2494C56.6594 12.2494 56.9611 12.2128 57.2171 12.1396C57.48 12.0676 57.6891 11.9705 57.8457 11.8471C57.9628 11.7596 58.0598 11.6482 58.1303 11.5202C58.1973 11.3972 58.2319 11.2592 58.2309 11.1191ZM64.6091 5.80364C64.7257 5.62536 64.8571 5.46079 65.0023 5.30993C65.1474 5.15907 65.3006 5.02764 65.4629 4.91679C65.7143 4.73279 65.9897 4.59221 66.2914 4.49736C66.5977 4.39793 66.9223 4.34764 67.2629 4.34764C67.7372 4.34764 68.1691 4.41621 68.56 4.55679C68.9554 4.69621 69.2937 4.91336 69.5726 5.20936C69.8514 5.50536 70.0663 5.88364 70.2171 6.34764C70.3737 6.80479 70.4514 7.3545 70.4514 7.99679V13.5716H68.4514V7.97964C68.4514 7.64478 68.4091 7.35221 68.3257 7.10079C68.2469 6.84936 68.1303 6.64593 67.9737 6.4905C67.8087 6.32076 67.6047 6.19402 67.3794 6.12136C67.1509 6.03793 66.8857 5.99564 66.584 5.99564C66.3497 5.99564 66.1269 6.02421 65.9143 6.08021C65.714 6.13328 65.5223 6.21488 65.3451 6.3225C65.1979 6.40789 65.0603 6.50906 64.9349 6.62421C64.8116 6.74233 64.7023 6.87425 64.6091 7.01736V13.5716H62.6091V0.7145H64.6091V5.80364Z" fill="white"/>
</svg>
