<svg width="560" height="190" viewBox="0 0 560 190" fill="none" xmlns="http://www.w3.org/2000/svg">
<path d="M10.8948 32.0914C9.76249 32.0914 8.67163 31.9543 7.6222 31.68C6.57277 31.4331 5.6338 31.1314 4.8053 30.7748C4.16078 30.4929 3.52529 30.191 2.89975 29.8697L2.19552 29.4583L2.36122 29.0468L2.8169 28.0594C2.9826 27.6754 3.12068 27.3463 3.23115 27.072L3.43827 26.6606L4.10107 27.0308C4.57056 27.2503 5.19193 27.5108 5.9652 27.8125C6.73847 28.0868 7.6222 28.3474 8.6164 28.5943C9.63679 28.8165 10.6786 28.9269 11.7233 28.9234C12.4137 28.9234 12.9522 28.8685 13.3388 28.7588C13.7531 28.6217 14.0431 28.4983 14.2088 28.3886C14.7611 28.0046 15.1892 27.4834 15.4929 26.8251C15.7967 26.1394 15.9486 25.2617 15.9486 24.192C15.9486 23.1497 15.7277 22.2857 15.2858 21.6C14.844 20.9143 14.2502 20.3383 13.5045 19.872C12.7865 19.4057 11.9994 18.9943 11.1433 18.6377C10.0387 18.1714 9.00303 17.7051 8.03645 17.2388C7.12072 16.8044 6.25884 16.266 5.4681 15.6343C4.71819 15.0253 4.12232 14.2503 3.72825 13.3714C3.314 12.4388 3.10687 11.2868 3.10687 9.91542C3.10687 8.48914 3.42447 7.2137 4.05965 6.08913C4.69483 4.93712 5.64761 4.03198 6.91797 3.3737C8.18834 2.68799 9.76249 2.34512 11.6404 2.34512C12.5518 2.34512 13.4079 2.39998 14.2088 2.50969C15.0097 2.59198 15.7277 2.68799 16.3629 2.7977C16.9981 2.90742 17.4952 3.01712 17.8542 3.12685L18.3927 3.25027L17.8127 6.21255L17.2328 6.13026C16.8462 6.04797 16.3214 5.95198 15.6586 5.84225C14.9958 5.73254 14.2502 5.65027 13.4217 5.59541C12.5932 5.51312 11.7509 5.47198 10.8948 5.47198C10.2044 5.47198 9.65202 5.51312 9.23777 5.59541C8.87057 5.66994 8.5198 5.8093 8.20215 6.00685C7.84313 6.19885 7.49792 6.59654 7.16652 7.19998C6.86274 7.77597 6.71085 8.57141 6.71085 9.58626C6.71085 10.7108 7.00082 11.6297 7.58077 12.3428C8.16072 13.056 8.92018 13.6457 9.85915 14.112C10.7981 14.5508 11.7923 14.9897 12.8417 15.4285C13.6796 15.7621 14.4958 16.1469 15.2858 16.5806C16.0737 16.9827 16.7991 17.4954 17.4399 18.1028C18.0751 18.7063 18.586 19.4743 18.9727 20.4068C19.3593 21.312 19.5526 22.4228 19.5526 23.7394C19.5526 25.4126 19.1798 26.88 18.4341 28.1417C17.7161 29.376 16.7081 30.3497 15.4101 31.0628C14.1121 31.7486 12.607 32.0914 10.8948 32.0914ZM32.3426 32.0914C31.1551 32.0914 30.1194 31.8994 29.2357 31.5154C28.352 31.104 27.6615 30.336 27.1644 29.2114C26.695 28.0594 26.4602 26.3588 26.4602 24.1097V11.6434H23.7262V9.50398L26.5845 8.92799L27.4958 3.33255H29.8985V8.96913H34.7038V11.7257H29.8973V24.3566C29.8973 25.8651 29.9388 26.9623 30.0216 27.648C30.1045 28.3337 30.3116 28.7726 30.643 28.9646C31.002 29.1291 31.5958 29.2114 32.4243 29.2114H33.5842C33.9156 29.184 34.1779 29.1703 34.3712 29.1703L34.6612 29.1291V31.8857L34.0398 31.968C33.6256 32.0503 33.0594 32.0914 32.3414 32.0914H32.3426ZM41.135 31.5154V7.57027H43.3305L43.7862 9.9977H44.0348L44.6561 9.54512C45.098 9.24341 45.6642 8.90056 46.3546 8.51656C47.045 8.13255 47.7768 7.78969 48.5501 7.48798C49.351 7.18626 50.0966 7.03542 50.787 7.03542C51.2013 7.03542 51.5879 7.07655 51.9469 7.15884L52.4855 7.24112L52.1955 10.5325L51.657 10.4914C51.298 10.464 50.9666 10.4503 50.6628 10.4503C49.8644 10.4537 49.0701 10.5645 48.3015 10.7794C47.5594 10.9869 46.8383 11.2624 46.1474 11.6023C45.4846 11.9314 44.9599 12.2468 44.5733 12.5486V31.5154H41.135ZM65.2812 32.0914C63.3756 32.0914 61.691 31.6937 60.2273 30.8983C58.7913 30.0754 57.6728 28.7451 56.8719 26.9074C56.071 25.0423 55.6706 22.5737 55.6706 19.5017C55.6706 16.2926 56.0848 13.7829 56.9133 11.9726C57.7695 10.1623 58.9156 8.88684 60.3516 8.14627C61.7877 7.37827 63.4033 6.99428 65.1983 6.99428C66.9934 6.99428 68.5123 7.35083 69.7551 8.06398C71.0255 8.77711 71.992 9.97026 72.6548 11.6434C73.3176 13.2891 73.649 15.5108 73.649 18.3085V20.9006H57.7418L59.3574 20.2834C59.247 22.0937 59.2884 23.5474 59.4817 24.6446C59.7026 25.7143 59.965 26.5097 60.2688 27.0308C60.6002 27.552 60.8763 27.9223 61.0973 28.1417C61.5091 28.4842 61.989 28.7366 62.5057 28.8823C63.0581 29.0468 63.7347 29.1291 64.5355 29.1291C65.3364 29.1291 66.1235 29.0743 66.8968 28.9646C67.67 28.8274 68.3881 28.6766 69.0509 28.512C69.7137 28.32 70.3074 28.1417 70.8321 27.9771C71.3569 27.7851 71.7849 27.648 72.1163 27.5657L72.9862 30.3223C72.5045 30.5315 72.0212 30.7372 71.5364 30.9394C70.8183 31.2137 69.9208 31.4743 68.8437 31.7211C67.7943 31.968 66.6068 32.0914 65.2812 32.0914ZM59.3574 19.6663L57.7418 18.1851L71.7021 17.8971L70.1279 19.4194C70.1555 17.472 70.1141 15.7988 70.0036 14.4C69.9208 13.0011 69.6446 11.9314 69.1751 11.1908C68.9818 10.8891 68.6504 10.6148 68.1809 10.368C67.7115 10.0937 66.8001 9.95656 65.4469 9.95656C64.0384 9.95656 62.9752 10.1074 62.2572 10.4091C61.5668 10.7108 61.0282 11.1086 60.6416 11.6023C59.6198 12.9463 59.1917 15.6343 59.3574 19.6663ZM85.0938 32.0503C83.8235 32.0503 82.6912 31.7623 81.697 31.1863C80.7304 30.5828 79.971 29.7188 79.4186 28.5943C78.8663 27.4423 78.5901 26.0571 78.5901 24.4388C78.5901 22.4914 78.9768 20.9691 79.75 19.872C80.5509 18.7474 81.6694 17.952 83.1054 17.4857C84.5415 17.0194 86.2123 16.7863 88.1179 16.7863H92.5089C92.5089 15.4148 92.4675 14.2217 92.3847 13.2068C92.3294 12.1646 92.1085 11.3966 91.7218 10.9028C91.4457 10.5188 91.059 10.272 90.5619 10.1623C90.0925 10.0526 89.5954 9.9977 89.0706 9.9977C87.9936 9.9977 86.9304 10.1074 85.8809 10.3268C84.9282 10.5016 83.9874 10.7352 83.064 11.0263C82.2355 11.3006 81.5727 11.5474 81.0756 11.7668L80.33 12.0548L79.1286 9.38055L79.9157 9.05142C80.6047 8.74001 81.3099 8.46532 82.0284 8.22856C82.9121 7.89941 83.8925 7.62514 84.9696 7.4057C86.0742 7.15884 87.2065 7.03542 88.3664 7.03542C90.2444 7.03542 91.7357 7.4057 92.8403 8.14627C93.945 8.85941 94.7321 9.87427 95.2015 11.1908C95.6986 12.48 95.9472 14.0023 95.9472 15.7577V31.5154H93.7102L93.2131 29.0057H92.9646C92.6884 29.1977 92.288 29.472 91.7633 29.8286C91.1884 30.2028 90.5938 30.5461 89.982 30.8571C89.2663 31.2058 88.5168 31.4816 87.745 31.68C86.8843 31.9314 85.9911 32.0562 85.0938 32.0503ZM85.6738 29.0468C86.668 29.0468 87.607 28.9097 88.4907 28.6354C89.402 28.3337 90.2029 28.0045 90.8933 27.648C91.6114 27.2914 92.1499 27.0034 92.5089 26.784V19.9543C92.1499 19.8994 91.6114 19.8446 90.8933 19.7897C90.1753 19.7074 89.2364 19.6663 88.0764 19.6663C85.5081 19.6663 83.9201 19.9268 83.3126 20.448C82.9536 20.7223 82.6774 21.216 82.4841 21.9291C82.2908 22.6148 82.1941 23.4514 82.1941 24.4388C82.1941 26.0571 82.4565 27.2366 82.9812 27.9771C83.5335 28.6903 84.4311 29.0468 85.6738 29.0468ZM104.122 31.5154V7.57027H106.442L106.814 9.91542H106.98C107.229 9.77827 107.643 9.55884 108.223 9.25713C108.803 8.92798 109.479 8.59885 110.253 8.2697C111.026 7.91313 111.841 7.62514 112.697 7.4057C113.517 7.16405 114.368 7.03937 115.224 7.03542C116.411 7.03542 117.433 7.30969 118.289 7.85826C119.151 8.38052 119.808 9.17854 120.153 10.1211C121.397 9.36313 122.683 8.6763 124.006 8.06398C125.442 7.37827 126.961 7.03542 128.562 7.03542C130.054 7.03542 131.214 7.39198 132.042 8.10513C132.871 8.81827 133.451 9.83313 133.782 11.1497C134.113 12.4388 134.279 13.9748 134.279 15.7577V31.5154H130.841V16.9097C130.844 15.7572 130.817 14.6048 130.758 13.4537C130.703 12.4388 130.523 11.6983 130.219 11.232C130.097 11.0244 129.929 10.8465 129.728 10.7113C129.528 10.5761 129.299 10.487 129.06 10.4503C128.59 10.3406 128.203 10.2857 127.9 10.2857C127.154 10.2857 126.381 10.3954 125.58 10.6148C124.828 10.7995 124.094 11.0473 123.384 11.3554C122.694 11.6297 122.114 11.8903 121.645 12.1371C121.203 12.384 120.913 12.5486 120.775 12.6308C120.83 13.0697 120.871 13.536 120.899 14.0297C120.926 14.5234 120.94 15.0446 120.94 15.5931V31.5154H117.502V16.7863C117.502 15.2228 117.461 14.016 117.378 13.1657C117.322 12.3154 117.143 11.6571 116.839 11.1908C116.563 10.8068 116.218 10.56 115.804 10.4503C115.389 10.3406 114.989 10.2857 114.602 10.2857C113.645 10.2886 112.695 10.4413 111.785 10.7383C110.919 10.9854 110.074 11.3018 109.258 11.6845C108.694 11.9348 108.128 12.1817 107.56 12.4251V31.5154H104.122ZM152.267 31.5154V0.534836H155.705V31.5154H152.267ZM164.485 31.5154V7.57027H167.923V31.5154H164.485ZM164.112 3.49713V-3.05176e-05H168.337V3.49713H164.112ZM176.495 31.5154V7.57027H178.814L179.187 9.91542H179.394C179.643 9.77827 180.057 9.55884 180.637 9.25713C181.217 8.92798 181.908 8.59885 182.708 8.2697C183.509 7.91313 184.365 7.62514 185.277 7.4057C186.167 7.16165 187.087 7.03711 188.011 7.03542C189.53 7.03542 190.69 7.4194 191.49 8.18741C192.291 8.92798 192.83 9.94284 193.106 11.232C193.41 12.5211 193.562 13.9749 193.562 15.5931V31.5154H190.123V16.7863C190.123 15.168 190.096 13.9337 190.041 13.0834C189.985 12.2331 189.806 11.5886 189.502 11.1497C189.397 10.9766 189.259 10.8257 189.096 10.7057C188.932 10.5857 188.747 10.4989 188.549 10.4503C188.135 10.3406 187.693 10.2857 187.224 10.2857C186.182 10.2932 185.149 10.4597 184.158 10.7794C183.238 11.0437 182.338 11.3737 181.466 11.7668C180.692 12.096 180.181 12.3291 179.933 12.4663V31.5154H176.495ZM209.783 32.0914C207.878 32.0914 206.193 31.6937 204.729 30.8983C203.293 30.0754 202.175 28.7451 201.374 26.9074C200.573 25.0423 200.172 22.5737 200.172 19.5017C200.172 16.2926 200.587 13.7829 201.415 11.9726C202.271 10.1623 203.417 8.88684 204.854 8.14627C206.29 7.37827 207.905 6.99428 209.7 6.99428C211.495 6.99428 213.014 7.35083 214.257 8.06398C215.527 8.77711 216.494 9.97026 217.157 11.6434C217.82 13.2891 218.151 15.5108 218.151 18.3085V20.9006H202.244L203.859 20.2834C203.749 22.0937 203.79 23.5474 203.984 24.6446C204.205 25.7143 204.467 26.5097 204.771 27.0308C205.102 27.552 205.378 27.9223 205.599 28.1417C206.011 28.4842 206.491 28.7366 207.008 28.8823C207.56 29.0468 208.237 29.1291 209.037 29.1291C209.838 29.1291 210.625 29.0743 211.399 28.9646C212.172 28.8274 212.89 28.6766 213.553 28.512C214.216 28.32 214.809 28.1417 215.334 27.9771C215.859 27.7851 216.287 27.648 216.618 27.5657L217.488 30.3223C217.006 30.5315 216.523 30.7372 216.038 30.9394C215.32 31.2137 214.423 31.4743 213.346 31.7211C212.296 31.968 211.109 32.0914 209.783 32.0914ZM203.859 19.6663L202.244 18.1851L216.204 17.8971L214.63 19.4194C214.657 17.472 214.616 15.7988 214.506 14.4C214.423 13.0011 214.147 11.9314 213.677 11.1908C213.484 10.8891 213.152 10.6148 212.683 10.368C212.213 10.0937 211.302 9.95656 209.949 9.95656C208.54 9.95656 207.477 10.1074 206.759 10.4091C206.069 10.7108 205.53 11.1086 205.143 11.6023C204.122 12.9463 203.694 15.6343 203.859 19.6663ZM235.737 38.3451L238.968 29.0057L231.263 7.57027H234.95L240.501 25.056H240.667L246.218 7.57027H249.904L241.785 29.9931L239.382 38.3451H235.737ZM262.56 32.0503C260.268 32.0503 258.459 31.5428 257.133 30.528C255.835 29.5131 254.91 28.0731 254.358 26.208C253.805 24.3428 253.529 22.1211 253.529 19.5428C253.529 16.9646 253.805 14.7428 254.358 12.8777C254.91 11.0126 255.835 9.57256 257.133 8.55769C258.459 7.54285 260.268 7.03542 262.56 7.03542C264.852 7.03542 266.647 7.54285 267.945 8.55769C269.271 9.57256 270.21 11.0126 270.762 12.8777C271.314 14.7428 271.59 16.9646 271.59 19.5428C271.59 22.1211 271.314 24.3428 270.762 26.208C270.21 28.0731 269.271 29.5131 267.945 30.528C266.647 31.5428 264.852 32.0503 262.56 32.0503ZM262.56 29.088C263.609 29.088 264.479 28.9646 265.169 28.7177C265.879 28.4777 266.48 27.997 266.868 27.36C267.31 26.7017 267.614 25.7417 267.779 24.48C267.973 23.2183 268.069 21.5726 268.069 19.5428C268.069 17.5131 267.973 15.8674 267.779 14.6057C267.614 13.344 267.31 12.384 266.868 11.7257C266.454 11.04 265.887 10.5874 265.169 10.368C264.479 10.1211 263.609 9.9977 262.56 9.9977C261.51 9.9977 260.627 10.1211 259.908 10.368C259.218 10.5874 258.652 11.04 258.21 11.7257C257.796 12.384 257.492 13.344 257.299 14.6057C257.105 15.8674 257.009 17.5131 257.009 19.5428C257.009 21.5726 257.105 23.2183 257.299 24.48C257.492 25.7417 257.796 26.7017 258.21 27.36C258.652 28.0183 259.218 28.4708 259.908 28.7177C260.627 28.9646 261.51 29.088 262.56 29.088ZM284.19 32.0503C283.118 32.0584 282.061 31.789 281.125 31.2686C280.215 30.72 279.483 29.8286 278.931 28.5943C278.405 27.36 278.142 25.6594 278.142 23.4926V7.57027H281.582V22.2171C281.582 23.7257 281.623 24.96 281.706 25.92C281.788 26.88 281.941 27.552 282.162 27.936C282.355 28.2377 282.658 28.4571 283.072 28.5943C283.514 28.7314 284.012 28.8 284.564 28.8C285.807 28.8 287.035 28.5668 288.25 28.1006C289.493 27.6068 290.654 27.1131 291.73 26.6194V7.57027H295.169V31.5154H292.848L292.434 29.2114H292.185C291.771 29.4308 291.15 29.7737 290.321 30.24C289.412 30.7145 288.471 31.1269 287.506 31.4743C286.444 31.8604 285.322 32.0554 284.192 32.0503H284.19ZM303.52 31.5154V7.57027H305.715L306.171 9.9977H306.42L307.041 9.54512C307.483 9.24341 308.049 8.90056 308.739 8.51656C309.43 8.13255 310.162 7.78969 310.935 7.48798C311.736 7.18626 312.481 7.03542 313.172 7.03542C313.586 7.03542 313.973 7.07655 314.332 7.15884L314.87 7.24112L314.58 10.5325L314.042 10.4914C313.683 10.464 313.351 10.4503 313.048 10.4503C312.249 10.4537 311.455 10.5645 310.686 10.7794C309.944 10.9869 309.223 11.2624 308.532 11.6023C307.869 11.9314 307.345 12.2468 306.958 12.5486V31.5154H303.52ZM329.153 38.3451V7.57027H331.472L331.928 9.9977H332.177C332.701 9.61369 333.309 9.20226 333.999 8.7634C334.69 8.29712 335.477 7.89941 336.361 7.57027C337.272 7.2137 338.266 7.03542 339.343 7.03542C340.835 7.03542 342.119 7.46056 343.196 8.31084C344.3 9.1337 345.143 10.4366 345.723 12.2194C346.33 13.9748 346.634 16.2651 346.634 19.0903C346.634 21.7508 346.385 23.9314 345.888 25.632C345.391 27.3051 344.728 28.6217 343.9 29.5817C343.071 30.5143 342.133 31.1588 341.083 31.5154C340.063 31.8942 338.983 32.0892 337.893 32.0914C337.231 32.0914 336.554 32.064 335.864 32.0091C335.173 31.9543 334.538 31.872 333.958 31.7623L332.591 31.5565V38.3451H329.153ZM338.68 29.0468C338.984 29.0468 339.357 29.0194 339.799 28.9646C340.268 28.8823 340.683 28.6903 341.042 28.3886C341.428 28.0594 341.76 27.552 342.036 26.8663C342.34 26.1531 342.574 25.1245 342.74 23.7805C342.906 22.4365 342.989 20.6537 342.989 18.432C342.989 16.6217 342.933 15.2091 342.823 14.1943C342.74 13.152 342.602 12.384 342.409 11.8903C342.243 11.3691 342.036 10.9988 341.787 10.7794C341.649 10.6423 341.401 10.4914 341.042 10.3268C340.71 10.1623 340.186 10.08 339.467 10.08C338.538 10.0874 337.615 10.2402 336.733 10.5325C335.882 10.7841 335.051 11.1004 334.248 11.4788C333.502 11.808 332.95 12.0823 332.591 12.3017V28.1828C333.171 28.3474 334.041 28.5394 335.201 28.7588C336.351 28.95 337.514 29.0463 338.68 29.0468ZM353.723 31.5154V7.57027H355.919L356.375 9.9977H356.623L357.245 9.54512C357.686 9.24341 358.253 8.90056 358.943 8.51656C359.633 8.13255 360.365 7.78969 361.139 7.48798C361.939 7.18626 362.685 7.03542 363.375 7.03542C363.79 7.03542 364.176 7.07655 364.535 7.15884L365.074 7.24112L364.784 10.5325L364.245 10.4914C363.886 10.464 363.555 10.4503 363.251 10.4503C362.453 10.4537 361.659 10.5645 360.89 10.7794C360.148 10.9869 359.427 11.2624 358.736 11.6023C358.073 11.9314 357.548 12.2468 357.162 12.5486V31.5154H353.723ZM377.207 32.0503C374.915 32.0503 373.106 31.5428 371.78 30.528C370.482 29.5131 369.557 28.0731 369.005 26.208C368.452 24.3428 368.176 22.1211 368.176 19.5428C368.176 16.9646 368.452 14.7428 369.005 12.8777C369.557 11.0126 370.482 9.57256 371.78 8.55769C373.106 7.54285 374.915 7.03542 377.207 7.03542C379.499 7.03542 381.294 7.54285 382.592 8.55769C383.918 9.57256 384.857 11.0126 385.409 12.8777C385.961 14.7428 386.237 16.9646 386.237 19.5428C386.237 22.1211 385.961 24.3428 385.409 26.208C384.857 28.0731 383.918 29.5131 382.592 30.528C381.294 31.5428 379.499 32.0503 377.207 32.0503ZM377.207 29.088C378.256 29.088 379.126 28.9646 379.817 28.7177C380.526 28.4777 381.127 27.997 381.515 27.36C381.957 26.7017 382.261 25.7417 382.426 24.48C382.62 23.2183 382.716 21.5726 382.716 19.5428C382.716 17.5131 382.62 15.8674 382.426 14.6057C382.261 13.344 381.957 12.384 381.515 11.7257C381.101 11.04 380.535 10.5874 379.817 10.368C379.126 10.1211 378.256 9.9977 377.207 9.9977C376.157 9.9977 375.274 10.1211 374.556 10.368C373.865 10.5874 373.299 11.04 372.857 11.7257C372.443 12.384 372.139 13.344 371.946 14.6057C371.753 15.8674 371.656 17.5131 371.656 19.5428C371.656 21.5726 371.753 23.2183 371.946 24.48C372.139 25.7417 372.443 26.7017 372.857 27.36C373.299 28.0183 373.865 28.4708 374.556 28.7177C375.274 28.9646 376.157 29.088 377.207 29.088ZM393.908 31.5154V11.6023H391.215V9.50398L393.908 8.96913C393.936 6.80226 394.239 5.07428 394.819 3.78513C395.399 2.46855 396.214 1.50856 397.263 0.905121C398.34 0.301697 399.597 -3.05176e-05 401.033 -3.05176e-05C401.309 -3.05176e-05 401.627 0.0137024 401.986 0.0411224C402.345 0.0411224 402.663 0.0548401 402.939 0.0822601H403.353L403.104 2.96227H402.524C402.165 2.93484 401.751 2.92111 401.282 2.92111C400.84 2.89369 400.481 2.87997 400.205 2.87997C399.459 2.87997 398.879 3.03084 398.465 3.33255C398.051 3.60683 397.761 4.18285 397.595 5.06056C397.429 5.91084 397.332 7.2137 397.305 8.96913H402.607V11.7257H397.346V31.5154H393.908ZM415.734 32.0914C413.829 32.0914 412.144 31.6937 410.681 30.8983C409.244 30.0754 408.126 28.7451 407.325 26.9074C406.524 25.0423 406.124 22.5737 406.124 19.5017C406.124 16.2926 406.538 13.7829 407.367 11.9726C408.223 10.1623 409.369 8.88684 410.805 8.14627C412.241 7.37827 413.856 6.99428 415.651 6.99428C417.447 6.99428 418.966 7.35083 420.208 8.06398C421.479 8.77711 422.445 9.97026 423.108 11.6434C423.771 13.2891 424.102 15.5108 424.102 18.3085V20.9006H408.195L409.811 20.2834C409.7 22.0937 409.742 23.5474 409.935 24.6446C410.156 25.7143 410.418 26.5097 410.722 27.0308C411.053 27.552 411.329 27.9223 411.55 28.1417C411.962 28.4842 412.442 28.7366 412.959 28.8823C413.511 29.0468 414.188 29.1291 414.989 29.1291C415.79 29.1291 416.577 29.0743 417.35 28.9646C418.123 28.8274 418.841 28.6766 419.504 28.512C420.167 28.32 420.761 28.1417 421.285 27.9771C421.81 27.7851 422.238 27.648 422.57 27.5657L423.439 30.3223C422.958 30.5315 422.474 30.7372 421.99 30.9394C421.272 31.2137 420.374 31.4743 419.297 31.7211C418.247 31.968 417.06 32.0914 415.734 32.0914ZM409.811 19.6663L408.195 18.1851L422.155 17.8971L420.581 19.4194C420.609 17.472 420.567 15.7988 420.457 14.4C420.374 13.0011 420.098 11.9314 419.628 11.1908C419.435 10.8891 419.104 10.6148 418.634 10.368C418.165 10.0937 417.253 9.95656 415.9 9.95656C414.492 9.95656 413.428 10.1074 412.71 10.4091C412.02 10.7108 411.481 11.1086 411.095 11.6023C410.073 12.9463 409.645 15.6343 409.811 19.6663ZM436.955 32.0503C435.935 32.0503 434.953 31.9406 434.015 31.7211C433.076 31.5291 432.234 31.3097 431.489 31.0628C430.888 30.846 430.294 30.6127 429.707 30.3634L429.086 30.0754L429.956 27.1543L430.577 27.4423C431.019 27.6343 431.599 27.8674 432.317 28.1417C433.117 28.4109 433.934 28.6307 434.761 28.8C435.687 28.9935 436.632 29.09 437.578 29.088C438.13 29.088 438.641 29.0468 439.111 28.9646C439.58 28.8548 439.953 28.6766 440.229 28.4297C440.533 28.1554 440.809 27.744 441.058 27.1954C441.306 26.6468 441.431 25.9886 441.431 25.2206C441.431 24.0686 441.154 23.1908 440.602 22.5874C440.05 21.984 439.332 21.5177 438.448 21.1886C437.564 20.8594 436.625 20.5577 435.631 20.2834C434.83 20.064 434.043 19.8171 433.27 19.5428C432.514 19.2779 431.802 18.9036 431.157 18.432C430.55 17.9657 430.052 17.3486 429.666 16.5806C429.307 15.7851 429.127 14.7703 429.127 13.536C429.127 11.5886 429.721 10.0251 430.909 8.84569C432.124 7.63884 434.154 7.03542 436.998 7.03542C437.965 7.03542 438.89 7.10397 439.774 7.24112C440.554 7.33238 441.329 7.46976 442.093 7.65254C442.784 7.78969 443.295 7.91312 443.626 8.02284L443.088 10.9028L442.508 10.7794C442.149 10.6697 441.651 10.56 441.016 10.4503C440.381 10.3406 439.663 10.2446 438.862 10.1623C438.061 10.0526 437.219 9.9977 436.335 9.9977C435.507 9.9977 434.844 10.0526 434.347 10.1623C433.85 10.2446 433.477 10.3817 433.228 10.5737C432.98 10.7657 432.773 11.0811 432.607 11.52C432.441 11.9314 432.358 12.4251 432.358 13.0011C432.358 14.1531 432.676 15.0171 433.311 15.5931C433.974 16.1691 434.803 16.608 435.797 16.9097C436.819 17.2114 437.868 17.5268 438.945 17.856C439.691 18.0754 440.409 18.336 441.099 18.6377C441.79 18.9394 442.411 19.3371 442.963 19.8308C443.556 20.3429 444.012 20.9932 444.289 21.7234C444.62 22.4914 444.786 23.4377 444.786 24.5623C444.786 26.784 444.109 28.5943 442.756 29.9931C441.431 31.3645 439.497 32.0503 436.957 32.0503H436.955ZM457.346 32.0503C456.324 32.0503 455.344 31.9406 454.405 31.7211C453.466 31.5291 452.623 31.3097 451.878 31.0628C451.278 30.846 450.684 30.6127 450.096 30.3634L449.475 30.0754L450.345 27.1543L450.966 27.4423C451.408 27.6343 451.988 27.8674 452.706 28.1417C453.506 28.4109 454.323 28.6307 455.15 28.8C456.077 28.9935 457.021 29.09 457.967 29.088C458.52 29.088 459.03 29.0468 459.5 28.9646C459.969 28.8548 460.342 28.6766 460.618 28.4297C460.922 28.1554 461.198 27.744 461.447 27.1954C461.695 26.6468 461.82 25.9886 461.82 25.2206C461.82 24.0686 461.544 23.1908 460.991 22.5874C460.439 21.984 459.721 21.5177 458.837 21.1886C457.953 20.8594 457.014 20.5577 456.02 20.2834C455.219 20.064 454.432 19.8171 453.659 19.5428C452.903 19.2779 452.192 18.9036 451.546 18.432C450.939 17.9657 450.442 17.3486 450.055 16.5806C449.696 15.7851 449.516 14.7703 449.516 13.536C449.516 11.5886 450.11 10.0251 451.298 8.84569C452.513 7.63884 454.543 7.03542 457.387 7.03542C458.354 7.03542 459.279 7.10397 460.163 7.24112C460.943 7.33238 461.718 7.46976 462.482 7.65254C463.173 7.78969 463.684 7.91312 464.015 8.02284L463.477 10.9028L462.897 10.7794C462.538 10.6697 462.041 10.56 461.405 10.4503C460.77 10.3406 460.052 10.2446 459.251 10.1623C458.45 10.0526 457.608 9.9977 456.724 9.9977C455.896 9.9977 455.233 10.0526 454.736 10.1623C454.239 10.2446 453.866 10.3817 453.618 10.5737C453.369 10.7657 453.162 11.0811 452.996 11.52C452.83 11.9314 452.748 12.4251 452.748 13.0011C452.748 14.1531 453.065 15.0171 453.7 15.5931C454.363 16.1691 455.192 16.608 456.186 16.9097C457.208 17.2114 458.257 17.5268 459.334 17.856C460.08 18.0754 460.798 18.336 461.488 18.6377C462.179 18.9394 462.8 19.3371 463.352 19.8308C463.945 20.3429 464.401 20.9932 464.678 21.7234C465.009 22.4914 465.175 23.4377 465.175 24.5623C465.175 26.784 464.499 28.5943 463.145 29.9931C461.82 31.3645 459.887 32.0503 457.346 32.0503ZM471.976 31.5154V7.57027H475.414V31.5154H471.976ZM471.603 3.49713V-3.05176e-05H475.828V3.49713H471.603ZM491.732 32.0503C489.44 32.0503 487.631 31.5428 486.305 30.528C485.007 29.5131 484.082 28.0731 483.53 26.208C482.978 24.3428 482.701 22.1211 482.701 19.5428C482.701 16.9646 482.978 14.7428 483.53 12.8777C484.082 11.0126 485.007 9.57256 486.305 8.55769C487.631 7.54285 489.44 7.03542 491.732 7.03542C494.024 7.03542 495.819 7.54285 497.117 8.55769C498.443 9.57256 499.382 11.0126 499.934 12.8777C500.486 14.7428 500.763 16.9646 500.763 19.5428C500.763 22.1211 500.486 24.3428 499.934 26.208C499.382 28.0731 498.443 29.5131 497.117 30.528C495.819 31.5428 494.024 32.0503 491.732 32.0503ZM491.732 29.088C492.781 29.088 493.651 28.9646 494.342 28.7177C495.051 28.4777 495.653 27.997 496.04 27.36C496.482 26.7017 496.786 25.7417 496.952 24.48C497.145 23.2183 497.241 21.5726 497.241 19.5428C497.241 17.5131 497.145 15.8674 496.952 14.6057C496.786 13.344 496.482 12.384 496.04 11.7257C495.626 11.04 495.06 10.5874 494.342 10.368C493.651 10.1211 492.781 9.9977 491.732 9.9977C490.683 9.9977 489.799 10.1211 489.081 10.368C488.39 10.5874 487.824 11.04 487.382 11.7257C486.968 12.384 486.664 13.344 486.471 14.6057C486.278 15.8674 486.181 17.5131 486.181 19.5428C486.181 21.5726 486.278 23.2183 486.471 24.48C486.664 25.7417 486.968 26.7017 487.382 27.36C487.824 28.0183 488.39 28.4708 489.081 28.7177C489.799 28.9646 490.683 29.088 491.732 29.088ZM507.854 31.5154V7.57027H510.174L510.547 9.91542H510.754C511.003 9.77827 511.417 9.55884 511.997 9.25713C512.577 8.92798 513.267 8.59885 514.068 8.2697C514.869 7.91313 515.725 7.62514 516.636 7.4057C517.527 7.16165 518.447 7.03711 519.37 7.03542C520.889 7.03542 522.049 7.4194 522.85 8.18741C523.651 8.92798 524.19 9.94284 524.466 11.232C524.77 12.5211 524.921 13.9749 524.921 15.5931V31.5154H521.483V16.7863C521.483 15.168 521.456 13.9337 521.4 13.0834C521.345 12.2331 521.166 11.5886 520.862 11.1497C520.757 10.9766 520.619 10.8257 520.456 10.7057C520.292 10.5857 520.106 10.4989 519.909 10.4503C519.495 10.3406 519.053 10.2857 518.583 10.2857C517.542 10.2932 516.508 10.4597 515.518 10.7794C514.598 11.0437 513.698 11.3737 512.825 11.7668C512.052 12.096 511.541 12.3291 511.293 12.4663V31.5154H507.854ZM537.29 32.0503C536.02 32.0503 534.888 31.7623 533.893 31.1863C532.927 30.5828 532.167 29.7188 531.615 28.5943C531.063 27.4423 530.787 26.0571 530.787 24.4388C530.787 22.4914 531.173 20.9691 531.946 19.872C532.747 18.7474 533.866 17.952 535.302 17.4857C536.738 17.0194 538.409 16.7863 540.314 16.7863H544.705C544.705 15.4148 544.664 14.2217 544.581 13.2068C544.526 12.1646 544.305 11.3966 543.918 10.9028C543.642 10.5188 543.255 10.272 542.758 10.1623C542.289 10.0526 541.792 9.9977 541.267 9.9977C540.19 9.9977 539.127 10.1074 538.077 10.3268C537.125 10.5016 536.184 10.7352 535.26 11.0263C534.432 11.3006 533.769 11.5474 533.272 11.7668L532.526 12.0548L531.325 9.38055L532.112 9.05142C532.801 8.74001 533.506 8.46532 534.225 8.22856C535.109 7.89941 536.089 7.62514 537.166 7.4057C538.271 7.15884 539.403 7.03542 540.563 7.03542C542.441 7.03542 543.932 7.4057 545.037 8.14627C546.141 8.85941 546.928 9.87427 547.398 11.1908C547.895 12.48 548.144 14.0023 548.144 15.7577V31.5154H545.907L545.41 29.0057H545.161C544.885 29.1977 544.484 29.472 543.96 29.8286C543.385 30.2028 542.79 30.5461 542.178 30.8571C541.463 31.2058 540.713 31.4816 539.941 31.68C539.081 31.9314 538.188 32.0562 537.29 32.0503ZM537.87 29.0468C538.864 29.0468 539.803 28.9097 540.687 28.6354C541.598 28.3337 542.399 28.0045 543.09 27.648C543.64 27.3819 544.179 27.0936 544.705 26.784V19.9543C544.346 19.8994 543.808 19.8446 543.09 19.7897C542.372 19.7074 541.433 19.6663 540.273 19.6663C537.705 19.6663 536.117 19.9268 535.509 20.448C535.15 20.7223 534.874 21.216 534.68 21.9291C534.487 22.6148 534.391 23.4514 534.391 24.4388C534.391 26.0571 534.653 27.2366 535.178 27.9771C535.73 28.6903 536.627 29.0468 537.87 29.0468ZM556.525 31.5154V0.534836H559.964V31.5154H556.525ZM2.4855 89.2068C2.12648 89.2068 1.75366 89.1794 1.36702 89.1246C0.980392 89.0971 0.6628 89.0697 0.41425 89.0423L0 89.0011L0.372825 85.9566L0.704225 85.9977C0.952775 86.0251 1.27037 86.0526 1.657 86.08C2.04363 86.1074 2.45788 86.1211 2.89975 86.1211C3.61778 86.1211 4.17012 85.9977 4.55675 85.7508C4.94338 85.5314 5.20574 84.9691 5.34382 84.064C5.50952 83.1588 5.59237 81.7188 5.59237 79.744V57.856H9.03065V79.6206C9.03065 82.0343 8.74067 83.9405 8.16072 85.3394C7.58077 86.7383 6.7937 87.7257 5.7995 88.3017C4.8053 88.9051 3.70063 89.2068 2.4855 89.2068ZM5.21955 53.7828V50.2857H9.4449V53.7828H5.21955ZM25.3371 82.336C23.045 82.336 21.2361 81.8286 19.9105 80.8137C18.6125 79.7988 17.6873 78.3588 17.135 76.4937C16.5827 74.6286 16.3065 72.4068 16.3065 69.8286C16.3065 67.2503 16.5827 65.0286 17.135 63.1634C17.6873 61.2983 18.6125 59.8583 19.9105 58.8434C21.2361 57.8286 23.045 57.3211 25.3371 57.3211C27.6293 57.3211 29.4244 57.8286 30.7224 58.8434C32.048 59.8583 32.987 61.2983 33.5393 63.1634C34.0916 65.0286 34.3678 67.2503 34.3678 69.8286C34.3678 72.4068 34.0916 74.6286 33.5393 76.4937C32.987 78.3588 32.048 79.7988 30.7224 80.8137C29.4244 81.8286 27.6293 82.336 25.3371 82.336ZM25.3371 79.3737C26.3866 79.3737 27.2565 79.2503 27.9469 79.0034C28.6563 78.7635 29.2577 78.2827 29.6453 77.6457C30.0872 76.9874 30.391 76.0274 30.5567 74.7657C30.75 73.504 30.8467 71.8583 30.8467 69.8286C30.8467 67.7988 30.75 66.1531 30.5567 64.8914C30.391 63.6297 30.0872 62.6697 29.6453 62.0114C29.2311 61.3257 28.6649 60.8731 27.9469 60.6537C27.2565 60.4068 26.3866 60.2834 25.3371 60.2834C24.2877 60.2834 23.404 60.4068 22.6859 60.6537C21.9955 60.8731 21.4294 61.3257 20.9875 62.0114C20.5733 62.6697 20.2695 63.6297 20.0762 64.8914C19.8828 66.1531 19.7862 67.7988 19.7862 69.8286C19.7862 71.8583 19.8828 73.504 20.0762 74.7657C20.2695 76.0274 20.5733 76.9874 20.9875 77.6457C21.4294 78.304 21.9955 78.7566 22.6859 79.0034C23.404 79.2503 24.2877 79.3737 25.3371 79.3737ZM46.9679 82.336C45.8951 82.3441 44.8386 82.0747 43.9024 81.5543C42.9911 81.0057 42.2593 80.1143 41.7069 78.88C41.1822 77.6457 40.9198 75.9451 40.9198 73.7783V57.856H44.3581V72.5028C44.3581 74.0114 44.3995 75.2457 44.4824 76.2057C44.5652 77.1657 44.7171 77.8377 44.9381 78.2217C45.1314 78.5234 45.4352 78.7428 45.8494 78.88C46.2913 79.0171 46.7884 79.0857 47.3407 79.0857C48.5835 79.0857 49.8124 78.8525 51.0275 78.3863C52.2001 77.9224 53.3604 77.4286 54.5072 76.9051V57.856H57.9455V81.8011H55.6269L55.2126 79.4971H54.9641C54.5498 79.7165 53.9284 80.0594 53.0999 80.5257C52.1903 81.0003 51.2492 81.4126 50.283 81.76C49.2216 82.1461 48.0982 82.3411 46.9679 82.336ZM66.2973 81.8011V57.856H68.4928L68.9485 60.2834H69.197L69.8184 59.8308C70.2602 59.5291 70.8264 59.1863 71.5168 58.8023C72.2072 58.4183 72.9391 58.0754 73.7123 57.7737C74.5132 57.472 75.2589 57.3211 75.9493 57.3211C76.3635 57.3211 76.7502 57.3623 77.1092 57.4445L77.6477 57.5268L77.3577 60.8183L76.8192 60.7771C76.4602 60.7497 76.1288 60.736 75.825 60.736C75.0266 60.7394 74.2323 60.8502 73.4638 61.0651C72.7217 61.2726 72.0005 61.5481 71.3097 61.888C70.6469 62.2171 70.1222 62.5325 69.7355 62.8343V81.8011H66.2973ZM82.6406 81.8011V57.856H84.9604L85.3332 60.2011H85.5403C85.7889 60.064 86.2031 59.8446 86.7831 59.5428C87.363 59.2137 88.0534 58.8846 88.8543 58.5554C89.6552 58.1988 90.5113 57.9108 91.4227 57.6914C92.3133 57.4473 93.2328 57.3228 94.1567 57.3211C95.6756 57.3211 96.8355 57.7051 97.6364 58.4731C98.4373 59.2137 98.9758 60.2285 99.252 61.5177C99.5558 62.8068 99.7077 64.2605 99.7077 65.8788V81.8011H96.2694V67.072C96.2694 65.4537 96.2418 64.2194 96.1865 63.3691C96.1313 62.5188 95.9518 61.8743 95.648 61.4354C95.5433 61.2623 95.4053 61.1114 95.2418 60.9914C95.0783 60.8714 94.8926 60.7846 94.6952 60.736C94.281 60.6263 93.8391 60.5714 93.3696 60.5714C92.3284 60.5789 91.2945 60.7454 90.3042 61.0651C89.3839 61.3294 88.484 61.6594 87.6116 62.0526C86.8383 62.3817 86.3274 62.6148 86.0788 62.752V81.8011H82.6406ZM115.929 82.3771C114.023 82.3771 112.339 81.9794 110.875 81.184C109.439 80.3611 108.321 79.0308 107.52 77.1931C106.719 75.328 106.318 72.8594 106.318 69.7874C106.318 66.5783 106.733 64.0685 107.561 62.2583C108.417 60.448 109.563 59.1726 110.999 58.432C112.435 57.664 114.051 57.28 115.846 57.28C117.641 57.28 119.16 57.6366 120.403 58.3497C121.673 59.0628 122.64 60.256 123.303 61.9291C123.965 63.5748 124.297 65.7966 124.297 68.5943V71.1863H108.39L110.005 70.5691C109.895 72.3794 109.936 73.8331 110.13 74.9303C110.35 76 110.613 76.7954 110.917 77.3166C111.248 77.8377 111.524 78.208 111.745 78.4274C112.157 78.7699 112.637 79.0223 113.154 79.168C113.706 79.3326 114.382 79.4148 115.183 79.4148C115.984 79.4148 116.771 79.36 117.545 79.2503C118.318 79.1131 119.036 78.9623 119.699 78.7977C120.361 78.6057 120.955 78.4274 121.48 78.2628C122.005 78.0708 122.433 77.9337 122.764 77.8514L123.634 80.608C123.152 80.8172 122.669 81.0229 122.184 81.2251C121.466 81.4994 120.569 81.76 119.492 82.0068C118.442 82.2537 117.255 82.3771 115.929 82.3771ZM110.005 69.952L108.39 68.4708L122.35 68.1828L120.776 69.7051C120.803 67.7577 120.762 66.0846 120.651 64.6857C120.569 63.2868 120.292 62.2171 119.823 61.4766C119.63 61.1748 119.298 60.9006 118.829 60.6537C118.359 60.3794 117.448 60.2423 116.095 60.2423C114.686 60.2423 113.623 60.3931 112.905 60.6948C112.215 60.9966 111.676 61.3943 111.289 61.888C110.268 63.232 109.84 65.92 110.005 69.952ZM131.932 88.6308L135.163 79.2914L127.458 57.856H131.145L136.696 75.3417H136.861L142.412 57.856H146.099L137.98 80.2788L135.577 88.6308H131.932ZM162.534 81.8011L157.771 57.856H161.292L164.937 79.1268H165.144L169.328 61.024H174.382L178.566 79.1268H178.773L182.418 57.856H185.94L181.176 81.8011H176.122L171.979 63.6983H171.731L167.588 81.8011H162.534ZM191.265 81.8011V57.856H194.703V81.8011H191.265ZM190.892 53.7828V50.2857H195.117V53.7828H190.892ZM209.571 82.3771C208.384 82.3771 207.348 82.1851 206.464 81.8011C205.581 81.3897 204.89 80.6217 204.393 79.4971C203.924 78.3451 203.689 76.6446 203.689 74.3954V61.9291H200.955V59.7897L203.813 59.2137L204.725 53.6183H207.127V59.2548H211.933V62.0114H207.127V74.6423C207.127 76.1508 207.169 77.248 207.252 77.9337C207.334 78.6194 207.542 79.0583 207.873 79.2503C208.232 79.4148 208.826 79.4971 209.654 79.4971H210.814C211.146 79.4697 211.408 79.456 211.601 79.456L211.891 79.4148V82.1714L211.27 82.2537C210.856 82.336 210.289 82.3771 209.571 82.3771ZM217.702 81.8011V50.8206H221.14V60.4891L220.271 59.7074C221.016 59.3783 221.872 59.0354 222.839 58.6788C223.805 58.2948 224.772 57.9794 225.739 57.7326C226.733 57.4583 227.63 57.3211 228.431 57.3211C230.061 57.3211 231.331 57.6503 232.242 58.3085C233.154 58.9668 233.789 59.9268 234.148 61.1886C234.535 62.4503 234.728 64.0137 234.728 65.8788V81.8011H231.29V67.072C231.29 65.536 231.234 64.3291 231.124 63.4514C231.013 62.5737 230.792 61.9017 230.461 61.4354C230.185 61.0514 229.84 60.8183 229.425 60.736C229.039 60.6263 228.556 60.5714 227.976 60.5714C227.264 60.577 226.556 60.6597 225.863 60.8183C225.121 60.9544 224.388 61.133 223.667 61.3531C222.977 61.5726 222.356 61.792 221.803 62.0114C221.279 62.2034 220.906 62.368 220.685 62.5051L221.182 61.7234L221.14 81.8011H217.702ZM13.3388 132.622C12.5932 132.622 11.668 132.539 10.5634 132.375C9.46658 132.234 8.37505 132.056 7.2908 131.84C6.18613 131.593 5.23336 131.333 4.43247 131.058V101.106H7.87075V108.512C8.34023 108.402 8.90637 108.279 9.56917 108.142C10.232 108.005 10.95 107.881 11.7233 107.771C12.5242 107.662 13.325 107.607 14.1259 107.607C16.5562 107.607 18.4203 108.567 19.7183 110.487C21.0163 112.379 21.6653 115.451 21.6653 119.703C21.6653 122.336 21.4305 124.503 20.961 126.203C20.4916 127.877 19.8564 129.179 19.0555 130.112C18.2546 131.045 17.3571 131.703 16.3629 132.087C15.3953 132.444 14.371 132.625 13.3388 132.622ZM13.3388 129.577C14.0845 129.577 14.6644 129.536 15.0787 129.454C15.5206 129.344 15.8796 129.166 16.1558 128.919C16.4043 128.672 16.6805 128.233 16.9842 127.602C17.288 126.971 17.5366 125.984 17.7299 124.64C17.9508 123.269 18.0613 121.403 18.0613 119.045C18.0613 116.686 17.937 114.889 17.6885 113.655C17.4675 112.421 17.15 111.639 16.7357 111.31C16.1558 110.871 15.1754 110.651 13.7945 110.651C12.3861 110.651 11.1709 110.789 10.1491 111.063C9.38096 111.267 8.62095 111.5 7.87075 111.762V128.919C8.17453 129.001 8.57497 129.097 9.07207 129.207C9.56917 129.289 10.1629 129.371 10.8533 129.454C11.6788 129.542 12.5087 129.583 13.3388 129.577ZM37.1651 132.663C35.2596 132.663 33.575 132.265 32.1113 131.47C30.6752 130.647 29.5567 129.317 28.7559 127.479C27.955 125.614 27.5545 123.145 27.5545 120.073C27.5545 116.864 27.9688 114.354 28.7973 112.544C29.6534 110.734 30.7995 109.458 32.2356 108.718C33.6716 107.95 35.2872 107.566 37.0823 107.566C38.8774 107.566 40.3963 107.922 41.639 108.635C42.9094 109.349 43.876 110.542 44.5388 112.215C45.2016 113.861 45.533 116.082 45.533 118.88V121.472H29.6258L31.2414 120.855C31.1309 122.665 31.1723 124.119 31.3656 125.216C31.5866 126.286 31.8489 127.081 32.1527 127.602C32.4841 128.123 32.7603 128.494 32.9812 128.713C33.393 129.056 33.8729 129.308 34.3897 129.454C34.942 129.618 35.6186 129.701 36.4195 129.701C37.2204 129.701 38.0074 129.646 38.7807 129.536C39.554 129.399 40.272 129.248 40.9348 129.083C41.5976 128.891 42.1914 128.713 42.7161 128.549C43.2408 128.357 43.6688 128.219 44.0003 128.137L44.8702 130.894C44.3884 131.103 43.9051 131.309 43.4203 131.511C42.7023 131.785 41.8047 132.046 40.7277 132.293C39.6782 132.539 38.4907 132.663 37.1651 132.663ZM31.2414 120.238L29.6258 118.757L43.586 118.469L42.0118 119.991C42.0395 118.043 41.998 116.37 41.8876 114.971C41.8047 113.573 41.5286 112.503 41.0591 111.762C40.8658 111.461 40.5344 111.186 40.0649 110.939C39.5954 110.665 38.684 110.528 37.3308 110.528C35.9224 110.528 34.8591 110.679 34.1411 110.981C33.4507 111.282 32.9122 111.68 32.5255 112.174C31.5037 113.518 31.0757 116.206 31.2414 120.238ZM58.3862 132.622C57.3656 132.622 56.384 132.512 55.4462 132.293C54.5916 132.123 53.7478 131.903 52.9193 131.634C52.1736 131.36 51.5799 131.127 51.138 130.935L50.5166 130.647L51.3866 127.726L52.0079 128.014C52.4498 128.206 53.0298 128.439 53.7478 128.713C54.5481 128.982 55.3643 129.202 56.1919 129.371C57.1181 129.565 58.0622 129.661 59.0088 129.659C59.5611 129.659 60.072 129.618 60.5415 129.536C61.011 129.426 61.3838 129.248 61.66 129.001C61.9637 128.727 62.2399 128.315 62.4885 127.767C62.737 127.218 62.8613 126.56 62.8613 125.792C62.8613 124.64 62.5851 123.762 62.0328 123.159C61.4804 122.555 60.7624 122.089 59.8787 121.76C58.9949 121.431 58.056 121.129 57.0618 120.855C56.2609 120.635 55.4738 120.389 54.7006 120.114C53.9451 119.849 53.2332 119.475 52.5879 119.003C51.9803 118.537 51.4832 117.92 51.0966 117.152C50.7376 116.357 50.5581 115.342 50.5581 114.107C50.5581 112.16 51.1518 110.597 52.3393 109.417C53.5545 108.21 55.5843 107.607 58.4288 107.607C59.3954 107.607 60.3205 107.675 61.2043 107.813C62.088 107.922 62.8613 108.059 63.5241 108.224C64.2145 108.361 64.7254 108.485 65.0568 108.594L64.5183 111.474L63.9383 111.351C63.5793 111.241 63.0822 111.131 62.447 111.022C61.8119 110.912 61.0938 110.816 60.2929 110.734C59.4921 110.624 58.6497 110.569 57.766 110.569C56.9375 110.569 56.2747 110.624 55.7776 110.734C55.2805 110.816 54.9077 110.953 54.6591 111.145C54.4106 111.337 54.2035 111.653 54.0378 112.091C53.8721 112.503 53.7892 112.997 53.7892 113.573C53.7892 114.725 54.1068 115.589 54.742 116.165C55.4048 116.741 56.2333 117.179 57.2275 117.481C58.2493 117.783 59.2987 118.098 60.3758 118.427C61.1097 118.643 61.8292 118.904 62.5299 119.209C63.2203 119.511 63.8417 119.909 64.394 120.402C64.9865 120.914 65.4416 121.565 65.7185 122.295C66.0499 123.063 66.2156 124.009 66.2156 125.134C66.2156 127.355 65.5389 129.166 64.1857 130.565C62.8601 131.936 60.927 132.622 58.3862 132.622ZM79.1068 132.663C77.9193 132.663 76.8836 132.471 75.9999 132.087C75.1162 131.675 74.4258 130.907 73.9287 129.783C73.4592 128.631 73.2244 126.93 73.2244 124.681V112.215H70.4904V110.075L73.3487 109.499L74.2601 103.904H76.6627V109.541H81.468V112.297H76.6627V124.928C76.6627 126.437 76.7041 127.534 76.787 128.219C76.8698 128.905 77.077 129.344 77.4084 129.536C77.7674 129.701 78.3611 129.783 79.1896 129.783H80.3495C80.6809 129.755 80.9433 129.742 81.1366 129.742L81.4266 129.701V132.457L80.8052 132.539C80.391 132.622 79.8248 132.663 79.1068 132.663ZM93.8748 132.087L101.704 103.493H106.592L114.422 132.087H110.86L108.665 123.529L110.405 124.517H97.977L99.634 123.529L97.4385 132.087H93.8748ZM99.7157 123.077L98.5558 121.472H109.741L108.581 123.077L103.9 105.015L105.847 106.537H102.45L104.397 105.015L99.7157 123.077ZM118.973 132.128L119.097 119.003L118.973 103.493H122.494L122.328 116.123L122.494 132.087L118.973 132.128ZM144.87 132.087L144.953 106.414L136.875 106.537V103.493H156.345V106.537L148.267 106.414L148.35 132.087H144.87ZM166.684 132.622C164.392 132.622 162.583 132.114 161.257 131.099C159.959 130.085 159.034 128.645 158.482 126.779C157.929 124.914 157.653 122.693 157.653 120.114C157.653 117.536 157.929 115.314 158.482 113.449C159.034 111.584 159.959 110.144 161.257 109.129C162.583 108.114 164.392 107.607 166.684 107.607C168.976 107.607 170.771 108.114 172.069 109.129C173.395 110.144 174.334 111.584 174.886 113.449C175.438 115.314 175.714 117.536 175.714 120.114C175.714 122.693 175.438 124.914 174.886 126.779C174.334 128.645 173.395 130.085 172.069 131.099C170.771 132.114 168.976 132.622 166.684 132.622ZM166.684 129.659C167.733 129.659 168.603 129.536 169.294 129.289C170.003 129.049 170.604 128.568 170.992 127.931C171.434 127.273 171.738 126.313 171.903 125.051C172.097 123.79 172.193 122.144 172.193 120.114C172.193 118.085 172.097 116.439 171.903 115.177C171.738 113.915 171.434 112.955 170.992 112.297C170.578 111.611 170.012 111.159 169.294 110.939C168.603 110.693 167.733 110.569 166.684 110.569C165.634 110.569 164.751 110.693 164.033 110.939C163.342 111.159 162.776 111.611 162.334 112.297C161.92 112.955 161.616 113.915 161.423 115.177C161.23 116.439 161.133 118.085 161.133 120.114C161.133 122.144 161.23 123.79 161.423 125.051C161.616 126.313 161.92 127.273 162.334 127.931C162.776 128.59 163.342 129.042 164.033 129.289C164.751 129.536 165.634 129.659 166.684 129.659ZM190.552 132.622C188.259 132.622 186.45 132.114 185.125 131.099C183.827 130.085 182.902 128.645 182.349 126.779C181.797 124.914 181.521 122.693 181.521 120.114C181.521 117.536 181.797 115.314 182.349 113.449C182.902 111.584 183.827 110.144 185.125 109.129C186.45 108.114 188.259 107.607 190.552 107.607C192.844 107.607 194.639 108.114 195.937 109.129C197.262 110.144 198.201 111.584 198.754 113.449C199.306 115.314 199.582 117.536 199.582 120.114C199.582 122.693 199.306 124.914 198.754 126.779C198.201 128.645 197.262 130.085 195.937 131.099C194.639 132.114 192.844 132.622 190.552 132.622ZM190.552 129.659C191.601 129.659 192.471 129.536 193.161 129.289C193.871 129.049 194.472 128.568 194.86 127.931C195.302 127.273 195.605 126.313 195.771 125.051C195.964 123.79 196.061 122.144 196.061 120.114C196.061 118.085 195.964 116.439 195.771 115.177C195.605 113.915 195.302 112.955 194.86 112.297C194.445 111.611 193.879 111.159 193.161 110.939C192.471 110.693 191.601 110.569 190.552 110.569C189.502 110.569 188.618 110.693 187.9 110.939C187.21 111.159 186.644 111.611 186.202 112.297C185.788 112.955 185.484 113.915 185.291 115.177C185.097 116.439 185.001 118.085 185.001 120.114C185.001 122.144 185.097 123.79 185.291 125.051C185.484 126.313 185.788 127.273 186.202 127.931C186.644 128.59 187.21 129.042 187.9 129.289C188.618 129.536 189.502 129.659 190.552 129.659ZM206.88 132.087V101.106H210.318V132.087H206.88ZM224.856 132.622C223.834 132.622 222.854 132.512 221.915 132.293C221.06 132.123 220.216 131.903 219.388 131.634C218.642 131.36 218.049 131.127 217.607 130.935L216.985 130.647L217.855 127.726L218.477 128.014C219.051 128.259 219.631 128.493 220.216 128.713C221.017 128.982 221.833 129.202 222.661 129.371C223.587 129.565 224.531 129.661 225.477 129.659C226.03 129.659 226.541 129.618 227.01 129.536C227.48 129.426 227.852 129.248 228.129 129.001C228.432 128.727 228.709 128.315 228.957 127.767C229.206 127.218 229.33 126.56 229.33 125.792C229.33 124.64 229.054 123.762 228.501 123.159C227.949 122.555 227.231 122.089 226.347 121.76C225.464 121.431 224.525 121.129 223.53 120.855C222.73 120.635 221.942 120.389 221.169 120.114C220.414 119.849 219.702 119.475 219.057 119.003C218.449 118.537 217.952 117.92 217.565 117.152C217.206 116.357 217.027 115.342 217.027 114.107C217.027 112.16 217.62 110.597 218.808 109.417C220.023 108.21 222.053 107.607 224.897 107.607C225.864 107.607 226.789 107.675 227.673 107.813C228.557 107.922 229.33 108.059 229.993 108.224C230.683 108.361 231.194 108.485 231.525 108.594L230.987 111.474L230.407 111.351C230.048 111.241 229.551 111.131 228.916 111.022C228.281 110.912 227.562 110.816 226.762 110.734C225.961 110.624 225.118 110.569 224.235 110.569C223.406 110.569 222.743 110.624 222.246 110.734C221.749 110.816 221.376 110.953 221.128 111.145C220.879 111.337 220.672 111.653 220.506 112.091C220.341 112.503 220.258 112.997 220.258 113.573C220.258 114.725 220.575 115.589 221.211 116.165C221.873 116.741 222.702 117.179 223.696 117.481C224.718 117.783 225.767 118.098 226.844 118.427C227.59 118.647 228.308 118.907 228.999 119.209C229.689 119.511 230.31 119.909 230.863 120.402C231.456 120.914 231.911 121.565 232.188 122.295C232.52 123.063 232.685 124.009 232.685 125.134C232.685 127.355 232.009 129.166 230.656 130.565C229.33 131.936 227.397 132.622 224.856 132.622ZM255.528 132.663C254.34 132.663 253.305 132.471 252.421 132.087C251.537 131.675 250.847 130.907 250.35 129.783C249.88 128.631 249.645 126.93 249.645 124.681V112.215H246.911V110.075L249.77 109.499L250.681 103.904H253.084V109.541H257.889V112.297H253.084V124.928C253.084 126.437 253.125 127.534 253.208 128.219C253.291 128.905 253.498 129.344 253.829 129.536C254.188 129.701 254.782 129.783 255.611 129.783H256.771C257.102 129.755 257.364 129.742 257.558 129.742L257.848 129.701V132.457L257.226 132.539C256.812 132.622 256.246 132.663 255.528 132.663ZM272.067 132.622C269.775 132.622 267.966 132.114 266.64 131.099C265.342 130.085 264.417 128.645 263.865 126.779C263.312 124.914 263.036 122.693 263.036 120.114C263.036 117.536 263.312 115.314 263.865 113.449C264.417 111.584 265.342 110.144 266.64 109.129C267.966 108.114 269.775 107.607 272.067 107.607C274.359 107.607 276.154 108.114 277.452 109.129C278.778 110.144 279.717 111.584 280.269 113.449C280.821 115.314 281.097 117.536 281.097 120.114C281.097 122.693 280.821 124.914 280.269 126.779C279.717 128.645 278.778 130.085 277.452 131.099C276.154 132.114 274.359 132.622 272.067 132.622ZM272.067 129.659C273.116 129.659 273.986 129.536 274.677 129.289C275.386 129.049 275.987 128.568 276.375 127.931C276.817 127.273 277.121 126.313 277.286 125.051C277.48 123.79 277.576 122.144 277.576 120.114C277.576 118.085 277.48 116.439 277.286 115.177C277.121 113.915 276.817 112.955 276.375 112.297C275.961 111.611 275.395 111.159 274.677 110.939C273.986 110.693 273.116 110.569 272.067 110.569C271.017 110.569 270.134 110.693 269.416 110.939C268.725 111.159 268.159 111.611 267.717 112.297C267.303 112.955 266.999 113.915 266.806 115.177C266.612 116.439 266.516 118.085 266.516 120.114C266.516 122.144 266.612 123.79 266.806 125.051C266.999 126.313 267.303 127.273 267.717 127.931C268.159 128.59 268.725 129.042 269.416 129.289C270.134 129.536 271.017 129.659 272.067 129.659ZM298.347 132.087V108.142H301.786V132.087H298.347ZM297.975 104.069V100.571H302.2V104.069H297.975ZM310.357 132.087V108.142H312.677L313.05 110.487H313.257C313.506 110.35 313.92 110.13 314.5 109.829C315.169 109.457 315.86 109.127 316.571 108.841C317.372 108.485 318.228 108.197 319.139 107.977C320.03 107.733 320.949 107.609 321.873 107.607C323.392 107.607 324.552 107.991 325.353 108.759C326.154 109.499 326.692 110.514 326.969 111.803C327.272 113.093 327.424 114.546 327.424 116.165V132.087H323.986V117.358C323.986 115.739 323.958 114.505 323.903 113.655C323.848 112.805 323.668 112.16 323.365 111.721C323.26 111.548 323.122 111.397 322.958 111.277C322.795 111.157 322.609 111.07 322.412 111.022C321.998 110.912 321.556 110.857 321.086 110.857C320.045 110.865 319.011 111.031 318.021 111.351C317.101 111.615 316.201 111.945 315.328 112.338C314.555 112.667 314.044 112.901 313.796 113.038V132.087H310.356H310.357ZM343.48 132.622C341.602 132.622 339.945 132.197 338.509 131.346C337.073 130.496 335.954 129.152 335.154 127.314C334.353 125.449 333.952 123.022 333.952 120.032C333.952 117.591 334.215 115.561 334.739 113.943C335.292 112.325 336.037 111.063 336.976 110.158C337.898 109.235 339.037 108.557 340.29 108.183C341.561 107.799 342.914 107.607 344.35 107.607C345.399 107.607 346.463 107.675 347.54 107.813C348.644 107.95 349.542 108.101 350.232 108.265L349.818 111.145C349.293 111.09 348.465 110.994 347.332 110.857C346.2 110.693 344.985 110.61 343.687 110.61C342.665 110.61 341.795 110.693 341.077 110.857C340.387 111.022 339.848 111.296 339.462 111.68C338.937 112.256 338.481 113.312 338.095 114.848C337.736 116.357 337.556 118.167 337.556 120.279C337.556 122.226 337.708 123.803 338.012 125.01C338.316 126.19 338.675 127.095 339.089 127.726C339.503 128.329 339.876 128.754 340.207 129.001C340.428 129.166 340.718 129.317 341.077 129.454C341.464 129.591 342.002 129.659 342.693 129.659C343.494 129.659 344.308 129.563 345.137 129.371C345.965 129.179 346.725 128.96 347.415 128.713C348.106 128.466 348.658 128.247 349.072 128.055L349.735 127.767L350.812 130.441L349.901 130.976C349.293 131.333 348.437 131.703 347.332 132.087C346.228 132.443 344.944 132.622 343.48 132.622ZM356.677 132.087V108.142H358.873L359.328 110.569H359.577L360.198 110.117C360.64 109.815 361.206 109.472 361.897 109.088C362.587 108.704 363.319 108.361 364.092 108.059C364.893 107.758 365.639 107.607 366.329 107.607C366.744 107.607 367.13 107.648 367.489 107.73L368.028 107.813L367.738 111.104L367.199 111.063C366.84 111.035 366.509 111.022 366.205 111.022C365.407 111.025 364.612 111.136 363.844 111.351C363.102 111.558 362.381 111.834 361.69 112.174C361.027 112.503 360.502 112.818 360.116 113.12V132.087H356.677ZM380.823 132.663C378.918 132.663 377.233 132.265 375.77 131.47C374.334 130.647 373.215 129.317 372.414 127.479C371.613 125.614 371.213 123.145 371.213 120.073C371.213 116.864 371.627 114.354 372.456 112.544C373.312 110.734 374.458 109.458 375.894 108.718C377.33 107.95 378.946 107.566 380.741 107.566C382.536 107.566 384.055 107.922 385.297 108.635C386.568 109.349 387.534 110.542 388.197 112.215C388.86 113.861 389.191 116.082 389.191 118.88V121.472H373.284L374.9 120.855C374.789 122.665 374.831 124.119 375.024 125.216C375.245 126.286 375.507 127.081 375.811 127.602C376.142 128.123 376.419 128.494 376.64 128.713C377.051 129.056 377.531 129.308 378.048 129.454C378.6 129.618 379.277 129.701 380.078 129.701C380.879 129.701 381.666 129.646 382.439 129.536C383.212 129.399 383.93 129.248 384.593 129.083C385.256 128.891 385.85 128.713 386.374 128.549C386.899 128.357 387.327 128.219 387.659 128.137L388.529 130.894C388.047 131.103 387.563 131.309 387.079 131.511C386.361 131.785 385.463 132.046 384.386 132.293C383.337 132.539 382.149 132.663 380.823 132.663ZM374.899 120.238L373.283 118.757L387.243 118.469L385.669 119.991C385.697 118.043 385.655 116.37 385.545 114.971C385.462 113.573 385.186 112.503 384.716 111.762C384.523 111.461 384.192 111.186 383.722 110.939C383.253 110.665 382.341 110.528 380.988 110.528C379.58 110.528 378.516 110.679 377.798 110.981C377.108 111.282 376.569 111.68 376.183 112.174C375.161 113.518 374.733 116.206 374.899 120.238ZM400.635 132.622C399.365 132.622 398.232 132.334 397.238 131.758C396.272 131.154 395.512 130.29 394.96 129.166C394.407 128.014 394.131 126.629 394.131 125.01C394.131 123.063 394.518 121.541 395.291 120.443C396.092 119.319 397.21 118.523 398.647 118.057C400.083 117.591 401.753 117.358 403.659 117.358H408.05C408.05 115.986 408.009 114.793 407.926 113.778C407.871 112.736 407.65 111.968 407.263 111.474C406.987 111.09 406.6 110.843 406.103 110.734C405.634 110.624 405.136 110.569 404.612 110.569C403.535 110.569 402.471 110.679 401.422 110.898C400.469 111.073 399.529 111.307 398.605 111.598C397.777 111.872 397.114 112.119 396.617 112.338L395.871 112.626L394.67 109.952L395.457 109.623C395.982 109.376 396.686 109.102 397.57 108.8C398.453 108.471 399.434 108.197 400.511 107.977C401.615 107.73 402.748 107.607 403.908 107.607C405.785 107.607 407.277 107.977 408.381 108.718C409.486 109.431 410.273 110.446 410.743 111.762C411.24 113.051 411.488 114.574 411.488 116.329V132.087H409.251L408.754 129.577H408.506C408.23 129.769 407.829 130.043 407.304 130.4C406.73 130.774 406.135 131.118 405.523 131.429C404.807 131.777 404.058 132.053 403.286 132.251C402.425 132.503 401.532 132.628 400.635 132.622ZM401.215 129.618C402.209 129.618 403.148 129.481 404.032 129.207C404.943 128.905 405.744 128.576 406.434 128.219C406.985 127.953 407.524 127.665 408.05 127.355V120.526C407.691 120.471 407.152 120.416 406.434 120.361C405.716 120.279 404.777 120.238 403.618 120.238C401.049 120.238 399.461 120.498 398.854 121.019C398.495 121.294 398.219 121.787 398.025 122.501C397.832 123.186 397.735 124.023 397.735 125.01C397.735 126.629 397.998 127.808 398.522 128.549C399.075 129.262 399.972 129.618 401.215 129.618ZM425.628 132.622C424.606 132.622 423.626 132.512 422.687 132.293C421.748 132.101 420.906 131.881 420.16 131.634C419.414 131.36 418.821 131.127 418.379 130.935L417.757 130.647L418.627 127.726L419.249 128.014C419.823 128.259 420.403 128.493 420.988 128.713C421.789 128.982 422.605 129.202 423.433 129.371C424.359 129.565 425.303 129.661 426.249 129.659C426.802 129.659 427.313 129.618 427.782 129.536C428.252 129.426 428.624 129.248 428.901 129.001C429.204 128.727 429.481 128.315 429.729 127.767C429.978 127.218 430.102 126.56 430.102 125.792C430.102 124.64 429.826 123.762 429.273 123.159C428.721 122.555 428.003 122.089 427.119 121.76C426.236 121.431 425.297 121.129 424.302 120.855C423.502 120.635 422.714 120.389 421.941 120.114C421.186 119.849 420.474 119.475 419.829 119.003C419.221 118.537 418.724 117.92 418.337 117.152C417.978 116.357 417.799 115.342 417.799 114.107C417.799 112.16 418.392 110.597 419.58 109.417C420.795 108.21 422.825 107.607 425.669 107.607C426.636 107.607 427.561 107.675 428.445 107.813C429.329 107.922 430.102 108.059 430.765 108.224C431.455 108.361 431.966 108.485 432.297 108.594L431.759 111.474L431.179 111.351C430.82 111.241 430.323 111.131 429.688 111.022C429.052 110.912 428.334 110.816 427.534 110.734C426.733 110.624 425.89 110.569 425.007 110.569C424.178 110.569 423.515 110.624 423.018 110.734C422.521 110.816 422.148 110.953 421.9 111.145C421.651 111.337 421.444 111.653 421.278 112.091C421.113 112.503 421.03 112.997 421.03 113.573C421.03 114.725 421.347 115.589 421.983 116.165C422.645 116.741 423.474 117.179 424.468 117.481C425.49 117.783 426.539 118.098 427.616 118.427C428.35 118.643 429.07 118.904 429.771 119.209C430.461 119.511 431.082 119.909 431.635 120.402C432.228 120.914 432.683 121.565 432.96 122.295C433.292 123.063 433.457 124.009 433.457 125.134C433.457 127.355 432.781 129.166 431.428 130.565C430.102 131.936 428.169 132.622 425.628 132.622ZM448.461 132.663C446.556 132.663 444.871 132.265 443.407 131.47C441.971 130.647 440.853 129.317 440.052 127.479C439.251 125.614 438.851 123.145 438.851 120.073C438.851 116.864 439.265 114.354 440.093 112.544C440.95 110.734 442.096 109.458 443.532 108.718C444.968 107.95 446.583 107.566 448.378 107.566C450.173 107.566 451.692 107.922 452.935 108.635C454.206 109.349 455.172 110.542 455.835 112.215C456.498 113.861 456.829 116.082 456.829 118.88V121.472H440.922L442.538 120.855C442.427 122.665 442.468 124.119 442.662 125.216C442.883 126.286 443.145 127.081 443.449 127.602C443.78 128.123 444.056 128.494 444.277 128.713C444.689 129.056 445.169 129.308 445.686 129.454C446.238 129.618 446.915 129.701 447.716 129.701C448.517 129.701 449.304 129.646 450.077 129.536C450.85 129.399 451.568 129.248 452.231 129.083C452.894 128.891 453.487 128.713 454.012 128.549C454.537 128.357 454.965 128.219 455.296 128.137L456.166 130.894C455.685 131.103 455.201 131.309 454.716 131.511C453.998 131.785 453.101 132.046 452.024 132.293C450.974 132.539 449.787 132.663 448.461 132.663ZM442.538 120.238L440.922 118.757L454.882 118.469L453.308 119.991C453.336 118.043 453.294 116.37 453.184 114.971C453.101 113.573 452.825 112.503 452.355 111.762C452.162 111.461 451.831 111.186 451.361 110.939C450.892 110.665 449.98 110.528 448.627 110.528C447.219 110.528 446.155 110.679 445.437 110.981C444.747 111.282 444.208 111.68 443.822 112.174C442.8 113.518 442.372 116.206 442.538 120.238ZM4.22535 189.202V158.427H6.54515L7.00082 160.855H7.24937C7.77409 160.471 8.38166 160.059 9.07207 159.621C9.76249 159.154 10.5496 158.757 11.4333 158.427C12.3447 158.071 13.3388 157.893 14.4159 157.893C15.9072 157.893 17.1914 158.318 18.2684 159.168C19.3731 159.991 20.2154 161.294 20.7953 163.077C21.4029 164.832 21.7067 167.122 21.7067 169.947C21.7067 172.608 21.4581 174.789 20.961 176.489C20.4639 178.162 19.8011 179.479 18.9727 180.439C18.1441 181.371 17.2052 182.016 16.1558 182.373C15.1354 182.751 14.0553 182.946 12.966 182.949C12.3032 182.949 11.6266 182.921 10.9362 182.866C10.2458 182.811 9.6106 182.729 9.03065 182.619L7.66362 182.414V189.202H4.22535ZM13.7531 179.904C14.0569 179.904 14.4297 179.877 14.8716 179.822C15.3411 179.739 15.7553 179.547 16.1143 179.246C16.501 178.917 16.8324 178.409 17.1085 177.723C17.4123 177.01 17.647 175.982 17.8127 174.638C17.9784 173.294 18.0613 171.511 18.0613 169.289C18.0613 167.479 18.0061 166.066 17.8956 165.051C17.8127 164.009 17.6747 163.241 17.4813 162.747C17.3156 162.226 17.1085 161.856 16.86 161.637C16.7219 161.499 16.4733 161.349 16.1143 161.184C15.7829 161.019 15.2582 160.937 14.5402 160.937C13.6106 160.945 12.6879 161.097 11.8061 161.39C10.9544 161.641 10.1234 161.958 9.32063 162.336C8.57498 162.665 8.02264 162.939 7.66362 163.159V179.04C8.24357 179.205 9.1135 179.397 10.2734 179.616C11.4233 179.807 12.5872 179.903 13.7531 179.904ZM28.7961 182.373V158.427H30.9916L31.4473 160.855H31.6959L32.3172 160.402C32.7591 160.101 33.3253 159.758 34.0157 159.374C34.7061 158.99 35.4379 158.647 36.2112 158.345C37.0121 158.043 37.7577 157.893 38.4482 157.893C38.8624 157.893 39.249 157.934 39.608 158.016L40.1466 158.098L39.8566 161.39L39.3181 161.349C38.9591 161.321 38.6277 161.307 38.3239 161.307C37.5255 161.311 36.7312 161.422 35.9627 161.637C35.2205 161.844 34.4994 162.12 33.8085 162.459C33.1457 162.789 32.621 163.104 32.2344 163.406V182.373H28.7961ZM52.2795 182.907C49.9873 182.907 48.1784 182.4 46.8528 181.385C45.5548 180.37 44.6297 178.93 44.0773 177.065C43.525 175.2 43.2488 172.978 43.2488 170.4C43.2488 167.822 43.525 165.6 44.0773 163.735C44.6297 161.87 45.5548 160.43 46.8528 159.415C48.1784 158.4 49.9873 157.893 52.2795 157.893C54.5717 157.893 56.3668 158.4 57.6647 159.415C58.9903 160.43 59.9293 161.87 60.4816 163.735C61.034 165.6 61.3101 167.822 61.3101 170.4C61.3101 172.978 61.034 175.2 60.4816 177.065C59.9293 178.93 58.9903 180.37 57.6647 181.385C56.3668 182.4 54.5717 182.907 52.2795 182.907ZM52.2795 179.945C53.3289 179.945 54.1989 179.822 54.8893 179.575C55.5986 179.335 56.2001 178.854 56.5877 178.217C57.0296 177.559 57.3333 176.599 57.499 175.337C57.6924 174.075 57.789 172.43 57.789 170.4C57.789 168.37 57.6924 166.725 57.499 165.463C57.3333 164.201 57.0296 163.241 56.5877 162.583C56.1734 161.897 55.6073 161.445 54.8893 161.225C54.1989 160.978 53.3289 160.855 52.2795 160.855C51.2301 160.855 50.3463 160.978 49.6283 161.225C48.9379 161.445 48.3717 161.897 47.9299 162.583C47.5156 163.241 47.2118 164.201 47.0185 165.463C46.8252 166.725 46.7285 168.37 46.7285 170.4C46.7285 172.43 46.8252 174.075 47.0185 175.337C47.2118 176.599 47.5156 177.559 47.9299 178.217C48.3717 178.875 48.9379 179.328 49.6283 179.575C50.3463 179.822 51.2301 179.945 52.2795 179.945ZM74.7399 182.907C73.2486 182.907 71.923 182.482 70.7631 181.632C69.6308 180.782 68.7333 179.465 68.0705 177.682C67.4353 175.899 67.1177 173.623 67.1177 170.853C67.1177 168.192 67.3524 166.025 67.8219 164.352C68.319 162.651 68.9818 161.335 69.8103 160.402C70.6388 159.47 71.5502 158.825 72.5444 158.469C73.5497 158.088 74.6167 157.892 75.6927 157.893C77.1054 157.879 78.5133 158.059 79.8766 158.427C80.4013 158.565 80.8156 158.702 81.1194 158.839V151.392H84.5576V182.373H82.2793L81.8236 179.904H81.6165C81.2574 180.178 80.7603 180.562 80.1251 181.056C79.49 181.522 78.7167 181.947 77.8054 182.331C76.9216 182.715 75.8998 182.907 74.7399 182.907ZM74.947 179.863C75.4994 179.863 76.0655 179.794 76.6455 179.657C77.2254 179.493 77.7915 179.301 78.3439 179.081C78.9238 178.862 79.4485 178.629 79.918 178.382C80.4151 178.135 80.8156 177.915 81.1194 177.723V162.007C80.788 161.87 80.3185 161.719 79.7109 161.554C79.131 161.39 78.4681 161.253 77.7225 161.143C76.9769 161.006 76.1898 160.937 75.3613 160.937C73.8147 160.937 72.7653 161.266 72.213 161.925C71.992 162.226 71.7573 162.706 71.5088 163.365C71.2878 164.023 71.0945 164.969 70.9288 166.203C70.7907 167.41 70.7217 169.015 70.7217 171.017C70.7217 173.266 70.8321 174.967 71.0531 176.119C71.3016 177.271 71.5778 178.066 71.8816 178.505C72.1854 178.944 72.4201 179.232 72.5858 179.369C72.8067 179.561 73.1243 179.698 73.5386 179.781C73.9528 179.835 74.4223 179.863 74.947 179.863ZM97.9805 182.907C96.9077 182.916 95.8512 182.646 94.915 182.126C94.0037 181.577 93.2718 180.686 92.7195 179.451C92.1948 178.217 91.9324 176.517 91.9324 174.35V158.427H95.3707V173.074C95.3707 174.583 95.4121 175.817 95.495 176.777C95.5778 177.737 95.7297 178.409 95.9507 178.793C96.144 179.095 96.4478 179.314 96.862 179.451C97.3039 179.589 97.801 179.657 98.3533 179.657C99.596 179.657 100.825 179.424 102.04 178.958C103.213 178.494 104.373 178 105.52 177.477V158.427H108.958V182.373H106.638L106.224 180.069H105.976C105.561 180.288 104.94 180.631 104.111 181.097C103.202 181.572 102.261 181.984 101.294 182.331C100.233 182.718 99.1108 182.913 97.9805 182.907ZM125.555 182.907C123.677 182.907 122.02 182.482 120.584 181.632C119.147 180.782 118.029 179.438 117.228 177.6C116.427 175.735 116.027 173.307 116.027 170.318C116.027 167.877 116.289 165.847 116.814 164.229C117.366 162.61 118.112 161.349 119.051 160.443C119.973 159.521 121.112 158.842 122.365 158.469C123.635 158.085 124.988 157.893 126.424 157.893C127.474 157.893 128.537 157.961 129.614 158.098C130.719 158.235 131.616 158.386 132.307 158.551L131.893 161.431C131.368 161.376 130.539 161.28 129.407 161.143C128.275 160.978 127.06 160.896 125.762 160.896C124.74 160.896 123.87 160.978 123.152 161.143C122.462 161.307 121.923 161.582 121.536 161.966C121.012 162.542 120.556 163.598 120.169 165.134C119.81 166.642 119.631 168.453 119.631 170.565C119.631 172.512 119.783 174.089 120.086 175.296C120.39 176.475 120.749 177.381 121.164 178.011C121.578 178.615 121.951 179.04 122.282 179.287C122.503 179.451 122.793 179.602 123.152 179.739C123.539 179.877 124.077 179.945 124.767 179.945C125.568 179.945 126.383 179.849 127.212 179.657C128.04 179.465 128.8 179.246 129.49 178.999C130.18 178.752 130.733 178.533 131.147 178.341L131.81 178.053L132.887 180.727L131.975 181.262C131.368 181.618 130.512 181.989 129.407 182.373C128.302 182.729 127.018 182.907 125.555 182.907ZM145.048 182.949C143.861 182.949 142.825 182.757 141.942 182.373C141.058 181.961 140.367 181.193 139.87 180.069C139.401 178.917 139.166 177.216 139.166 174.967V162.501H136.432V160.361L139.29 159.785L140.202 154.19H142.604V159.826H147.41V162.583H142.604V175.214C142.604 176.722 142.646 177.819 142.729 178.505C142.812 179.191 143.019 179.63 143.35 179.822C143.709 179.986 144.303 180.069 145.131 180.069H146.291C146.623 180.041 146.885 180.027 147.078 180.027L147.368 179.986V182.743L146.747 182.825C146.333 182.907 145.767 182.949 145.048 182.949ZM154.048 182.373V158.427H157.486V182.373H154.048ZM153.675 154.354V150.857H157.901V154.354H153.675ZM169.454 182.373L162.453 158.427H166.141L171.566 179.451H171.815L177.2 158.427H180.888L173.927 182.373H169.454ZM185.884 182.373V158.427H189.323V182.373H185.884ZM185.511 154.354V150.857H189.737V154.354H185.511ZM204.191 182.949C203.003 182.949 201.968 182.757 201.084 182.373C200.2 181.961 199.51 181.193 199.013 180.069C198.543 178.917 198.308 177.216 198.308 174.967V162.501H195.574V160.361L198.433 159.785L199.344 154.19H201.747V159.826H206.552V162.583H201.747V175.214C201.747 176.722 201.788 177.819 201.871 178.505C201.954 179.191 202.161 179.63 202.492 179.822C202.851 179.986 203.445 180.069 204.274 180.069H205.433C205.765 180.041 206.027 180.027 206.221 180.027L206.511 179.986V182.743L205.889 182.825C205.475 182.907 204.909 182.949 204.191 182.949ZM213.325 189.202L216.556 179.863L208.851 158.427H212.538L218.089 175.913H218.255L223.805 158.427H227.492L219.373 180.85L216.97 189.202H213.325Z" fill="white"/>
</svg>
