<svg width="222" height="22" viewBox="0 0 222 22" fill="none" xmlns="http://www.w3.org/2000/svg">
<path d="M3.12467 21.2855L0.174316 2.11293H3.1751L5.09157 18.1861H5.26808L7.68888 6.63865H11.4462L13.867 18.1861H14.0183L15.9599 2.11293H18.9355L16.0356 21.2855H12.1018L9.63057 9.60093H9.47927L7.00803 21.2855H3.12467ZM27.1141 21.6695C25.8701 21.6695 24.769 21.4044 23.8107 20.8741C22.8693 20.3255 22.1296 19.4295 21.5917 18.1861C21.0705 16.9426 20.81 15.2969 20.81 13.2489C20.81 11.0912 21.0873 9.40893 21.6421 8.20207C22.1969 6.99522 22.945 6.13579 23.8864 5.62379C24.8278 5.11179 25.8869 4.85579 27.0637 4.85579C28.2573 4.85579 29.2659 5.10265 30.0897 5.59636C30.9302 6.07179 31.5691 6.86722 32.0062 7.98265C32.4432 9.09807 32.6618 10.5884 32.6618 12.4535V14.4284H22.4995L23.836 13.9346C23.8023 14.8855 23.8276 15.6718 23.9116 16.2935C23.9957 16.9152 24.1133 17.3906 24.2646 17.7198C24.4328 18.0489 24.6009 18.2958 24.769 18.4604C24.9707 18.6615 25.2229 18.8169 25.5255 18.9266C25.8281 19.0181 26.2063 19.0638 26.6602 19.0638C27.1309 19.0638 27.6185 19.0181 28.1228 18.9266C28.6439 18.8352 29.1315 18.7255 29.5854 18.5975C30.0393 18.4695 30.4427 18.3506 30.7958 18.2409C31.1488 18.1129 31.4094 18.0215 31.5775 17.9666L32.3088 20.3529C31.9829 20.5044 31.6551 20.6507 31.3253 20.7918C30.7264 21.0426 30.1111 21.2443 29.4845 21.3952C28.7066 21.5846 27.9113 21.6766 27.1141 21.6695ZM23.836 12.8649L22.4995 12.0695L30.9975 11.8775L29.6862 12.7278C29.6862 11.6124 29.6526 10.6706 29.5854 9.90265C29.5349 9.13465 29.392 8.55865 29.1567 8.17465C29.039 8.01007 28.8457 7.85465 28.5767 7.70836C28.3245 7.54379 27.8454 7.4615 27.1393 7.4615C26.3828 7.4615 25.8113 7.55293 25.4246 7.73579C25.0548 7.90036 24.769 8.11979 24.5672 8.39407C24.0125 9.10722 23.7687 10.5975 23.836 12.8649ZM36.4159 21.2855V0.522074H39.3158V21.2855H36.4159ZM49.3468 21.6421C48.1364 21.6421 47.0605 21.3586 46.1191 20.7918C45.1945 20.2249 44.4632 19.3198 43.9252 18.0764C43.4041 16.8329 43.1435 15.2146 43.1435 13.2215C43.1435 11.5758 43.32 10.2135 43.6731 9.13465C44.0261 8.0375 44.5136 7.18722 45.1356 6.58379C45.7576 5.96207 46.4805 5.52322 47.3043 5.26722C48.1661 5.00562 49.0573 4.87637 49.952 4.88322C50.7253 4.88322 51.465 4.94722 52.1711 5.07522C52.8772 5.18493 53.4319 5.29465 53.8354 5.40436L53.5076 7.90036C53.1041 7.8455 52.5325 7.77236 51.7928 7.68093C51.07 7.57122 50.3387 7.51636 49.599 7.51636C48.9433 7.51636 48.4306 7.57122 48.0608 7.68093C47.6909 7.79065 47.4051 7.95522 47.2034 8.17465C46.884 8.54036 46.6234 9.17122 46.4217 10.0672C46.2368 10.9449 46.1443 12.0238 46.1443 13.3038C46.1443 14.4924 46.2199 15.4524 46.3713 16.1838C46.5394 16.8969 46.7327 17.4455 46.9512 17.8295C47.1866 18.1952 47.3967 18.4512 47.5816 18.5975C47.6993 18.7072 47.8674 18.8078 48.086 18.8992C48.3045 18.9906 48.6155 19.0364 49.019 19.0364C49.4561 19.0364 49.9268 18.9724 50.4311 18.8444C50.9355 18.7164 51.4062 18.5701 51.8433 18.4055C52.2972 18.2226 52.6586 18.0672 52.9276 17.9392L53.3563 17.7472L54.1884 20.0786L53.5832 20.4901C53.1966 20.7461 52.6418 21.0021 51.9189 21.2581C51.196 21.5141 50.3387 21.6421 49.3468 21.6421ZM62.4921 21.6421C60.9791 21.6421 59.7855 21.3038 58.9113 20.6272C58.0539 19.9506 57.4403 18.9906 57.0705 17.7472C56.7006 16.4855 56.5157 14.9861 56.5157 13.2489C56.5157 11.5301 56.7006 10.0489 57.0705 8.8055C57.4403 7.56207 58.0539 6.60207 58.9113 5.9255C59.7855 5.23065 60.9791 4.88322 62.4921 4.88322C63.9882 4.88322 65.165 5.23065 66.0224 5.9255C66.8966 6.60207 67.5102 7.56207 67.8632 8.8055C68.233 10.0489 68.418 11.5392 68.418 13.2764C68.418 14.9952 68.233 16.4855 67.8632 17.7472C67.5102 18.9906 66.8966 19.9506 66.0224 20.6272C65.165 21.3038 63.9882 21.6421 62.4921 21.6421ZM62.4921 19.0912C63.0636 19.0912 63.5343 19.0181 63.9042 18.8718C64.2908 18.7072 64.5934 18.4238 64.812 18.0215C65.0473 17.6009 65.207 17.0066 65.2911 16.2386C65.392 15.4706 65.4424 14.4741 65.4424 13.2489C65.4424 12.0421 65.392 11.0546 65.2911 10.2866C65.207 9.51865 65.0473 8.9335 64.812 8.53122C64.5934 8.11065 64.2908 7.82722 63.9042 7.68093C63.5175 7.51636 63.0468 7.43407 62.4921 7.43407C61.9205 7.43407 61.4414 7.51636 61.0547 7.68093C60.668 7.82722 60.357 8.11065 60.1217 8.53122C59.9031 8.9335 59.735 9.51865 59.6174 10.2866C59.5165 11.0546 59.4661 12.0421 59.4661 13.2489C59.4661 14.4741 59.5165 15.4706 59.6174 16.2386C59.735 17.0066 59.9031 17.6009 60.1217 18.0215C60.357 18.4238 60.668 18.7072 61.0547 18.8718C61.4414 19.0181 61.9205 19.0912 62.4921 19.0912ZM72.2204 21.2855V5.23979H74.1117L74.4647 6.83065H74.5656C74.7841 6.68436 75.0783 6.51065 75.4482 6.3095C75.818 6.09007 76.2299 5.87065 76.6838 5.65122C77.1377 5.4135 77.6168 5.2215 78.1211 5.07522C78.6255 4.92893 79.1298 4.85579 79.6341 4.85579C80.4074 4.85579 81.0547 5.04779 81.5758 5.43179C82.1138 5.7975 82.5088 6.30036 82.761 6.94036C83.4503 6.46493 84.2152 5.99865 85.0557 5.5415C85.9131 5.08436 86.8377 4.85579 87.8295 4.85579C88.8046 4.85579 89.5527 5.11179 90.0738 5.62379C90.6118 6.1175 90.9816 6.80322 91.1834 7.68093C91.4019 8.55865 91.5112 9.58265 91.5112 10.7529V21.2855H88.5861V11.5209C88.5861 10.6981 88.5692 10.0215 88.5356 9.49122C88.502 8.94265 88.4011 8.53122 88.233 8.25693C88.0868 8.04093 87.8704 7.89377 87.6278 7.8455C87.415 7.77604 87.1944 7.73911 86.9722 7.73579C86.6192 7.73579 86.2493 7.79065 85.8627 7.90036C85.4824 7.98958 85.1109 8.11816 84.7531 8.28436C84.4415 8.41799 84.1382 8.57376 83.8453 8.75065C83.6389 8.85979 83.4369 8.97876 83.2401 9.10722C83.2737 9.3815 83.2906 9.66493 83.2906 9.9575C83.3074 10.2318 83.3158 10.5152 83.3158 10.8078V21.2855H80.4158V11.4661C80.4158 10.5518 80.3906 9.85693 80.3402 9.3815C80.3066 8.88779 80.2057 8.50379 80.0376 8.2295C79.8982 8.03661 79.7025 7.90116 79.4828 7.8455C79.2706 7.77341 79.0496 7.73642 78.8272 7.73579C78.3733 7.73579 77.911 7.81807 77.4403 7.98265C76.9844 8.12313 76.5379 8.29725 76.1038 8.50379C75.7777 8.66258 75.458 8.83645 75.1456 9.02493V21.2855H72.2204ZM101.36 21.6695C100.116 21.6695 99.0152 21.4044 98.057 20.8741C97.1156 20.3255 96.3759 19.4295 95.8379 18.1861C95.3168 16.9426 95.0562 15.2969 95.0562 13.2489C95.0562 11.0912 95.3336 9.40893 95.8884 8.20207C96.4431 6.99522 97.1912 6.13579 98.1327 5.62379C99.0741 5.11179 100.133 4.85579 101.31 4.85579C102.504 4.85579 103.512 5.10265 104.336 5.59636C105.177 6.07179 105.815 6.86722 106.252 7.98265C106.69 9.09807 106.908 10.5884 106.908 12.4535V14.4284H96.7457L98.0822 13.9346C98.0486 14.8855 98.0738 15.6718 98.1579 16.2935C98.2419 16.9152 98.3596 17.3906 98.5109 17.7198C98.679 18.0489 98.8471 18.2958 99.0152 18.4604C99.217 18.6615 99.4691 18.8169 99.7717 18.9266C100.074 19.0181 100.453 19.0638 100.906 19.0638C101.377 19.0638 101.865 19.0181 102.369 18.9266C102.89 18.8352 103.378 18.7255 103.832 18.5975C104.286 18.4695 104.689 18.3506 105.042 18.2409C105.395 18.1129 105.656 18.0215 105.824 17.9666L106.555 20.3529C106.229 20.5044 105.901 20.6507 105.572 20.7918C104.973 21.0426 104.357 21.2443 103.731 21.3952C102.953 21.5846 102.158 21.6766 101.36 21.6695ZM98.0822 12.8649L96.7457 12.0695L105.244 11.8775L103.932 12.7278C103.932 11.6124 103.899 10.6706 103.832 9.90265C103.781 9.13465 103.638 8.55865 103.403 8.17465C103.285 8.01007 103.092 7.85465 102.823 7.70836C102.571 7.54379 102.092 7.4615 101.386 7.4615C100.629 7.4615 100.058 7.55293 99.6709 7.73579C99.301 7.90036 99.0152 8.11979 98.8135 8.39407C98.2587 9.10722 98.015 10.5975 98.0822 12.8649ZM121.002 21.6695C120.212 21.6695 119.523 21.5324 118.934 21.2581C118.363 20.9655 117.917 20.4261 117.598 19.6398C117.295 18.8535 117.144 17.6832 117.144 16.1289V8.53122H115.454V6.55636L117.27 6.17236L117.825 2.38722H120.069V6.1175H123.045V8.58607H120.044V16.2661C120.044 17.1072 120.077 17.7198 120.145 18.1038C120.212 18.4878 120.338 18.7346 120.523 18.8444C120.708 18.9358 120.994 18.9815 121.38 18.9815C121.649 18.9815 121.901 18.9724 122.137 18.9541C122.432 18.9338 122.726 18.9064 123.019 18.8718V21.4501L122.439 21.5598C121.964 21.6401 121.483 21.6768 121.002 21.6695ZM131.64 21.6421C130.127 21.6421 128.935 21.3038 128.061 20.6272C127.202 19.9506 126.59 18.9906 126.22 17.7472C125.85 16.4855 125.665 14.9861 125.665 13.2489C125.665 11.5301 125.85 10.0489 126.22 8.8055C126.589 7.56207 127.202 6.60207 128.061 5.9255C128.935 5.23065 130.128 4.88322 131.64 4.88322C133.138 4.88322 134.313 5.23065 135.171 5.9255C136.046 6.60207 136.66 7.56207 137.013 8.8055C137.382 10.0489 137.567 11.5392 137.567 13.2764C137.567 14.9952 137.382 16.4855 137.013 17.7472C136.66 18.9906 136.046 19.9506 135.172 20.6272C134.313 21.3038 133.137 21.6421 131.64 21.6421ZM131.64 19.0912C132.212 19.0912 132.684 19.0181 133.052 18.8718C133.44 18.7072 133.742 18.4238 133.96 18.0215C134.196 17.6009 134.356 17.0066 134.44 16.2386C134.541 15.4706 134.592 14.4741 134.592 13.2489C134.592 12.0421 134.541 11.0546 134.44 10.2866C134.356 9.51865 134.196 8.9335 133.96 8.53122C133.742 8.11065 133.44 7.82722 133.052 7.68093C132.666 7.51636 132.195 7.43407 131.64 7.43407C131.07 7.43407 130.59 7.51636 130.204 7.68093C129.816 7.82722 129.506 8.11065 129.271 8.53122C129.052 8.9335 128.883 9.51865 128.767 10.2866C128.665 11.0546 128.615 12.0421 128.615 13.2489C128.615 14.4741 128.665 15.4706 128.766 16.2386C128.883 17.0066 129.052 17.6009 129.27 18.0215C129.506 18.4238 129.816 18.7072 130.204 18.8718C130.59 19.0181 131.07 19.0912 131.64 19.0912ZM145.254 21.2855L150.071 2.11293H154.004L158.821 21.2855H155.795L154.433 15.3884L156.022 16.5952H148.078L149.617 15.3884L148.28 21.2855H145.254ZM149.617 15.2786L148.633 13.8249H155.442L154.458 15.2786L151.811 3.64893L153.424 5.04779H150.651L152.264 3.64893L149.617 15.2786ZM161.219 21.3129L161.321 12.4809L161.219 2.11293H164.195L164.095 10.6158L164.195 21.2855L161.219 21.3129ZM175.207 21.2855V2.11293H178.158L178.082 11.1918L176.771 10.1495H186.076L184.765 11.1918L184.689 2.11293H187.639V21.2855H184.689L184.765 11.8775L186.076 12.9198H176.771L178.082 11.8775L178.158 21.2855H175.207ZM198.574 21.6695C197.279 21.6695 196.17 21.4135 195.245 20.9015C194.321 20.3895 193.615 19.5026 193.127 18.2409C192.656 16.9609 192.421 15.1872 192.421 12.9198V2.11293H195.371V12.1518C195.371 13.6329 195.422 14.8215 195.523 15.7175C195.623 16.5952 195.783 17.2626 196.002 17.7198C196.237 18.1586 196.565 18.4512 196.985 18.5975C197.405 18.7438 197.943 18.8169 198.599 18.8169C199.255 18.8169 199.793 18.7438 200.213 18.5975C200.633 18.4329 200.953 18.1312 201.171 17.6924C201.406 17.2535 201.566 16.5952 201.65 15.7175C201.751 14.8215 201.802 13.6329 201.802 12.1518V2.11293H204.752V12.6729C204.752 15.0318 204.508 16.8604 204.021 18.1586C203.55 19.4569 202.852 20.3712 201.928 20.9015C201.02 21.4135 199.902 21.6695 198.574 21.6695ZM215.512 21.6695C214.856 21.6681 214.2 21.6406 213.545 21.5872C212.905 21.5373 212.266 21.4733 211.629 21.3952L210.166 21.2581C209.796 21.2032 209.603 21.1666 209.586 21.1484L209.662 12.3438L209.536 2.11293C210.217 2.04958 210.897 1.98558 211.578 1.92093C212.167 1.86607 212.789 1.8295 213.444 1.81122C214.117 1.77465 214.747 1.75636 215.336 1.75636C216.344 1.75636 217.252 1.92093 218.059 2.25007C218.859 2.54166 219.55 3.10998 220.026 3.86836C220.513 4.61807 220.757 5.6695 220.757 7.02265C220.757 7.88207 220.639 8.58607 220.404 9.13465C220.169 9.68322 219.875 10.1129 219.521 10.4238C219.228 10.7054 218.896 10.9366 218.538 11.1095C218.235 11.2375 218.017 11.3106 217.882 11.3289L218.286 9.7655V12.7552L217.655 11.1369C218.026 11.2071 218.389 11.3174 218.74 11.4661C219.159 11.6218 219.551 11.8536 219.9 12.1518C220.286 12.4626 220.597 12.9015 220.833 13.4684C221.085 14.0169 221.211 14.7118 221.211 15.5529C221.211 16.7781 221.051 17.7929 220.732 18.5975C220.412 19.3838 219.975 20.0055 219.421 20.4626C218.879 20.9033 218.262 21.2205 217.605 21.3952C216.92 21.5797 216.217 21.6718 215.512 21.6695ZM215.689 19.1186C216.697 19.1186 217.353 18.8352 217.655 18.2684C217.975 17.7015 218.135 16.8329 218.135 15.6626C218.135 14.4741 217.874 13.6604 217.353 13.2215C216.849 12.7826 216.142 12.5632 215.235 12.5632H211.175L212.486 11.3838L212.536 20.3255L212.36 18.8718C212.394 18.8718 212.562 18.8992 212.864 18.9541C213.267 18.9983 213.671 19.0349 214.075 19.0638C214.579 19.1004 215.117 19.1186 215.689 19.1186ZM215.436 10.0946C216.344 10.0946 216.949 9.86607 217.252 9.40893C217.571 8.95179 217.731 8.20207 217.731 7.15979C217.731 6.04436 217.538 5.27636 217.151 4.85579C216.781 4.41693 216.151 4.1975 215.26 4.1975C214.705 4.1975 214.218 4.21579 213.797 4.25236C213.377 4.27065 213.007 4.29807 212.688 4.33464C212.411 4.36705 212.133 4.39448 211.856 4.41693L212.486 2.93579V11.3015L211.175 10.0672L215.436 10.0946Z" fill="black"/>
</svg>
