<svg width="662" height="27" viewBox="0 0 662 27" fill="none" xmlns="http://www.w3.org/2000/svg">
<path d="M3.6 21.8857L0 2.02857H2.45714L5.22857 19.7714H5.42857L8.6 6.68571H12.0286L15.2 19.7714H15.4L18.1714 2.02857H20.6286L17.0571 21.8857H13.5714L10.4 8.8H10.2286L7.02857 21.8857H3.6ZM23.4686 21.8857V5.25714H24.9829L25.2971 6.94286H25.4686L25.8971 6.62857C26.2023 6.41943 26.592 6.18057 27.0686 5.91428C27.5451 5.648 28.0491 5.40914 28.5829 5.2C29.1349 4.99086 29.6491 4.88571 30.1257 4.88571C30.4114 4.88571 30.6777 4.91429 30.9257 4.97143L31.2971 5.02857L31.0971 7.31429L30.7257 7.28571C30.4976 7.26746 30.2689 7.25793 30.04 7.25714C29.5063 7.25714 28.9634 7.33371 28.4114 7.48571C27.8777 7.63771 27.3829 7.82857 26.9257 8.05714C26.5431 8.24007 26.1795 8.46018 25.84 8.71428V21.8857H23.4686ZM34.8834 21.8857V5.25714H37.2549V21.8857H34.8834ZM34.6263 2.42857V-1.90735e-06H37.5406V2.42857H34.6263ZM47.5097 22.2857C46.6914 22.2857 45.9771 22.152 45.3669 21.8857C44.7577 21.6 44.2811 21.0663 43.9383 20.2857C43.6149 19.4857 43.4526 18.3051 43.4526 16.7429V8.08571H41.5669V6.6L43.5383 6.2L44.1669 2.31428H45.824V6.22857H49.1383V8.14286H45.824V16.9143C45.824 17.9623 45.8526 18.7234 45.9097 19.2C45.9669 19.6766 46.1097 19.9806 46.3383 20.1143C46.5863 20.2286 46.9954 20.2857 47.5669 20.2857H48.3669C48.5954 20.2663 48.7771 20.2571 48.9097 20.2571L49.1097 20.2286V22.1429L48.6811 22.2C48.2942 22.2652 47.902 22.2939 47.5097 22.2857ZM53.7177 21.8857V5.25714H56.0891V21.8857H53.7177ZM53.4606 2.42857V-1.90735e-06H56.3749V2.42857H53.4606ZM62 21.8857V5.25714H63.6L63.8571 6.88571H64C64.1714 6.79086 64.4571 6.63771 64.8571 6.42857C65.2571 6.2 65.7326 5.97143 66.2857 5.74286C66.8377 5.49486 67.4286 5.29486 68.0571 5.14286C68.6857 4.97143 69.3143 4.88571 69.9429 4.88571C70.9897 4.88571 71.7897 5.152 72.3429 5.68571C72.8949 6.2 73.2663 6.90514 73.4571 7.8C73.6663 8.69486 73.7714 9.70514 73.7714 10.8286V21.8857H71.4V11.6571C71.4 10.5337 71.3806 9.67657 71.3429 9.08571C71.304 8.49486 71.1806 8.048 70.9714 7.74286C70.8992 7.62266 70.804 7.51789 70.6912 7.43455C70.5785 7.3512 70.4504 7.29092 70.3143 7.25714C70.0286 7.18057 69.7234 7.14286 69.4 7.14286C68.7143 7.14286 68.0091 7.25714 67.2857 7.48571C66.651 7.66923 66.0303 7.8984 65.4286 8.17143C64.8949 8.4 64.5429 8.56229 64.3714 8.65714V21.8857H62ZM83.5029 27C82.7417 27 82.0274 26.9623 81.36 26.8857C80.7742 26.8229 80.1923 26.7276 79.6171 26.6C79.1223 26.5051 78.7314 26.4194 78.4457 26.3429L78.0171 26.2286L78.3029 24.0857C79.3931 24.2797 80.4888 24.4417 81.5886 24.5714C82.7131 24.7234 83.7989 24.8 84.8457 24.8C85.9132 24.8 86.6274 24.7143 86.9886 24.5429C87.3509 24.3714 87.5314 24.1051 87.5314 23.7429C87.5314 23.5337 87.4846 23.3429 87.3886 23.1714C87.2937 23 87.1223 22.8194 86.8743 22.6286C86.6274 22.4571 86.2652 22.2571 85.7886 22.0286C85.3131 21.8 84.6846 21.5234 83.9029 21.2C82.8171 20.7429 82.0274 20.4194 81.5314 20.2286C81.056 20.0194 80.7509 19.8857 80.6171 19.8286C80.5029 19.752 80.4457 19.6857 80.4457 19.6286C80.4457 19.6091 80.4937 19.4857 80.5886 19.2571C80.6846 19.0091 80.808 18.7143 80.96 18.3714C81.1132 18.0286 81.2652 17.6766 81.4172 17.3143C81.5703 16.9337 81.7029 16.6091 81.8172 16.3429C80.56 16.0949 79.5417 15.4857 78.76 14.5143C77.9989 13.5429 77.6171 12.3623 77.6171 10.9714C77.6171 9.40914 77.9223 8.19086 78.5314 7.31429C79.1157 6.45771 79.9557 5.8077 80.9314 5.45714C81.9417 5.07657 83.0274 4.88571 84.1886 4.88571C85.1705 4.89169 86.152 4.9298 87.1314 5C87.6365 5.03451 88.1412 5.07261 88.6457 5.11428C89.1223 5.152 89.5029 5.18057 89.7886 5.2L90.2171 5.22857V6.74286L88.3314 7.02857C88.3314 7.00914 88.408 7.20914 88.56 7.62857C88.7314 8.02857 88.8937 8.53371 89.0457 9.14286C89.2171 9.73371 89.3029 10.3143 89.3029 10.8857C89.3029 11.9714 89.0651 12.9429 88.5886 13.8C88.1131 14.6377 87.4274 15.3051 86.5314 15.8C85.6366 16.2766 84.56 16.5143 83.3029 16.5143L83.1029 17.6C83.0274 18 82.9886 18.2377 82.9886 18.3143C82.9886 18.352 83.0457 18.4091 83.16 18.4857L83.9029 18.8C84.4639 19.0072 85.0167 19.2359 85.56 19.4857C86.6652 19.9429 87.5132 20.3909 88.1029 20.8286C88.6937 21.2663 89.1029 21.6949 89.3314 22.1143C89.56 22.5337 89.6743 22.952 89.6743 23.3714C89.6743 24.1337 89.408 24.7806 88.8743 25.3143C88.36 25.8663 87.6366 26.2857 86.7029 26.5714C85.7886 26.8571 84.7223 27 83.5029 27ZM83.4457 14.4571C84.3029 14.4571 84.9886 14.352 85.5029 14.1429C86.0366 13.9337 86.4172 13.5714 86.6457 13.0571C86.8937 12.5234 87.0171 11.7806 87.0171 10.8286C87.0171 9.74286 86.9509 8.87657 86.8172 8.22857C86.6846 7.56229 86.56 7.2 86.4457 7.14286C86.408 7.10514 86.2457 7.07657 85.96 7.05714C85.6743 7.01943 85.36 7 85.0171 7C84.6743 6.98057 84.3703 6.97143 84.1029 6.97143L83.7314 6.94286C82.8366 6.94286 82.1029 7.048 81.5314 7.25714C81.2616 7.35751 81.0142 7.51011 80.8033 7.70622C80.5925 7.90233 80.4224 8.13809 80.3029 8.4C80.056 8.952 79.9314 9.76229 79.9314 10.8286C79.9314 12.2377 80.1989 13.2 80.7314 13.7143C81.2846 14.2091 82.1886 14.4571 83.4457 14.4571ZM106.609 22.2571C105.314 22.2571 104.171 21.9623 103.181 21.3714C102.191 20.7806 101.419 19.848 100.866 18.5714C100.314 17.2766 100.038 15.5909 100.038 13.5143C100.038 11.8194 100.219 10.4091 100.581 9.28571C100.962 8.16228 101.477 7.28572 102.123 6.65714C102.759 6.01668 103.545 5.54525 104.409 5.28571C105.286 5.01943 106.219 4.88571 107.209 4.88571C107.934 4.88571 108.666 4.93371 109.409 5.02857C110.033 5.10009 110.653 5.205 111.266 5.34286L110.981 7.34286C110.619 7.30514 110.048 7.23771 109.266 7.14286C108.486 7.02857 107.648 6.97143 106.752 6.97143C106.048 6.97143 105.448 7.02857 104.952 7.14286C104.477 7.25714 104.105 7.448 103.838 7.71428C103.477 8.11428 103.162 8.848 102.895 9.91428C102.648 10.9623 102.523 12.2194 102.523 13.6857C102.523 15.0377 102.629 16.1337 102.838 16.9714C103.048 17.7909 103.295 18.4194 103.581 18.8571C103.866 19.2766 104.123 19.5714 104.352 19.7429C104.505 19.8571 104.705 19.9623 104.952 20.0571C105.219 20.152 105.591 20.2 106.066 20.2C106.619 20.2 107.181 20.1337 107.752 20C108.323 19.8663 108.848 19.7143 109.323 19.5429C109.8 19.3714 110.181 19.2194 110.466 19.0857L110.923 18.8857L111.666 20.7429L111.038 21.1143C110.619 21.3623 110.029 21.6194 109.266 21.8857C108.505 22.1337 107.619 22.2571 106.609 22.2571ZM115.712 21.8857V5.25714H117.226L117.541 6.94286H117.712L118.141 6.62857C118.446 6.41943 118.835 6.18057 119.312 5.91428C119.789 5.648 120.293 5.40914 120.826 5.2C121.378 4.99086 121.893 4.88571 122.369 4.88571C122.655 4.88571 122.921 4.91429 123.169 4.97143L123.541 5.02857L123.341 7.31429L122.969 7.28571C122.741 7.26746 122.512 7.25793 122.283 7.25714C121.75 7.25714 121.207 7.33371 120.655 7.48571C120.121 7.63771 119.626 7.82857 119.169 8.05714C118.787 8.24007 118.423 8.46018 118.083 8.71428V21.8857H115.712ZM132.366 22.2857C131.051 22.2857 129.889 22.0091 128.88 21.4571C127.889 20.8857 127.118 19.9623 126.566 18.6857C126.014 17.3909 125.737 15.6766 125.737 13.5429C125.737 11.3143 126.023 9.57143 126.594 8.31429C127.185 7.05714 127.975 6.17143 128.966 5.65714C129.957 5.12343 131.071 4.85714 132.309 4.85714C133.546 4.85714 134.594 5.10514 135.451 5.6C136.328 6.09486 136.994 6.92343 137.451 8.08571C137.909 9.22857 138.137 10.7714 138.137 12.7143V14.5143H127.166L128.28 14.0857C128.203 15.3429 128.232 16.352 128.366 17.1143C128.518 17.8571 128.699 18.4091 128.909 18.7714C129.137 19.1337 129.328 19.3909 129.48 19.5429C129.746 19.7714 130.071 19.9429 130.451 20.0571C130.832 20.1714 131.299 20.2286 131.851 20.2286C132.403 20.2286 132.946 20.1909 133.48 20.1143C134.014 20.0194 134.509 19.9143 134.966 19.8C135.423 19.6663 135.832 19.5429 136.194 19.4286C136.557 19.2949 136.851 19.2 137.08 19.1429L137.68 21.0571C137.509 21.1337 137.175 21.2766 136.68 21.4857C136.074 21.7089 135.454 21.8903 134.823 22.0286C134.099 22.2 133.28 22.2857 132.366 22.2857ZM128.28 13.6571L127.166 12.6286L136.794 12.4286L135.709 13.4857C135.728 12.1337 135.699 10.9714 135.623 10C135.566 9.02857 135.375 8.28571 135.051 7.77143C134.918 7.56228 134.689 7.37143 134.366 7.2C134.042 7.00914 133.414 6.91428 132.48 6.91428C131.509 6.91428 130.775 7.01943 130.28 7.22857C129.803 7.43771 129.432 7.71428 129.166 8.05714C128.461 8.99086 128.166 10.8571 128.28 13.6571ZM146.031 22.2571C145.154 22.2571 144.374 22.0571 143.688 21.6571C143.022 21.2377 142.497 20.6377 142.117 19.8571C141.736 19.0571 141.545 18.0949 141.545 16.9714C141.545 15.6194 141.811 14.5623 142.345 13.8C142.897 13.0194 143.669 12.4663 144.659 12.1429C145.65 11.8194 146.802 11.6571 148.117 11.6571H151.145C151.145 10.7051 151.117 9.87657 151.059 9.17143C151.022 8.448 150.869 7.91429 150.602 7.57143C150.411 7.30514 150.145 7.13371 149.802 7.05714C149.465 6.97944 149.12 6.94109 148.774 6.94286C148.031 6.94286 147.297 7.01943 146.574 7.17143C145.917 7.29278 145.268 7.45501 144.631 7.65714C144.059 7.848 143.602 8.01943 143.259 8.17143L142.745 8.37143L141.917 6.51429L142.459 6.28571C142.822 6.11428 143.307 5.92343 143.917 5.71428C144.526 5.48571 145.202 5.29486 145.945 5.14286C146.714 4.97064 147.5 4.8844 148.288 4.88571C149.583 4.88571 150.611 5.14286 151.374 5.65714C152.136 6.152 152.679 6.85714 153.002 7.77143C153.345 8.66628 153.517 9.72343 153.517 10.9429V21.8857H151.974L151.631 20.1429H151.459C151.184 20.3347 150.908 20.5252 150.631 20.7143C150.288 20.9429 149.879 21.1806 149.402 21.4286C148.945 21.6571 148.431 21.848 147.859 22C147.266 22.1746 146.65 22.2612 146.031 22.2571ZM146.431 20.1714C147.117 20.1714 147.765 20.0766 148.374 19.8857C149.002 19.6766 149.554 19.448 150.031 19.2C150.526 18.952 150.897 18.752 151.145 18.6V13.8571C150.897 13.8194 150.526 13.7806 150.031 13.7429C149.536 13.6857 148.888 13.6571 148.088 13.6571C146.317 13.6571 145.222 13.8377 144.802 14.2C144.554 14.3909 144.365 14.7337 144.231 15.2286C144.097 15.7051 144.031 16.2857 144.031 16.9714C144.031 18.0949 144.211 18.9143 144.574 19.4286C144.954 19.9234 145.574 20.1714 146.431 20.1714ZM163.498 22.2857C162.679 22.2857 161.965 22.152 161.355 21.8857C160.745 21.6 160.27 21.0663 159.927 20.2857C159.602 19.4857 159.441 18.3051 159.441 16.7429V8.08571H157.555V6.6L159.527 6.2L160.155 2.31428H161.813V6.22857H165.127V8.14286H161.813V16.9143C161.813 17.9623 161.841 18.7234 161.898 19.2C161.955 19.6766 162.098 19.9806 162.327 20.1143C162.574 20.2286 162.984 20.2857 163.555 20.2857H164.355C164.584 20.2663 164.765 20.2571 164.898 20.2571L165.098 20.2286V22.1429L164.67 22.2C164.283 22.2652 163.891 22.2939 163.498 22.2857ZM169.705 21.8857V5.25714H172.077V21.8857H169.705ZM169.448 2.42857V-1.90735e-06H172.362V2.42857H169.448ZM180.331 21.8857L175.503 5.25714H178.046L181.789 19.8571H181.96L185.674 5.25714H188.217L183.417 21.8857H180.331ZM197.321 22.2857C196.007 22.2857 194.845 22.0091 193.835 21.4571C192.845 20.8857 192.073 19.9623 191.521 18.6857C190.969 17.3909 190.693 15.6766 190.693 13.5429C190.693 11.3143 190.978 9.57143 191.55 8.31429C192.141 7.05714 192.93 6.17143 193.921 5.65714C194.912 5.12343 196.026 4.85714 197.264 4.85714C198.502 4.85714 199.55 5.10514 200.407 5.6C201.283 6.09486 201.95 6.92343 202.407 8.08571C202.864 9.22857 203.093 10.7714 203.093 12.7143V14.5143H192.121L193.235 14.0857C193.159 15.3429 193.187 16.352 193.321 17.1143C193.473 17.8571 193.655 18.4091 193.864 18.7714C194.093 19.1337 194.283 19.3909 194.435 19.5429C194.702 19.7714 195.026 19.9429 195.407 20.0571C195.787 20.1714 196.255 20.2286 196.807 20.2286C197.359 20.2286 197.902 20.1909 198.435 20.1143C198.969 20.0194 199.464 19.9143 199.921 19.8C200.378 19.6663 200.787 19.5429 201.15 19.4286C201.512 19.2949 201.807 19.2 202.035 19.1429L202.635 21.0571C202.464 21.1337 202.13 21.2766 201.635 21.4857C201.029 21.709 200.408 21.8903 199.777 22.0286C199.054 22.2 198.234 22.2857 197.32 22.2857H197.321ZM193.235 13.6571L192.121 12.6286L201.75 12.4286L200.664 13.4857C200.683 12.1337 200.655 10.9714 200.578 10C200.521 9.02857 200.33 8.28571 200.007 7.77143C199.873 7.56228 199.645 7.37143 199.321 7.2C198.998 7.00914 198.369 6.91428 197.435 6.91428C196.464 6.91428 195.73 7.01943 195.235 7.22857C194.759 7.43771 194.387 7.71428 194.121 8.05714C193.416 8.99086 193.121 10.8571 193.235 13.6571ZM214.25 26.6286V5.25714H215.85L216.165 6.94286H216.336C216.698 6.67657 217.117 6.39086 217.593 6.08571C218.07 5.76229 218.613 5.48571 219.222 5.25714C219.85 5.00914 220.536 4.88571 221.279 4.88571C222.307 4.88571 223.193 5.18057 223.936 5.77143C224.698 6.34286 225.279 7.248 225.679 8.48571C226.098 9.70514 226.307 11.2949 226.307 13.2571C226.307 15.1051 226.136 16.6194 225.793 17.8C225.45 18.9623 224.993 19.8766 224.422 20.5429C223.85 21.1909 223.202 21.6377 222.479 21.8857C221.775 22.1487 221.03 22.2842 220.279 22.2857C219.822 22.2857 219.355 22.2663 218.879 22.2286C218.402 22.1909 217.965 22.1337 217.565 22.0571L216.622 21.9143V26.6286H214.25ZM220.822 20.1714C221.031 20.1714 221.288 20.152 221.593 20.1143C221.917 20.0571 222.202 19.9234 222.45 19.7143C222.717 19.4857 222.945 19.1337 223.136 18.6571C223.345 18.1623 223.507 17.448 223.622 16.5143C223.736 15.5806 223.793 14.3429 223.793 12.8C223.793 11.5429 223.755 10.5623 223.679 9.85714C223.622 9.13371 223.527 8.6 223.393 8.25714C223.279 7.89486 223.136 7.63771 222.965 7.48571C222.87 7.39086 222.698 7.28571 222.45 7.17143C222.222 7.05714 221.859 7 221.365 7C220.723 7.0052 220.087 7.11126 219.479 7.31429C218.85 7.50514 218.279 7.72343 217.765 7.97143C217.25 8.2 216.87 8.39086 216.622 8.54286V19.5714C217.022 19.6857 217.622 19.8194 218.422 19.9714C219.222 20.1051 220.022 20.1714 220.822 20.1714ZM231.198 21.8857V5.25714H232.712L233.026 6.94286H233.198L233.626 6.62857C233.93 6.41943 234.321 6.18057 234.798 5.91428C235.273 5.648 235.778 5.40914 236.312 5.2C236.864 4.99086 237.378 4.88571 237.855 4.88571C238.141 4.88571 238.407 4.91429 238.655 4.97143L239.026 5.02857L238.826 7.31429L238.455 7.28571C238.227 7.26746 237.998 7.25793 237.769 7.25714C237.235 7.25714 236.693 7.33371 236.141 7.48571C235.607 7.63771 235.112 7.82857 234.655 8.05714C234.198 8.28571 233.835 8.50514 233.569 8.71428V21.8857H231.198ZM247.394 22.2571C245.813 22.2571 244.566 21.9051 243.651 21.2C242.755 20.4949 242.118 19.4949 241.737 18.2C241.355 16.9051 241.166 15.3623 241.166 13.5714C241.166 11.7806 241.355 10.2377 241.737 8.94286C242.118 7.648 242.755 6.648 243.651 5.94286C244.566 5.23771 245.813 4.88571 247.394 4.88571C248.975 4.88571 250.213 5.23771 251.109 5.94286C252.023 6.648 252.67 7.648 253.051 8.94286C253.432 10.2377 253.623 11.7806 253.623 13.5714C253.623 15.3623 253.432 16.9051 253.051 18.2C252.67 19.4949 252.023 20.4949 251.109 21.2C250.213 21.9051 248.975 22.2571 247.394 22.2571ZM247.394 20.2C248.118 20.2 248.718 20.1143 249.194 19.9429C249.689 19.7714 250.08 19.4571 250.366 19C250.67 18.5429 250.88 17.8766 250.994 17C251.127 16.1234 251.194 14.9806 251.194 13.5714C251.194 12.1623 251.127 11.0194 250.994 10.1429C250.88 9.26628 250.67 8.6 250.366 8.14286C250.08 7.66628 249.689 7.352 249.194 7.2C248.718 7.02857 248.118 6.94286 247.394 6.94286C246.67 6.94286 246.061 7.02857 245.566 7.2C245.089 7.352 244.698 7.66628 244.394 8.14286C244.109 8.6 243.898 9.26628 243.766 10.1429C243.632 11.0194 243.566 12.1623 243.566 13.5714C243.566 14.9806 243.632 16.1234 243.766 17C243.898 17.8766 244.109 18.5429 244.394 19C244.698 19.4571 245.089 19.7714 245.566 19.9429C246.061 20.1143 246.67 20.2 247.394 20.2ZM258.513 21.8857V5.25714H260.113L260.37 6.88571H260.485C260.656 6.79086 260.942 6.63771 261.342 6.42857C261.742 6.2 262.208 5.97143 262.742 5.74286C263.275 5.49486 263.837 5.29486 264.427 5.14286C265.018 4.97143 265.599 4.88571 266.17 4.88571C266.99 4.88571 267.694 5.07657 268.285 5.45714C268.879 5.81981 269.333 6.374 269.57 7.02857C270.37 6.53371 271.256 6.05714 272.227 5.6C273.207 5.12626 274.282 4.88198 275.37 4.88571C276.399 4.88571 277.199 5.13371 277.77 5.62857C278.342 6.12343 278.742 6.82857 278.97 7.74286C279.199 8.63771 279.313 9.70514 279.313 10.9429V21.8857H276.942V11.7429C276.942 10.848 276.922 10.048 276.885 9.34286C276.847 8.63771 276.722 8.12343 276.513 7.8C276.428 7.65582 276.313 7.53231 276.174 7.43842C276.036 7.34452 275.878 7.2826 275.713 7.25714C275.39 7.18057 275.122 7.14286 274.913 7.14286C274.399 7.14286 273.865 7.21943 273.313 7.37143C272.795 7.49968 272.288 7.67173 271.799 7.88571C271.39 8.04569 270.989 8.22689 270.599 8.42857C270.398 8.54065 270.198 8.65494 269.999 8.77143C270.037 9.07657 270.065 9.4 270.085 9.74286C270.104 10.0857 270.113 10.448 270.113 10.8286V21.8857H267.742V11.6571C267.742 10.5714 267.713 9.73371 267.656 9.14286C267.618 8.552 267.494 8.09486 267.285 7.77143C267.116 7.5201 266.862 7.33765 266.57 7.25714C266.285 7.18057 266.008 7.14286 265.742 7.14286C265.082 7.14486 264.426 7.25092 263.799 7.45714C263.201 7.62872 262.618 7.84849 262.056 8.11428C261.542 8.34286 261.151 8.51428 260.885 8.62857V21.8857H258.513ZM284.256 26.6286V5.25714H285.856L286.17 6.94286H286.342C286.703 6.67657 287.122 6.39086 287.599 6.08571C288.075 5.76229 288.617 5.48571 289.227 5.25714C289.856 5.00914 290.542 4.88571 291.285 4.88571C292.313 4.88571 293.199 5.18057 293.942 5.77143C294.703 6.34286 295.285 7.248 295.685 8.48571C296.103 9.70514 296.313 11.2949 296.313 13.2571C296.313 15.1051 296.142 16.6194 295.799 17.8C295.456 18.9623 294.999 19.8766 294.427 20.5429C293.856 21.1909 293.208 21.6377 292.485 21.8857C291.781 22.1487 291.036 22.2842 290.285 22.2857C289.827 22.2857 289.361 22.2663 288.885 22.2286C288.408 22.1909 287.97 22.1337 287.57 22.0571L286.627 21.9143V26.6286H284.256ZM290.827 20.1714C291.037 20.1714 291.294 20.152 291.599 20.1143C291.922 20.0571 292.208 19.9234 292.456 19.7143C292.722 19.4857 292.951 19.1337 293.142 18.6571C293.351 18.1623 293.513 17.448 293.627 16.5143C293.742 15.5806 293.799 14.3429 293.799 12.8C293.799 11.5429 293.761 10.5623 293.685 9.85714C293.627 9.13371 293.531 8.6 293.399 8.25714C293.285 7.89486 293.142 7.63771 292.97 7.48571C292.874 7.39086 292.703 7.28571 292.456 7.17143C292.227 7.05714 291.865 7 291.37 7C290.729 7.0052 290.093 7.11126 289.485 7.31429C288.856 7.50514 288.285 7.72343 287.77 7.97143C287.256 8.2 286.874 8.39086 286.627 8.54286V19.5714C287.027 19.6857 287.627 19.8194 288.427 19.9714C289.227 20.1051 290.027 20.1714 290.827 20.1714ZM305.546 22.2857C304.727 22.2857 304.013 22.152 303.403 21.8857C302.793 21.6 302.318 21.0663 301.975 20.2857C301.65 19.4857 301.489 18.3051 301.489 16.7429V8.08571H299.603V6.6L301.575 6.2L302.203 2.31428H303.861V6.22857H307.175V8.14286H303.861V16.9143C303.861 17.9623 303.889 18.7234 303.946 19.2C304.003 19.6766 304.146 19.9806 304.375 20.1143C304.622 20.2286 305.032 20.2857 305.603 20.2857H306.403C306.632 20.2663 306.813 20.2571 306.946 20.2571L307.146 20.2286V22.1429L306.718 22.2C306.331 22.2652 305.939 22.2939 305.546 22.2857ZM315.725 22.2571C315.019 22.2571 314.344 22.1806 313.696 22.0286C313.048 21.8949 312.467 21.7429 311.953 21.5714C311.439 21.3806 311.03 21.2194 310.725 21.0857L310.296 20.8857L310.896 18.8571L311.325 19.0571C311.63 19.1909 312.03 19.352 312.525 19.5429C313.019 19.7143 313.582 19.8663 314.21 20C314.849 20.1344 315.5 20.2014 316.153 20.2C316.534 20.2 316.887 20.1714 317.21 20.1143C317.534 20.0377 317.791 19.9143 317.982 19.7429C318.191 19.552 318.382 19.2663 318.553 18.8857C318.725 18.5051 318.81 18.048 318.81 17.5143C318.81 16.7143 318.619 16.1051 318.239 15.6857C317.858 15.2663 317.362 14.9429 316.753 14.7143C316.144 14.4857 315.496 14.2766 314.81 14.0857C314.258 13.9337 313.715 13.7623 313.182 13.5714C312.661 13.3874 312.17 13.1275 311.725 12.8C311.289 12.4551 310.937 12.0154 310.696 11.5143C310.448 10.9623 310.325 10.2571 310.325 9.4C310.325 8.048 310.734 6.96228 311.553 6.14286C312.391 5.30514 313.791 4.88571 315.753 4.88571C316.419 4.88571 317.058 4.93371 317.667 5.02857C318.277 5.10514 318.81 5.2 319.267 5.31428C319.744 5.40914 320.096 5.49486 320.325 5.57143L319.953 7.57143L319.553 7.48571C319.215 7.38906 318.872 7.31274 318.525 7.25714C318.087 7.18057 317.591 7.11428 317.039 7.05714C316.487 6.98057 315.905 6.94286 315.296 6.94286C314.725 6.94286 314.267 6.98057 313.925 7.05714C313.582 7.11428 313.325 7.20914 313.153 7.34286C312.982 7.47657 312.839 7.69486 312.725 8C312.61 8.28571 312.553 8.62857 312.553 9.02857C312.553 9.82857 312.773 10.4286 313.21 10.8286C313.667 11.2286 314.239 11.5337 314.925 11.7429C315.63 11.952 316.353 12.1714 317.096 12.4C317.61 12.552 318.105 12.7337 318.582 12.9429C319.052 13.1485 319.486 13.4282 319.867 13.7714C320.267 14.1143 320.573 14.552 320.782 15.0857C321.01 15.6194 321.125 16.2766 321.125 17.0571C321.125 18.6 320.658 19.8571 319.725 20.8286C318.81 21.7806 317.477 22.2571 315.725 22.2571ZM336.88 22.2857C336.061 22.2857 335.346 22.152 334.737 21.8857C334.127 21.6 333.651 21.0663 333.309 20.2857C332.984 19.4857 332.823 18.3051 332.823 16.7429V8.08571H330.937V6.6L332.909 6.2L333.537 2.31428H335.194V6.22857H338.509V8.14286H335.194V16.9143C335.194 17.9623 335.223 18.7234 335.28 19.2C335.337 19.6766 335.48 19.9806 335.709 20.1143C335.955 20.2286 336.366 20.2857 336.937 20.2857H337.737C337.966 20.2663 338.146 20.2571 338.28 20.2571L338.48 20.2286V22.1429L338.051 22.2C337.664 22.2652 337.272 22.2939 336.88 22.2857ZM348.287 22.2571C346.706 22.2571 345.458 21.9051 344.544 21.2C343.649 20.4949 343.01 19.4949 342.63 18.2C342.249 16.9051 342.058 15.3623 342.058 13.5714C342.058 11.7806 342.249 10.2377 342.63 8.94286C343.01 7.648 343.649 6.648 344.544 5.94286C345.458 5.23771 346.706 4.88571 348.287 4.88571C349.867 4.88571 351.106 5.23771 352.001 5.94286C352.915 6.648 353.563 7.648 353.944 8.94286C354.325 10.2377 354.515 11.7806 354.515 13.5714C354.515 15.3623 354.325 16.9051 353.944 18.2C353.563 19.4949 352.915 20.4949 352.001 21.2C351.106 21.9051 349.867 22.2571 348.287 22.2571ZM348.287 20.2C349.01 20.2 349.61 20.1143 350.087 19.9429C350.582 19.7714 350.973 19.4571 351.258 19C351.563 18.5429 351.773 17.8766 351.887 17C352.021 16.1234 352.087 14.9806 352.087 13.5714C352.087 12.1623 352.021 11.0194 351.887 10.1429C351.773 9.26628 351.563 8.6 351.258 8.14286C350.973 7.66628 350.582 7.352 350.087 7.2C349.61 7.02857 349.01 6.94286 348.287 6.94286C347.563 6.94286 346.953 7.02857 346.458 7.2C345.982 7.352 345.592 7.66628 345.287 8.14286C345.001 8.6 344.792 9.26628 344.658 10.1429C344.525 11.0194 344.458 12.1623 344.458 13.5714C344.458 14.9806 344.525 16.1234 344.658 17C344.792 17.8766 345.001 18.5429 345.287 19C345.592 19.4571 345.982 19.7714 346.458 19.9429C346.953 20.1143 347.563 20.2 348.287 20.2ZM370.641 22.2571C369.613 22.2571 368.698 21.9623 367.898 21.3714C367.118 20.7806 366.498 19.8663 366.041 18.6286C365.603 17.3909 365.384 15.8091 365.384 13.8857C365.384 12.0377 365.546 10.5337 365.87 9.37143C366.213 8.19086 366.67 7.27657 367.241 6.62857C367.813 5.98057 368.441 5.53371 369.127 5.28571C369.832 5.01943 370.555 4.88571 371.298 4.88571C372.273 4.87634 373.244 5.00132 374.184 5.25714C374.477 5.32904 374.764 5.42459 375.041 5.54286V0.371426H377.413V21.8857H375.841L375.527 20.1714H375.384C375.136 20.3623 374.793 20.6286 374.355 20.9714C373.858 21.3281 373.321 21.6253 372.755 21.8571C372.146 22.1234 371.441 22.2571 370.641 22.2571ZM370.784 20.1429C371.165 20.1429 371.555 20.0949 371.955 20C372.355 19.8857 372.746 19.752 373.127 19.6C373.527 19.448 373.889 19.2857 374.213 19.1143C374.555 18.9429 374.832 18.7909 375.041 18.6571V7.74286C374.813 7.648 374.489 7.54286 374.07 7.42857C373.67 7.31429 373.213 7.21943 372.698 7.14286C372.184 7.048 371.641 7 371.07 7C370.003 7 369.279 7.22857 368.898 7.68571C368.746 7.89486 368.584 8.22857 368.413 8.68571C368.261 9.14286 368.127 9.8 368.013 10.6571C367.918 11.4949 367.87 12.6091 367.87 14C367.87 15.5623 367.946 16.7429 368.098 17.5429C368.27 18.3429 368.461 18.8949 368.67 19.2C368.879 19.5051 369.041 19.7051 369.155 19.8C369.307 19.9337 369.527 20.0286 369.813 20.0857C370.098 20.1234 370.422 20.1429 370.784 20.1429ZM383.014 21.8857V5.25714H385.386V21.8857H383.014ZM382.757 2.42857V-1.90735e-06H385.671V2.42857H382.757ZM395.411 22.2571C394.706 22.2571 394.03 22.1806 393.383 22.0286C392.735 21.8949 392.154 21.7429 391.64 21.5714C391.126 21.3806 390.715 21.2194 390.411 21.0857L389.983 20.8857L390.583 18.8571L391.011 19.0571C391.315 19.1909 391.715 19.352 392.211 19.5429C392.706 19.7143 393.269 19.8663 393.897 20C394.536 20.1344 395.187 20.2014 395.84 20.2C396.221 20.2 396.573 20.1714 396.897 20.1143C397.221 20.0377 397.478 19.9143 397.669 19.7429C397.878 19.552 398.069 19.2663 398.24 18.8857C398.411 18.5051 398.497 18.048 398.497 17.5143C398.497 16.7143 398.306 16.1051 397.926 15.6857C397.544 15.2663 397.049 14.9429 396.44 14.7143C395.83 14.4857 395.183 14.2766 394.497 14.0857C393.944 13.9337 393.401 13.7623 392.869 13.5714C392.348 13.3874 391.857 13.1275 391.411 12.8C390.975 12.4551 390.624 12.0154 390.383 11.5143C390.135 10.9623 390.011 10.2571 390.011 9.4C390.011 8.048 390.421 6.96228 391.24 6.14286C392.078 5.30514 393.478 4.88571 395.44 4.88571C396.106 4.88571 396.744 4.93371 397.354 5.02857C397.963 5.10514 398.497 5.2 398.954 5.31428C399.43 5.40914 399.783 5.49486 400.011 5.57143L399.64 7.57143L399.24 7.48571C398.902 7.38906 398.559 7.31274 398.211 7.25714C397.773 7.18057 397.278 7.11428 396.726 7.05714C396.173 6.98057 395.592 6.94286 394.983 6.94286C394.411 6.94286 393.954 6.98057 393.611 7.05714C393.269 7.11428 393.011 7.20914 392.84 7.34286C392.669 7.47657 392.526 7.69486 392.411 8C392.297 8.28571 392.24 8.62857 392.24 9.02857C392.24 9.82857 392.458 10.4286 392.897 10.8286C393.354 11.2286 393.926 11.5337 394.611 11.7429C395.315 11.952 396.04 12.1714 396.783 12.4C397.297 12.552 397.792 12.7337 398.269 12.9429C398.739 13.1485 399.173 13.4282 399.554 13.7714C399.954 14.1143 400.258 14.552 400.469 15.0857C400.697 15.6194 400.811 16.2766 400.811 17.0571C400.811 18.6 400.344 19.8571 399.411 20.8286C398.497 21.7806 397.163 22.2571 395.411 22.2571ZM411.046 22.2571C409.75 22.2571 408.607 21.9623 407.617 21.3714C406.626 20.7806 405.855 19.848 405.302 18.5714C404.75 17.2766 404.473 15.5909 404.473 13.5143C404.473 11.8194 404.655 10.4091 405.016 9.28571C405.398 8.16228 405.912 7.28572 406.559 6.65714C407.195 6.01664 407.98 5.54521 408.845 5.28571C409.721 5.01943 410.655 4.88571 411.645 4.88571C412.369 4.88571 413.102 4.93371 413.845 5.02857C414.469 5.10009 415.089 5.205 415.702 5.34286L415.416 7.34286C415.055 7.30514 414.483 7.23771 413.702 7.14286C412.921 7.02857 412.083 6.97143 411.187 6.97143C410.483 6.97143 409.883 7.02857 409.387 7.14286C408.912 7.25714 408.541 7.448 408.273 7.71428C407.912 8.11428 407.598 8.848 407.33 9.91428C407.083 10.9623 406.959 12.2194 406.959 13.6857C406.959 15.0377 407.064 16.1337 407.273 16.9714C407.483 17.7909 407.73 18.4194 408.016 18.8571C408.302 19.2766 408.559 19.5714 408.787 19.7429C408.941 19.8571 409.141 19.9623 409.387 20.0571C409.655 20.152 410.026 20.2 410.502 20.2C411.055 20.2 411.616 20.1337 412.187 20C412.759 19.8663 413.283 19.7143 413.759 19.5429C414.235 19.3714 414.616 19.2194 414.902 19.0857L415.359 18.8857L416.102 20.7429L415.473 21.1143C415.055 21.3623 414.464 21.6194 413.702 21.8857C412.943 22.1337 412.056 22.2571 411.046 22.2571ZM425.49 22.2571C423.909 22.2571 422.662 21.9051 421.747 21.2C420.851 20.4949 420.214 19.4949 419.833 18.2C419.451 16.9051 419.262 15.3623 419.262 13.5714C419.262 11.7806 419.451 10.2377 419.833 8.94286C420.214 7.648 420.851 6.648 421.747 5.94286C422.662 5.23771 423.909 4.88571 425.49 4.88571C427.071 4.88571 428.309 5.23771 429.205 5.94286C430.119 6.648 430.766 7.648 431.147 8.94286C431.528 10.2377 431.719 11.7806 431.719 13.5714C431.719 15.3623 431.528 16.9051 431.147 18.2C430.766 19.4949 430.119 20.4949 429.205 21.2C428.309 21.9051 427.071 22.2571 425.49 22.2571ZM425.49 20.2C426.214 20.2 426.814 20.1143 427.29 19.9429C427.785 19.7714 428.176 19.4571 428.462 19C428.766 18.5429 428.976 17.8766 429.09 17C429.223 16.1234 429.29 14.9806 429.29 13.5714C429.29 12.1623 429.223 11.0194 429.09 10.1429C428.976 9.26628 428.766 8.6 428.462 8.14286C428.176 7.66628 427.785 7.352 427.29 7.2C426.814 7.02857 426.214 6.94286 425.49 6.94286C424.766 6.94286 424.157 7.02857 423.662 7.2C423.185 7.352 422.794 7.66628 422.49 8.14286C422.205 8.6 421.994 9.26628 421.862 10.1429C421.728 11.0194 421.662 12.1623 421.662 13.5714C421.662 14.9806 421.728 16.1234 421.862 17C421.994 17.8766 422.205 18.5429 422.49 19C422.794 19.4571 423.185 19.7714 423.662 19.9429C424.157 20.1143 424.766 20.2 425.49 20.2ZM438.952 21.8857L434.123 5.25714H436.666L440.41 19.8571H440.582L444.296 5.25714H446.839L442.039 21.8857H438.953H438.952ZM455.942 22.2857C454.627 22.2857 453.465 22.0091 452.456 21.4571C451.465 20.8857 450.694 19.9623 450.142 18.6857C449.589 17.3909 449.313 15.6766 449.313 13.5429C449.313 11.3143 449.599 9.57143 450.17 8.31429C450.76 7.05714 451.551 6.17143 452.542 5.65714C453.531 5.12343 454.646 4.85714 455.885 4.85714C457.122 4.85714 458.17 5.10514 459.027 5.6C459.903 6.09486 460.57 6.92343 461.027 8.08571C461.485 9.22857 461.713 10.7714 461.713 12.7143V14.5143H450.742L451.856 14.0857C451.779 15.3429 451.808 16.352 451.942 17.1143C452.094 17.8571 452.274 18.4091 452.485 18.7714C452.713 19.1337 452.903 19.3909 453.056 19.5429C453.322 19.7714 453.646 19.9429 454.027 20.0571C454.408 20.1714 454.874 20.2286 455.427 20.2286C455.979 20.2286 456.522 20.1909 457.056 20.1143C457.589 20.0194 458.085 19.9143 458.542 19.8C458.999 19.6663 459.408 19.5429 459.77 19.4286C460.131 19.2949 460.427 19.2 460.656 19.1429L461.256 21.0571C461.085 21.1337 460.751 21.2766 460.256 21.4857C459.65 21.7089 459.03 21.8902 458.4 22.0286C457.675 22.2 456.857 22.2857 455.943 22.2857H455.942ZM451.856 13.6571L450.742 12.6286L460.37 12.4286L459.285 13.4857C459.309 12.3231 459.28 11.16 459.199 10C459.142 9.02857 458.951 8.28571 458.627 7.77143C458.494 7.56228 458.265 7.37143 457.942 7.2C457.617 7.00914 456.989 6.91428 456.056 6.91428C455.085 6.91428 454.351 7.01943 453.856 7.22857C453.379 7.43771 453.008 7.71428 452.742 8.05714C452.037 8.99086 451.742 10.8571 451.856 13.6571ZM466.464 21.8857V5.25714H467.978L468.293 6.94286H468.464L468.893 6.62857C469.198 6.41943 469.587 6.18057 470.064 5.91428C470.541 5.648 471.045 5.40914 471.578 5.2C472.13 4.99086 472.645 4.88571 473.121 4.88571C473.407 4.88571 473.673 4.91429 473.921 4.97143L474.293 5.02857L474.093 7.31429L473.721 7.28571C473.493 7.26746 473.264 7.25793 473.035 7.25714C472.502 7.25714 471.959 7.33371 471.407 7.48571C470.873 7.63771 470.378 7.82857 469.921 8.05714C469.539 8.24007 469.175 8.46018 468.835 8.71428V21.8857H466.464ZM484.6 21.8857V5.25714H486.2L486.457 6.88571H486.571C486.743 6.79086 487.029 6.63771 487.429 6.42857C487.829 6.2 488.296 5.97143 488.829 5.74286C489.362 5.49486 489.923 5.29486 490.514 5.14286C491.105 4.97143 491.686 4.88571 492.257 4.88571C493.077 4.88571 493.781 5.07657 494.371 5.45714C494.966 5.81981 495.419 6.374 495.657 7.02857C496.457 6.53371 497.343 6.05714 498.314 5.6C499.294 5.12626 500.369 4.88198 501.457 4.88571C502.486 4.88571 503.286 5.13371 503.857 5.62857C504.429 6.12343 504.829 6.82857 505.057 7.74286C505.286 8.63771 505.4 9.70514 505.4 10.9429V21.8857H503.029V11.7429C503.029 10.848 503.01 10.048 502.971 9.34286C502.934 8.63771 502.809 8.12343 502.6 7.8C502.515 7.65582 502.4 7.53231 502.261 7.43842C502.123 7.34452 501.965 7.2826 501.8 7.25714C501.477 7.18057 501.209 7.14286 501 7.14286C500.486 7.14286 499.953 7.21943 499.4 7.37143C498.882 7.49968 498.375 7.67172 497.886 7.88571C497.477 8.04569 497.076 8.22689 496.686 8.42857C496.484 8.54066 496.284 8.65495 496.086 8.77143C496.125 9.07657 496.153 9.4 496.171 9.74286C496.191 10.0857 496.2 10.448 496.2 10.8286V21.8857H493.829V11.6571C493.829 10.5714 493.8 9.73371 493.743 9.14286C493.705 8.552 493.582 8.09486 493.371 7.77143C493.202 7.5201 492.949 7.33765 492.657 7.25714C492.371 7.18057 492.096 7.14286 491.829 7.14286C491.168 7.14486 490.513 7.25092 489.886 7.45714C489.288 7.62872 488.705 7.84848 488.143 8.11428C487.629 8.34286 487.239 8.51428 486.971 8.62857V21.8857H484.6ZM516.143 22.2571C514.562 22.2571 513.314 21.9051 512.4 21.2C511.505 20.4949 510.866 19.4949 510.486 18.2C510.105 16.9051 509.914 15.3623 509.914 13.5714C509.914 11.7806 510.105 10.2377 510.486 8.94286C510.866 7.648 511.505 6.648 512.4 5.94286C513.314 5.23771 514.562 4.88571 516.143 4.88571C517.723 4.88571 518.962 5.23771 519.857 5.94286C520.771 6.648 521.419 7.648 521.8 8.94286C522.181 10.2377 522.371 11.7806 522.371 13.5714C522.371 15.3623 522.181 16.9051 521.8 18.2C521.419 19.4949 520.771 20.4949 519.857 21.2C518.962 21.9051 517.723 22.2571 516.143 22.2571ZM516.143 20.2C516.866 20.2 517.466 20.1143 517.943 19.9429C518.438 19.7714 518.829 19.4571 519.114 19C519.419 18.5429 519.629 17.8766 519.743 17C519.877 16.1234 519.943 14.9806 519.943 13.5714C519.943 12.1623 519.877 11.0194 519.743 10.1429C519.629 9.26628 519.419 8.6 519.114 8.14286C518.829 7.66628 518.438 7.352 517.943 7.2C517.466 7.02857 516.866 6.94286 516.143 6.94286C515.419 6.94286 514.809 7.02857 514.314 7.2C513.838 7.352 513.448 7.66628 513.143 8.14286C512.857 8.6 512.648 9.26628 512.514 10.1429C512.381 11.0194 512.314 12.1623 512.314 13.5714C512.314 14.9806 512.381 16.1234 512.514 17C512.648 17.8766 512.857 18.5429 513.143 19C513.448 19.4571 513.838 19.7714 514.314 19.9429C514.809 20.1143 515.419 20.2 516.143 20.2ZM527.262 21.8857V5.25714H528.776L529.09 6.94286H529.262L529.69 6.62857C529.995 6.41943 530.386 6.18057 530.862 5.91428C531.338 5.648 531.843 5.40914 532.376 5.2C532.929 4.99086 533.443 4.88571 533.919 4.88571C534.205 4.88571 534.472 4.91429 534.719 4.97143L535.09 5.02857L534.89 7.31429L534.519 7.28571C534.291 7.26746 534.062 7.25793 533.833 7.25714C533.301 7.25714 532.758 7.33371 532.205 7.48571C531.672 7.63771 531.176 7.82857 530.719 8.05714C530.336 8.24007 529.973 8.46018 529.633 8.71428V21.8857H527.262ZM543.915 22.2857C542.601 22.2857 541.44 22.0091 540.43 21.4571C539.44 20.8857 538.669 19.9623 538.115 18.6857C537.563 17.3909 537.287 15.6766 537.287 13.5429C537.287 11.3143 537.573 9.57143 538.144 8.31429C538.735 7.05714 539.526 6.17143 540.515 5.65714C541.506 5.12343 542.621 4.85714 543.858 4.85714C545.097 4.85714 546.144 5.10514 547.001 5.6C547.878 6.09486 548.544 6.92343 549.001 8.08571C549.458 9.22857 549.687 10.7714 549.687 12.7143V14.5143H538.715L539.83 14.0857C539.754 15.3429 539.783 16.352 539.915 17.1143C540.069 17.8571 540.249 18.4091 540.458 18.7714C540.687 19.1337 540.878 19.3909 541.03 19.5429C541.297 19.7714 541.621 19.9429 542.001 20.0571C542.383 20.1714 542.849 20.2286 543.401 20.2286C543.954 20.2286 544.497 20.1909 545.03 20.1143C545.563 20.0194 546.058 19.9143 546.515 19.8C546.973 19.6663 547.383 19.5429 547.744 19.4286C548.106 19.2949 548.401 19.2 548.63 19.1429L549.23 21.0571C549.058 21.1337 548.726 21.2766 548.23 21.4857C547.624 21.7089 547.004 21.8902 546.374 22.0286C545.65 22.2 544.831 22.2857 543.917 22.2857H543.915ZM539.83 13.6571L538.715 12.6286L548.344 12.4286L547.258 13.4857C547.282 12.3231 547.254 11.16 547.173 10C547.115 9.02857 546.926 8.28571 546.601 7.77143C546.469 7.56228 546.24 7.37143 545.915 7.2C545.592 7.00914 544.963 6.91428 544.03 6.91428C543.058 6.91428 542.326 7.01943 541.83 7.22857C541.354 7.43771 540.983 7.71428 540.715 8.05714C540.011 8.99086 539.715 10.8571 539.83 13.6571ZM564.446 22.2571C563.57 22.2571 562.789 22.0571 562.103 21.6571C561.437 21.2377 560.913 20.6377 560.531 19.8571C560.151 19.0571 559.96 18.0949 559.96 16.9714C559.96 15.6194 560.227 14.5623 560.76 13.8C561.313 13.0194 562.085 12.4663 563.074 12.1429C564.065 11.8194 565.217 11.6571 566.531 11.6571H569.56C569.56 10.7051 569.531 9.87657 569.474 9.17143C569.437 8.448 569.285 7.91429 569.017 7.57143C568.827 7.30514 568.56 7.13371 568.217 7.05714C567.88 6.97944 567.535 6.94109 567.189 6.94286C566.446 6.94286 565.713 7.01943 564.989 7.17143C564.331 7.29279 563.683 7.45501 563.046 7.65714C562.474 7.848 562.017 8.01943 561.674 8.17143L561.16 8.37143L560.331 6.51429L560.874 6.28571C561.237 6.11428 561.722 5.92343 562.331 5.71428C562.942 5.48571 563.617 5.29486 564.36 5.14286C565.129 4.97064 565.915 4.8844 566.703 4.88571C567.999 4.88571 569.027 5.14286 569.789 5.65714C570.551 6.152 571.094 6.85714 571.417 7.77143C571.76 8.66628 571.931 9.72343 571.931 10.9429V21.8857H570.389L570.046 20.1429H569.874C569.599 20.3347 569.323 20.5252 569.046 20.7143C568.703 20.9429 568.294 21.1806 567.817 21.4286C567.36 21.6571 566.846 21.848 566.274 22C565.681 22.1746 565.065 22.2612 564.446 22.2571ZM564.846 20.1714C565.531 20.1714 566.179 20.0766 566.789 19.8857C567.417 19.6766 567.97 19.448 568.446 19.2C568.942 18.952 569.313 18.752 569.56 18.6V13.8571C569.313 13.8194 568.942 13.7806 568.446 13.7429C567.951 13.6857 567.303 13.6571 566.503 13.6571C564.731 13.6571 563.637 13.8377 563.217 14.2C562.97 14.3909 562.779 14.7337 562.646 15.2286C562.513 15.7051 562.446 16.2857 562.446 16.9714C562.446 18.0949 562.627 18.9143 562.989 19.4286C563.37 19.9234 563.989 20.1714 564.846 20.1714ZM583.399 22.2571C582.885 22.2571 582.246 22.2 581.485 22.0857C580.742 21.9909 579.989 21.8663 579.227 21.7143C578.561 21.5693 577.903 21.3881 577.256 21.1714V0.371426H579.627V5.51429C579.951 5.43771 580.342 5.352 580.799 5.25714C581.256 5.16228 581.751 5.07657 582.285 5C582.837 4.92343 583.389 4.88571 583.942 4.88571C585.617 4.88571 586.903 5.552 587.799 6.88571C588.694 8.2 589.142 10.3337 589.142 13.2857C589.142 15.1143 588.979 16.6194 588.656 17.8C588.331 18.9623 587.894 19.8663 587.342 20.5143C586.79 21.1623 586.17 21.6194 585.485 21.8857C584.817 22.1334 584.111 22.2593 583.399 22.2571ZM583.399 20.1429C583.913 20.1429 584.313 20.1143 584.599 20.0571C584.903 19.9806 585.151 19.8571 585.342 19.6857C585.513 19.5143 585.703 19.2091 585.913 18.7714C586.122 18.3337 586.294 17.648 586.427 16.7143C586.579 15.7623 586.656 14.4663 586.656 12.8286C586.656 11.1909 586.57 9.94286 586.399 9.08571C586.246 8.22857 586.027 7.68571 585.742 7.45714C585.342 7.152 584.665 7 583.713 7C582.742 7 581.904 7.09486 581.199 7.28571C580.513 7.47657 579.989 7.63771 579.627 7.77143V19.6857C579.837 19.7429 580.113 19.8091 580.456 19.8857C580.799 19.9429 581.208 20 581.685 20.0571C582.179 20.1143 582.751 20.1429 583.399 20.1429ZM599.376 22.2571C597.794 22.2571 596.546 21.9051 595.632 21.2C594.737 20.4949 594.098 19.4949 593.718 18.2C593.337 16.9051 593.146 15.3623 593.146 13.5714C593.146 11.7806 593.337 10.2377 593.718 8.94286C594.098 7.648 594.737 6.648 595.632 5.94286C596.546 5.23771 597.794 4.88571 599.375 4.88571C600.955 4.88571 602.194 5.23771 603.089 5.94286C604.003 6.648 604.651 7.648 605.032 8.94286C605.413 10.2377 605.603 11.7806 605.603 13.5714C605.603 15.3623 605.413 16.9051 605.032 18.2C604.651 19.4949 604.003 20.4949 603.089 21.2C602.194 21.9051 600.957 22.2571 599.376 22.2571ZM599.376 20.2C600.098 20.2 600.698 20.1143 601.175 19.9429C601.67 19.7714 602.061 19.4571 602.346 19C602.651 18.5429 602.861 17.8766 602.975 17C603.109 16.1234 603.175 14.9806 603.175 13.5714C603.175 12.1623 603.109 11.0194 602.975 10.1429C602.861 9.26628 602.651 8.6 602.346 8.14286C602.061 7.66628 601.67 7.352 601.175 7.2C600.698 7.02857 600.098 6.94286 599.375 6.94286C598.651 6.94286 598.041 7.02857 597.546 7.2C597.07 7.352 596.68 7.66628 596.375 8.14286C596.089 8.6 595.88 9.26628 595.746 10.1429C595.613 11.0194 595.546 12.1623 595.546 13.5714C595.546 14.9806 595.613 16.1234 595.746 17C595.88 17.8766 596.089 18.5429 596.375 19C596.68 19.4571 597.07 19.7714 597.546 19.9429C598.041 20.1143 598.653 20.2 599.376 20.2ZM614.294 22.2571C613.554 22.2628 612.825 22.0757 612.179 21.7143C611.551 21.3337 611.047 20.7143 610.665 19.8571C610.304 19 610.122 17.8194 610.122 16.3143V5.25714H612.494V15.4286C612.494 16.4766 612.522 17.3337 612.579 18C612.637 18.6663 612.742 19.1337 612.894 19.4C613.027 19.6091 613.237 19.7623 613.522 19.8571C613.827 19.952 614.17 20 614.551 20C615.408 20 616.256 19.8377 617.094 19.5143C617.951 19.1714 618.751 18.8286 619.494 18.4857V5.25714H621.865V21.8857H620.265L619.979 20.2857H619.808C619.522 20.4377 619.094 20.6766 618.522 21C617.951 21.3051 617.304 21.5909 616.579 21.8571C615.847 22.1253 615.073 22.2607 614.294 22.2571ZM631.969 22.2857C631.15 22.2857 630.435 22.152 629.826 21.8857C629.216 21.6 628.741 21.0663 628.398 20.2857C628.073 19.4857 627.912 18.3051 627.912 16.7429V8.08571H626.026V6.6L627.998 6.2L628.626 2.31428H630.283V6.22857H633.598V8.14286H630.283V16.9143C630.283 17.9623 630.312 18.7234 630.369 19.2C630.426 19.6766 630.569 19.9806 630.798 20.1143C631.045 20.2286 631.455 20.2857 632.026 20.2857H632.826C633.055 20.2663 633.235 20.2571 633.369 20.2571L633.569 20.2286V22.1429L633.141 22.2C632.754 22.2652 632.361 22.2939 631.969 22.2857ZM642.154 21.8857L647.554 2.02857H650.926L656.326 21.8857H653.869L652.354 15.9429L653.554 16.6286H644.983L646.126 15.9429L644.611 21.8857H642.154ZM646.183 15.6286L645.383 14.5143H653.097L652.297 15.6286L649.069 3.08571L650.411 4.14286H648.069L649.411 3.08571L646.183 15.6286ZM659.464 21.9143L659.55 12.8L659.464 2.02857H661.893L661.778 10.8L661.893 21.8857L659.464 21.9143Z" fill="black"/>
</svg>
