<svg width="555" height="195" viewBox="0 0 555 195" fill="none" xmlns="http://www.w3.org/2000/svg">
<path d="M18.2926 47.3669C17.4046 47.3669 16.3337 47.3269 15.0823 47.2457C13.8309 47.2057 12.5794 47.1246 11.3269 47.0034C10.0754 46.9234 8.96457 46.8423 7.99543 46.7612C7.02629 46.6812 6.36 46.6194 5.99657 46.5794V4.30058C6.19886 4.30058 6.76343 4.26057 7.69257 4.17943C8.62171 4.09944 9.73143 4.01831 11.024 3.93716C12.3566 3.81602 13.7291 3.71542 15.1429 3.63429C16.5566 3.55429 17.8286 3.51315 18.9589 3.51315C22.1486 3.51315 24.7531 4.0983 26.7726 5.26973C28.792 6.40115 30.3269 7.97485 31.376 9.99429C32.4663 11.9726 33.2137 14.2549 33.6171 16.8389C34.0617 19.3829 34.2834 22.0686 34.2834 24.8949C34.2834 30.5074 33.5771 34.9497 32.1634 38.2206C30.7909 41.4914 28.8926 43.8332 26.4697 45.2469C24.0869 46.6606 21.3611 47.3669 18.2926 47.3669ZM17.808 42.4C19.8674 42.4 21.4023 42.2583 22.4114 41.976C23.4206 41.6526 24.1886 41.2491 24.7131 40.7646C25.2389 40.1989 25.7429 39.3314 26.2274 38.16C26.7531 36.9886 27.1566 35.3132 27.4389 33.1326C27.7623 30.952 27.9234 28.0846 27.9234 24.5314C27.9234 20.9371 27.6811 17.808 27.1966 15.1429C26.712 12.4377 25.9246 10.6206 24.8343 9.69144C24.4309 9.328 23.8046 9.04573 22.9566 8.84344C22.1086 8.60117 20.816 8.48001 19.08 8.48001C17.424 8.48001 15.8903 8.56001 14.4766 8.72231C13.2454 8.82854 12.0138 8.92949 10.7817 9.02516L11.7509 6.29942V44.3989L10.6 41.6126C11.7314 41.7737 12.8411 41.9554 13.9314 42.1577C15.0217 42.3189 16.3143 42.4 17.808 42.4ZM44.5634 46.5189V11.2057H50.2571V46.5189H44.5634ZM44.0789 5.39085V1.52588e-05H50.8023V5.39085H44.0789ZM71.5703 47.3063C70.0627 47.3136 68.5592 47.1511 67.088 46.8217C65.7742 46.5656 64.4791 46.2216 63.2114 45.792C62.0811 45.3886 61.1931 45.0446 60.5463 44.7623L59.5771 44.2777L61.0309 39.5531L62 39.9771C62.8589 40.3443 63.7278 40.6876 64.6057 41.0069C65.7906 41.4376 67.0052 41.7818 68.24 42.0366C69.6148 42.3194 71.0147 42.4615 72.4183 42.4606C73.1863 42.4606 73.8926 42.4 74.5383 42.2789C75.1851 42.1177 75.7097 41.8754 76.1131 41.552C76.5177 41.1486 76.8811 40.5829 77.2034 39.856C77.5669 39.0891 77.7486 38.1806 77.7486 37.1303C77.7486 35.5554 77.3451 34.344 76.5371 33.496C75.7714 32.648 74.7611 32.0023 73.5086 31.5577C72.1838 31.0502 70.8288 30.6253 69.4514 30.2857C68.2741 29.9204 67.1025 29.5367 65.9371 29.1349C64.8098 28.7538 63.7476 28.2023 62.7874 27.4994C61.8594 26.7726 61.112 25.824 60.5474 24.6526C59.9817 23.4812 59.6983 21.9874 59.6983 20.1703C59.6983 17.2217 60.6069 14.8606 62.424 13.0834C64.2411 11.3063 67.2697 10.4183 71.5097 10.4183C72.9634 10.4183 74.3566 10.5189 75.6891 10.7211C76.8896 10.8906 78.082 11.1129 79.2629 11.3874C80.3143 11.5897 81.1006 11.7909 81.6251 11.9931L80.7166 16.6572L79.8686 16.4754C79.304 16.3143 78.536 16.152 77.5669 15.9909C76.4858 15.7722 75.394 15.6105 74.296 15.5063C73.0846 15.3451 71.8331 15.264 70.5406 15.264C69.3703 15.264 68.4411 15.344 67.7543 15.5063C67.1086 15.6274 66.6034 15.8091 66.24 16.0514C65.9177 16.3337 65.6343 16.7577 65.392 17.3234C65.1908 17.8892 65.0891 18.5749 65.0891 19.3829C65.0891 20.9177 65.5349 22.088 66.4217 22.896C67.3109 23.704 68.4617 24.3291 69.8743 24.7737C71.288 25.2183 72.7623 25.6617 74.2971 26.1063C75.4094 26.4231 76.5014 26.8074 77.5669 27.2572C78.6151 27.7004 79.5943 28.2919 80.4743 29.0137C81.3634 29.7406 82.0491 30.6892 82.5337 31.8606C83.0183 32.992 83.2606 34.4252 83.2606 36.1612C83.2606 39.472 82.2514 42.1577 80.232 44.2172C78.2549 46.2766 75.3669 47.3063 71.5703 47.3063ZM104.887 47.3063C102.101 47.3063 99.6171 46.68 97.4354 45.4286C95.296 44.1772 93.6206 42.1977 92.4091 39.4926C91.2377 36.7463 90.6526 33.1726 90.6526 28.7714C90.6526 25.1372 91.056 22.1292 91.864 19.7463C92.6709 17.3634 93.7817 15.5063 95.1954 14.1737C96.5882 12.8128 98.2937 11.8144 100.162 11.2663C102.059 10.7006 104.079 10.4183 106.219 10.4183C107.862 10.4173 109.502 10.5388 111.126 10.7817C112.741 10.984 114.053 11.2057 115.063 11.448L114.397 16.112C113.549 16.032 112.277 15.8903 110.579 15.688C108.834 15.4395 107.074 15.318 105.311 15.3246C103.776 15.3246 102.504 15.4457 101.494 15.688C100.526 15.9303 99.7783 16.3143 99.2537 16.8389C98.4857 17.6869 97.84 19.1817 97.3154 21.3212C96.7897 23.4617 96.5269 26.0457 96.5269 29.0743C96.5269 31.8606 96.7291 34.1017 97.1326 35.7977C97.5783 37.4937 98.0823 38.7863 98.648 39.6743C99.2537 40.5623 99.7989 41.168 100.282 41.4914C100.606 41.7337 101.03 41.9554 101.555 42.1577C102.08 42.36 102.847 42.4606 103.857 42.4606C104.987 42.4606 106.159 42.3189 107.37 42.0366C108.582 41.7543 109.691 41.4309 110.702 41.0674C111.751 40.704 112.599 40.3817 113.246 40.0983L114.215 39.6743L115.911 44.0354L114.517 44.8834C113.629 45.4091 112.357 45.9531 110.702 46.5189C109.046 47.0446 107.107 47.3063 104.887 47.3063ZM135.866 47.3063C132.434 47.3063 129.729 46.5589 127.75 45.0651C125.771 43.5714 124.358 41.4514 123.51 38.7052C122.702 35.9589 122.298 32.6686 122.298 28.832C122.298 25.0366 122.702 21.7657 123.51 19.0194C124.358 16.2731 125.771 14.1532 127.75 12.6594C129.728 11.1657 132.434 10.4183 135.866 10.4183C139.298 10.4183 142.003 11.1657 143.983 12.6594C145.961 14.1532 147.354 16.2731 148.162 19.0194C149.01 21.7657 149.434 25.056 149.434 28.8926C149.434 32.688 149.011 35.9589 148.162 38.7052C147.354 41.4514 145.961 43.5714 143.983 45.0651C142.005 46.5589 139.298 47.3063 135.866 47.3063ZM135.866 42.5211C137.36 42.5211 138.592 42.3394 139.561 41.976C140.552 41.6279 141.388 40.9415 141.923 40.0377C142.529 39.0686 142.953 37.6949 143.195 35.9189C143.478 34.1017 143.619 31.7394 143.619 28.832C143.619 25.9646 143.478 23.6434 143.197 21.8663C142.953 20.0491 142.529 18.656 141.923 17.6869C141.358 16.7177 140.57 16.072 139.561 15.7486C138.552 15.3851 137.321 15.2034 135.866 15.2034C134.373 15.2034 133.12 15.3851 132.111 15.7486C131.142 16.072 130.354 16.7177 129.749 17.6869C129.143 18.656 128.698 20.0491 128.416 21.8663C128.174 23.6434 128.053 25.9646 128.053 28.832C128.053 31.7394 128.174 34.1017 128.416 35.9189C128.698 37.696 129.143 39.0686 129.749 40.0377C130.354 40.9669 131.143 41.6126 132.111 41.976C133.12 42.3394 134.373 42.5211 135.866 42.5211ZM164.52 46.5189L154.223 11.2057H160.28L167.912 41.6731H168.275L175.907 11.2057H181.904L171.728 46.5189H164.52ZM201.429 47.3669C198.562 47.3669 196.039 46.7817 193.858 45.6103C191.678 44.3989 189.982 42.44 188.77 39.7349C187.599 36.9886 187.014 33.3543 187.014 28.832C187.014 24.0663 187.639 20.352 188.891 17.6869C190.143 15.0217 191.839 13.144 193.979 12.0537C196.16 10.9223 198.602 10.3577 201.309 10.3577C204.014 10.3577 206.295 10.8834 208.153 11.9326C210.05 12.9829 211.504 14.7394 212.514 17.2023C213.523 19.6652 214.029 22.9566 214.029 27.0754V31.0732H190.344L193.009 30.104C192.888 32.5669 192.949 34.5657 193.191 36.1006C193.473 37.5943 193.837 38.7257 194.281 39.4926C194.725 40.2594 195.109 40.8046 195.432 41.128C196.017 41.6235 196.697 41.9945 197.431 42.2183C198.198 42.4206 199.167 42.5211 200.338 42.5211C201.469 42.5211 202.619 42.4412 203.79 42.2789C204.961 42.0766 206.053 41.8549 207.062 41.6126C208.071 41.3303 208.959 41.0674 209.727 40.8251C210.364 40.5953 211.011 40.3932 211.665 40.2194L213.058 44.6411C212.335 44.9532 211.608 45.256 210.878 45.5497C209.787 45.9943 208.434 46.3977 206.819 46.7612C205.203 47.1646 203.407 47.3669 201.429 47.3669ZM193.01 28.7109L190.345 26.6514L210.757 26.2274L208.214 28.3474C208.214 25.6012 208.133 23.2594 207.971 21.3212C207.85 19.3829 207.466 17.9086 206.821 16.8994C206.537 16.496 206.053 16.112 205.367 15.7486C204.72 15.3851 203.469 15.2034 201.611 15.2034C199.632 15.2034 198.138 15.4252 197.129 15.8697C196.16 16.2731 195.392 16.8183 194.827 17.5052C193.414 19.3223 192.808 23.0571 193.01 28.7109ZM223.729 46.5189V11.2057H227.303L228.09 14.84H228.454L229.362 14.1737C229.968 13.6891 230.775 13.1646 231.785 12.5989C232.794 12.0332 233.865 11.5292 234.995 11.0846C236.166 10.64 237.256 10.4183 238.266 10.4183C238.993 10.4183 239.618 10.4789 240.144 10.6L240.992 10.7817L240.507 16.112L239.659 16.0514C239.134 16.0114 238.608 15.9909 238.085 15.9909C236.957 15.9963 235.836 16.1594 234.753 16.4754C233.682 16.736 232.645 17.1223 231.664 17.6263C230.735 18.0709 229.987 18.5143 229.423 18.9589V46.5189H223.729ZM263.195 56.6343L260.288 54.7566C260.966 53.9651 261.462 53.0347 261.742 52.0309C262.065 51.0217 262.226 49.8103 262.226 48.3966V41.0069H267.861V45.4286C267.819 48.3772 267.335 50.7383 266.406 52.5154C265.478 54.2926 264.407 55.6651 263.195 56.6343ZM307.146 47.3669C304.198 47.3669 301.594 46.6812 299.333 45.3074C297.112 43.8937 295.355 41.6126 294.063 38.4629C292.811 35.2731 292.185 31.0732 292.185 25.864C292.185 21.2606 292.589 17.5051 293.397 14.5977C294.205 11.6491 295.314 9.36801 296.728 7.75314C298.182 6.13829 299.878 5.02744 301.816 4.42172C303.754 3.81601 305.854 3.51315 308.115 3.51315C309.125 3.51315 310.296 3.57373 311.629 3.69487C312.965 3.77228 314.298 3.89348 315.626 4.05829C316.918 4.21944 317.928 4.38173 318.655 4.54288L317.989 9.44916L316.111 9.26743C315.303 9.18742 314.394 9.10629 313.385 9.02516C312.419 8.90764 311.45 8.82681 310.478 8.78287C309.59 8.70287 308.903 8.66171 308.418 8.66171C306.521 8.66171 304.986 8.76228 303.815 8.96457C302.643 9.16685 301.795 9.59087 301.271 10.2366C300.745 10.8423 300.242 11.7509 299.757 12.9623C299.312 14.1737 298.949 15.8297 298.666 17.9292C298.384 20.0286 298.243 22.7349 298.243 26.0457C298.243 30.2457 298.626 33.5966 299.393 36.1006C300.201 38.5634 301.008 40.1794 301.816 40.9463C302.388 41.4751 303.071 41.8684 303.816 42.0971C304.623 42.2994 305.53 42.4 306.541 42.4C308.034 42.4 309.489 42.2389 310.902 41.9154C312.355 41.592 313.648 41.2091 314.778 40.7646C315.91 40.32 316.798 39.9371 317.443 39.6137L318.473 39.1292L320.411 43.6115L319.442 44.1566C318.797 44.52 317.888 44.9646 316.717 45.4892C315.545 45.9737 314.152 46.3977 312.537 46.7612C310.922 47.1646 309.125 47.3669 307.146 47.3669ZM340.65 47.3063C337.217 47.3063 334.512 46.5589 332.534 45.0651C330.554 43.5714 329.142 41.4514 328.294 38.7052C327.486 35.9589 327.082 32.6686 327.082 28.832C327.082 25.0366 327.486 21.7657 328.294 19.0194C329.142 16.2731 330.554 14.1532 332.534 12.6594C334.512 11.1657 337.217 10.4183 340.65 10.4183C344.082 10.4183 346.787 11.1657 348.767 12.6594C350.745 14.1532 352.138 16.2731 352.946 19.0194C353.794 21.7657 354.218 25.056 354.218 28.8926C354.218 32.688 353.794 35.9589 352.946 38.7052C352.138 41.4514 350.745 43.5714 348.767 45.0651C346.787 46.5589 344.082 47.3063 340.65 47.3063ZM340.65 42.5211C342.144 42.5211 343.376 42.3394 344.345 41.976C345.336 41.6279 346.172 40.9415 346.707 40.0377C347.313 39.0686 347.736 37.6949 347.979 35.9189C348.262 34.1017 348.402 31.7394 348.402 28.832C348.402 25.9646 348.262 23.6434 347.979 21.8663C347.737 20.0491 347.313 18.656 346.707 17.6869C346.142 16.7177 345.354 16.072 344.345 15.7486C343.335 15.3851 342.104 15.2034 340.65 15.2034C339.155 15.2034 337.904 15.3851 336.895 15.7486C335.926 16.072 335.138 16.7177 334.533 17.6869C333.927 18.656 333.482 20.0491 333.2 21.8663C332.958 23.6434 332.837 25.9646 332.837 28.832C332.837 31.7394 332.958 34.1017 333.2 35.9189C333.482 37.696 333.927 39.0686 334.533 40.0377C335.138 40.9669 335.926 41.6126 336.895 41.976C337.904 42.3394 339.155 42.5211 340.65 42.5211ZM364.155 46.5189V11.2057H367.911L368.577 14.6583H368.819C369.223 14.416 369.848 14.0732 370.697 13.6286C371.667 13.1043 372.657 12.6193 373.665 12.1749C374.795 11.6492 375.967 11.2263 377.178 10.9029C378.43 10.5794 379.662 10.4183 380.873 10.4183C382.649 10.4183 384.165 10.8217 385.416 11.6297C386.683 12.4071 387.661 13.5768 388.202 14.9612C390.021 13.8452 391.902 12.834 393.835 11.9326C395.89 10.9242 398.149 10.4059 400.438 10.4183C402.698 10.4183 404.435 10.9634 405.647 12.0537C406.898 13.104 407.767 14.5977 408.251 16.536C408.736 18.4332 408.978 20.696 408.978 23.32V46.5189H403.285V25.016C403.285 23.1189 403.243 21.4823 403.163 20.1097C403.082 18.696 402.821 17.6663 402.375 17.0206C402.013 16.4149 401.487 16.0514 400.801 15.9303C400.154 15.7691 399.59 15.688 399.105 15.688C398.095 15.688 397.046 15.8297 395.955 16.112C394.924 16.3883 393.913 16.7322 392.927 17.1417C392.105 17.4946 391.297 17.8785 390.504 18.2926C389.857 18.616 389.414 18.8583 389.171 19.0194C389.254 19.6836 389.314 20.3502 389.353 21.0183C389.393 21.704 389.414 22.432 389.414 23.1989V46.5189H383.72V24.8343C383.72 22.6137 383.659 20.9177 383.537 19.7463C383.457 18.5349 383.215 17.6057 382.811 16.96C382.438 16.4554 381.904 16.0925 381.297 15.9303C380.766 15.7738 380.215 15.6922 379.662 15.688C378.369 15.688 377.077 15.8903 375.785 16.2937C374.587 16.6619 373.413 17.107 372.272 17.6263C371.459 17.9981 370.651 18.3818 369.849 18.7771V46.5189H364.155ZM419.145 56.5737V11.2057H422.961L423.688 14.7794H424.051C424.92 14.145 425.809 13.5389 426.717 12.9623C427.766 12.2766 428.957 11.6903 430.29 11.2057C431.623 10.68 433.077 10.4183 434.651 10.4183C436.832 10.4183 438.729 11.0446 440.345 12.296C442 13.5074 443.272 15.4252 444.161 18.0503C445.049 20.6343 445.494 24.0274 445.494 28.2263C445.494 32.1429 445.11 35.3531 444.343 37.8571C443.616 40.32 442.626 42.2583 441.375 43.672C440.122 45.0446 438.71 45.9943 437.135 46.5189C435.621 47.0733 434.022 47.3602 432.41 47.3669C431.441 47.3669 430.451 47.3269 429.442 47.2457C428.432 47.1657 427.523 47.0434 426.717 46.8823C426.089 46.7904 425.463 46.6895 424.839 46.5794V56.5737H419.145ZM433.319 42.4C433.843 42.4 434.429 42.36 435.075 42.2789C435.721 42.1577 436.287 41.8754 436.771 41.4309C437.336 40.9863 437.821 40.28 438.225 39.3109C438.629 38.3417 438.952 36.9086 439.194 35.0103C439.437 33.072 439.558 30.528 439.558 27.3783C439.558 24.8343 439.478 22.8354 439.315 21.3817C439.194 19.888 439.013 18.7772 438.77 18.0503C438.528 17.3234 438.225 16.7783 437.862 16.4149C437.659 16.2126 437.317 15.9909 436.832 15.7486C436.347 15.5063 435.6 15.3852 434.591 15.3852C433.251 15.3931 431.921 15.6181 430.654 16.0514C429.433 16.4132 428.239 16.8584 427.08 17.384C426.03 17.8686 425.282 18.272 424.839 18.5954V41.1886C425.566 41.3909 426.736 41.6526 428.352 41.976C429.993 42.2574 431.654 42.3992 433.319 42.4ZM462.451 47.3063C460.553 47.3063 458.878 46.8823 457.423 46.0343C455.97 45.1463 454.84 43.8537 454.032 42.1577C453.224 40.4617 452.821 38.4229 452.821 36.04C452.821 33.1726 453.406 30.912 454.577 29.256C455.747 27.6 457.403 26.4297 459.544 25.7429C461.683 25.0571 464.187 24.7132 467.055 24.7132H473.233C473.233 22.7349 473.173 21.0583 473.05 19.6857C472.93 18.272 472.627 17.2229 472.143 16.536C471.738 16.0514 471.194 15.728 470.507 15.5669C469.861 15.3646 469.113 15.264 468.266 15.264C466.702 15.2631 465.141 15.405 463.602 15.688C462.209 15.9453 460.834 16.2892 459.483 16.7177C458.467 17.0411 457.458 17.3844 456.455 17.7475L455.365 18.1714L453.608 13.8103L454.759 13.3257C455.526 12.9623 456.555 12.5589 457.848 12.1143C459.181 11.6697 460.654 11.2869 462.27 10.9634C463.925 10.6 465.641 10.4183 467.418 10.4183C470.245 10.4183 472.486 10.9634 474.142 12.0537C475.838 13.104 477.049 14.5977 477.776 16.536C478.503 18.4743 478.866 20.736 478.866 23.32V46.5189H475.232L474.443 42.7634H474.081C473.718 43.0057 473.152 43.3897 472.385 43.9143C471.544 44.4653 470.674 44.9707 469.779 45.4286C468.696 45.9829 467.56 46.4293 466.389 46.7612C465.109 47.1285 463.783 47.312 462.451 47.3063ZM463.542 42.4C464.954 42.4 466.307 42.1977 467.599 41.7943C468.891 41.3497 470.042 40.8857 471.053 40.4012C472.062 39.8754 472.789 39.472 473.233 39.1897V29.7406C472.789 29.6606 472.041 29.5794 470.992 29.4983C469.942 29.3772 468.589 29.3166 466.934 29.3166C463.339 29.3166 461.119 29.68 460.271 30.4069C459.786 30.8103 459.402 31.4972 459.12 32.4663C458.837 33.4354 458.696 34.6069 458.696 35.9794C458.696 38.2411 459.059 39.8766 459.786 40.8857C460.553 41.8949 461.805 42.4 463.542 42.4ZM490.445 46.5189V11.2057H494.018L494.806 14.84H495.169L496.078 14.1737C496.683 13.6891 497.49 13.1646 498.501 12.5989C499.51 12.0332 500.581 11.5292 501.711 11.0846C502.881 10.64 503.971 10.4183 504.982 10.4183C505.709 10.4183 506.334 10.4789 506.859 10.6L507.707 10.7817L507.223 16.112L506.375 16.0514C505.849 16.0114 505.323 15.9909 504.8 15.9909C503.672 15.9963 502.551 16.1594 501.469 16.4754C500.397 16.736 499.36 17.1223 498.379 17.6263C497.45 18.0709 496.703 18.5143 496.138 18.9589V46.5189H490.445ZM526.586 47.3669C523.72 47.3669 521.195 46.7817 519.015 45.6103C516.834 44.3989 515.138 42.44 513.927 39.7349C512.757 36.9886 512.17 33.3543 512.17 28.832C512.17 24.0663 512.797 20.352 514.048 17.6869C515.301 15.0217 516.997 13.144 519.136 12.0537C521.317 10.9223 523.76 10.3577 526.465 10.3577C529.171 10.3577 531.453 10.8834 533.311 11.9326C535.208 12.9829 536.662 14.7394 537.671 17.2023C538.681 19.6652 539.185 22.9566 539.185 27.0754V31.0732H515.502L518.167 30.104C518.046 32.5669 518.106 34.5657 518.35 36.1006C518.632 37.5943 518.995 38.7257 519.439 39.4926C519.883 40.2594 520.267 40.8046 520.59 41.128C521.175 41.6237 521.856 41.9946 522.59 42.2183C523.355 42.4206 524.326 42.5211 525.496 42.5211C526.627 42.5211 527.778 42.4412 528.949 42.2789C530.12 42.0766 531.21 41.8549 532.219 41.6126C533.23 41.3303 534.118 41.0674 534.885 40.8251C535.693 40.5429 536.338 40.3406 536.823 40.2194L538.217 44.6411C537.494 44.9532 536.766 45.2561 536.035 45.5497C534.945 45.9943 533.593 46.3977 531.978 46.7612C530.362 47.1646 528.566 47.3669 526.586 47.3669ZM518.167 28.7109L515.502 26.6514L535.914 26.2274L533.37 28.3474C533.37 25.6012 533.29 23.2594 533.128 21.3212C533.007 19.3829 532.624 17.9086 531.977 16.8994C531.695 16.496 531.21 16.112 530.523 15.7486C529.878 15.3851 528.626 15.2034 526.768 15.2034C524.79 15.2034 523.296 15.4252 522.286 15.8697C521.317 16.2731 520.55 16.8183 519.984 17.5052C518.571 19.3223 517.966 23.0571 518.167 28.7109ZM549.431 56.6343L546.523 54.7566C547.201 53.9651 547.698 53.0347 547.977 52.0309C548.301 51.0217 548.462 49.8103 548.462 48.3966V41.0069H554.096V45.4286C554.055 48.3772 553.57 50.7383 552.641 52.5154C551.713 54.2926 550.642 55.6651 549.431 56.6343ZM12.72 120.449C10.8229 120.449 9.14629 120.025 7.69257 119.177C6.23886 118.289 5.10857 116.997 4.30057 115.301C3.49257 113.605 3.08914 111.566 3.08914 109.183C3.08914 106.315 3.67429 104.055 4.84571 102.399C6.01714 100.743 7.672 99.5726 9.81257 98.8857C11.9531 98.2 14.456 97.856 17.3234 97.856H23.5017C23.5017 95.8777 23.4411 94.2011 23.32 92.8286C23.1989 91.4149 22.896 90.3657 22.4114 89.6789C22.008 89.1943 21.4629 88.8709 20.776 88.7097C20.1303 88.5074 19.3829 88.4069 18.5349 88.4069C16.9705 88.4059 15.4094 88.5478 13.8709 88.8309C12.4778 89.0881 11.1022 89.432 9.752 89.8606C8.73584 90.184 7.72612 90.5273 6.72343 90.8903L5.63314 91.3143L3.87657 86.9531L5.02743 86.4686C5.79429 86.1051 6.824 85.7017 8.11657 85.2571C9.44914 84.8126 10.9234 84.4297 12.5383 84.1063C14.1943 83.7429 15.9097 83.5611 17.6869 83.5611C20.5131 83.5611 22.7543 84.1063 24.4103 85.1966C26.1063 86.2469 27.3177 87.7406 28.0446 89.6789C28.7714 91.6171 29.1349 93.8789 29.1349 96.4629V119.662H25.5006L24.7131 115.906H24.3497C23.9863 116.149 23.4206 116.533 22.6537 117.057C21.8132 117.608 20.9438 118.114 20.0491 118.571C18.9649 119.126 17.8288 119.572 16.6571 119.904C15.3772 120.271 14.0516 120.455 12.72 120.449ZM13.8103 115.543C15.224 115.543 16.576 115.341 17.8686 114.937C19.16 114.493 20.312 114.029 21.3211 113.544C22.3303 113.018 23.0583 112.615 23.5017 112.333V102.883C23.0571 102.803 22.3109 102.722 21.2606 102.641C20.2103 102.52 18.8583 102.459 17.2023 102.459C13.608 102.459 11.3874 102.823 10.5394 103.55C10.0549 103.953 9.67086 104.64 9.38857 105.609C9.10628 106.578 8.96457 107.75 8.96457 109.122C8.96457 111.384 9.328 113.019 10.0549 114.029C10.8217 115.038 12.0743 115.543 13.8103 115.543ZM40.7131 119.662V84.3486H44.4686L45.1349 87.8011H45.4377C45.8411 87.5589 46.4663 87.216 47.3154 86.7714C48.2034 86.2869 49.2126 85.8023 50.344 85.3177C51.5542 84.7795 52.8113 84.3537 54.0994 84.0457C55.4079 83.7256 56.75 83.5629 58.0971 83.5611C60.3589 83.5611 62.0743 84.1269 63.2457 85.2571C64.4571 86.3474 65.2651 87.8617 65.6686 89.8C66.1131 91.6971 66.3349 93.8377 66.3349 96.2206V119.662H60.6411V97.9771C60.6411 95.7154 60.6011 94 60.52 92.8286C60.44 91.6171 60.1771 90.7086 59.7314 90.1029C59.4503 89.5771 59.0057 89.2549 58.4 89.1337C57.8085 88.9687 57.1969 88.8871 56.5829 88.8914C55.2103 88.8914 53.8171 89.1131 52.4034 89.5577C51.1223 89.9144 49.8674 90.3596 48.648 90.8903C47.5577 91.3749 46.8103 91.7383 46.4069 91.9806V119.662H40.7131ZM86.8949 120.449C84.6743 120.449 82.7154 119.823 81.0206 118.571C79.3234 117.32 77.992 115.382 77.0217 112.757C76.0526 110.091 75.568 106.699 75.568 102.581C75.568 98.704 75.9314 95.5337 76.6583 93.0709C77.3851 90.568 78.3749 88.6286 79.6263 87.256C80.8789 85.8834 82.2514 84.9337 83.7451 84.4091C85.24 83.8434 86.7737 83.5611 88.3486 83.5611C89.6411 83.5611 90.792 83.6412 91.8011 83.8034C92.8526 83.9646 93.7394 84.1463 94.4663 84.3486C95.1931 84.5509 95.7589 84.7326 96.1623 84.8937V73.9909H101.797V119.662H98.1006L97.3737 116.027H97.0709C96.5063 116.472 95.7383 117.057 94.7691 117.784C93.8 118.47 92.6491 119.096 91.3177 119.662C90.0251 120.187 88.552 120.449 86.8949 120.449ZM87.3794 115.482C88.1474 115.482 88.9543 115.382 89.8023 115.179C90.6503 114.937 91.4789 114.654 92.2857 114.331C93.0483 114.045 93.7962 113.722 94.5269 113.362C95.2137 112.999 95.7589 112.696 96.1623 112.454V90.0423C95.523 89.8193 94.8765 89.6172 94.224 89.4366C93.4171 89.1943 92.4674 88.992 91.3783 88.8309C90.3269 88.6286 89.1966 88.528 87.9851 88.528C85.8457 88.528 84.3714 88.992 83.5634 89.9212C83.2411 90.3246 82.9177 91.0114 82.5943 91.9806C82.272 92.9097 81.9886 94.2423 81.7463 95.9783C81.5451 97.7154 81.4434 99.9966 81.4434 102.823C81.4434 106.054 81.6057 108.496 81.928 110.152C82.2514 111.767 82.6149 112.898 83.0183 113.544C83.464 114.15 83.8069 114.553 84.048 114.755C84.3714 115.038 84.816 115.24 85.3806 115.361C85.9863 115.441 86.6514 115.482 87.3794 115.482ZM136.993 120.51C135.297 120.51 133.662 120.307 132.087 119.904C130.512 119.541 129.098 119.096 127.847 118.571C126.635 118.046 125.687 117.602 125 117.239L123.97 116.633L124.213 115.967C124.414 115.482 124.635 114.937 124.879 114.331C125.121 113.686 125.343 113.141 125.545 112.696L125.848 112.03L126.877 112.575C127.563 112.898 128.493 113.261 129.664 113.665C130.959 114.105 132.273 114.489 133.601 114.816C135.114 115.141 136.657 115.303 138.205 115.301C139.174 115.301 139.941 115.221 140.506 115.058C141.071 114.856 141.475 114.674 141.718 114.513C142.483 113.987 143.07 113.262 143.474 112.333C143.878 111.403 144.08 110.192 144.08 108.698C144.08 107.245 143.737 106.033 143.05 105.064C142.403 104.095 141.515 103.287 140.385 102.641C139.295 101.955 138.103 101.329 136.811 100.763C135.32 100.137 133.845 99.4703 132.389 98.7646C130.976 98.0789 129.725 97.2903 128.634 96.4023C127.569 95.4526 126.704 94.2993 126.09 93.0103C125.485 91.6377 125.182 89.9417 125.182 87.9223C125.182 85.7817 125.666 83.8846 126.635 82.2286C127.605 80.5326 129.038 79.1794 130.936 78.1703C132.874 77.1611 135.256 76.656 138.083 76.656C139.416 76.656 140.688 76.736 141.899 76.8983C143.018 76.9998 144.13 77.1616 145.231 77.3829C146.2 77.544 146.967 77.7063 147.533 77.8674L148.381 78.1097L147.411 82.9554L146.503 82.7737C145.897 82.6526 145.089 82.5109 144.08 82.3497C143.07 82.1886 141.939 82.0674 140.688 81.9863C139.477 81.8651 138.245 81.8046 136.993 81.8046C136.024 81.8046 135.256 81.8651 134.691 81.9863C134.155 82.096 133.642 82.3012 133.177 82.592C132.693 82.8343 132.229 83.3589 131.783 84.1669C131.339 84.9749 131.118 86.0846 131.118 87.4983C131.118 89.0331 131.521 90.3051 132.329 91.3143C133.136 92.2834 134.186 93.0914 135.479 93.7371C136.871 94.4097 138.285 95.0359 139.719 95.6149C140.93 96.1406 142.142 96.7257 143.353 97.3714C144.578 97.9584 145.702 98.7353 146.685 99.6731C147.694 100.561 148.502 101.693 149.107 103.065C149.713 104.438 150.016 106.114 150.016 108.093C150.016 110.555 149.471 112.717 148.381 114.574C147.29 116.431 145.755 117.885 143.777 118.935C141.839 119.985 139.577 120.51 136.993 120.51ZM171.853 120.51C168.986 120.51 166.463 119.925 164.282 118.753C162.102 117.542 160.406 115.583 159.194 112.878C158.023 110.131 157.438 106.497 157.438 101.975C157.438 97.2091 158.063 93.4949 159.315 90.8297C160.567 88.1646 162.264 86.2869 164.403 85.1966C166.584 84.0651 169.026 83.5006 171.733 83.5006C174.438 83.5006 176.719 84.0263 178.577 85.0754C180.474 86.1257 181.928 87.8823 182.938 90.3451C183.947 92.808 184.453 96.0994 184.453 100.218V104.216H160.769L163.434 103.247C163.313 105.71 163.374 107.709 163.616 109.243C163.898 110.737 164.262 111.869 164.706 112.635C165.15 113.402 165.534 113.947 165.857 114.271C166.442 114.766 167.123 115.137 167.856 115.361C168.623 115.563 169.593 115.664 170.763 115.664C171.895 115.664 173.045 115.584 174.215 115.422C175.386 115.219 176.478 114.998 177.487 114.755C178.496 114.473 179.384 114.21 180.152 113.968C180.959 113.686 181.606 113.483 182.09 113.362L183.483 117.784C182.76 118.096 182.033 118.399 181.303 118.693C180.213 119.137 178.859 119.541 177.245 119.904C175.629 120.307 173.832 120.51 171.854 120.51H171.853ZM163.434 101.854L160.769 99.7943L181.181 99.3703L178.638 101.49C178.638 98.744 178.558 96.4023 178.395 94.464C178.274 92.5257 177.89 91.0514 177.245 90.0423C176.961 89.6389 176.477 89.2549 175.791 88.8914C175.144 88.528 173.894 88.3463 172.035 88.3463C170.056 88.3463 168.562 88.568 167.553 89.0126C166.584 89.416 165.816 89.9612 165.251 90.648C163.838 92.4651 163.232 96.2 163.434 101.854ZM194.335 119.662V73.9909H200.029V119.662H194.335ZM224.735 120.51C221.869 120.51 219.344 119.925 217.163 118.753C214.983 117.542 213.287 115.583 212.075 112.878C210.905 110.131 210.319 106.497 210.319 101.975C210.319 97.2091 210.945 93.4949 212.197 90.8297C213.449 88.1646 215.145 86.2869 217.285 85.1966C219.465 84.0651 221.909 83.5006 224.614 83.5006C227.32 83.5006 229.601 84.0263 231.459 85.0754C233.357 86.1257 234.81 87.8823 235.819 90.3451C236.83 92.808 237.334 96.0994 237.334 100.218V104.216H213.65L216.315 103.247C216.194 105.71 216.255 107.709 216.498 109.243C216.781 110.737 217.144 111.869 217.587 112.635C218.032 113.402 218.416 113.947 218.738 114.271C219.324 114.767 220.004 115.138 220.738 115.361C221.504 115.563 222.474 115.664 223.645 115.664C224.776 115.664 225.927 115.584 227.097 115.422C228.269 115.219 229.359 114.998 230.368 114.755C231.378 114.473 232.265 114.21 233.033 113.968C233.841 113.686 234.487 113.483 234.971 113.362L236.366 117.784C235.642 118.096 234.915 118.399 234.184 118.693C233.094 119.137 231.742 119.541 230.127 119.904C228.511 120.307 226.714 120.51 224.735 120.51ZM216.315 101.854L213.65 99.7943L234.063 99.3703L231.519 101.49C231.519 98.744 231.439 96.4023 231.277 94.464C231.155 92.5257 230.773 91.0514 230.126 90.0423C229.843 89.6389 229.359 89.2549 228.672 88.8914C228.026 88.528 226.775 88.3463 224.917 88.3463C222.938 88.3463 221.445 88.568 220.434 89.0126C219.465 89.416 218.697 89.9612 218.133 90.648C216.72 92.4651 216.114 96.2 216.315 101.854ZM259.391 120.449C256.605 120.449 254.122 119.823 251.941 118.571C249.8 117.32 248.125 115.341 246.913 112.635C245.742 109.889 245.157 106.315 245.157 101.914C245.157 98.28 245.56 95.272 246.368 92.8891C247.176 90.5063 248.286 88.6491 249.699 87.3166C251.092 85.9557 252.798 84.9573 254.666 84.4091C256.563 83.8434 258.583 83.5611 260.723 83.5611C262.366 83.5602 264.006 83.6816 265.63 83.9246C267.245 84.1269 268.558 84.3486 269.567 84.5909L268.901 89.2549C268.053 89.1749 266.781 89.0331 265.085 88.8309C263.339 88.5823 261.579 88.4609 259.816 88.4674C258.28 88.4674 257.008 88.5886 255.999 88.8309C255.03 89.0731 254.282 89.4571 253.759 89.9817C252.991 90.8297 252.344 92.3246 251.819 94.464C251.294 96.6046 251.032 99.1886 251.032 102.217C251.032 105.003 251.234 107.245 251.638 108.941C252.082 110.637 252.586 111.929 253.152 112.817C253.758 113.705 254.303 114.311 254.787 114.634C255.111 114.877 255.535 115.098 256.059 115.301C256.585 115.503 257.351 115.603 258.361 115.603C259.493 115.603 260.663 115.462 261.874 115.179C263.086 114.897 264.197 114.574 265.206 114.21C266.256 113.847 267.103 113.525 267.75 113.241L268.719 112.817L270.415 117.178L269.022 118.026C268.134 118.552 266.862 119.096 265.206 119.662C263.55 120.187 261.611 120.449 259.391 120.449ZM288.13 120.51C286.313 120.51 284.738 120.207 283.406 119.601C282.113 118.995 281.104 117.845 280.377 116.149C279.65 114.453 279.287 111.929 279.287 108.577V90.7691H275.289V87.1954L279.529 86.3474L280.862 78.1097H284.981V86.3474H292.066V90.8903H284.981V108.941C284.981 111.04 285.041 112.575 285.162 113.544C285.283 114.473 285.585 115.079 286.071 115.361C286.555 115.603 287.362 115.725 288.494 115.725C289.139 115.725 289.725 115.704 290.25 115.664C290.775 115.624 291.199 115.603 291.522 115.603L292.007 115.543V120.146L290.917 120.328C290.19 120.449 289.259 120.51 288.13 120.51ZM325.159 120.51C323.342 120.51 321.767 120.207 320.434 119.601C319.143 118.995 318.133 117.845 317.406 116.149C316.679 114.453 316.315 111.929 316.315 108.577V90.7691H312.318V87.1954L316.558 86.3474L317.89 78.1097H322.009V86.3474H329.096V90.8903H322.009V108.941C322.009 111.04 322.07 112.575 322.191 113.544C322.312 114.473 322.614 115.079 323.099 115.361C323.584 115.603 324.391 115.725 325.522 115.725C326.168 115.725 326.754 115.704 327.279 115.664C327.805 115.624 328.227 115.603 328.551 115.603L329.035 115.543V120.146L327.945 120.328C327.218 120.449 326.289 120.51 325.159 120.51ZM337.161 119.662V73.9909H342.854V88.6491L341.582 87.1349C342.592 86.6503 343.783 86.1451 345.155 85.6206C346.569 85.0549 348.002 84.5703 349.456 84.1669C350.951 83.7634 352.323 83.5611 353.575 83.5611C355.958 83.5611 357.815 84.0663 359.147 85.0754C360.48 86.0446 361.41 87.4777 361.934 89.376C362.499 91.2331 362.782 93.5154 362.782 96.2206V119.662H357.088V97.9771C357.088 95.8366 357.008 94.1406 356.846 92.8891C356.686 91.6377 356.382 90.688 355.937 90.0423C355.534 89.5166 355.049 89.1943 354.483 89.0732C353.919 88.912 353.253 88.8309 352.485 88.8309C351.557 88.8309 350.546 88.952 349.456 89.1943C348.407 89.4366 347.376 89.72 346.367 90.0423C345.465 90.3261 344.575 90.6495 343.702 91.0114C342.936 91.2937 342.39 91.5166 342.067 91.6777L342.914 90.4057L342.854 119.662H337.161ZM386.456 120.51C383.589 120.51 381.065 119.925 378.885 118.753C376.704 117.542 375.008 115.583 373.797 112.878C372.625 110.131 372.04 106.497 372.04 101.975C372.04 97.2091 372.666 93.4949 373.918 90.8297C375.169 88.1646 376.866 86.2869 379.006 85.1966C381.186 84.0651 383.63 83.5006 386.335 83.5006C389.04 83.5006 391.322 84.0263 393.181 85.0754C395.078 86.1257 396.531 87.8823 397.541 90.3451C398.55 92.808 399.055 96.0994 399.055 100.218V104.216H375.373L378.038 103.247C377.917 105.71 377.977 107.709 378.221 109.243C378.502 110.737 378.865 111.869 379.31 112.635C379.754 113.402 380.137 113.947 380.461 114.271C381.046 114.767 381.727 115.138 382.461 115.361C383.226 115.563 384.195 115.664 385.367 115.664C386.498 115.664 387.648 115.584 388.819 115.422C389.917 115.235 391.007 115.013 392.09 114.755C393.099 114.473 393.987 114.21 394.755 113.968C395.563 113.686 396.209 113.483 396.694 113.362L398.088 117.784C397.365 118.096 396.637 118.399 395.906 118.693C394.816 119.137 393.463 119.541 391.849 119.904C390.233 120.307 388.434 120.51 386.456 120.51ZM378.037 101.854L375.371 99.7943L395.784 99.3703L393.24 101.49C393.24 98.744 393.16 96.4023 392.998 94.464C392.877 92.5257 392.493 91.0514 391.847 90.0423C391.565 89.6389 391.08 89.2549 390.393 88.8914C389.747 88.528 388.496 88.3463 386.638 88.3463C384.659 88.3463 383.165 88.568 382.155 89.0126C381.186 89.416 380.418 89.9612 379.854 90.648C378.44 92.4651 377.834 96.2 378.037 101.854ZM436.265 120.449C435.136 120.449 433.743 120.328 432.087 120.086C430.42 119.875 428.763 119.592 427.12 119.238C425.464 118.874 424.031 118.49 422.819 118.087V73.9909H428.453V84.8332C429.058 84.712 429.825 84.5509 430.754 84.3486C431.723 84.1463 432.774 83.9646 433.904 83.8034C435.075 83.6423 436.247 83.5611 437.417 83.5611C441.051 83.5611 443.858 84.9749 445.837 87.8011C447.815 90.5874 448.805 95.1303 448.805 101.43C448.805 105.306 448.441 108.496 447.714 111C446.987 113.463 446.018 115.382 444.807 116.754C443.635 118.127 442.304 119.097 440.809 119.662C439.352 120.187 437.815 120.454 436.266 120.449H436.265ZM436.145 115.482C437.235 115.482 438.083 115.422 438.689 115.301C439.295 115.139 439.8 114.897 440.203 114.574C440.567 114.21 440.951 113.584 441.354 112.696C441.799 111.808 442.162 110.394 442.445 108.456C442.727 106.518 442.867 103.853 442.867 100.461C442.867 97.0686 442.707 94.5246 442.384 92.8286C442.061 91.0914 441.595 89.9817 440.99 89.4971C440.183 88.8514 438.79 88.528 436.811 88.528C434.792 88.528 433.056 88.7303 431.602 89.1337C430.189 89.4971 429.139 89.8 428.453 90.0423V114.574C428.856 114.695 429.401 114.816 430.087 114.937C430.953 115.078 431.821 115.199 432.693 115.301C433.702 115.422 434.853 115.482 436.144 115.482H436.145ZM471.398 120.51C468.531 120.51 466.007 119.925 463.826 118.753C461.646 117.542 459.95 115.583 458.738 112.878C457.568 110.131 456.982 106.497 456.982 101.975C456.982 97.2091 457.608 93.4949 458.859 90.8297C460.112 88.1646 461.808 86.2869 463.947 85.1966C466.128 84.0651 468.571 83.5006 471.277 83.5006C473.983 83.5006 476.264 84.0263 478.122 85.0754C480.019 86.1257 481.473 87.8823 482.482 90.3451C483.493 92.808 483.997 96.0994 483.997 100.218V104.216H460.313L462.978 103.247C462.857 105.71 462.918 107.709 463.161 109.243C463.443 110.737 463.807 111.869 464.25 112.635C464.695 113.402 465.079 113.947 465.401 114.271C465.987 114.767 466.667 115.138 467.401 115.361C468.167 115.563 469.137 115.664 470.307 115.664C471.439 115.664 472.59 115.584 473.76 115.422C474.857 115.235 475.948 115.013 477.031 114.755C478.041 114.473 478.929 114.21 479.696 113.968C480.504 113.686 481.15 113.483 481.634 113.362L483.029 117.784C482.305 118.096 481.578 118.399 480.847 118.693C479.757 119.137 478.405 119.541 476.79 119.904C475.174 120.307 473.377 120.51 471.398 120.51ZM462.978 101.854L460.313 99.7943L480.726 99.3703L478.182 101.49C478.182 98.744 478.102 96.4023 477.939 94.464C477.818 92.5257 477.435 91.0514 476.789 90.0423C476.506 89.6389 476.022 89.2549 475.335 88.8914C474.689 88.528 473.438 88.3463 471.579 88.3463C469.601 88.3463 468.107 88.568 467.097 89.0126C466.128 89.416 465.361 89.9612 464.795 90.648C463.383 92.4651 462.777 96.2 462.978 101.854ZM502.965 120.449C501.457 120.456 499.953 120.294 498.482 119.965C497.168 119.708 495.873 119.364 494.606 118.935C493.474 118.531 492.587 118.187 491.941 117.905L490.971 117.421L492.425 112.696L493.394 113.12C494.253 113.487 495.122 113.83 496 114.15C497.185 114.58 498.399 114.925 499.634 115.179C501.009 115.462 502.409 115.604 503.813 115.603C504.581 115.603 505.287 115.543 505.933 115.422C506.579 115.261 507.104 115.018 507.507 114.695C507.912 114.291 508.275 113.726 508.598 112.999C508.961 112.232 509.143 111.323 509.143 110.273C509.143 108.698 508.739 107.487 507.931 106.639C507.165 105.791 506.155 105.145 504.903 104.701C503.578 104.193 502.223 103.768 500.846 103.429C499.674 103.065 498.503 102.681 497.331 102.278C496.204 101.897 495.142 101.345 494.182 100.642C493.254 99.9154 492.506 98.9669 491.942 97.7954C491.376 96.624 491.093 95.1303 491.093 93.3131C491.093 90.3646 492.001 88.0034 493.818 86.2263C495.635 84.4491 498.664 83.5611 502.904 83.5611C504.358 83.5611 505.751 83.6617 507.083 83.864C508.284 84.0335 509.476 84.2558 510.657 84.5303C511.707 84.7326 512.495 84.9337 513.019 85.136L512.111 89.8L511.263 89.6183C510.698 89.4571 509.93 89.2949 508.961 89.1337C507.992 88.9314 506.902 88.7703 505.69 88.6491C504.479 88.488 503.227 88.4069 501.935 88.4069C500.765 88.4069 499.835 88.4869 499.149 88.6491C498.503 88.7703 497.998 88.952 497.634 89.1943C497.312 89.4766 497.029 89.9006 496.786 90.4663C496.585 91.032 496.483 91.7177 496.483 92.5257C496.483 94.0606 496.928 95.2309 497.816 96.0389C498.705 96.8469 499.856 97.472 501.269 97.9166C502.682 98.3612 504.157 98.8046 505.691 99.2492C506.822 99.5726 507.912 99.9554 508.961 100.4C510.009 100.843 510.989 101.435 511.869 102.157C512.758 102.883 513.443 103.832 513.928 105.003C514.413 106.135 514.655 107.568 514.655 109.304C514.655 112.615 513.646 115.301 511.626 117.36C509.648 119.419 506.761 120.449 502.965 120.449ZM533.372 120.51C531.555 120.51 529.981 120.207 528.648 119.601C527.357 118.995 526.346 117.845 525.619 116.149C524.893 114.453 524.529 111.929 524.529 108.577V90.7691H520.531V87.1954L524.771 86.3474L526.104 78.1097H530.223V86.3474H537.31V90.8903H530.224V108.941C530.224 111.04 530.283 112.575 530.405 113.544C530.526 114.473 530.829 115.079 531.313 115.361C531.798 115.603 532.606 115.725 533.736 115.725C534.383 115.725 534.968 115.704 535.493 115.664C536.018 115.624 536.441 115.603 536.765 115.603L537.249 115.543V120.146L536.159 120.328C535.432 120.449 534.504 120.51 533.372 120.51ZM0 193.947L11.448 151.79H19.3829L30.8914 193.947H24.9554L21.7451 181.227L24.7131 183.045H6.23886L9.08571 181.227L5.87543 193.947H0ZM9.14628 180.682L7.26857 178.017H23.6229L21.6846 180.682L15.0217 154.394L18.1714 156.938H12.6594L15.8697 154.394L9.14628 180.682ZM37.2286 194.008L37.4114 174.625L37.2286 151.79H43.0434L42.8011 170.446L43.0434 193.947L37.2286 194.008ZM75.4503 193.947L75.5714 156.635L63.76 156.817V151.79H92.9554V156.817L81.0834 156.635L81.2046 193.947H75.4503ZM108.183 194.735C104.751 194.735 102.046 193.987 100.066 192.494C98.0891 191 96.6743 188.88 95.8263 186.134C95.0194 183.387 94.6149 180.097 94.6149 176.261C94.6149 172.465 95.0194 169.194 95.8263 166.448C96.6743 163.702 98.0891 161.582 100.066 160.088C102.046 158.594 104.752 157.847 108.183 157.847C111.616 157.847 114.321 158.594 116.299 160.088C118.279 161.582 119.671 163.702 120.479 166.448C121.327 169.194 121.751 172.485 121.751 176.321C121.751 180.117 121.328 183.387 120.479 186.134C119.672 188.88 118.279 191 116.299 192.494C114.322 193.987 111.616 194.735 108.183 194.735ZM108.183 189.95C109.678 189.95 110.909 189.768 111.878 189.405C112.869 189.056 113.705 188.37 114.24 187.466C114.846 186.497 115.27 185.123 115.512 183.347C115.795 181.53 115.936 179.168 115.936 176.261C115.936 173.393 115.795 171.072 115.513 169.295C115.27 167.478 114.846 166.085 114.24 165.115C113.675 164.146 112.888 163.501 111.878 163.177C110.869 162.814 109.638 162.632 108.183 162.632C106.689 162.632 105.438 162.814 104.427 163.177C103.458 163.501 102.671 164.146 102.065 165.115C101.459 166.085 101.016 167.478 100.733 169.295C100.49 171.072 100.369 173.393 100.369 176.261C100.369 179.168 100.49 181.53 100.733 183.347C101.016 185.125 101.459 186.497 102.065 187.466C102.671 188.395 103.459 189.041 104.427 189.405C105.438 189.768 106.69 189.95 108.183 189.95ZM143.378 194.735C139.946 194.735 137.241 193.987 135.262 192.494C133.285 191 131.87 188.88 131.022 186.134C130.215 183.387 129.81 180.097 129.81 176.261C129.81 172.465 130.215 169.194 131.022 166.448C131.87 163.702 133.285 161.582 135.262 160.088C137.241 158.594 139.947 157.847 143.378 157.847C146.811 157.847 149.517 158.594 151.495 160.088C153.474 161.582 154.866 163.702 155.674 166.448C156.522 169.194 156.946 172.485 156.946 176.321C156.946 180.117 156.523 183.387 155.674 186.134C154.867 188.88 153.474 191 151.495 192.494C149.517 193.987 146.811 194.735 143.378 194.735ZM143.378 189.95C144.873 189.95 146.104 189.768 147.073 189.405C148.064 189.056 148.9 188.37 149.435 187.466C150.041 186.497 150.465 185.123 150.707 183.347C150.991 181.53 151.131 179.168 151.131 176.261C151.131 173.393 150.991 171.072 150.709 169.295C150.465 167.478 150.041 166.085 149.435 165.115C148.871 164.146 148.083 163.501 147.073 163.177C146.064 162.814 144.833 162.632 143.378 162.632C141.885 162.632 140.633 162.814 139.623 163.177C138.654 163.501 137.866 164.146 137.261 165.115C136.655 166.085 136.211 167.478 135.928 169.295C135.686 171.072 135.565 173.393 135.565 176.261C135.565 179.168 135.686 181.53 135.928 183.347C136.211 185.125 136.655 186.497 137.261 187.466C137.866 188.395 138.655 189.041 139.623 189.405C140.633 189.768 141.886 189.95 143.378 189.95ZM167.065 193.947V148.277H172.759V193.947H167.065ZM194.074 194.735C192.567 194.742 191.063 194.58 189.592 194.25C188.278 193.994 186.983 193.65 185.715 193.221C184.584 192.817 183.696 192.473 183.05 192.191L182.081 191.706L183.535 186.982L184.504 187.406C185.363 187.773 186.231 188.116 187.109 188.435C188.293 188.866 189.508 189.21 190.743 189.465C192.118 189.748 193.518 189.89 194.922 189.889C195.689 189.889 196.397 189.829 197.042 189.707C197.688 189.546 198.214 189.304 198.617 188.981C199.021 188.577 199.384 188.011 199.707 187.285C200.071 186.518 200.253 185.609 200.253 184.559C200.253 182.984 199.849 181.773 199.041 180.925C198.274 180.077 197.264 179.431 196.013 178.986C194.687 178.479 193.332 178.054 191.954 177.714C190.783 177.351 189.611 176.967 188.441 176.563C187.314 176.182 186.252 175.631 185.291 174.928C184.362 174.201 183.616 173.253 183.05 172.081C182.485 170.91 182.202 169.416 182.202 167.599C182.202 164.65 183.111 162.289 184.928 160.512C186.745 158.735 189.774 157.847 194.014 157.847C195.467 157.847 196.859 157.947 198.193 158.15C199.394 158.319 200.586 158.542 201.767 158.816C202.817 159.018 203.605 159.219 204.129 159.422L203.221 164.086L202.373 163.904C201.807 163.743 201.04 163.581 200.071 163.419C198.99 163.201 197.898 163.039 196.8 162.935C195.589 162.774 194.337 162.693 193.045 162.693C191.873 162.693 190.945 162.773 190.258 162.935C189.613 163.056 189.107 163.238 188.744 163.48C188.421 163.762 188.138 164.186 187.896 164.752C187.694 165.318 187.593 166.003 187.593 166.811C187.593 168.346 188.038 169.517 188.926 170.325C189.814 171.133 190.965 171.758 192.377 172.202C193.792 172.647 195.265 173.09 196.8 173.535C197.913 173.852 199.005 174.236 200.071 174.686C201.119 175.129 202.098 175.721 202.978 176.442C203.866 177.169 204.553 178.118 205.038 179.289C205.522 180.421 205.765 181.854 205.765 183.59C205.765 186.901 204.755 189.586 202.736 191.646C200.758 193.705 197.871 194.735 194.074 194.735Z" fill="black"/>
</svg>
