<svg width="95" height="16" viewBox="0 0 95 16" fill="none" xmlns="http://www.w3.org/2000/svg">
<path d="M5.30629 1.63177L1.54057 11.9998H0L4.336 0.624912H5.328L5.30514 1.63177H5.30629ZM8.46057 11.9998L4.688 1.63063L4.66514 0.623769H5.65714L10.0091 11.9998H8.46171H8.46057ZM8.26628 7.78834V9.02263H1.87543V7.78834H8.26628ZM13.2971 11.1243L15.648 3.5472H17.1954L13.8057 13.3026C13.7173 13.5335 13.6131 13.7581 13.4937 13.9746C13.3636 14.227 13.2007 14.461 13.0091 14.6706C12.806 14.8927 12.5614 15.0728 12.2891 15.2009C11.9803 15.3489 11.6407 15.4213 11.2983 15.4123C11.184 15.4123 11.0377 15.3963 10.8606 15.3655C10.6834 15.3346 10.5589 15.3083 10.4857 15.2878L10.4777 14.1152C10.5423 14.1224 10.6071 14.1278 10.672 14.1312C11.0201 14.1701 11.3725 14.1298 11.7029 14.0135C11.9337 13.9301 12.1257 13.7872 12.2823 13.5838C12.4434 13.3861 12.5817 13.1129 12.696 12.7643L13.2983 11.1232L13.2971 11.1243ZM11.5703 3.5472L13.7646 10.1083L14.1406 11.6318L13.1006 12.1632L9.992 3.54605H11.5691L11.5703 3.5472ZM21.8994 12.1541C21.3109 12.1541 20.7771 12.0558 20.2983 11.8569C19.8347 11.6616 19.4167 11.372 19.0709 11.0066C18.726 10.6312 18.4605 10.19 18.2903 9.70948C18.1074 9.20891 18.016 8.66263 18.016 8.06834V7.74034C18.016 7.05348 18.1189 6.44091 18.3211 5.90491C18.5246 5.3632 18.8011 4.90491 19.1497 4.53006C19.4983 4.15405 19.8937 3.87063 20.3371 3.67748C20.7794 3.48548 21.2377 3.38834 21.712 3.38834C22.3166 3.38834 22.8366 3.49348 23.2743 3.70148C23.7177 3.90948 24.0789 4.20091 24.36 4.57691C24.6411 4.94605 24.8503 5.38377 24.9851 5.88891C25.1252 6.42456 25.1936 6.97642 25.1886 7.53006V8.1792H18.8766V6.99977H23.7429V6.89005C23.7221 6.51551 23.6431 6.1465 23.5086 5.79634C23.3856 5.45208 23.1692 5.14892 22.8834 4.92091C22.5977 4.69234 22.2069 4.57805 21.712 4.57805C21.3965 4.57491 21.0848 4.64772 20.8034 4.79034C20.5219 4.93296 20.2789 5.1412 20.0949 5.39748C19.8832 5.6979 19.7272 6.0339 19.6343 6.38948C19.5184 6.8306 19.463 7.28544 19.4697 7.74148V8.06948C19.4697 8.47063 19.5246 8.84891 19.6343 9.20205C19.7486 9.55177 19.912 9.8592 20.1257 10.1243C20.3451 10.3895 20.608 10.5986 20.9143 10.7495C21.2467 10.9048 21.6103 10.9822 21.9771 10.9758C22.488 10.9758 22.92 10.8718 23.2743 10.6638C23.6286 10.4546 23.9383 10.1769 24.2046 9.8272L25.0789 10.5232C24.8825 10.8152 24.6489 11.0803 24.384 11.3118C24.0774 11.5766 23.7249 11.783 23.344 11.9209C22.9394 12.0775 22.4571 12.1563 21.9006 12.1563L21.8994 12.1541ZM31.7977 9.75634C31.7977 9.5472 31.752 9.3552 31.6571 9.17805C31.5691 8.9952 31.3829 8.83177 31.1029 8.68663C30.8263 8.53463 30.4103 8.40434 29.8526 8.29463C29.384 8.19634 28.9589 8.07863 28.5794 7.94377C28.2376 7.82575 27.9141 7.66033 27.6183 7.45234C27.3698 7.27273 27.1645 7.04005 27.0171 6.7712C26.8711 6.48898 26.7984 6.17458 26.8057 5.85691C26.8057 5.52434 26.8789 5.20891 27.024 4.91177C27.176 4.61463 27.3863 4.35177 27.6571 4.1232C27.9337 3.89463 28.264 3.71406 28.6491 3.58377C29.0354 3.45348 29.464 3.38948 29.9383 3.38948C30.616 3.38948 31.1943 3.50834 31.6731 3.74834C32.1531 3.98834 32.5189 4.30834 32.7749 4.70834C33.0297 5.10491 33.1577 5.54491 33.1577 6.02948H31.712C31.712 5.7952 31.6411 5.56891 31.5006 5.34948C31.3532 5.11445 31.1456 4.92309 30.8994 4.7952C30.6389 4.64891 30.3189 4.57691 29.9394 4.57691C29.5371 4.57691 29.2114 4.63863 28.9623 4.76434C28.7419 4.86274 28.5546 5.02266 28.4229 5.22491C28.3321 5.37655 28.2772 5.54691 28.2624 5.72299C28.2475 5.89907 28.2731 6.07622 28.3371 6.24091C28.4073 6.3755 28.5093 6.49086 28.6343 6.57691C28.7749 6.6752 28.9726 6.76891 29.2286 6.85806C29.4823 6.94605 29.808 7.0352 30.2046 7.1232C30.8971 7.27977 31.4674 7.46605 31.9154 7.68548C32.3634 7.90491 32.696 8.17234 32.9154 8.49005C33.1337 8.80777 33.2434 9.19406 33.2434 9.64663C33.2455 9.99788 33.1653 10.3447 33.0093 10.6595C32.8533 10.9742 32.6259 11.2481 32.3451 11.4592C32.0341 11.6903 31.6847 11.8647 31.3131 11.9746C30.8791 12.1004 30.429 12.1616 29.9771 12.1563C29.2331 12.1563 28.6023 12.0238 28.0869 11.7586C27.5714 11.4923 27.1806 11.1495 26.9154 10.7266C26.6491 10.3049 26.5166 9.86034 26.5166 9.39063H27.9703C27.9909 9.7872 28.1051 10.1026 28.3131 10.3369C28.5223 10.5655 28.7771 10.7301 29.0789 10.8283C29.3817 10.9221 29.6811 10.9689 29.9771 10.9689C30.3737 10.9689 30.704 10.9175 30.9703 10.8135C31.2411 10.7083 31.4469 10.5655 31.5874 10.3838C31.728 10.2009 31.7977 9.99291 31.7977 9.75863V9.75634ZM36.5874 -0.000231743V11.9998H35.1417V-0.000231743H36.5874ZM36.2434 7.45234L35.6411 7.42948C35.6469 6.8512 35.7326 6.31748 35.8994 5.8272C36.0663 5.33234 36.2994 4.90263 36.6023 4.53805C36.9017 4.17213 37.28 3.87871 37.7089 3.6798C38.1378 3.48088 38.6061 3.38163 39.0789 3.38948C39.496 3.38948 39.8709 3.44663 40.2046 3.56091C40.5371 3.67177 40.8217 3.84891 41.056 4.09348C41.296 4.33805 41.4777 4.65577 41.6023 5.04663C41.728 5.43177 41.7897 5.90377 41.7897 6.46034V11.9998H40.3371V6.44548C40.3371 6.00205 40.272 5.64777 40.1417 5.38263C40.0259 5.12626 39.8236 4.91874 39.5703 4.79634C39.3211 4.67063 39.0137 4.60891 38.6491 4.60891C38.2903 4.60891 37.9623 4.68434 37.6651 4.8352C37.3714 4.98798 37.1132 5.201 36.9074 5.46034C36.6941 5.73577 36.528 6.04474 36.416 6.37463C36.3006 6.71291 36.2434 7.07177 36.2434 7.45234ZM48.9383 10.5541V6.20205C48.9383 5.86948 48.8709 5.58034 48.7349 5.33577C48.6035 5.08457 48.3953 4.88194 48.1406 4.75748C47.8766 4.62148 47.5474 4.55406 47.1577 4.55406C46.792 4.55406 46.472 4.61691 46.1966 4.74148C45.9463 4.85063 45.7266 5.01934 45.5566 5.23291C45.4103 5.42085 45.3303 5.65191 45.3291 5.89005H43.8834C43.8834 5.58834 43.9623 5.28891 44.1177 4.99177C44.2854 4.68118 44.514 4.40755 44.7897 4.1872C45.0869 3.94263 45.4411 3.74948 45.8526 3.60891C46.2697 3.46263 46.7326 3.38948 47.2434 3.38948C47.8583 3.38948 48.4 3.49463 48.8686 3.70263C49.3259 3.89712 49.7128 4.22695 49.9771 4.64777C50.248 5.06491 50.384 5.58834 50.384 6.21805V10.1563C50.384 10.4386 50.4069 10.7381 50.4537 11.0558C50.5063 11.3735 50.5817 11.6466 50.6811 11.8752V12.0009H49.1726C49.0994 11.8341 49.0423 11.6123 49.0011 11.3369C48.9611 11.0782 48.9401 10.8158 48.9383 10.5541ZM49.1886 6.87405L49.2046 7.89005H47.7429C47.3314 7.89005 46.9646 7.92434 46.6411 7.99177C46.3561 8.04084 46.0816 8.13865 45.8297 8.28091C45.6231 8.39864 45.4507 8.56797 45.3291 8.77234C45.2149 8.96663 45.1577 9.19177 45.1577 9.45234C45.1577 9.71863 45.2171 9.96091 45.3371 10.1792C45.4571 10.3975 45.6366 10.5723 45.8766 10.7026C46.1211 10.8283 46.4206 10.8901 46.7749 10.8901C47.2171 10.8901 47.608 10.7963 47.9463 10.6089C48.2846 10.4215 48.5531 10.1918 48.7509 9.92091C48.9543 9.65005 49.064 9.3872 49.0789 9.13234L49.696 9.8272C49.6436 10.086 49.5428 10.3326 49.3989 10.5541C49.0184 11.163 48.4598 11.6402 47.7989 11.9209C47.4077 12.0823 46.9877 12.162 46.5646 12.1552C45.992 12.1552 45.4891 12.0432 45.056 11.8192C44.6495 11.6133 44.3049 11.3033 44.0571 10.9209C43.8219 10.5383 43.6998 10.0969 43.7051 9.64777C43.7051 9.1952 43.7943 8.79634 43.9714 8.45234C44.1486 8.10377 44.4034 7.81463 44.7371 7.58491C45.0697 7.35063 45.4709 7.17348 45.9394 7.05463C46.408 6.93463 46.9314 6.87405 47.5097 6.87405H49.1886ZM58.4617 0.624912V11.9998H56.9531V0.624912H58.4617ZM62.4389 -0.000231743V11.9998H60.9851V-0.000231743H62.4389ZM67.6023 3.54605L63.9154 7.4912L61.8526 9.63177L61.7349 8.09348L63.2114 6.32777L65.8366 3.54605H67.6023ZM66.2823 11.9998L63.2663 7.96777L64.0171 6.67863L67.9851 11.9998H66.2823ZM70.5406 4.87405V11.9998H69.0949V3.54605H70.5006L70.5406 4.87405ZM73.1806 3.4992L73.1726 4.8432C73.0598 4.81812 72.9451 4.80245 72.8297 4.79634C72.7246 4.78491 72.6057 4.78034 72.4697 4.78034C72.136 4.78034 71.8411 4.83291 71.5874 4.93691C71.342 5.03424 71.1205 5.18357 70.9383 5.37463C70.7564 5.56987 70.6133 5.79792 70.5166 6.04663C70.4142 6.31777 70.3489 6.60147 70.3223 6.89005L69.9154 7.12434C69.9154 6.61348 69.9646 6.13463 70.064 5.68663C70.1669 5.23863 70.3269 4.8432 70.5406 4.4992C70.7531 4.15063 71.024 3.87977 71.352 3.68777C71.6857 3.48891 72.0823 3.39063 72.5406 3.39063C72.6434 3.39063 72.7646 3.40205 72.8994 3.42948C72.9959 3.43984 73.0905 3.46329 73.1806 3.4992ZM79.1886 10.5541V6.20205C79.1886 5.86948 79.12 5.58034 78.9851 5.33577C78.8538 5.08457 78.6456 4.88194 78.3909 4.75748C78.1257 4.62148 77.7977 4.55406 77.408 4.55406C77.0423 4.55406 76.7223 4.61691 76.4469 4.74148C76.1962 4.85047 75.9761 5.01919 75.8057 5.23291C75.6599 5.421 75.5803 5.65204 75.5794 5.89005H74.1337C74.1337 5.58834 74.2114 5.28891 74.368 4.99177C74.5357 4.68118 74.7643 4.40755 75.04 4.1872C75.3371 3.94263 75.6914 3.74948 76.1029 3.60891C76.5189 3.46263 76.9828 3.38948 77.4937 3.38948C78.1074 3.38948 78.6491 3.49463 79.1177 3.70263C79.5755 3.89693 79.9627 4.22677 80.2274 4.64777C80.4983 5.06491 80.6343 5.58834 80.6343 6.21805V10.1563C80.6343 10.4386 80.6571 10.7381 80.704 11.0558C80.7566 11.3735 80.832 11.6466 80.9303 11.8752V12.0009H79.4229C79.3497 11.8341 79.2926 11.6123 79.2514 11.3369C79.2114 11.0782 79.1904 10.8158 79.1886 10.5541ZM79.4389 6.87405L79.4537 7.89005H77.9931C77.5817 7.89005 77.2149 7.92434 76.8914 7.99177C76.6064 8.04084 76.3319 8.13865 76.08 8.28091C75.8734 8.39864 75.7009 8.56797 75.5794 8.77234C75.4651 8.96663 75.408 9.19177 75.408 9.45234C75.408 9.71863 75.4674 9.96091 75.5874 10.1792C75.7063 10.3975 75.8869 10.5723 76.1257 10.7026C76.3703 10.8283 76.6709 10.8901 77.024 10.8901C77.4674 10.8901 77.8583 10.7963 78.1966 10.6089C78.5349 10.4215 78.8023 10.1918 79.0011 9.92091C79.2046 9.65005 79.3131 9.3872 79.3291 9.13234L79.9463 9.8272C79.8939 10.086 79.793 10.3326 79.6491 10.5541C79.2684 11.1632 78.7094 11.6404 78.048 11.9209C77.6568 12.0823 77.2368 12.162 76.8137 12.1552C76.2411 12.1552 75.7383 12.0432 75.3051 11.8192C74.8987 11.6133 74.554 11.3033 74.3063 10.9209C74.071 10.5383 73.949 10.0969 73.9543 9.64777C73.9543 9.1952 74.0423 8.79634 74.2194 8.45234C74.3966 8.10377 74.6526 7.81463 74.9851 7.58491C75.3189 7.35063 75.72 7.17348 76.1886 7.05463C76.6571 6.93463 77.1806 6.87405 77.7589 6.87405H79.4389ZM84.3451 5.22605V11.9998H82.8914V3.54605H84.2663L84.3451 5.22605ZM84.048 7.45234L83.376 7.42948C83.3817 6.8512 83.456 6.31748 83.6023 5.8272C83.7486 5.33234 83.9646 4.90263 84.2514 4.53805C84.5371 4.17348 84.8937 3.89234 85.3211 3.69462C85.7486 3.4912 86.2434 3.38948 86.8057 3.38948C87.2011 3.38948 87.5657 3.44663 87.8994 3.56091C88.2331 3.67177 88.5223 3.84663 88.7669 4.08548C89.0114 4.32548 89.2011 4.63177 89.3371 5.00777C89.472 5.38263 89.5406 5.8352 89.5406 6.36663V11.9998H88.0948V6.43748C88.0948 5.99405 88.0194 5.63977 87.8686 5.37463C87.7223 5.10834 87.5143 4.91634 87.2434 4.79634C86.9726 4.67063 86.6549 4.60891 86.2903 4.60891C85.8629 4.60891 85.5063 4.68434 85.2194 4.8352C84.9399 4.98022 84.7032 5.19571 84.5326 5.46034C84.3547 5.74061 84.2278 6.05015 84.1577 6.37463C84.0831 6.72896 84.0463 7.09023 84.048 7.45234ZM89.5246 6.65577L88.5554 6.95291C88.5611 6.48891 88.6354 6.0432 88.7817 5.61577C88.9337 5.18948 89.1497 4.80891 89.4308 4.47634C89.7166 4.14263 90.0686 3.87977 90.4857 3.68777C90.9017 3.48891 91.3783 3.39063 91.9143 3.39063C92.368 3.39063 92.7691 3.45006 93.1177 3.57006C93.472 3.69005 93.7691 3.87405 94.0091 4.12434C94.2537 4.36891 94.4389 4.68434 94.5634 5.06948C94.6891 5.45463 94.7509 5.91405 94.7509 6.44434V11.9986H93.2983V6.43063C93.2983 5.95634 93.2229 5.58948 93.0709 5.32891C92.9257 5.06263 92.7166 4.87863 92.4469 4.77348C92.1806 4.66491 91.864 4.61005 91.4937 4.61005C91.176 4.61005 90.8937 4.66491 90.6491 4.77348C90.4123 4.87712 90.2015 5.03209 90.032 5.2272C89.8641 5.41671 89.7341 5.63669 89.6491 5.8752C89.5644 6.12705 89.5219 6.39119 89.5234 6.65691L89.5246 6.65577Z" fill="black"/>
</svg>
